<svg width="40" height="44" viewBox="0 0 40 44" fill="none" xmlns="http://www.w3.org/2000/svg">
<path d="M38.4784 16.0633H35.8561V15.7688C35.8561 15.0358 35.2597 14.4395 34.5267 14.4395H29.3548C28.9983 14.4395 28.7093 14.7284 28.7093 15.0849C28.7093 15.4414 28.9983 15.7303 29.3548 15.7303H34.5267C34.5479 15.7303 34.5652 15.7475 34.5652 15.7688V23.6386C34.5652 23.9952 34.8542 24.2841 35.2107 24.2841C35.5671 24.2841 35.8561 23.9952 35.8561 23.6386V17.3542H38.4784C38.5657 17.3542 38.6367 17.4252 38.6367 17.5124V40.0305C38.6367 41.5075 37.435 42.7092 35.958 42.7092H4.03889C2.56186 42.7092 1.36022 41.5075 1.36022 40.0305V17.5124C1.36022 17.4252 1.43122 17.3542 1.51848 17.3542H4.22685V39.4294C4.22685 40.3396 4.9673 41.0801 5.87754 41.0801H34.2053C35.1156 41.0801 35.856 40.3397 35.856 39.4294V26.3916C35.856 26.035 35.567 25.7461 35.2106 25.7461C34.8541 25.7461 34.5651 26.035 34.5651 26.3916V35.68H24.1224C22.7699 35.68 21.5492 36.252 20.6869 37.1656V28.8166C20.6869 28.46 20.3979 28.1711 20.0415 28.1711C19.685 28.1711 19.396 28.46 19.396 28.8166V37.1657C18.5337 36.2521 17.313 35.6801 15.9606 35.6801H13.0277C12.6712 35.6801 12.3822 35.969 12.3822 36.3256C12.3822 36.6821 12.6712 36.971 13.0277 36.971H15.9606C17.6441 36.971 19.0478 38.1886 19.3395 39.7893H5.87754C5.78214 39.7892 5.69068 39.7512 5.62322 39.6838C5.55576 39.6163 5.51782 39.5248 5.51773 39.4294V36.971H10.2746C10.6311 36.971 10.9201 36.6821 10.9201 36.3256C10.9201 35.969 10.6311 35.6801 10.2746 35.6801H5.51773V15.7688C5.51773 15.7475 5.53503 15.7303 5.55629 15.7303H10.7282C11.0846 15.7303 11.3736 15.4414 11.3736 15.0849C11.3736 14.7284 11.0846 14.4395 10.7282 14.4395H5.55629C4.82324 14.4395 4.22685 15.0358 4.22685 15.7688V16.0633H1.51848C0.719426 16.0633 0.0693359 16.7134 0.0693359 17.5124V40.0305C0.0693359 42.2193 1.85007 44 4.03889 44H35.9578C38.1467 44 39.9274 42.2193 39.9274 40.0305V17.5124C39.9275 16.7134 39.2775 16.0633 38.4784 16.0633ZM24.1224 36.9709H34.5651V39.4294C34.5651 39.5248 34.5271 39.6163 34.4597 39.6838C34.3922 39.7512 34.3007 39.7892 34.2053 39.7893H20.7436C21.0352 38.1886 22.4388 36.9709 24.1224 36.9709Z" fill="white"/>
<path d="M11.4355 9.05608C11.7898 9.08895 12.1053 8.82897 12.1387 8.47406C12.3233 6.51673 13.2271 4.7045 14.6839 3.37128C16.1498 2.02979 18.0523 1.29089 20.0411 1.29089C24.4183 1.29089 27.9794 4.85201 27.9794 9.22914C27.9794 10.8762 27.4795 12.4558 26.5338 13.7972C26.5285 13.8048 26.5233 13.8125 26.5182 13.8203L22.3879 20.2505C22.3211 20.3545 22.2855 20.4756 22.2855 20.5993V21.4355C22.2854 21.5171 22.253 21.5953 22.1953 21.653C22.1376 21.7107 22.0594 21.7432 21.9778 21.7432H21.9356L22.3468 14.766H23.0821C24.1342 14.766 24.9902 13.9101 24.9902 12.858V12.7797C24.9902 11.7276 24.1342 10.8717 23.0821 10.8717C22.0734 10.8717 21.2367 11.6605 21.1773 12.6675L21.1297 13.4751H18.8663L18.8187 12.6675C18.7594 11.6605 17.9227 10.8717 16.914 10.8717C15.8618 10.8717 15.0059 11.7276 15.0059 12.7797V12.858C15.0059 13.9101 15.8618 14.766 16.914 14.766H17.6493L18.0602 21.7388C17.9116 21.7171 17.7967 21.5901 17.7967 21.4355V20.5993C17.7967 20.4757 17.7612 20.3546 17.6944 20.2505L13.564 13.8203C13.5589 13.8125 13.5538 13.8048 13.5485 13.7972C12.9567 12.9596 12.5345 12.0142 12.3056 11.0144C12.2672 10.8476 12.1642 10.7028 12.0191 10.612C11.874 10.5211 11.6988 10.4917 11.5319 10.53C11.3651 10.5684 11.2203 10.6714 11.1295 10.8165C11.0386 10.9616 11.0091 11.1368 11.0475 11.3037C11.3127 12.4621 11.8011 13.5577 12.4853 14.5293L16.506 20.7886V21.4353C16.506 22.087 16.8985 22.6481 17.4592 22.8967V23.9882C17.4592 25.1367 18.3935 26.0711 19.542 26.0711H20.5407C21.6891 26.0711 22.6236 25.1367 22.6236 23.9882V22.8967C23.1841 22.6481 23.5767 22.0871 23.5767 21.4353V20.7886L27.5973 14.5293C28.692 12.9716 29.2706 11.139 29.2706 9.22906C29.2702 4.14013 25.13 0 20.0411 0C17.7289 0 15.5168 0.859127 13.8124 2.41903C12.119 3.96896 11.0682 6.0762 10.8536 8.35289C10.8456 8.43728 10.8543 8.52241 10.8793 8.60343C10.9042 8.68445 10.9448 8.75976 10.9989 8.82506C11.0529 8.89037 11.1193 8.94438 11.1942 8.98402C11.2691 9.02366 11.3511 9.04814 11.4355 9.05608ZM22.466 12.7434C22.4754 12.5863 22.5444 12.4387 22.6589 12.3308C22.7734 12.2228 22.9247 12.1626 23.0821 12.1625C23.4224 12.1625 23.6993 12.4393 23.6993 12.7796V12.8579C23.6993 13.1982 23.4224 13.475 23.0821 13.475H22.4229L22.466 12.7434ZM16.914 13.475C16.5736 13.475 16.2968 13.1982 16.2968 12.8579V12.7796C16.2968 12.4393 16.5736 12.1625 16.914 12.1625C17.0713 12.1626 17.2227 12.2228 17.3372 12.3308C17.4517 12.4387 17.5207 12.5863 17.5301 12.7434L17.5732 13.475H16.914ZM21.0537 14.7659L20.6426 21.7432H19.3536L18.9425 14.7659H21.0537ZM21.3323 23.9883C21.3323 24.4249 20.9771 24.7803 20.5403 24.7803H19.5417C19.105 24.7803 18.7497 24.4249 18.7497 23.9883V23.034H21.3322V23.9883H21.3323ZM31.347 4.90115C31.5037 4.9013 31.655 4.84426 31.7726 4.74073L33.1809 3.50424C33.3081 3.39092 33.3854 3.23188 33.3958 3.06181C33.4063 2.89174 33.3491 2.72443 33.2366 2.59638C33.1242 2.46833 32.9657 2.38993 32.7957 2.37828C32.6258 2.36663 32.458 2.42267 32.3292 2.53418L30.9209 3.77068C30.8223 3.85727 30.7524 3.97187 30.7206 4.0992C30.6888 4.22653 30.6965 4.36053 30.7428 4.48334C30.7891 4.60615 30.8717 4.71194 30.9797 4.78658C31.0876 4.86123 31.2158 4.90119 31.347 4.90115ZM30.9209 8.79385L32.3292 10.0304C32.4468 10.134 32.5982 10.1911 32.7549 10.1909C32.8861 10.1909 33.0143 10.151 33.1222 10.0763C33.2302 10.0017 33.3128 9.8959 33.3591 9.77309C33.4054 9.65027 33.4132 9.51626 33.3814 9.38892C33.3495 9.26159 33.2797 9.14698 33.181 9.06038L31.7728 7.8238C31.7091 7.76786 31.635 7.72502 31.5547 7.69772C31.4745 7.67042 31.3896 7.6592 31.3051 7.66469C31.2205 7.67019 31.1378 7.6923 31.0618 7.72976C30.9857 7.76722 30.9178 7.81929 30.8619 7.88301C30.806 7.94668 30.7631 8.02076 30.7358 8.101C30.7085 8.18124 30.6972 8.26608 30.7027 8.35066C30.7082 8.43525 30.7303 8.51792 30.7677 8.59397C30.8052 8.67001 30.8572 8.73794 30.9209 8.79385ZM6.90126 3.50424L8.30953 4.74073C8.42709 4.84429 8.57843 4.90134 8.7351 4.90115C8.86634 4.90119 8.99448 4.86123 9.10243 4.78658C9.21038 4.71194 9.29301 4.60615 9.3393 4.48334C9.38559 4.36053 9.39333 4.22653 9.36151 4.0992C9.32968 3.97187 9.2598 3.85727 9.16117 3.77068L7.7529 2.53418C7.68922 2.47824 7.61513 2.4354 7.53489 2.4081C7.45464 2.3808 7.3698 2.36958 7.28521 2.37508C7.20063 2.38058 7.11795 2.40269 7.04191 2.44014C6.96588 2.4776 6.89796 2.52968 6.84205 2.59339C6.72912 2.72203 6.67192 2.89026 6.68302 3.06107C6.69413 3.23189 6.77263 3.3913 6.90126 3.50424ZM7.32734 10.1909C7.48402 10.191 7.63537 10.134 7.75299 10.0304L9.16126 8.79385C9.2899 8.68091 9.3684 8.52149 9.37949 8.35066C9.39059 8.17984 9.33337 8.0116 9.22043 7.88296C9.10748 7.75433 8.94806 7.67582 8.77723 7.66473C8.60641 7.65363 8.43817 7.71085 8.30953 7.8238L6.90126 9.06038C6.80264 9.14697 6.73275 9.26157 6.70093 9.3889C6.6691 9.51623 6.67685 9.65023 6.72314 9.77305C6.76943 9.89586 6.85206 10.0016 6.96001 10.0763C7.06796 10.1509 7.1961 10.1909 7.32734 10.1909ZM14.3305 22.3886C14.3305 22.2174 14.2625 22.0532 14.1414 21.9322C14.0204 21.8112 13.8562 21.7432 13.685 21.7432H7.32708C6.97063 21.7432 6.68164 22.0321 6.68164 22.3886C6.68164 22.7451 6.97063 23.034 7.32708 23.034H13.685C13.8562 23.034 14.0204 22.966 14.1414 22.845C14.2625 22.724 14.3305 22.5598 14.3305 22.3886ZM15.6513 25.0264H8.49301C8.13655 25.0264 7.84757 25.3153 7.84757 25.6718C7.84757 26.0284 8.13655 26.3173 8.49301 26.3173H15.6513C16.0078 26.3173 16.2968 26.0284 16.2968 25.6718C16.2968 25.3153 16.0078 25.0264 15.6513 25.0264ZM15.6513 28.1711H8.49301C8.13655 28.1711 7.84757 28.46 7.84757 28.8165C7.84757 29.1731 8.13655 29.462 8.49301 29.462H15.6513C16.0078 29.462 16.2968 29.1731 16.2968 28.8165C16.2968 28.46 16.0078 28.1711 15.6513 28.1711ZM15.6513 31.3158H8.49301C8.13655 31.3158 7.84757 31.6047 7.84757 31.9612C7.84757 32.3177 8.13655 32.6066 8.49301 32.6066H15.6513C16.0078 32.6066 16.2968 32.3177 16.2968 31.9612C16.2968 31.6047 16.0078 31.3158 15.6513 31.3158ZM33.4006 22.3886C33.4006 22.2174 33.3326 22.0532 33.2115 21.9322C33.0905 21.8112 32.9263 21.7432 32.7551 21.7432H26.3972C26.0407 21.7432 25.7517 22.0321 25.7517 22.3886C25.7517 22.7451 26.0407 23.034 26.3972 23.034H32.7551C32.9263 23.034 33.0905 22.966 33.2115 22.845C33.3326 22.724 33.4006 22.5598 33.4006 22.3886ZM31.5891 25.0264H24.4308C24.0743 25.0264 23.7854 25.3153 23.7854 25.6718C23.7854 26.0284 24.0743 26.3173 24.4308 26.3173H31.5891C31.9456 26.3173 32.2345 26.0284 32.2345 25.6718C32.2345 25.3153 31.9456 25.0264 31.5891 25.0264ZM31.5891 28.1711H24.4308C24.0743 28.1711 23.7854 28.46 23.7854 28.8165C23.7854 29.1731 24.0743 29.462 24.4308 29.462H31.5891C31.9456 29.462 32.2345 29.1731 32.2345 28.8165C32.2345 28.46 31.9456 28.1711 31.5891 28.1711ZM31.5891 31.3158H24.4308C24.0743 31.3158 23.7854 31.6047 23.7854 31.9612C23.7854 32.3177 24.0743 32.6066 24.4308 32.6066H31.5891C31.9456 32.6066 32.2345 32.3177 32.2345 31.9612C32.2345 31.6047 31.9456 31.3158 31.5891 31.3158Z" fill="white"/>
</svg>
