<svg width="18" height="18" viewBox="0 0 18 18" fill="none" xmlns="http://www.w3.org/2000/svg">
<path d="M5.66406 3.79175C5.3224 3.79175 5.03906 3.50841 5.03906 3.16675V0.666748C5.03906 0.325081 5.3224 0.041748 5.66406 0.041748C6.00573 0.041748 6.28906 0.325081 6.28906 0.666748V3.16675C6.28906 3.50841 6.00573 3.79175 5.66406 3.79175ZM12.3307 3.79175C11.9891 3.79175 11.7057 3.50841 11.7057 3.16675V0.666748C11.7057 0.325081 11.9891 0.041748 12.3307 0.041748C12.6724 0.041748 12.9557 0.325081 12.9557 0.666748V3.16675C12.9557 3.50841 12.6724 3.79175 12.3307 3.79175ZM6.08073 11.0834C5.9724 11.0834 5.86406 11.0584 5.76406 11.0167C5.65573 10.9751 5.5724 10.9167 5.48906 10.8417C5.33906 10.6834 5.2474 10.4751 5.2474 10.2501C5.2474 10.1417 5.2724 10.0334 5.31406 9.93342C5.35573 9.83342 5.41406 9.74175 5.48906 9.65841C5.5724 9.58342 5.65573 9.52508 5.76406 9.48341C6.06406 9.35841 6.43906 9.42508 6.6724 9.65841C6.8224 9.81675 6.91406 10.0334 6.91406 10.2501C6.91406 10.3001 6.90573 10.3584 6.8974 10.4167C6.88906 10.4667 6.8724 10.5167 6.8474 10.5667C6.83073 10.6167 6.80573 10.6667 6.7724 10.7167C6.7474 10.7584 6.70573 10.8001 6.6724 10.8417C6.51406 10.9917 6.2974 11.0834 6.08073 11.0834ZM8.9974 11.0834C8.88906 11.0834 8.78073 11.0584 8.68073 11.0167C8.5724 10.9751 8.48906 10.9167 8.40573 10.8417C8.25573 10.6834 8.16406 10.4751 8.16406 10.2501C8.16406 10.1417 8.18906 10.0334 8.23073 9.93342C8.2724 9.83342 8.33073 9.74175 8.40573 9.65841C8.48906 9.58342 8.5724 9.52508 8.68073 9.48341C8.98073 9.35008 9.35573 9.42508 9.58906 9.65841C9.73906 9.81675 9.83073 10.0334 9.83073 10.2501C9.83073 10.3001 9.8224 10.3584 9.81406 10.4167C9.80573 10.4667 9.78906 10.5167 9.76406 10.5667C9.7474 10.6167 9.7224 10.6667 9.68906 10.7167C9.66406 10.7584 9.6224 10.8001 9.58906 10.8417C9.43073 10.9917 9.21406 11.0834 8.9974 11.0834ZM11.9141 11.0834C11.8057 11.0834 11.6974 11.0584 11.5974 11.0167C11.4891 10.9751 11.4057 10.9167 11.3224 10.8417L11.2224 10.7167C11.1908 10.6703 11.1656 10.6199 11.1474 10.5667C11.1233 10.5195 11.1065 10.469 11.0974 10.4167C11.0891 10.3584 11.0807 10.3001 11.0807 10.2501C11.0807 10.0334 11.1724 9.81675 11.3224 9.65841C11.4057 9.58342 11.4891 9.52508 11.5974 9.48341C11.9057 9.35008 12.2724 9.42508 12.5057 9.65841C12.6557 9.81675 12.7474 10.0334 12.7474 10.2501C12.7474 10.3001 12.7391 10.3584 12.7307 10.4167C12.7224 10.4667 12.7057 10.5167 12.6807 10.5667C12.6641 10.6167 12.6391 10.6667 12.6057 10.7167C12.5807 10.7584 12.5391 10.8001 12.5057 10.8417C12.3474 10.9917 12.1307 11.0834 11.9141 11.0834ZM6.08073 14.0001C5.9724 14.0001 5.86406 13.9751 5.76406 13.9334C5.66406 13.8917 5.5724 13.8334 5.48906 13.7584C5.33906 13.6001 5.2474 13.3834 5.2474 13.1667C5.2474 13.0584 5.2724 12.9501 5.31406 12.8501C5.35573 12.7417 5.41406 12.6501 5.48906 12.5751C5.7974 12.2667 6.36406 12.2667 6.6724 12.5751C6.8224 12.7334 6.91406 12.9501 6.91406 13.1667C6.91406 13.3834 6.8224 13.6001 6.6724 13.7584C6.51406 13.9084 6.2974 14.0001 6.08073 14.0001ZM8.9974 14.0001C8.78073 14.0001 8.56406 13.9084 8.40573 13.7584C8.25573 13.6001 8.16406 13.3834 8.16406 13.1667C8.16406 13.0584 8.18906 12.9501 8.23073 12.8501C8.2724 12.7417 8.33073 12.6501 8.40573 12.5751C8.71406 12.2667 9.28073 12.2667 9.58906 12.5751C9.66406 12.6501 9.7224 12.7417 9.76406 12.8501C9.80573 12.9501 9.83073 13.0584 9.83073 13.1667C9.83073 13.3834 9.73906 13.6001 9.58906 13.7584C9.43073 13.9084 9.21406 14.0001 8.9974 14.0001ZM11.9141 14.0001C11.6974 14.0001 11.4807 13.9084 11.3224 13.7584C11.2453 13.6801 11.1856 13.5864 11.1474 13.4834C11.1057 13.3834 11.0807 13.2751 11.0807 13.1667C11.0807 13.0584 11.1057 12.9501 11.1474 12.8501C11.1891 12.7417 11.2474 12.6501 11.3224 12.5751C11.5141 12.3834 11.8057 12.2917 12.0724 12.3501C12.1307 12.3584 12.1807 12.3751 12.2307 12.4001C12.2807 12.4167 12.3307 12.4417 12.3807 12.4751C12.4224 12.5001 12.4641 12.5417 12.5057 12.5751C12.6557 12.7334 12.7474 12.9501 12.7474 13.1667C12.7474 13.3834 12.6557 13.6001 12.5057 13.7584C12.3474 13.9084 12.1307 14.0001 11.9141 14.0001ZM16.0807 7.20008H1.91406C1.5724 7.20008 1.28906 6.91675 1.28906 6.57508C1.28906 6.23342 1.5724 5.95008 1.91406 5.95008H16.0807C16.4224 5.95008 16.7057 6.23342 16.7057 6.57508C16.7057 6.91675 16.4224 7.20008 16.0807 7.20008Z" fill="#5B3AEE"/>
<path d="M12.3333 17.9584H5.66667C2.625 17.9584 0.875 16.2084 0.875 13.1667V6.08342C0.875 3.04175 2.625 1.29175 5.66667 1.29175H12.3333C15.375 1.29175 17.125 3.04175 17.125 6.08342V13.1667C17.125 16.2084 15.375 17.9584 12.3333 17.9584ZM5.66667 2.54175C3.28333 2.54175 2.125 3.70008 2.125 6.08342V13.1667C2.125 15.5501 3.28333 16.7084 5.66667 16.7084H12.3333C14.7167 16.7084 15.875 15.5501 15.875 13.1667V6.08342C15.875 3.70008 14.7167 2.54175 12.3333 2.54175H5.66667Z" fill="#5B3AEE"/>
</svg>
