<svg width="15" height="16" viewBox="0 0 15 16" fill="none" xmlns="http://www.w3.org/2000/svg">
<path d="M4.66406 3.573C4.37365 3.573 4.13281 3.33216 4.13281 3.04175V0.916748C4.13281 0.626331 4.37365 0.385498 4.66406 0.385498C4.95448 0.385498 5.19531 0.626331 5.19531 0.916748V3.04175C5.19531 3.33216 4.95448 3.573 4.66406 3.573ZM10.3307 3.573C10.0403 3.573 9.79948 3.33216 9.79948 3.04175V0.916748C9.79948 0.626331 10.0403 0.385498 10.3307 0.385498C10.6211 0.385498 10.862 0.626331 10.862 0.916748V3.04175C10.862 3.33216 10.6211 3.573 10.3307 3.573ZM5.01823 9.77092C4.92615 9.77092 4.83406 9.74967 4.74906 9.71425C4.65698 9.67883 4.58615 9.62925 4.51531 9.5655C4.38781 9.43091 4.3099 9.25383 4.3099 9.06258C4.3099 8.9705 4.33115 8.87842 4.36656 8.79342C4.40198 8.70842 4.45156 8.6305 4.51531 8.55966C4.58615 8.49592 4.65698 8.44633 4.74906 8.41092C5.00406 8.30467 5.32281 8.36133 5.52115 8.55966C5.64865 8.69425 5.72656 8.87842 5.72656 9.06258C5.72656 9.10508 5.71948 9.15466 5.7124 9.20425C5.70531 9.24675 5.69115 9.28925 5.6699 9.33175C5.65573 9.37425 5.63448 9.41675 5.60615 9.45925C5.5849 9.49467 5.54948 9.53008 5.52115 9.5655C5.38656 9.693 5.2024 9.77092 5.01823 9.77092ZM7.4974 9.77092C7.40531 9.77092 7.31323 9.74967 7.22823 9.71425C7.13615 9.67883 7.06531 9.62925 6.99448 9.5655C6.86698 9.43091 6.78906 9.25383 6.78906 9.06258C6.78906 8.9705 6.81031 8.87842 6.84573 8.79342C6.88115 8.70842 6.93073 8.6305 6.99448 8.55966C7.06531 8.49592 7.13615 8.44633 7.22823 8.41092C7.48323 8.29758 7.80198 8.36133 8.00031 8.55966C8.12781 8.69425 8.20573 8.87842 8.20573 9.06258C8.20573 9.10508 8.19865 9.15466 8.19156 9.20425C8.18448 9.24675 8.17031 9.28925 8.14906 9.33175C8.1349 9.37425 8.11365 9.41675 8.08531 9.45925C8.06406 9.49467 8.02865 9.53008 8.00031 9.5655C7.86573 9.693 7.68156 9.77092 7.4974 9.77092ZM9.97656 9.77092C9.88448 9.77092 9.7924 9.74967 9.7074 9.71425C9.61531 9.67883 9.54448 9.62925 9.47365 9.5655L9.38865 9.45925C9.36182 9.41978 9.34038 9.3769 9.3249 9.33175C9.30443 9.29161 9.29011 9.24863 9.2824 9.20425C9.27531 9.15466 9.26823 9.10508 9.26823 9.06258C9.26823 8.87842 9.34615 8.69425 9.47365 8.55966C9.54448 8.49592 9.61531 8.44633 9.7074 8.41092C9.96948 8.29758 10.2811 8.36133 10.4795 8.55966C10.607 8.69425 10.6849 8.87842 10.6849 9.06258C10.6849 9.10508 10.6778 9.15466 10.6707 9.20425C10.6636 9.24675 10.6495 9.28925 10.6282 9.33175C10.6141 9.37425 10.5928 9.41675 10.5645 9.45925C10.5432 9.49467 10.5078 9.53008 10.4795 9.5655C10.3449 9.693 10.1607 9.77092 9.97656 9.77092ZM5.01823 12.2501C4.92615 12.2501 4.83406 12.2288 4.74906 12.1934C4.66406 12.158 4.58615 12.1084 4.51531 12.0447C4.38781 11.9101 4.3099 11.7259 4.3099 11.5417C4.3099 11.4497 4.33115 11.3576 4.36656 11.2726C4.40198 11.1805 4.45156 11.1026 4.51531 11.0388C4.7774 10.7767 5.25906 10.7767 5.52115 11.0388C5.64865 11.1734 5.72656 11.3576 5.72656 11.5417C5.72656 11.7259 5.64865 11.9101 5.52115 12.0447C5.38656 12.1722 5.2024 12.2501 5.01823 12.2501ZM7.4974 12.2501C7.31323 12.2501 7.12906 12.1722 6.99448 12.0447C6.86698 11.9101 6.78906 11.7259 6.78906 11.5417C6.78906 11.4497 6.81031 11.3576 6.84573 11.2726C6.88115 11.1805 6.93073 11.1026 6.99448 11.0388C7.25656 10.7767 7.73823 10.7767 8.00031 11.0388C8.06406 11.1026 8.11365 11.1805 8.14906 11.2726C8.18448 11.3576 8.20573 11.4497 8.20573 11.5417C8.20573 11.7259 8.12781 11.9101 8.00031 12.0447C7.86573 12.1722 7.68156 12.2501 7.4974 12.2501ZM9.97656 12.2501C9.7924 12.2501 9.60823 12.1722 9.47365 12.0447C9.4081 11.9781 9.35741 11.8985 9.3249 11.8109C9.28948 11.7259 9.26823 11.6338 9.26823 11.5417C9.26823 11.4497 9.28948 11.3576 9.3249 11.2726C9.36031 11.1805 9.4099 11.1026 9.47365 11.0388C9.63656 10.8759 9.88448 10.798 10.1111 10.8476C10.1607 10.8547 10.2032 10.8688 10.2457 10.8901C10.2882 10.9042 10.3307 10.9255 10.3732 10.9538C10.4086 10.9751 10.4441 11.0105 10.4795 11.0388C10.607 11.1734 10.6849 11.3576 10.6849 11.5417C10.6849 11.7259 10.607 11.9101 10.4795 12.0447C10.3449 12.1722 10.1607 12.2501 9.97656 12.2501ZM13.5182 6.47008H1.47656C1.18615 6.47008 0.945312 6.22925 0.945312 5.93883C0.945312 5.64842 1.18615 5.40758 1.47656 5.40758H13.5182C13.8086 5.40758 14.0495 5.64842 14.0495 5.93883C14.0495 6.22925 13.8086 6.47008 13.5182 6.47008Z" fill="white"/>
<path d="M10.3333 15.6147H4.66667C2.08125 15.6147 0.59375 14.1272 0.59375 11.5417V5.52092C0.59375 2.9355 2.08125 1.448 4.66667 1.448H10.3333C12.9187 1.448 14.4062 2.9355 14.4062 5.52092V11.5417C14.4062 14.1272 12.9187 15.6147 10.3333 15.6147ZM4.66667 2.5105C2.64083 2.5105 1.65625 3.49508 1.65625 5.52092V11.5417C1.65625 13.5676 2.64083 14.5522 4.66667 14.5522H10.3333C12.3592 14.5522 13.3438 13.5676 13.3438 11.5417V5.52092C13.3438 3.49508 12.3592 2.5105 10.3333 2.5105H4.66667Z" fill="white"/>
</svg>
