<svg width="30" height="28" viewBox="0 0 30 28" fill="none" xmlns="http://www.w3.org/2000/svg">
<path d="M23.7891 0.816406H16.7578C13.3658 0.816406 10.6055 3.5767 10.6055 6.96875C10.6055 10.063 12.9015 12.631 15.8789 13.0585V15.7578C15.8788 15.9317 15.9303 16.1016 16.0268 16.2462C16.1234 16.3907 16.2607 16.5033 16.4214 16.5697C16.7456 16.705 17.1258 16.6325 17.3793 16.3792L20.6374 13.1211H23.7891C27.1811 13.1211 30 10.3608 30 6.96875C30 3.5767 27.1811 0.816406 23.7891 0.816406ZM16.7578 7.84754C16.2723 7.84754 15.8789 7.45402 15.8789 6.96863C15.8789 6.48324 16.2723 6.08973 16.7578 6.08973C17.2432 6.08973 17.6367 6.48324 17.6367 6.96863C17.6367 7.45402 17.2432 7.84754 16.7578 7.84754ZM20.2734 7.84754C19.7879 7.84754 19.3945 7.45402 19.3945 6.96863C19.3945 6.48324 19.7879 6.08973 20.2734 6.08973C20.7588 6.08973 21.1523 6.48324 21.1523 6.96863C21.1523 7.45402 20.7588 7.84754 20.2734 7.84754ZM23.7891 7.84754C23.3036 7.84754 22.9102 7.45402 22.9102 6.96863C22.9102 6.48324 23.3036 6.08973 23.7891 6.08973C24.2745 6.08973 24.668 6.48324 24.668 6.96863C24.668 7.45402 24.2745 7.84754 23.7891 7.84754Z" fill="white"/>
<path d="M19.7461 27.1836C21.2 27.1836 22.3828 26.0008 22.3828 24.5469V21.0312C22.3828 20.6527 22.1408 20.3171 21.782 20.1978L16.5209 18.44C16.2634 18.3533 15.9819 18.3928 15.7553 18.5421L13.5186 20.033C11.1496 18.9035 8.33871 16.0925 7.20914 13.7236L8.7 11.4868C8.77415 11.3754 8.82189 11.2485 8.83958 11.1158C8.85728 10.9831 8.84447 10.8482 8.80213 10.7212L7.04432 5.46014C6.98611 5.28516 6.87428 5.13295 6.72469 5.02512C6.5751 4.91728 6.39534 4.85929 6.21094 4.85938H2.63672C1.18277 4.85938 0 6.02979 0 7.48373C0 17.61 9.6198 27.1836 19.7461 27.1836Z" fill="white"/>
</svg>
