<svg width="17" height="17" viewBox="0 0 17 17" fill="none" xmlns="http://www.w3.org/2000/svg">
<g clip-path="url(#clip0_269_1701)">
<path d="M12.9894 13.6354H6.93871C6.06616 13.6354 5.2925 13.0682 5.05637 12.2557L3.01122 5.38995C2.93856 5.14134 2.69705 4.97072 2.42122 4.97072H0.818742C0.446713 4.97072 0.145996 4.67212 0.145996 4.30421C0.145996 3.93629 0.446713 3.6377 0.818742 3.6377H2.42122C3.29377 3.6377 4.06676 4.2049 4.30289 5.01737L4.68568 6.30374H14.9753C15.3951 6.30374 15.7934 6.50169 16.0403 6.83361C16.2852 7.16287 16.3558 7.57477 16.234 7.96402L14.8462 12.3283C14.5744 13.1161 13.8296 13.6354 12.9894 13.6354Z" fill="#241442"/>
<path d="M7.54617 16.9687C6.80414 16.9687 6.20068 16.3707 6.20068 15.6353C6.20068 14.9 6.80414 14.302 7.54617 14.302C8.28821 14.302 8.89167 14.9 8.89167 15.6353C8.89167 16.3707 8.28821 16.9687 7.54617 16.9687Z" fill="#241442"/>
<path d="M12.2556 16.9687C11.5136 16.9687 10.9102 16.3707 10.9102 15.6353C10.9102 14.9 11.5136 14.302 12.2556 14.302C12.9977 14.302 13.6011 14.9 13.6011 15.6353C13.6011 16.3707 12.9977 16.9687 12.2556 16.9687Z" fill="#241442"/>
</g>
<defs>
<clipPath id="clip0_269_1701">
<rect width="16.1459" height="15.9963" fill="white" transform="translate(0.145996 0.97168)"/>
</clipPath>
</defs>
</svg>
