<svg width="16" height="14" viewBox="0 0 16 14" fill="none" xmlns="http://www.w3.org/2000/svg">
<path d="M16 5.33241C16 3.89594 15.3103 2.55075 14.0578 1.54472C12.8303 0.558688 11.2032 0.015625 9.47625 0.015625C7.74934 0.015625 6.12219 0.558688 4.89466 1.54472C4.28606 2.03363 3.81078 2.60272 3.48247 3.22331C2.80144 3.44122 2.17525 3.77072 1.63956 4.20103C0.582312 5.05038 0 6.18713 0 7.402C0 8.50972 0.49 9.56172 1.38422 10.3832L1.29606 13.5852C1.29464 13.637 1.30363 13.6887 1.32249 13.737C1.34136 13.7853 1.36971 13.8294 1.40589 13.8666C1.44206 13.9038 1.48532 13.9334 1.53312 13.9536C1.58091 13.9738 1.63227 13.9842 1.68416 13.9842C1.78006 13.9842 1.87472 13.9487 1.948 13.8809L4.22903 11.7702C4.641 11.8491 5.06444 11.8891 5.49069 11.8891C6.91575 11.8891 8.26019 11.4483 9.28588 10.6469C9.34922 10.6483 9.41263 10.6493 9.47628 10.6493C10.1171 10.6493 10.7485 10.5741 11.3565 10.4254L13.3528 12.2728C13.409 12.3247 13.4791 12.3589 13.5546 12.3711C13.63 12.3833 13.7074 12.3729 13.777 12.3414C13.8466 12.3098 13.9054 12.2584 13.9459 12.1936C13.9864 12.1287 14.0069 12.0534 14.0048 11.977L13.9289 9.22047C15.248 8.21691 16 6.81044 16 5.33241ZM5.49072 11.1122C5.05172 11.1122 4.61653 11.0645 4.19737 10.9702C4.13595 10.9563 4.0721 10.9577 4.0113 10.974C3.95051 10.9904 3.89461 11.0213 3.84841 11.064L2.09781 12.684L2.16553 10.2233C2.16712 10.1653 2.15571 10.1077 2.13212 10.0547C2.10853 10.0017 2.07337 9.95463 2.02922 9.917C1.2215 9.22869 0.776656 8.33547 0.776656 7.40197C0.776656 6.04313 1.70978 4.85275 3.098 4.20641C3.00142 4.57394 2.95252 4.95237 2.9525 5.33238C2.9525 6.76884 3.64225 8.114 4.89466 9.12006C5.77466 9.82694 6.86 10.3061 8.04028 10.5208C7.30469 10.8946 6.42953 11.1122 5.49072 11.1122ZM13.3104 8.71109C13.2584 8.74803 13.2162 8.79723 13.1877 8.85435C13.1591 8.91147 13.1451 8.97474 13.1469 9.03856L13.2029 11.0758L11.7281 9.71109C11.6796 9.66625 11.6205 9.6345 11.5564 9.61885C11.4922 9.6032 11.4251 9.60417 11.3614 9.62166C10.7562 9.78809 10.1219 9.87247 9.47619 9.87247C6.30725 9.87247 3.72909 7.83578 3.72909 5.33234C3.72909 2.82891 6.30728 0.79225 9.47625 0.79225C12.6452 0.79225 15.2233 2.82894 15.2233 5.33238C15.2233 6.61741 14.5261 7.84891 13.3104 8.71109Z" fill="white"/>
<path d="M9.53019 4.17871C8.83425 4.17871 8.2681 4.74487 8.2681 5.4408C8.2681 6.13674 8.83425 6.7029 9.53019 6.7029C10.2261 6.7029 10.7923 6.13674 10.7923 5.4408C10.7923 4.74487 10.2261 4.17871 9.53019 4.17871ZM9.53019 5.92621C9.2625 5.92621 9.04479 5.70846 9.04479 5.4408C9.04479 5.17315 9.26253 4.9554 9.53019 4.9554C9.79788 4.9554 10.0156 5.17315 10.0156 5.4408C10.0156 5.70846 9.79788 5.92621 9.53019 5.92621ZM12.831 4.17871C12.1351 4.17871 11.5689 4.74487 11.5689 5.4408C11.5689 6.13674 12.1351 6.7029 12.831 6.7029C13.527 6.7029 14.0931 6.13674 14.0931 5.4408C14.0931 4.74487 13.527 4.17871 12.831 4.17871ZM12.831 5.92621C12.5633 5.92621 12.3456 5.70846 12.3456 5.4408C12.3456 5.17315 12.5634 4.9554 12.831 4.9554C13.0987 4.9554 13.3164 5.17315 13.3164 5.4408C13.3164 5.70846 13.0987 5.92621 12.831 5.92621ZM6.22938 4.17871C5.53347 4.17871 4.96729 4.74487 4.96729 5.4408C4.96729 6.13674 5.53347 6.7029 6.22938 6.7029C6.92525 6.7029 7.49147 6.13674 7.49147 5.4408C7.49147 4.74487 6.92532 4.17871 6.22938 4.17871ZM6.22938 5.92621C5.96169 5.92621 5.74397 5.70846 5.74397 5.4408C5.74397 5.17315 5.96172 4.9554 6.22938 4.9554C6.49707 4.9554 6.71479 5.17315 6.71479 5.4408C6.71479 5.70846 6.49707 5.92621 6.22938 5.92621Z" fill="white"/>
</svg>
