<svg width="16" height="14" viewBox="0 0 16 14" fill="none" xmlns="http://www.w3.org/2000/svg">
<path d="M7.38421 13.1797C7.34177 13.1797 7.29979 13.171 7.2609 13.1539C7.22202 13.1369 7.18708 13.1121 7.15827 13.0809L1.06637 6.49119C1.02576 6.44726 0.998834 6.39244 0.988895 6.33344C0.978956 6.27445 0.986431 6.21384 1.01041 6.15902C1.03438 6.10421 1.07382 6.05758 1.12388 6.02483C1.17395 5.99208 1.23248 5.97464 1.2923 5.97464H4.22461C4.26864 5.97464 4.31215 5.98409 4.35222 6.00234C4.39228 6.0206 4.42796 6.04723 4.45686 6.08045L6.4928 8.42273C6.71283 7.95239 7.13877 7.16925 7.88621 6.21497C8.9912 4.8042 11.0465 2.7294 14.563 0.85642C14.6309 0.820227 14.71 0.810833 14.7845 0.830094C14.8591 0.849355 14.9237 0.895871 14.9656 0.960456C15.0076 1.02504 15.0238 1.103 15.011 1.17894C14.9983 1.25488 14.9575 1.32328 14.8968 1.37064C14.8834 1.38113 13.5276 2.44882 11.9672 4.40448C10.5311 6.20417 8.62215 9.14694 7.6828 12.946C7.6663 13.0128 7.62792 13.0721 7.57378 13.1144C7.51964 13.1568 7.45287 13.1799 7.38412 13.1799L7.38421 13.1797Z" fill="#5B3AEE"/>
</svg>
