<svg width="16" height="17" viewBox="0 0 16 17" fill="none" xmlns="http://www.w3.org/2000/svg">
<path d="M10.8505 9.91291L8.61967 8.23979V4.8316C8.61967 4.48891 8.34266 4.21191 7.99998 4.21191C7.65729 4.21191 7.38029 4.48891 7.38029 4.8316V8.54966C7.38029 8.74485 7.47201 8.92892 7.62817 9.04541L10.1069 10.9044C10.2138 10.985 10.3441 11.0285 10.478 11.0284C10.667 11.0284 10.8529 10.9435 10.9744 10.7799C11.1802 10.5066 11.1244 10.118 10.8505 9.91291Z" fill="black"/>
<path d="M8 0.5C3.58853 0.5 0 4.08853 0 8.5C0 12.9115 3.58853 16.5 8 16.5C12.4115 16.5 16 12.9115 16 8.5C16 4.08853 12.4115 0.5 8 0.5ZM8 15.2607C4.27266 15.2607 1.23934 12.2273 1.23934 8.5C1.23934 4.77266 4.27266 1.73934 8 1.73934C11.728 1.73934 14.7607 4.77266 14.7607 8.5C14.7607 12.2273 11.7273 15.2607 8 15.2607Z" fill="black"/>
</svg>
