<svg width="16" height="16" viewBox="0 0 16 16" fill="none" xmlns="http://www.w3.org/2000/svg">
<path d="M8 16C12.4172 16 16 12.4172 16 8C16 3.58285 12.4172 0 8 0C3.58285 0 0 3.58285 0 8C0 12.4172 3.58285 16 8 16ZM7.42855 3.42858C7.42855 3.11428 7.6857 2.85713 8 2.85713C8.3143 2.85713 8.57145 3.11428 8.57145 3.42858V7.72572L11.2143 9.84001C11.46 10.0372 11.5 10.3971 11.3029 10.6429C11.1914 10.7829 11.0257 10.8571 10.8571 10.8571C10.7314 10.8571 10.6057 10.8171 10.5 10.7314L7.64288 8.44573C7.50859 8.33714 7.4286 8.1743 7.4286 8V3.42858H7.42855Z" fill="#F8CB1E"/>
</svg>
