<svg width="12" height="12" viewBox="0 0 12 12" fill="none" xmlns="http://www.w3.org/2000/svg">
<path d="M6.00002 0.300049C2.69162 0.300049 1.61253e-05 2.72245 1.61253e-05 5.70005C1.61253e-05 6.74085 0.329216 7.74905 0.953616 8.62085C0.835416 9.92825 0.518616 10.8988 0.0586161 11.3586C-0.00218387 11.4194 -0.0173839 11.5124 0.0210161 11.5892C0.0550161 11.6578 0.125016 11.7 0.200016 11.7C0.209216 11.7 0.218416 11.6994 0.227816 11.698C0.308816 11.6866 2.19042 11.4158 3.55142 10.6302C4.32422 10.942 5.14742 11.1 6.00002 11.1C9.30841 11.1 12 8.67765 12 5.70005C12 2.72245 9.30841 0.300049 6.00002 0.300049ZM3.20002 6.50005C2.75882 6.50005 2.40002 6.14125 2.40002 5.70005C2.40002 5.25885 2.75882 4.90005 3.20002 4.90005C3.64122 4.90005 4.00002 5.25885 4.00002 5.70005C4.00002 6.14125 3.64122 6.50005 3.20002 6.50005ZM6.00002 6.50005C5.55882 6.50005 5.20002 6.14125 5.20002 5.70005C5.20002 5.25885 5.55882 4.90005 6.00002 4.90005C6.44122 4.90005 6.80001 5.25885 6.80001 5.70005C6.80001 6.14125 6.44122 6.50005 6.00002 6.50005ZM8.80001 6.50005C8.35882 6.50005 8.00002 6.14125 8.00002 5.70005C8.00002 5.25885 8.35882 4.90005 8.80001 4.90005C9.24121 4.90005 9.60001 5.25885 9.60001 5.70005C9.60001 6.14125 9.24121 6.50005 8.80001 6.50005Z" fill="#5B3AEE"/>
</svg>
