<svg width="20" height="16" viewBox="0 0 20 16" fill="none" xmlns="http://www.w3.org/2000/svg">
<path d="M19.3356 4.54352L11.3631 0.648906C10.6758 0.305264 9.50745 0.305264 8.82016 0.648906L0.664376 4.54352C0.0916381 4.81844 0 5.2079 0 5.41408C0 5.62027 0.0916381 5.98682 0.664376 6.28464L1.32875 6.60538V10.2709C0.91638 10.4313 0.618557 10.8436 0.618557 11.3018C0.618557 11.76 0.91638 12.1724 1.30584 12.3328L0.274914 15.6088H3.16151L2.13058 12.3328C2.54296 12.1724 2.81787 11.76 2.81787 11.3018C2.81787 10.8207 2.52005 10.4313 2.10767 10.2709V6.99484L3.32188 7.59049V12.3557C3.32188 12.4244 3.34479 12.4931 3.39061 12.5618C3.50515 12.6993 5.63574 15.6088 9.98854 15.6088C14.3414 15.6088 16.4719 12.6764 16.5636 12.5618C16.6094 12.4931 16.6323 12.4244 16.6323 12.3557V7.6134L19.3356 6.28464C19.9084 6.00973 20 5.62027 20 5.41408C19.9771 5.2079 19.9084 4.81844 19.3356 4.54352ZM15.8992 12.2411C15.5326 12.6993 13.5624 14.8986 9.98854 14.8986C6.41466 14.8986 4.44444 12.6993 4.07789 12.2411V7.91122L8.82016 10.1793C9.1638 10.3396 9.62199 10.4313 10.0802 10.4313C10.5613 10.4313 11.0195 10.3396 11.3631 10.1564L15.8992 7.93413V12.2411ZM19.0149 5.64318L16.2658 6.99484C16.1512 6.99484 16.0596 7.04066 16.0137 7.1323L11.0424 9.53779C10.5613 9.7898 9.62199 9.7898 9.11798 9.53779L3.00115 6.60538L10.0344 5.78064C10.2405 5.75773 10.378 5.57445 10.3551 5.39117C10.3322 5.18499 10.1489 5.04753 9.96564 5.07044L1.80985 6.03264L0.985109 5.64318C0.778923 5.55154 0.733104 5.43699 0.733104 5.43699C0.733104 5.41408 0.778923 5.32245 0.985109 5.23081L9.14089 1.31328C9.3929 1.19873 9.73654 1.13001 10.0802 1.13001C10.4467 1.13001 10.8133 1.19873 11.0424 1.31328L19.0149 5.2079C19.2211 5.29954 19.2669 5.39117 19.2669 5.43699C19.2669 5.43699 19.1982 5.55154 19.0149 5.64318Z" fill="#241442"/>
</svg>
