<svg width="18" height="18" viewBox="0 0 18 18" fill="none" xmlns="http://www.w3.org/2000/svg">
<path d="M16.5927 13.6462C17.4506 12.2485 17.9037 10.64 17.9015 8.99999C17.9037 7.35989 17.4506 5.75117 16.5927 4.35339L16.5879 4.34559C15.7919 3.04823 14.6765 1.97667 13.3484 1.23331C12.0202 0.489941 10.5235 0.0996094 9.00147 0.0996094C7.4794 0.0996094 5.98277 0.489941 4.65458 1.23331C3.32639 1.97667 2.21102 3.04823 1.41507 4.34559L1.41027 4.35339C0.554447 5.7521 0.101562 7.36002 0.101562 8.99979C0.101562 10.6396 0.554447 12.2475 1.41027 13.6462L1.41527 13.6542C2.21125 14.9515 3.32662 16.023 4.6548 16.7663C5.98298 17.5096 7.47959 17.8999 9.00162 17.8999C10.5237 17.8999 12.0203 17.5095 13.3484 16.7662C14.6766 16.0228 15.7919 14.9513 16.5879 13.654L16.5927 13.6462ZM10.1391 16.3744C9.96944 16.5381 9.7742 16.6729 9.56107 16.7736C9.38618 16.8567 9.19499 16.8998 9.00137 16.8998C8.80774 16.8998 8.61655 16.8567 8.44167 16.7736C8.03618 16.5665 7.68907 16.261 7.43207 15.8852C6.90723 15.1267 6.51831 14.2827 6.28267 13.391C7.188 13.3353 8.09427 13.3069 9.00147 13.3058C9.90827 13.3058 10.8146 13.3342 11.7205 13.391C11.59 13.8495 11.4271 14.2981 11.2329 14.7334C10.9771 15.3456 10.6058 15.9028 10.1391 16.3744ZM1.11887 9.49979H4.70867C4.73206 10.5015 4.84065 11.4993 5.03327 12.4826C4.05193 12.569 3.07313 12.6877 2.09687 12.8386C1.52512 11.8129 1.1909 10.6719 1.11887 9.49979ZM2.09687 5.16119C3.07273 5.31239 4.05187 5.43105 5.03427 5.51719C4.84131 6.50034 4.73252 7.49815 4.70907 8.49979H1.11887C1.19093 7.32776 1.52514 6.18685 2.09687 5.16119ZM7.86387 1.62519C8.03349 1.4615 8.22873 1.32666 8.44187 1.22599C8.61675 1.14289 8.80794 1.09978 9.00157 1.09978C9.19519 1.09978 9.38638 1.14289 9.56127 1.22599C9.96675 1.43309 10.3139 1.73853 10.5709 2.11439C11.0957 2.87286 11.4846 3.71684 11.7203 4.60859C10.8149 4.66432 9.90867 4.69272 9.00147 4.69379C8.09467 4.69379 7.18833 4.66539 6.28247 4.60859C6.41292 4.15011 6.57587 3.70151 6.77007 3.26619C7.02579 2.65396 7.39717 2.09679 7.86387 1.62519ZM16.8841 8.49979H13.2943C13.2709 7.49811 13.1623 6.50025 12.9697 5.51699C13.951 5.43059 14.9298 5.31192 15.9061 5.16099C16.4778 6.18671 16.812 7.32769 16.8841 8.49979ZM6.03907 12.4048C5.84353 11.4481 5.7331 10.476 5.70907 9.49979H12.2941C12.2703 10.476 12.16 11.4482 11.9647 12.405C10.978 12.3402 9.99027 12.3071 9.00147 12.3058C8.01347 12.3058 7.026 12.3388 6.03907 12.4048ZM11.9639 5.59479C12.1594 6.55148 12.2698 7.52361 12.2939 8.49979H5.70907C5.73287 7.52356 5.8431 6.55136 6.03847 5.59459C7.02513 5.65939 8.01287 5.69245 9.00167 5.69379C9.98967 5.69379 10.9771 5.66072 11.9641 5.59459L11.9639 5.59479ZM13.2939 9.49979H16.8841C16.812 10.6718 16.4778 11.8127 15.9061 12.8384C14.9301 12.6872 13.9509 12.5685 12.9687 12.4824C13.1616 11.4992 13.2704 10.5014 13.2939 9.49979ZM15.3065 4.24079C14.4531 4.36385 13.5973 4.46132 12.7391 4.53319C12.5848 3.95879 12.3859 3.39735 12.1441 2.85399C11.9233 2.354 11.6454 1.8812 11.3161 1.44499C12.9076 1.93312 14.3042 2.91162 15.3065 4.24079ZM3.41547 3.41359C4.32845 2.49973 5.45167 1.82378 6.68667 1.44499C6.66787 1.46939 6.64867 1.49259 6.63027 1.51719C5.99546 2.43097 5.53306 3.4531 5.26587 4.53319C4.40747 4.46052 3.55107 4.36305 2.69667 4.24079C2.91699 3.94888 3.15716 3.67249 3.41547 3.41359ZM2.69667 13.7588C3.54987 13.6357 4.40567 13.5383 5.26407 13.4664C5.41831 14.0408 5.61725 14.6022 5.85907 15.1456C6.07989 15.6456 6.35773 16.1184 6.68707 16.5546C5.09554 16.0665 3.69894 15.0879 2.69667 13.7588ZM14.5879 14.586C13.6749 15.4999 12.5517 16.1758 11.3167 16.5546C11.3355 16.5302 11.3547 16.507 11.3731 16.4824C12.0079 15.5686 12.4703 14.5465 12.7375 13.4664C13.5959 13.5391 14.4523 13.6365 15.3067 13.7588C15.0863 14.0507 14.8462 14.3271 14.5879 14.586Z" fill="#5B3AEE"/>
</svg>
