<svg width="14" height="16" viewBox="0 0 14 16" fill="none" xmlns="http://www.w3.org/2000/svg">
<path d="M10.1515 15.7576H2.00607C1.32728 15.7576 0.793945 15.2242 0.793945 14.5455V1.45455C0.793945 0.775765 1.32728 0.242432 2.00607 0.242432H11.9939C12.6727 0.242432 13.2061 0.775765 13.2061 1.45455V12.7758C13.2061 12.9212 13.1091 13.0182 12.9636 13.0182C12.8182 13.0182 12.7212 12.9212 12.7212 12.7758V1.45455C12.7212 1.04243 12.4061 0.72728 11.9939 0.72728H2.00607C1.59395 0.72728 1.27879 1.04243 1.27879 1.45455V14.5455C1.27879 14.9576 1.59395 15.2727 2.00607 15.2727H10.1515C10.297 15.2727 10.3939 15.3697 10.3939 15.5152C10.3939 15.6606 10.297 15.7576 10.1515 15.7576Z" fill="#181818"/>
<path d="M10.2001 15.7576H10.1758C10.0304 15.7576 9.93339 15.6606 9.93339 15.5152V13.6727C9.93339 13.0424 10.4425 12.5333 11.0728 12.5333H12.9395C13.0364 12.5333 13.1334 12.5818 13.1576 12.6788C13.2061 12.7758 13.1819 12.8727 13.1092 12.9455L10.3698 15.6849C10.3213 15.7333 10.2728 15.7576 10.2001 15.7576ZM11.0728 13.0182C10.7092 13.0182 10.4182 13.3091 10.4182 13.6727V14.9576L12.3576 13.0182H11.0728ZM7.0243 4.24244C7.00006 4.24244 6.97582 4.24244 6.95158 4.2182L3.55764 3.0788C3.46067 3.05456 3.38794 2.95759 3.38794 2.86062C3.38794 2.76365 3.46067 2.66668 3.55764 2.64244L6.95158 1.50305C7.00006 1.4788 7.04855 1.4788 7.09703 1.50305L10.394 2.64244C10.491 2.66668 10.5637 2.76365 10.5637 2.86062C10.5637 2.95759 10.491 3.05456 10.394 3.0788L7.09703 4.2182C7.07279 4.24244 7.04855 4.24244 7.0243 4.24244ZM4.38188 2.86062L7.0243 3.73335L9.56976 2.86062L7.0243 1.98789L4.38188 2.86062Z" fill="#181818"/>
<path d="M7.00002 5.59996C6.22426 5.59996 5.42426 5.55148 4.60002 5.45451C4.47881 5.43027 4.38184 5.3333 4.38184 5.21208V3.22421C4.38184 3.07875 4.47881 2.98178 4.62426 2.98178C4.76971 2.98178 4.86668 3.07875 4.86668 3.22421V4.9939C6.29699 5.13936 7.70305 5.1636 9.03638 4.9939V3.22421C9.03638 3.07875 9.13335 2.98178 9.27881 2.98178C9.42426 2.98178 9.52123 3.07875 9.52123 3.22421V5.21208C9.52123 5.3333 9.42426 5.43027 9.30305 5.45451C8.57578 5.55148 7.80002 5.59996 7.00002 5.59996ZM10.2 5.09087C10.0546 5.09087 9.95759 4.9939 9.95759 4.84845V3.03027C9.95759 2.88481 10.0546 2.78784 10.2 2.78784C10.3455 2.78784 10.4424 2.88481 10.4424 3.03027V4.84845C10.4424 4.9939 10.3455 5.09087 10.2 5.09087Z" fill="#181818"/>
<path d="M10.3697 5.18797H10.0545C9.90906 5.18797 9.81209 5.091 9.81209 4.94555C9.81209 4.80009 9.90906 4.70312 10.0545 4.70312H10.3697C10.5151 4.70312 10.6121 4.80009 10.6121 4.94555C10.6121 5.091 10.5151 5.18797 10.3697 5.18797ZM10.8303 7.53949H5.86058C5.71512 7.53949 5.61816 7.44252 5.61816 7.29706C5.61816 7.15161 5.71512 7.05464 5.86058 7.05464H10.8303C10.9757 7.05464 11.0727 7.15161 11.0727 7.29706C11.0727 7.44252 10.9757 7.53949 10.8303 7.53949ZM10.8303 9.55161H5.86058C5.71512 9.55161 5.61816 9.45464 5.61816 9.30919C5.61816 9.16373 5.71512 9.06676 5.86058 9.06676H10.8303C10.9757 9.06676 11.0727 9.16373 11.0727 9.30919C11.0727 9.45464 10.9757 9.55161 10.8303 9.55161ZM10.8303 11.5637H5.86058C5.71512 11.5637 5.61816 11.4668 5.61816 11.3213C5.61816 11.1759 5.71512 11.0789 5.86058 11.0789H10.8303C10.9757 11.0789 11.0727 11.1759 11.0727 11.3213C11.0727 11.4668 10.9757 11.5637 10.8303 11.5637ZM8.35755 13.5759H5.86058C5.71512 13.5759 5.61816 13.4789 5.61816 13.3334C5.61816 13.188 5.71512 13.091 5.86058 13.091H8.35755C8.503 13.091 8.59997 13.188 8.59997 13.3334C8.59997 13.4789 8.503 13.5759 8.35755 13.5759ZM4.06664 7.97585H3.16967C3.02422 7.97585 2.92725 7.87888 2.92725 7.73343V6.83646C2.92725 6.691 3.02422 6.59403 3.16967 6.59403H4.06664C4.21209 6.59403 4.30906 6.691 4.30906 6.83646V7.73343C4.30906 7.87888 4.21209 7.97585 4.06664 7.97585ZM3.41209 7.491H3.82422V7.07888H3.41209V7.491ZM4.06664 9.98797H3.16967C3.02422 9.98797 2.92725 9.891 2.92725 9.74555V8.84858C2.92725 8.70312 3.02422 8.60616 3.16967 8.60616H4.06664C4.21209 8.60616 4.30906 8.70312 4.30906 8.84858V9.74555C4.30906 9.891 4.21209 9.98797 4.06664 9.98797ZM3.41209 9.50313H3.82422V9.091H3.41209V9.50313ZM4.06664 12.0001H3.16967C3.02422 12.0001 2.92725 11.9031 2.92725 11.7577V10.8607C2.92725 10.7152 3.02422 10.6183 3.16967 10.6183H4.06664C4.21209 10.6183 4.30906 10.7152 4.30906 10.8607V11.7577C4.30906 11.9031 4.21209 12.0001 4.06664 12.0001ZM3.41209 11.5152H3.82422V11.1031H3.41209V11.5152ZM4.06664 14.0122H3.16967C3.02422 14.0122 2.92725 13.9152 2.92725 13.7698V12.8728C2.92725 12.7274 3.02422 12.6304 3.16967 12.6304H4.06664C4.21209 12.6304 4.30906 12.7274 4.30906 12.8728V13.7698C4.30906 13.9152 4.21209 14.0122 4.06664 14.0122ZM3.41209 13.5274H3.82422V13.1152H3.41209V13.5274Z" fill="#181818"/>
</svg>
