<svg width="16" height="20" viewBox="0 0 16 20" fill="none" xmlns="http://www.w3.org/2000/svg">
<path d="M11.9392 19.6967H1.75734C0.908854 19.6967 0.242188 19.03 0.242188 18.1815V1.81789C0.242188 0.969401 0.908854 0.302734 1.75734 0.302734H14.2422C15.0907 0.302734 15.7573 0.969401 15.7573 1.81789V15.9694C15.7573 16.1512 15.6361 16.2724 15.4543 16.2724C15.2725 16.2724 15.1513 16.1512 15.1513 15.9694V1.81789C15.1513 1.30273 14.7573 0.908795 14.2422 0.908795H1.75734C1.24219 0.908795 0.848248 1.30273 0.848248 1.81789V18.1815C0.848248 18.6967 1.24219 19.0906 1.75734 19.0906H11.9392C12.121 19.0906 12.2422 19.2118 12.2422 19.3936C12.2422 19.5755 12.121 19.6967 11.9392 19.6967Z" fill="#5B3AEE"/>
<path d="M11.9995 19.6964H11.9692C11.7874 19.6964 11.6662 19.5752 11.6662 19.3933V17.0903C11.6662 16.3024 12.3026 15.6661 13.0904 15.6661H15.4238C15.545 15.6661 15.6662 15.7267 15.6965 15.8479C15.7571 15.9691 15.7268 16.0903 15.6359 16.1812L12.2116 19.6055C12.151 19.6661 12.0904 19.6964 11.9995 19.6964ZM13.0904 16.2721C12.6359 16.2721 12.2723 16.6358 12.2723 17.0903V18.6964L14.6965 16.2721H13.0904ZM8.02983 5.30244C7.99953 5.30244 7.96922 5.30244 7.93892 5.27214L3.6965 3.84789C3.57528 3.81759 3.48438 3.69638 3.48438 3.57517C3.48438 3.45395 3.57528 3.33274 3.6965 3.30244L7.93892 1.8782C7.99953 1.84789 8.06013 1.84789 8.12074 1.8782L12.242 3.30244C12.3632 3.33274 12.4541 3.45395 12.4541 3.57517C12.4541 3.69638 12.3632 3.81759 12.242 3.84789L8.12074 5.27214C8.09044 5.30244 8.06013 5.30244 8.02983 5.30244ZM4.7268 3.57517L8.02983 4.66607L11.2116 3.57517L8.02983 2.48426L4.7268 3.57517Z" fill="#5B3AEE"/>
<path d="M7.99929 7.0005C7.02959 7.0005 6.02959 6.9399 4.99929 6.81869C4.84777 6.78838 4.72656 6.66717 4.72656 6.51565V4.03081C4.72656 3.84899 4.84777 3.72778 5.02959 3.72778C5.21141 3.72778 5.33262 3.84899 5.33262 4.03081V6.24293C7.1205 6.42475 8.87808 6.45505 10.5447 6.24293V4.03081C10.5447 3.84899 10.666 3.72778 10.8478 3.72778C11.0296 3.72778 11.1508 3.84899 11.1508 4.03081V6.51565C11.1508 6.66717 11.0296 6.78838 10.8781 6.81869C9.96899 6.9399 8.99929 7.0005 7.99929 7.0005ZM11.9993 6.36414C11.8175 6.36414 11.6963 6.24293 11.6963 6.06111V3.78838C11.6963 3.60656 11.8175 3.48535 11.9993 3.48535C12.1811 3.48535 12.3023 3.60656 12.3023 3.78838V6.06111C12.3023 6.24293 12.1811 6.36414 11.9993 6.36414Z" fill="#5B3AEE"/>
<path d="M12.2093 6.48497H11.8153C11.6335 6.48497 11.5123 6.36375 11.5123 6.18194C11.5123 6.00012 11.6335 5.87891 11.8153 5.87891H12.2093C12.3911 5.87891 12.5123 6.00012 12.5123 6.18194C12.5123 6.36375 12.3911 6.48497 12.2093 6.48497ZM12.785 9.42436H6.57292C6.3911 9.42436 6.26989 9.30315 6.26989 9.12133C6.26989 8.93951 6.3911 8.8183 6.57292 8.8183H12.785C12.9669 8.8183 13.0881 8.93951 13.0881 9.12133C13.0881 9.30315 12.9669 9.42436 12.785 9.42436ZM12.785 11.9395H6.57292C6.3911 11.9395 6.26989 11.8183 6.26989 11.6365C6.26989 11.4547 6.3911 11.3335 6.57292 11.3335H12.785C12.9669 11.3335 13.0881 11.4547 13.0881 11.6365C13.0881 11.8183 12.9669 11.9395 12.785 11.9395ZM12.785 14.4547H6.57292C6.3911 14.4547 6.26989 14.3335 6.26989 14.1516C6.26989 13.9698 6.3911 13.8486 6.57292 13.8486H12.785C12.9669 13.8486 13.0881 13.9698 13.0881 14.1516C13.0881 14.3335 12.9669 14.4547 12.785 14.4547ZM9.69413 16.9698H6.57292C6.3911 16.9698 6.26989 16.8486 6.26989 16.6668C6.26989 16.485 6.3911 16.3638 6.57292 16.3638H9.69413C9.87595 16.3638 9.99716 16.485 9.99716 16.6668C9.99716 16.8486 9.87595 16.9698 9.69413 16.9698ZM4.33049 9.96982H3.20928C3.02746 9.96982 2.90625 9.8486 2.90625 9.66679V8.54557C2.90625 8.36376 3.02746 8.24254 3.20928 8.24254H4.33049C4.51231 8.24254 4.63352 8.36376 4.63352 8.54557V9.66679C4.63352 9.8486 4.51231 9.96982 4.33049 9.96982ZM3.51231 9.36375H4.02746V8.8486H3.51231V9.36375ZM4.33049 12.485H3.20928C3.02746 12.485 2.90625 12.3638 2.90625 12.1819V11.0607C2.90625 10.8789 3.02746 10.7577 3.20928 10.7577H4.33049C4.51231 10.7577 4.63352 10.8789 4.63352 11.0607V12.1819C4.63352 12.3638 4.51231 12.485 4.33049 12.485ZM3.51231 11.8789H4.02746V11.3638H3.51231V11.8789ZM4.33049 15.0001H3.20928C3.02746 15.0001 2.90625 14.8789 2.90625 14.6971V13.5759C2.90625 13.3941 3.02746 13.2728 3.20928 13.2728H4.33049C4.51231 13.2728 4.63352 13.3941 4.63352 13.5759V14.6971C4.63352 14.8789 4.51231 15.0001 4.33049 15.0001ZM3.51231 14.3941H4.02746V13.8789H3.51231V14.3941ZM4.33049 17.5153H3.20928C3.02746 17.5153 2.90625 17.3941 2.90625 17.2122V16.091C2.90625 15.9092 3.02746 15.788 3.20928 15.788H4.33049C4.51231 15.788 4.63352 15.9092 4.63352 16.091V17.2122C4.63352 17.3941 4.51231 17.5153 4.33049 17.5153ZM3.51231 16.9092H4.02746V16.3941H3.51231V16.9092Z" fill="#5B3AEE"/>
</svg>
