<svg width="16" height="20" viewBox="0 0 16 20" fill="none" xmlns="http://www.w3.org/2000/svg">
<path d="M8 20C7.89846 19.9999 7.80042 19.9629 7.72417 19.8958C7.42917 19.635 0.5 13.4533 0.5 7.5C0.5 3.36417 3.865 0 8 0C12.135 0 15.5 3.36417 15.5 7.5C15.5 13.4533 8.57083 19.635 8.27583 19.8958C8.19958 19.9629 8.10154 19.9999 8 20ZM8 0.833333C4.32417 0.833333 1.33333 3.82417 1.33333 7.5C1.33333 12.4317 6.70917 17.7983 8 19.0158C9.29083 17.7983 14.6667 12.4317 14.6667 7.5C14.6667 3.82417 11.6758 0.833333 8 0.833333Z" fill="#5B3AEE"/>
<path d="M8.00065 11.6668C5.70315 11.6668 3.83398 9.79766 3.83398 7.50016C3.83398 5.20266 5.70315 3.3335 8.00065 3.3335C10.2982 3.3335 12.1673 5.20266 12.1673 7.50016C12.1673 9.79766 10.2982 11.6668 8.00065 11.6668ZM8.00065 4.16683C6.16232 4.16683 4.66732 5.66183 4.66732 7.50016C4.66732 9.3385 6.16232 10.8335 8.00065 10.8335C9.83898 10.8335 11.334 9.3385 11.334 7.50016C11.334 5.66183 9.83898 4.16683 8.00065 4.16683Z" fill="#5B3AEE"/>
</svg>
