<svg width="24" height="30" viewBox="0 0 24 30" fill="none" xmlns="http://www.w3.org/2000/svg">
<path fill-rule="evenodd" clip-rule="evenodd" d="M12 0.666016C7.036 0.666016 3 4.73802 3 9.76068C3 11.462 3.74933 13.5727 4.84 15.678C7.24133 20.314 11.2413 24.9834 11.2413 24.9834C11.3352 25.0927 11.4516 25.1804 11.5826 25.2406C11.7135 25.3007 11.8559 25.3319 12 25.3319C12.1441 25.3319 12.2865 25.3007 12.4174 25.2406C12.5484 25.1804 12.6648 25.0927 12.7587 24.9834C12.7587 24.9834 16.7587 20.314 19.16 15.678C20.2507 13.5727 21 11.462 21 9.76068C21 4.73802 16.964 0.666016 12 0.666016ZM12 5.99935C11.0447 6.02512 10.1371 6.42273 9.47049 7.10755C8.80389 7.79237 8.43089 8.71033 8.43089 9.66602C8.43089 10.6217 8.80389 11.5397 9.47049 12.2245C10.1371 12.9093 11.0447 13.3069 12 13.3327C12.9553 13.3069 13.8629 12.9093 14.5295 12.2245C15.1961 11.5397 15.5691 10.6217 15.5691 9.66602C15.5691 8.71033 15.1961 7.79237 14.5295 7.10755C13.8629 6.42273 12.9553 6.02512 12 5.99935Z" fill="white"/>
<path fill-rule="evenodd" clip-rule="evenodd" d="M18.3774 22.1693C19.4614 22.4946 20.3547 22.8973 20.972 23.3693C21.372 23.6733 21.6654 23.9706 21.6654 24.3333C21.6654 24.5466 21.544 24.74 21.3734 24.9333C21.0907 25.252 20.6707 25.5386 20.1507 25.8053C18.3134 26.7453 15.3427 27.3333 11.9987 27.3333C8.6547 27.3333 5.68403 26.7453 3.8467 25.8053C3.3267 25.5386 2.9067 25.252 2.62403 24.9333C2.45336 24.74 2.33203 24.5466 2.33203 24.3333C2.33203 23.9706 2.62536 23.6733 3.02536 23.3693C3.6427 22.8973 4.53603 22.4946 5.62003 22.1693C5.87411 22.0929 6.08744 21.9187 6.21309 21.6851C6.33874 21.4514 6.36641 21.1774 6.29003 20.9233C6.21365 20.6692 6.03946 20.4559 5.80579 20.3302C5.57212 20.2046 5.29811 20.1769 5.04403 20.2533C3.39336 20.7506 2.1107 21.432 1.34003 22.1853C0.662698 22.8453 0.332031 23.584 0.332031 24.3333C0.332031 25.2693 0.861365 26.2026 1.93736 26.9813C3.82536 28.3466 7.61736 29.3333 11.9987 29.3333C16.38 29.3333 20.172 28.3466 22.06 26.9813C23.136 26.2026 23.6654 25.2693 23.6654 24.3333C23.6654 23.584 23.3347 22.8453 22.6574 22.1853C21.8867 21.432 20.604 20.7506 18.9534 20.2533C18.8276 20.2155 18.6955 20.2028 18.5648 20.216C18.4341 20.2292 18.3073 20.268 18.1916 20.3302C18.0759 20.3925 17.9736 20.4769 17.8905 20.5786C17.8074 20.6804 17.7452 20.7975 17.7074 20.9233C17.6695 21.0491 17.6569 21.1811 17.6701 21.3118C17.6833 21.4425 17.7221 21.5694 17.7843 21.6851C17.8465 21.8008 17.9309 21.9031 18.0327 21.9862C18.1344 22.0692 18.2516 22.1315 18.3774 22.1693Z" fill="white"/>
</svg>
