<svg width="18" height="14" viewBox="0 0 18 14" fill="none" xmlns="http://www.w3.org/2000/svg">
<path d="M15.875 0.75H2.125C1.62772 0.75 1.15081 0.947544 0.799175 1.29917C0.447544 1.65081 0.25 2.12772 0.25 2.625V11.375C0.25 11.8723 0.447544 12.3492 0.799175 12.7008C1.15081 13.0525 1.62772 13.25 2.125 13.25H15.875C16.3723 13.25 16.8492 13.0525 17.2008 12.7008C17.5525 12.3492 17.75 11.8723 17.75 11.375V2.625C17.75 2.12772 17.5525 1.65081 17.2008 1.29917C16.8492 0.947544 16.3723 0.75 15.875 0.75ZM15.875 2C15.9835 2.00412 16.089 2.03643 16.1812 2.09375L9.35 6.64375C9.24729 6.71227 9.12659 6.74884 9.00312 6.74884C8.87966 6.74884 8.75896 6.71227 8.65625 6.64375L1.84375 2.10625C1.92746 2.04848 2.024 2.012 2.125 2H15.875ZM15.875 12H2.125C1.95924 12 1.80027 11.9342 1.68306 11.8169C1.56585 11.6997 1.5 11.5408 1.5 11.375V3.375L7.9625 7.68125C8.27062 7.88682 8.63272 7.99653 9.00312 7.99653C9.37353 7.99653 9.73563 7.88682 10.0437 7.68125L16.5 3.375V11.375C16.5 11.5408 16.4342 11.6997 16.3169 11.8169C16.1997 11.9342 16.0408 12 15.875 12Z" fill="#5B3AEE"/>
</svg>
