<svg width="30" height="26" viewBox="0 0 30 26" fill="none" xmlns="http://www.w3.org/2000/svg">
<path d="M12.6503 8.82719C12.8028 8.91404 12.9765 8.95687 13.1519 8.95094C13.3316 8.93441 13.5058 8.87976 13.6628 8.79063L24.9222 2.22062C24.6775 1.79416 24.3249 1.43955 23.8999 1.19239C23.4749 0.945232 22.9923 0.814219 22.5006 0.8125H3.75063C3.25879 0.814055 2.77603 0.94499 2.35081 1.19216C1.92559 1.43932 1.57289 1.79402 1.32812 2.22062L12.6503 8.82719Z" fill="white"/>
<path d="M25.3125 4.15942V10.675C24.4104 10.3504 23.4587 10.1854 22.5 10.1875C20.2633 10.191 18.1192 11.0811 16.5376 12.6627C14.956 14.2443 14.066 16.3884 14.0625 18.625C14.0623 18.9384 14.0811 19.2515 14.1188 19.5625H3.75C3.00476 19.5603 2.29069 19.2633 1.76372 18.7363C1.23676 18.2094 0.939726 17.4953 0.9375 16.75V4.15942L11.7094 10.45C12.1434 10.6874 12.6303 10.8119 13.125 10.8119C13.6197 10.8119 14.1066 10.6874 14.5406 10.45L25.3125 4.15942Z" fill="white"/>
<path d="M22.5 12.0625C20.7595 12.0625 19.0903 12.7539 17.8596 13.9846C16.6289 15.2153 15.9375 16.8845 15.9375 18.625C15.9375 20.3655 16.6289 22.0347 17.8596 23.2654C19.0903 24.4961 20.7595 25.1875 22.5 25.1875C22.7486 25.1875 22.9871 25.0887 23.1629 24.9129C23.3387 24.7371 23.4375 24.4986 23.4375 24.25C23.4375 24.0014 23.3387 23.7629 23.1629 23.5871C22.9871 23.4113 22.7486 23.3125 22.5 23.3125C21.5729 23.3125 20.6666 23.0376 19.8958 22.5225C19.1249 22.0074 18.5241 21.2754 18.1693 20.4188C17.8145 19.5623 17.7217 18.6198 17.9026 17.7105C18.0834 16.8012 18.5299 15.966 19.1854 15.3104C19.841 14.6549 20.6762 14.2084 21.5855 14.0276C22.4948 13.8467 23.4373 13.9395 24.2938 14.2943C25.1504 14.6491 25.8824 15.2499 26.3975 16.0208C26.9126 16.7916 27.1875 17.6979 27.1875 18.625V19.5625C27.1875 19.8111 27.0887 20.0496 26.9129 20.2254C26.7371 20.4012 26.4986 20.5 26.25 20.5C26.0014 20.5 25.7629 20.4012 25.5871 20.2254C25.4113 20.0496 25.3125 19.8111 25.3125 19.5625V18.625C25.3125 18.0687 25.1476 17.525 24.8385 17.0625C24.5295 16.5999 24.0902 16.2395 23.5763 16.0266C23.0624 15.8137 22.4969 15.758 21.9513 15.8665C21.4057 15.9751 20.9046 16.2429 20.5113 16.6363C20.1179 17.0296 19.8501 17.5307 19.7415 18.0763C19.633 18.6219 19.6887 19.1874 19.9016 19.7013C20.1145 20.2152 20.4749 20.6545 20.9375 20.9635C21.4 21.2726 21.9437 21.4375 22.5 21.4375C22.9843 21.4344 23.4594 21.3048 23.8781 21.0616C24.2022 21.578 24.6856 21.9748 25.2552 22.1921C25.8248 22.4094 26.4496 22.4353 27.0353 22.266C27.621 22.0967 28.1356 21.7412 28.5013 21.2535C28.867 20.7657 29.064 20.1721 29.0625 19.5625V18.625C29.0605 16.8851 28.3685 15.2171 27.1382 13.9868C25.9079 12.7565 24.2399 12.0645 22.5 12.0625ZM22.5 19.5625C22.3146 19.5625 22.1333 19.5075 21.9792 19.4045C21.825 19.3015 21.7048 19.1551 21.6339 18.9838C21.5629 18.8125 21.5443 18.624 21.5805 18.4421C21.6167 18.2602 21.706 18.0932 21.8371 17.9621C21.9682 17.831 22.1352 17.7417 22.3171 17.7055C22.499 17.6693 22.6875 17.6879 22.8588 17.7589C23.0301 17.8298 23.1765 17.95 23.2795 18.1042C23.3825 18.2583 23.4375 18.4396 23.4375 18.625C23.4375 18.8736 23.3387 19.1121 23.1629 19.2879C22.9871 19.4637 22.7486 19.5625 22.5 19.5625Z" fill="white"/>
</svg>
