<svg width="20" height="20" viewBox="0 0 20 20" fill="none" xmlns="http://www.w3.org/2000/svg">
<path d="M19.4545 0.303126C19.3939 0.212217 19.303 0.151611 19.1818 0.151611H14.9091C14.7879 0.151611 14.697 0.212217 14.6364 0.303126L10 8.09101L5.33333 0.303126C5.27273 0.212217 5.18182 0.151611 5.06061 0.151611H0.818182C0.69697 0.151611 0.606061 0.212217 0.545455 0.303126C0.484848 0.394036 0.484848 0.515248 0.545455 0.606157L6 10.1213C4.93939 11.1516 4.30303 12.5759 4.30303 14.1819C4.30303 17.3334 6.84849 19.8789 10 19.8789C13.1515 19.8789 15.697 17.3334 15.697 14.1819C15.697 12.6062 15.0303 11.1516 14 10.1213L19.4545 0.606157C19.5152 0.515248 19.5152 0.394036 19.4545 0.303126ZM6.48485 9.69707L1.33333 0.757672H4.90909L9.51515 8.48495C8.42424 8.57586 7.33333 9.0304 6.48485 9.69707ZM15.0909 14.1516C15.0909 16.9698 12.8182 19.2425 10 19.2425C7.18182 19.2425 4.90909 16.9698 4.90909 14.1516C4.90909 11.3334 7.21212 9.0607 9.9697 9.0607H10C12.8182 9.09101 15.0909 11.3637 15.0909 14.1516ZM13.5152 9.69707C12.6364 9.0001 11.5455 8.57586 10.4545 8.48495L15.0909 0.757672H18.6667L13.5152 9.69707Z" fill="#5B3AEE"/>
<path d="M10.8466 13.2726L10.3012 11.5756C10.2709 11.4544 10.1497 11.3635 9.99815 11.3635C9.87693 11.3635 9.75572 11.4544 9.69512 11.5756L9.14966 13.2726H7.39209C7.27087 13.2726 7.14966 13.3635 7.08905 13.4847C7.05875 13.6059 7.08905 13.7575 7.21027 13.8181L8.63451 14.8484L8.08905 16.5453C7.99815 16.8181 8.33148 17.0605 8.5436 16.8787L9.96784 15.8484L11.3921 16.8787C11.6345 17.0605 11.9375 16.8181 11.8466 16.5453L11.3618 14.8484L12.786 13.8181C12.9072 13.7272 12.9375 13.6059 12.9072 13.4847C12.8769 13.3635 12.7557 13.2726 12.6042 13.2726H10.8466ZM10.8163 14.4847C10.6951 14.5756 10.6648 14.6969 10.6951 14.8181L11.0284 15.8181L10.18 15.1817C10.1194 15.1817 10.0588 15.1514 9.99815 15.1514C9.93754 15.1514 9.87693 15.1817 9.81633 15.212L8.96784 15.8484L9.30118 14.8484C9.33148 14.7272 9.30118 14.5756 9.17996 14.515L8.33148 13.8787H9.39208C9.5133 13.8787 9.63451 13.7878 9.69512 13.6666L10.0284 12.6666L10.3618 13.6666C10.3921 13.7878 10.5133 13.8787 10.6648 13.8787H11.7254L10.8163 14.4847Z" fill="#5B3AEE"/>
<path d="M9.99941 9.75806C7.57517 9.75806 5.60547 11.7278 5.60547 14.152C5.60547 16.5762 7.57517 18.5459 9.99941 18.5459C12.4237 18.5459 14.3933 16.5762 14.3933 14.152C14.3933 11.7278 12.4237 9.75806 9.99941 9.75806ZM9.99941 17.9399C7.9085 17.9399 6.21153 16.2429 6.21153 14.152C6.21153 12.0611 7.9085 10.3641 9.99941 10.3641C12.0903 10.3641 13.7873 12.0611 13.7873 14.152C13.7873 16.2429 12.0903 17.9399 9.99941 17.9399Z" fill="#5B3AEE"/>
</svg>
