<svg width="16" height="15" viewBox="0 0 16 15" fill="none" xmlns="http://www.w3.org/2000/svg">
<g clip-path="url(#clip0_269_1725)">
<path d="M14.8982 10.5909C14.8734 10.5703 12.0628 8.57063 11.3039 8.69297C10.9378 8.75766 10.7287 9.0075 10.3092 9.50719C10.1932 9.6463 10.0746 9.7832 9.9534 9.91781C9.68824 9.83143 9.42961 9.72616 9.17949 9.60281C7.88833 8.97422 6.84511 7.93101 6.21652 6.63984C6.09318 6.38973 5.98791 6.1311 5.90152 5.86594C6.03934 5.73984 6.23246 5.57719 6.31496 5.50781C6.8123 5.09062 7.06168 4.88109 7.12637 4.51453C7.25902 3.75562 5.24902 0.945937 5.2284 0.920625C5.13686 0.790808 5.01765 0.682933 4.87935 0.604789C4.74106 0.526645 4.58714 0.480181 4.42871 0.46875C3.61402 0.46875 1.28809 3.48563 1.28809 3.99422C1.28809 4.02375 1.33074 7.02562 5.03246 10.7911C8.79371 14.4886 11.7956 14.5312 11.8251 14.5312C12.3332 14.5312 15.3506 12.2053 15.3506 11.3906C15.339 11.2322 15.2925 11.0783 15.2143 10.94C15.136 10.8017 15.0281 10.6825 14.8982 10.5909ZM11.7731 13.5909C11.3662 13.5562 8.84434 13.2239 5.69434 10.1297C2.58512 6.96422 2.26121 4.43813 2.22887 4.04672C2.84329 3.08233 3.58533 2.20548 4.4348 1.44C4.45355 1.45875 4.4784 1.48688 4.51027 1.52344C5.16175 2.41276 5.72297 3.36481 6.18559 4.36547C6.03514 4.51682 5.87613 4.65939 5.70934 4.7925C5.45068 4.98959 5.21316 5.21297 5.00059 5.45906C4.96462 5.50953 4.93901 5.56663 4.92526 5.62705C4.9115 5.68748 4.90986 5.75003 4.92043 5.81109C5.01963 6.24081 5.17156 6.65662 5.37277 7.04906C6.09366 8.52939 7.28985 9.72541 8.77027 10.4461C9.16264 10.6476 9.57846 10.7997 10.0082 10.8989C10.0693 10.9097 10.1319 10.9082 10.1924 10.8944C10.2528 10.8807 10.3099 10.8549 10.3603 10.8188C10.6072 10.6053 10.8314 10.3669 11.0292 10.1072C11.1764 9.93188 11.3728 9.69797 11.4473 9.63188C12.4505 10.094 13.4047 10.6559 14.2954 11.3091C14.3343 11.3419 14.362 11.3672 14.3803 11.3836C13.6148 12.2333 12.7377 12.9755 11.7731 13.59V13.5909ZM11.6006 7.03125H12.5381C12.537 6.03703 12.1415 5.08385 11.4385 4.38083C10.7355 3.67781 9.7823 3.28237 8.78809 3.28125V4.21875C9.53378 4.21949 10.2487 4.51605 10.776 5.04333C11.3033 5.57062 11.5998 6.28556 11.6006 7.03125Z" fill="white"/>
<path d="M13.9443 7.03125H14.8818C14.88 5.41566 14.2374 3.86677 13.095 2.72437C11.9526 1.58198 10.4037 0.939361 8.78809 0.9375V1.875C10.1551 1.87661 11.4657 2.42038 12.4323 3.38701C13.399 4.35365 13.9427 5.66422 13.9443 7.03125Z" fill="white"/>
</g>
<defs>
<clipPath id="clip0_269_1725">
<rect width="15" height="15" fill="white" transform="translate(0.819336)"/>
</clipPath>
</defs>
</svg>
