<svg width="20" height="20" viewBox="0 0 20 20" fill="none" xmlns="http://www.w3.org/2000/svg">
<path d="M15.8054 12.3893C15.396 11.9629 14.9021 11.735 14.3787 11.735C13.8595 11.735 13.3614 11.9587 12.9351 12.3851L11.6012 13.7147C11.4914 13.6556 11.3817 13.6007 11.2762 13.5459C11.1242 13.4699 10.9807 13.3981 10.8583 13.3222C9.6088 12.5286 8.47332 11.4944 7.38426 10.1563C6.85662 9.48936 6.50204 8.92795 6.24455 8.3581C6.59069 8.04151 6.9115 7.71226 7.22386 7.39568C7.34205 7.27749 7.46024 7.15507 7.57843 7.03688C8.46487 6.15044 8.46487 5.00229 7.57843 4.11585L6.42606 2.96348C6.29521 2.83263 6.16013 2.69755 6.0335 2.56248C5.78023 2.30077 5.5143 2.03061 5.23992 1.77734C4.83047 1.37211 4.34082 1.15684 3.82584 1.15684C3.31086 1.15684 2.81277 1.37211 2.39066 1.77734L2.38221 1.78579L0.947028 3.23364C0.406722 3.77394 0.0985794 4.43244 0.0310412 5.19647C-0.0702661 6.42904 0.292752 7.57719 0.571347 8.32855C1.25517 10.1732 2.27669 11.8827 3.80052 13.7147C5.64937 15.9224 7.87391 17.6657 10.415 18.8941C11.3859 19.3542 12.6818 19.8987 14.1296 19.9915C14.2183 19.9958 14.3111 20 14.3956 20C15.3707 20 16.1896 19.6496 16.8312 18.9531C16.8354 18.9447 16.8438 18.9405 16.8481 18.932C17.0676 18.6661 17.3208 18.4255 17.5868 18.168C17.7683 17.995 17.954 17.8134 18.1355 17.6235C18.5534 17.1887 18.7729 16.6822 18.7729 16.163C18.7729 15.6396 18.5492 15.1372 18.1228 14.7151L15.8054 12.3893ZM17.3166 16.8341C17.3124 16.8341 17.3124 16.8384 17.3166 16.8341C17.152 17.0114 16.9831 17.1718 16.8016 17.3491C16.5272 17.6108 16.2487 17.8852 15.9869 18.1933C15.5606 18.6492 15.0583 18.8645 14.3998 18.8645C14.3365 18.8645 14.2689 18.8645 14.2056 18.8603C12.9519 18.7801 11.7869 18.2904 10.9131 17.8725C8.52397 16.7159 6.42606 15.0739 4.68273 12.9929C3.24333 11.258 2.28091 9.65399 1.64352 7.93176C1.25095 6.8807 1.10743 6.0618 1.17075 5.28933C1.21296 4.79546 1.40291 4.38601 1.75327 4.03565L3.19267 2.59624C3.39951 2.40207 3.61901 2.29654 3.83429 2.29654C4.10022 2.29654 4.3155 2.45695 4.45057 2.59202L4.46324 2.60469C4.72072 2.84529 4.96555 3.09434 5.22304 3.36027C5.3539 3.49535 5.48897 3.63042 5.62405 3.76972L6.77642 4.92209C7.22386 5.36953 7.22386 5.7832 6.77642 6.23064C6.65401 6.35306 6.53581 6.47547 6.4134 6.59366C6.05883 6.95668 5.72113 7.29437 5.3539 7.62362C5.34545 7.63206 5.33701 7.63628 5.33279 7.64472C4.96977 8.00774 5.03731 8.36232 5.11329 8.60292L5.12595 8.64091C5.42565 9.36695 5.84777 10.0508 6.48938 10.8655L6.4936 10.8697C7.65864 12.3049 8.88699 13.4235 10.242 14.2804C10.415 14.3901 10.5923 14.4787 10.7612 14.5632C10.9131 14.6391 11.0567 14.7109 11.1791 14.7869C11.1959 14.7953 11.2128 14.808 11.2297 14.8164C11.3732 14.8882 11.5083 14.922 11.6476 14.922C11.998 14.922 12.2175 14.7025 12.2892 14.6307L13.7329 13.1871C13.8764 13.0436 14.1043 12.8705 14.3702 12.8705C14.632 12.8705 14.8472 13.0351 14.9781 13.1786L14.9865 13.1871L17.3124 15.5129C17.7472 15.9435 17.7472 16.3867 17.3166 16.8341ZM10.8076 4.75747C11.9135 4.9432 12.9182 5.46662 13.7202 6.26863C14.5222 7.07065 15.0414 8.07528 15.2314 9.18122C15.2778 9.45981 15.5184 9.65399 15.7928 9.65399C15.8265 9.65399 15.8561 9.64976 15.8899 9.64554C16.2022 9.59489 16.4091 9.29941 16.3584 8.98705C16.1305 7.64895 15.4973 6.42904 14.5306 5.4624C13.564 4.49576 12.3441 3.86259 11.006 3.63464C10.6936 3.58399 10.4024 3.79083 10.3475 4.09897C10.2926 4.40711 10.4952 4.70681 10.8076 4.75747ZM19.9759 8.82242C19.6002 6.61899 18.5618 4.61395 16.9662 3.01836C15.3707 1.42277 13.3656 0.384369 11.1622 0.00868772C10.854 -0.0461871 10.5628 0.16487 10.5079 0.473013C10.4572 0.785377 10.6641 1.07664 10.9764 1.13151C12.9435 1.46498 14.7375 2.39785 16.1642 3.82037C17.591 5.24712 18.5196 7.0411 18.8531 9.00815C18.8995 9.28675 19.1401 9.48092 19.4145 9.48092C19.4483 9.48092 19.4778 9.4767 19.5116 9.47248C19.8197 9.42604 20.0308 9.13056 19.9759 8.82242Z" fill="#5B3AEE"/>
</svg>
