<svg width="17" height="17" viewBox="0 0 17 17" fill="none" xmlns="http://www.w3.org/2000/svg">
<g clip-path="url(#clip0_269_1705)">
<path d="M15.962 15.9063L12.0216 12.0025C13.0011 10.8356 13.5911 9.33716 13.5911 7.70448C13.5911 3.992 10.5427 0.97168 6.79561 0.97168C3.04849 0.97168 0 3.992 0 7.70448C0 11.4167 3.04849 14.4368 6.79561 14.4368C8.44348 14.4368 9.95601 13.8523 11.1338 12.8819L15.0743 16.7858C15.1968 16.9072 15.3575 16.9679 15.5181 16.9679C15.6788 16.9679 15.8395 16.9072 15.9621 16.7858C16.2072 16.5429 16.2072 16.1491 15.962 15.9063ZM1.25549 7.70448C1.25549 4.67786 3.74076 2.21553 6.79561 2.21553C9.85038 2.21553 12.3356 4.67786 12.3356 7.70448C12.3356 10.7309 9.85038 13.1929 6.79561 13.1929C3.74076 13.1929 1.25549 10.7309 1.25549 7.70448Z" fill="#241442"/>
</g>
<defs>
<clipPath id="clip0_269_1705">
<rect width="16.1459" height="15.9963" fill="white" transform="translate(0 0.97168)"/>
</clipPath>
</defs>
</svg>
