<svg width="20" height="22" viewBox="0 0 20 22" fill="none" xmlns="http://www.w3.org/2000/svg">
<path d="M15.5471 14.7982C14.493 14.7982 13.5433 15.2534 12.8842 15.9775L6.95572 12.3057C7.11849 11.8896 7.20194 11.4467 7.20176 11C7.20197 10.5532 7.11852 10.1103 6.95572 9.69429L12.8842 6.02232C13.5434 6.74642 14.493 7.20181 15.5471 7.20181C17.5327 7.20181 19.1481 5.58644 19.1481 3.60082C19.1481 1.61519 17.5327 0 15.5471 0C13.5615 0 11.9461 1.61536 11.9461 3.60099C11.9461 4.04774 12.0295 4.49056 12.1922 4.90663L6.26384 8.57848C5.6047 7.85437 4.65505 7.39899 3.60099 7.39899C1.61536 7.39899 0 9.01453 0 11C0 12.9856 1.61536 14.601 3.60099 14.601C4.65501 14.601 5.60475 14.1458 6.26384 13.4215L12.1922 17.0933C12.0295 17.5094 11.9461 17.9523 11.9461 18.3991C11.9461 20.3846 13.5615 22 15.5471 22C17.5327 22 19.1481 20.3846 19.1481 18.3992C19.1481 16.4135 17.5327 14.7982 15.5471 14.7982ZM13.2592 3.60099C13.2592 2.33943 14.2856 1.31308 15.5471 1.31308C16.8086 1.31308 17.835 2.33943 17.835 3.60099C17.835 4.86255 16.8087 5.8889 15.5471 5.8889C14.2855 5.8889 13.2592 4.86251 13.2592 3.60099ZM3.60099 13.2879C2.33926 13.2879 1.31291 12.2615 1.31291 11C1.31291 9.73846 2.33926 8.71207 3.60099 8.71207C4.86255 8.71207 5.88873 9.73846 5.88873 11C5.88873 12.2615 4.86251 13.2879 3.60099 13.2879ZM13.2592 18.399C13.2592 17.1375 14.2856 16.1111 15.5471 16.1111C16.8086 16.1111 17.835 17.1375 17.835 18.399C17.835 19.6605 16.8087 20.6869 15.5471 20.6869C14.2855 20.6869 13.2592 19.6605 13.2592 18.399V18.399Z" fill="#5B3AEE"/>
</svg>
