<svg width="24" height="22" viewBox="0 0 24 22" fill="none" xmlns="http://www.w3.org/2000/svg">
<path d="M23.9837 1.42216C24.1007 0.877528 23.5667 0.418299 23.0459 0.617047L0.452326 9.24196C0.319493 9.29268 0.205157 9.38247 0.124404 9.4995C0.0436507 9.61653 0.000275463 9.75529 1.30767e-06 9.89748C-0.000272848 10.0397 0.0425669 10.1786 0.122868 10.2959C0.203169 10.4133 0.317158 10.5035 0.449795 10.5547L6.79675 13.006V20.7269C6.79674 20.8851 6.85008 21.0387 6.94817 21.1628C7.04625 21.287 7.18334 21.3744 7.33726 21.411C7.49118 21.4476 7.65295 21.4312 7.7964 21.3645C7.93986 21.2977 8.05661 21.1846 8.1278 21.0433L10.7528 15.8342L17.1589 20.5884C17.5485 20.8776 18.1087 20.6936 18.2504 20.2289C24.2316 0.618594 23.973 1.47143 23.9837 1.42216ZM18.4065 3.8933L7.40021 11.7316L2.66457 9.90266L18.4065 3.8933ZM8.20298 12.8863L17.7967 6.05398C9.54144 14.7628 9.97259 14.3044 9.93659 14.3529C9.88311 14.4248 10.0296 14.1444 8.20298 17.7692V12.8863ZM17.1962 18.8649L11.5574 14.6802L21.7531 3.92423L17.1962 18.8649Z" fill="#FAF9F6"/>
</svg>
