<svg width="19" height="19" viewBox="0 0 19 19" fill="none" xmlns="http://www.w3.org/2000/svg">
<path d="M8.05666 18.75H8.05504C7.46832 18.7495 6.91657 18.5207 6.50187 18.1052L0.660341 12.2553C-0.194072 11.3994 -0.194072 10.0065 0.660341 9.15058L8.53478 1.26102C9.3463 0.44792 10.426 0 11.575 0H16.5709C17.7824 0 18.7682 0.985546 18.7682 2.19726V7.17785C18.7682 8.32602 18.3208 9.40532 17.5084 10.2167L9.60951 18.1074C9.19455 18.5218 8.64306 18.75 8.05666 18.75ZM11.575 1.46484C10.8179 1.46484 10.1064 1.75998 9.57163 2.29579L1.69707 10.1853C1.41222 10.4708 1.41222 10.9349 1.69707 11.2203L7.53857 17.0702C7.6767 17.2086 7.86051 17.285 8.05619 17.2851H8.05677C8.1529 17.2854 8.24812 17.2666 8.33694 17.2299C8.42577 17.1931 8.50643 17.1391 8.57427 17.071L16.4732 9.18046C17.0086 8.6458 17.3034 7.93447 17.3034 7.17788V2.19726C17.3034 1.79341 16.9748 1.46484 16.5709 1.46484H11.575ZM13.458 7.43408C12.2465 7.43408 11.2608 6.44853 11.2608 5.23681C11.2608 4.0251 12.2465 3.03955 13.458 3.03955C14.6696 3.03955 15.6553 4.0251 15.6553 5.23681C15.6553 6.44853 14.6696 7.43408 13.458 7.43408ZM13.458 4.50439C13.0542 4.50439 12.7256 4.83296 12.7256 5.23681C12.7256 5.64067 13.0542 5.96924 13.458 5.96924C13.862 5.96924 14.1905 5.64067 14.1905 5.23681C14.1905 4.83296 13.862 4.50439 13.458 4.50439Z" fill="#005280"/>
</svg>
