<svg width="40" height="40" viewBox="0 0 40 40" fill="none" xmlns="http://www.w3.org/2000/svg">
<path d="M19.998 39.25C23.3137 39.25 26.5733 38.3934 29.4607 36.7634C32.3482 35.1334 34.7657 32.7853 36.4789 29.9464C38.1922 27.1076 39.1431 23.8743 39.2395 20.5599C39.336 17.2456 38.5747 13.9625 37.0294 11.0288C36.942 10.8714 36.7962 10.7545 36.6235 10.7034C36.4508 10.6523 36.2649 10.671 36.1059 10.7554C35.9468 10.8399 35.8273 10.9835 35.7729 11.1552C35.7186 11.3269 35.7338 11.5131 35.8153 11.6737C37.1687 14.2403 37.875 17.0985 37.873 20C36.8933 43.7098 3.10266 43.7098 2.12297 20C1.95797 6.74363 16.698 -2.14162 28.325 4.18338C28.4047 4.22568 28.4921 4.25185 28.5819 4.2604C28.6718 4.26895 28.7625 4.25972 28.8488 4.23323C28.9351 4.20673 29.0154 4.1635 29.085 4.10599C29.1546 4.04848 29.2122 3.97783 29.2545 3.89807C29.2968 3.8183 29.3229 3.73098 29.3315 3.6411C29.34 3.55122 29.3308 3.46054 29.3043 3.37423C29.2778 3.28791 29.2346 3.20767 29.1771 3.13806C29.1196 3.06846 29.0489 3.01086 28.9692 2.96857C26.204 1.50974 23.1244 0.74816 19.998 0.750003C-5.53578 1.80532 -5.53578 38.1954 19.998 39.25Z" fill="white"/>
<path d="M19.9977 14.5C20.5929 14.4996 21.184 14.5983 21.7467 14.7922C21.9191 14.8515 22.108 14.84 22.2719 14.76C22.4358 14.6801 22.5612 14.5383 22.6205 14.3659C22.923 13.1511 20.7815 13.1993 19.9977 13.125C10.878 13.5017 10.8787 26.4983 19.9977 26.875C21.8205 26.873 23.568 26.148 24.8569 24.8591C26.1457 23.5703 26.8707 21.8227 26.8727 20C26.8026 19.2025 26.8486 17.0829 25.638 17.3841C25.4657 17.4434 25.3241 17.5687 25.2442 17.7324C25.1643 17.8961 25.1526 18.0849 25.2117 18.2572C25.4032 18.8182 25.4999 19.4072 25.4977 20C25.222 27.2854 14.7727 27.2854 14.4977 20C14.4995 18.5419 15.0796 17.144 16.1106 16.1129C17.1417 15.0819 18.5396 14.5018 19.9977 14.5Z" fill="white"/>
<path d="M26.5805 9.50531C26.6244 9.42632 26.6522 9.33947 26.6624 9.24972C26.6727 9.15997 26.6651 9.06908 26.6402 8.98225C26.6153 8.89542 26.5736 8.81434 26.5173 8.74366C26.4611 8.67298 26.3914 8.61407 26.3124 8.57031C24.3795 7.50055 22.2069 6.93875 19.9977 6.9375C2.67134 7.65388 2.67134 32.3468 19.9977 33.0625C22.27 33.0639 24.5033 32.4721 26.4768 31.3457C28.4503 30.2193 30.0956 28.5974 31.25 26.6402C32.4045 24.683 33.0281 22.4584 33.0592 20.1863C33.0903 17.9142 32.5278 15.6734 31.4274 13.6853C31.339 13.5258 31.1908 13.4079 31.0154 13.3576C30.8401 13.3073 30.6519 13.3288 30.4924 13.4172C30.3329 13.5056 30.215 13.6538 30.1647 13.8292C30.1144 14.0045 30.1358 14.1926 30.2243 14.3522C34.583 21.9092 28.729 31.8388 19.9977 31.6875C16.8991 31.684 13.9283 30.4516 11.7372 28.2605C9.54614 26.0694 8.31367 23.0987 8.31021 20C8.16034 11.2694 18.0871 5.41469 25.6455 9.77344C25.7245 9.81745 25.8113 9.84543 25.9011 9.85577C25.9909 9.8661 26.0819 9.8586 26.1687 9.83369C26.2556 9.80877 26.3367 9.76694 26.4074 9.71058C26.4781 9.65423 26.5369 9.58447 26.5805 9.50531Z" fill="white"/>
<path d="M27.9211 7.55479L28.1735 10.8527L19.5123 19.5139C19.3871 19.6435 19.3178 19.8172 19.3194 19.9974C19.3209 20.1777 19.3932 20.3501 19.5207 20.4776C19.6482 20.6051 19.8206 20.6774 20.0009 20.6789C20.1811 20.6805 20.3548 20.6112 20.4845 20.486L29.1456 11.8249L32.4435 12.0772C32.5423 12.0847 32.6416 12.0708 32.7345 12.0364C32.8274 12.0019 32.9118 11.9479 32.9818 11.8778L37.9855 6.87417C38.0764 6.78043 38.139 6.66288 38.166 6.53509C38.193 6.40729 38.1833 6.27447 38.138 6.15196C38.0927 6.02946 38.0136 5.92226 37.91 5.84276C37.8064 5.76325 37.6824 5.71469 37.5523 5.70267L34.5273 5.47098L34.2956 2.44598C34.2836 2.31592 34.2351 2.19192 34.1555 2.08829C34.076 1.98466 33.9689 1.90564 33.8463 1.86034C33.7238 1.81505 33.591 1.80534 33.4632 1.83232C33.3354 1.85931 33.2179 1.9219 33.1241 2.01285L28.1205 7.01648C28.0504 7.08649 27.9962 7.17086 27.9618 7.26378C27.9274 7.35671 27.9135 7.45599 27.9211 7.55479ZM33.0389 4.04235C33.3139 7.24404 32.7721 6.68029 35.9559 6.95942L32.2331 10.6822L29.5237 10.4746L29.3161 7.76585L33.0389 4.04235Z" fill="white"/>
</svg>
