<svg width="14" height="14" viewBox="0 0 18 20" fill="none" xmlns="http://www.w3.org/2000/svg">
<path d="M13.5431 5.19275C13.5431 7.69093 11.4985 9.7355 9.00033 9.7355C6.5022 9.7355 4.45762 7.69093 4.45762 5.19275C4.45762 2.69457 6.50216 0.65 9.00033 0.65C11.4985 0.65 13.5431 2.69458 13.5431 5.19275Z" fill="#5B3AEE"/>
<path d="M17.2641 14.6708C17.1049 14.946 16.9237 15.2075 16.7166 15.4769L16.7165 15.4768L16.7085 15.4875C16.42 15.8791 16.0842 16.2376 15.7291 16.5926C15.4323 16.8894 15.0929 17.1863 14.7564 17.4387C13.0791 18.6913 11.0618 19.3501 8.97781 19.3501C6.89803 19.3501 4.88474 18.694 3.20943 17.4463C2.84555 17.1507 2.51334 16.8795 2.22654 16.5927L2.21957 16.5857L2.21239 16.5789C1.8563 16.2438 1.54205 15.8879 1.24712 15.4876L1.24714 15.4876L1.24381 15.4831C1.06159 15.2402 0.872876 14.9758 0.718863 14.7172C0.835855 14.4561 0.984218 14.1849 1.14488 13.9529L1.145 13.9529L1.15251 13.9416C2.06952 12.5559 3.53672 11.6391 5.16609 11.415L5.18567 11.4123L5.20505 11.4084C5.23054 11.4033 5.29461 11.4119 5.34515 11.4498L5.34514 11.4498L5.34914 11.4528C6.41618 12.2403 7.68596 12.6456 9.00047 12.6456C10.315 12.6456 11.5848 12.2403 12.6518 11.4528L12.6518 11.4528L12.6558 11.4498C12.6712 11.4382 12.74 11.4082 12.8489 11.417C14.4685 11.6438 15.9118 12.557 16.8521 13.9471L16.8521 13.9471L16.8561 13.9529C17.0162 14.1842 17.1553 14.4234 17.2641 14.6708Z" fill="#5B3AEE"/>
</svg>
