<svg width="20" height="16" viewBox="0 0 20 16" fill="none" xmlns="http://www.w3.org/2000/svg">
<path fill-rule="evenodd" clip-rule="evenodd" d="M10.0013 2.11565C9.68563 1.50373 9.20764 0.990482 8.61969 0.632128C8.03175 0.273774 7.35652 0.0841355 6.66797 0.0839844C4.59839 0.0839844 2.91797 1.7644 2.91797 3.83398C2.91797 5.90357 4.59839 7.58398 6.66797 7.58398C7.35652 7.58383 8.03175 7.3942 8.61969 7.03584C9.20764 6.67749 9.68563 6.16424 10.0013 5.55232C10.3169 6.1643 10.7949 6.6776 11.3828 7.03596C11.9708 7.39433 12.6461 7.58393 13.3346 7.58398C15.4042 7.58398 17.0846 5.90357 17.0846 3.83398C17.0846 1.7644 15.4042 0.0839844 13.3346 0.0839844C12.6461 0.0841355 11.9709 0.273774 11.3829 0.632128C10.795 0.990482 10.317 1.50373 10.0013 2.11565ZM13.3346 0.917318C14.9442 0.917318 16.2513 2.2244 16.2513 3.83398C16.2513 5.44357 14.9442 6.75065 13.3346 6.75065C11.7251 6.75065 10.418 5.44357 10.418 3.83398C10.418 2.2244 11.7251 0.917318 13.3346 0.917318ZM6.66797 0.917318C8.27755 0.917318 9.58464 2.2244 9.58464 3.83398C9.58464 5.44357 8.27755 6.75065 6.66797 6.75065C5.05839 6.75065 3.7513 5.44357 3.7513 3.83398C3.7513 2.2244 5.05839 0.917318 6.66797 0.917318ZM10.0013 8.72982C10.518 8.52815 11.0801 8.41732 11.668 8.41732H15.0013C17.5326 8.41732 19.5846 10.4694 19.5846 13.0007V14.6673C19.5846 14.9988 19.4529 15.3168 19.2185 15.5512C18.9841 15.7856 18.6662 15.9173 18.3346 15.9173H1.66797C1.33645 15.9173 1.01851 15.7856 0.784085 15.5512C0.549665 15.3168 0.417969 14.9988 0.417969 14.6673V13.0007C0.417969 10.4694 2.47005 8.41732 5.0013 8.41732H8.33464C8.92255 8.41732 9.48464 8.52815 10.0013 8.72982ZM12.0846 13.0007V14.6673C12.0846 14.7778 12.0407 14.8838 11.9626 14.9619C11.8845 15.0401 11.7785 15.084 11.668 15.084H1.66797C1.55746 15.084 1.45148 15.0401 1.37334 14.9619C1.2952 14.8838 1.2513 14.7778 1.2513 14.6673V13.0007C1.2513 12.0061 1.64639 11.0523 2.34965 10.349C3.05291 9.64574 4.00674 9.25065 5.0013 9.25065H8.33464C9.3292 9.25065 10.283 9.64574 10.9863 10.349C11.6895 11.0523 12.0846 12.0061 12.0846 13.0007ZM12.8467 15.084H18.3346C18.4451 15.084 18.5511 15.0401 18.6293 14.9619C18.7074 14.8838 18.7513 14.7778 18.7513 14.6673V13.0007C18.7513 12.0061 18.3562 11.0523 17.653 10.349C16.9497 9.64574 15.9959 9.25065 15.0013 9.25065H11.668C11.4551 9.25065 11.2459 9.26857 11.0426 9.30273C11.6242 9.72796 12.0972 10.2845 12.4231 10.9271C12.749 11.5697 12.9185 12.2802 12.918 13.0007V14.6673C12.918 14.8136 12.893 14.9536 12.8467 15.084Z" fill="#5B3AEE"/>
</svg>
