<svg width="16" height="14" viewBox="0 0 16 14" fill="none" xmlns="http://www.w3.org/2000/svg">
<path fill-rule="evenodd" clip-rule="evenodd" d="M7.99992 2.29208C7.74738 1.80254 7.36499 1.39195 6.89463 1.10526C6.42427 0.81858 5.88409 0.666869 5.33325 0.666748C3.67759 0.666748 2.33325 2.01108 2.33325 3.66675C2.33325 5.32241 3.67759 6.66675 5.33325 6.66675C5.88409 6.66663 6.42427 6.51492 6.89463 6.22823C7.36499 5.94155 7.74738 5.53095 7.99992 5.04142C8.2524 5.531 8.63478 5.94164 9.10515 6.22833C9.57552 6.51502 10.1157 6.6667 10.6666 6.66675C12.3223 6.66675 13.6666 5.32241 13.6666 3.66675C13.6666 2.01108 12.3223 0.666748 10.6666 0.666748C10.1157 0.666869 9.57556 0.81858 9.10521 1.10526C8.63485 1.39195 8.25246 1.80254 7.99992 2.29208ZM10.6666 1.33341C11.9543 1.33341 12.9999 2.37908 12.9999 3.66675C12.9999 4.95441 11.9543 6.00008 10.6666 6.00008C9.37892 6.00008 8.33325 4.95441 8.33325 3.66675C8.33325 2.37908 9.37892 1.33341 10.6666 1.33341ZM5.33325 1.33341C6.62092 1.33341 7.66659 2.37908 7.66659 3.66675C7.66659 4.95441 6.62092 6.00008 5.33325 6.00008C4.04559 6.00008 2.99992 4.95441 2.99992 3.66675C2.99992 2.37908 4.04559 1.33341 5.33325 1.33341ZM7.99992 7.58342C8.41325 7.42208 8.86292 7.33342 9.33325 7.33342H11.9999C14.0249 7.33342 15.6666 8.97508 15.6666 11.0001V12.3334C15.6666 12.5986 15.5612 12.853 15.3737 13.0405C15.1862 13.2281 14.9318 13.3334 14.6666 13.3334H1.33325C1.06804 13.3334 0.813682 13.2281 0.626145 13.0405C0.438609 12.853 0.333252 12.5986 0.333252 12.3334V11.0001C0.333252 8.97508 1.97492 7.33342 3.99992 7.33342H6.66659C7.13692 7.33342 7.58659 7.42208 7.99992 7.58342ZM9.66659 11.0001V12.3334C9.66659 12.4218 9.63147 12.5066 9.56895 12.5691C9.50644 12.6316 9.42166 12.6667 9.33325 12.6667H1.33325C1.24485 12.6667 1.16006 12.6316 1.09755 12.5691C1.03504 12.5066 0.999919 12.4218 0.999919 12.3334V11.0001C0.999919 10.2044 1.31599 9.44137 1.8786 8.87876C2.44121 8.31615 3.20427 8.00008 3.99992 8.00008H6.66659C7.46223 8.00008 8.2253 8.31615 8.78791 8.87876C9.35051 9.44137 9.66659 10.2044 9.66659 11.0001ZM10.2763 12.6667H14.6666C14.755 12.6667 14.8398 12.6316 14.9023 12.5691C14.9648 12.5066 14.9999 12.4218 14.9999 12.3334V11.0001C14.9999 10.2044 14.6838 9.44137 14.1212 8.87876C13.5586 8.31615 12.7956 8.00008 11.9999 8.00008H9.33325C9.16292 8.00008 8.99559 8.01441 8.83292 8.04175C9.29823 8.38193 9.67664 8.82718 9.93735 9.34125C10.1981 9.85532 10.3337 10.4237 10.3333 11.0001V12.3334C10.3333 12.4504 10.3133 12.5624 10.2763 12.6667Z" fill="#4F536C"/>
</svg>
