<?xml version="1.0" encoding="UTF-8"?>
<svg version="1.1" viewBox="0 0 843 1009" width="1280" height="1280" xmlns="http://www.w3.org/2000/svg">
<path transform="translate(341,71)" d="m0 0h2l1 278 10-9 22-18 1-227 5 3 11 7 10 4 12 2h10l15-3 14-7 7-6h2l1 170 28-13 3-1 1-179 3-1 79 14 5 2v145h10l20 4 16 7 9 7 9 9 8 13 5 15 2 11v29l-4 22-6 21-7 19-9 20-13 25-13 21-13 19-13 18v372l10-12 11-14 14-17 11-13 9-11 13-16 14-20 13-21 10-18 12-23 14-32 11-29 12-36 12-44 9-41 8-44 6-43 5-49 3-44 1-24v-83l-168-69-4-2v-51l10 3 82 32 133 52 1 1 3 55v81l-3 52-4 39-7 49-8 42-9 37-10 36-12 37-14 37-13 30-14 29-11 22-13 23-14 23-18 27-12 17-13 17-8 10-9 11-12 14-11 12-7 8-33 33-8 7-10 9-11 9-15 12-18 13-17 11-4 1 3-12 5-12 9-17 12-19 8-12 14-20 10-14h-65l-1-1-1-306-11 9-16 13-4 3-1 281-1 1h-85l-1-227-22 10-10 4-1 213-65 1 12 16 16 23 12 19 12 21 7 17 1 9-5-2-18-12-16-12-14-11-14-12-20-18-10-10-8-7-7-8-12-12-7-8-12-14-11-13-10-13-12-16-12-17-12-18-12-19-15-26-15-28-15-31-14-33-13-35-12-36-12-43-9-40-7-38-6-42-4-38-3-49v-94l2-37 1-11 8-4 39-15 51-20 46-18 79-31h3v51l-31 13-117 48-24 10-1 46 1 44 3 52 5 52 7 50 7 39 9 42 11 41 15 46 11 28 12 27 14 28 16 27 12 18 14 19 24 28 8 10 13 16 11 14 6 8 1-170h-8l-16-4-12-5-11-7-9-9-7-11-5-11-3-12-1-7v-27l3-19 6-22 7-20 9-20 11-22 12-20 16-24 7-10 1-359zm249 192-7 1v211l5-5 10-13 16-24 9-15 10-18 10-21 8-22 5-21 1-7v-23l-4-15-7-11-7-7-14-7-13-3zm-95 34-16 9-16 10v279l6-4 11-9 14-12 2-2v-271zm-119 88-8 7-25 25v248l6-1 24-11 4-2v-266zm-120 149-11 22-9 23-5 18-3 18v17l3 14 6 12 8 9 10 6h2v-139z" fill="#F8C219"/>
<path transform="translate(610,108)" d="m0 0 10 3 82 32 133 52 1 1 3 55v81l-3 52-4 39-7 49-8 42-9 37-10 36-12 37-14 37-13 30-14 29-11 22-13 23-14 23-18 27-12 17-13 17-8 10-9 11-12 14-11 12-7 8-33 33-8 7-10 9-11 9-15 12-18 13-17 11-4 1 3-12 5-12 9-17 12-19 8-12 14-20 10-14h-65l-1-1-1-306-11 9-16 13-4 3h-2v-15l13-11 11-9 9-8 1-271 8-5 25-12 27-10 25-6h2v229l1 371 10-12 11-14 14-17 11-13 9-11 13-16 14-20 13-21 10-18 12-23 14-32 11-29 12-36 12-44 9-41 8-44 6-43 5-49 3-44 1-24v-83l-168-69-4-2z" fill="#C90808"/>
<path transform="translate(227,108)" d="m0 0h3v51l-31 13-117 48-24 10-1 46 1 44 3 52 5 52 7 50 7 39 9 42 11 41 15 46 11 28 12 27 14 28 16 27 12 18 14 19 24 28 8 10 13 16 11 14 6 8 1-191v-142l12-21 19-28 13-17 13-16 11-13 11-12 6-7h1v247l20-8 12-6h2v14l-16 8-17 7-1 213-65 1 12 16 16 23 12 19 12 21 7 17 1 9-5-2-18-12-16-12-14-11-14-12-20-18-10-10-8-7-7-8-12-12-7-8-12-14-11-13-10-13-12-16-12-17-12-18-12-19-15-26-15-28-15-31-14-33-13-35-12-36-12-43-9-40-7-38-6-42-4-38-3-49v-94l2-37 1-11 8-4 39-15 51-20 46-18 41-16z" fill="#C90808"/>
<path transform="translate(462,317)" d="m0 0h1v575l-1 1h-85v-509l15-14 11-9 13-11 20-15 18-13z" fill="#005280"/>
<path transform="translate(341,71)" d="m0 0h2v280l-17 16-25 25-7 8-9 10-9 11-13 16-5 7h-1v-358z" fill="#C90808"/>
<path transform="translate(377,95)" d="m0 0 5 3 11 7 10 4 12 2h10l15-3 14-7 7-6h2v171l-21 12-23 14-23 16-17 13h-2z" fill="#005280"/>
<path transform="translate(497,71)" d="m0 0 36 6 49 9 1 1v145l-30 3-23 5-34 11v-179z" fill="#C90808"/>
<path transform="translate(414,7)" d="m0 0h12l13 4 9 6 7 7 5 8 3 10 1 10-2 12-6 12-7 8-11 7-10 3h-16l-12-4-9-6-8-9-5-11-2-9v-9l3-12 6-10 4-5 10-7 10-4z" fill="#242021"/>
<path transform="translate(495,568)" d="m0 0h2v16l-14 12-14 11-5 4h-2v-15l13-11 11-9z" fill="#F8C219"/>
<path transform="translate(375,651)" d="m0 0h2v14l-16 8-18 7v-15l20-8z" fill="#F8C219"/>
</svg>
