<svg xmlns="http://www.w3.org/2000/svg" xmlns:xlink="http://www.w3.org/1999/xlink" viewBox="0 0 68.12 67.31"><defs><style>.cls-1{isolation:isolate;}.cls-2{mix-blend-mode:color-burn;fill:url(#radial-gradient);}.cls-3{fill:#fff;}.cls-4{fill:url(#linear-gradient);}.cls-5{fill:url(#linear-gradient-2);}.cls-6{fill:#0077cb;}</style><radialGradient id="radial-gradient" cx="32.2" cy="35.11" r="32.2" gradientUnits="userSpaceOnUse"><stop offset="0.53" stop-color="#007aff"/><stop offset="0.59" stop-color="#3897ff"/><stop offset="0.65" stop-color="#6cb2ff"/><stop offset="0.71" stop-color="#99caff"/><stop offset="0.76" stop-color="#beddff"/><stop offset="0.82" stop-color="#daecff"/><stop offset="0.88" stop-color="#eff7ff"/><stop offset="0.94" stop-color="#fbfdff"/><stop offset="1" stop-color="#fff"/></radialGradient><linearGradient id="linear-gradient" x1="10.04" y1="55.27" x2="49.88" y2="4.54" gradientUnits="userSpaceOnUse"><stop offset="0" stop-color="#003575"/><stop offset="1" stop-color="#007dd4"/></linearGradient><linearGradient id="linear-gradient-2" x1="19.37" y1="62.6" x2="59.21" y2="11.87" xlink:href="#linear-gradient"/></defs><g class="cls-1"><g id="Layer_2" data-name="Layer 2"><g id="Layer_1-2" data-name="Layer 1"><circle class="cls-2" cx="32.2" cy="35.11" r="32.2"/><circle class="cls-3" cx="35.63" cy="32.2" r="23.76" transform="translate(-3.89 59.47) rotate(-76.72)"/><path class="cls-4" d="M4.8,25.27a2.25,2.25,0,0,0,1.85-4,31,31,0,0,1,58,0,2.25,2.25,0,0,0,1.85,4,2.26,2.26,0,0,0-.71-4.43,32.18,32.18,0,0,0-60.23,0,2.26,2.26,0,0,0-.71,4.43Z"/><path class="cls-5" d="M66.4,39.35a2.25,2.25,0,0,0-1.88,4,31,31,0,0,1-57.79,0,2.24,2.24,0,1,0-1.13.4,32.18,32.18,0,0,0,60.06,0,2.26,2.26,0,0,0,.74-4.43Z"/><path class="cls-6" d="M28.75,40.08A5.33,5.33,0,0,1,24.15,38a9.12,9.12,0,0,1-1.53-5.54,9.13,9.13,0,0,1,1.53-5.55,5.33,5.33,0,0,1,4.6-2.08,5.31,5.31,0,0,1,4.59,2.08,9.13,9.13,0,0,1,1.53,5.55A9.12,9.12,0,0,1,33.34,38,5.31,5.31,0,0,1,28.75,40.08ZM26.56,28.9a7.88,7.88,0,0,0-.69,3.57A7.86,7.86,0,0,0,26.56,36a2.44,2.44,0,0,0,4.37,0,7.72,7.72,0,0,0,.7-3.56,7.74,7.74,0,0,0-.7-3.57,2.44,2.44,0,0,0-4.37,0Z"/><path class="cls-6" d="M37.86,25.17h6V39.91H40.68V28H37.86Z"/></g></g></g></svg>