<svg xmlns="http://www.w3.org/2000/svg" xmlns:xlink="http://www.w3.org/1999/xlink" viewBox="0 0 68.12 67.31"><defs><style>.cls-1{isolation:isolate;}.cls-2{mix-blend-mode:color-burn;fill:url(#radial-gradient);}.cls-3{fill:#fff;}.cls-4{fill:url(#linear-gradient);}.cls-5{fill:url(#linear-gradient-2);}.cls-6{fill:#0077cb;}</style><radialGradient id="radial-gradient" cx="32.2" cy="35.11" r="32.2" gradientUnits="userSpaceOnUse"><stop offset="0.53" stop-color="#007aff"/><stop offset="0.59" stop-color="#3897ff"/><stop offset="0.65" stop-color="#6cb2ff"/><stop offset="0.71" stop-color="#99caff"/><stop offset="0.76" stop-color="#beddff"/><stop offset="0.82" stop-color="#daecff"/><stop offset="0.88" stop-color="#eff7ff"/><stop offset="0.94" stop-color="#fbfdff"/><stop offset="1" stop-color="#fff"/></radialGradient><linearGradient id="linear-gradient" x1="10.04" y1="55.27" x2="49.88" y2="4.54" gradientUnits="userSpaceOnUse"><stop offset="0" stop-color="#003575"/><stop offset="1" stop-color="#007dd4"/></linearGradient><linearGradient id="linear-gradient-2" x1="19.37" y1="62.6" x2="59.21" y2="11.87" xlink:href="#linear-gradient"/></defs><g class="cls-1"><g id="Layer_2" data-name="Layer 2"><g id="Layer_1-2" data-name="Layer 1"><circle class="cls-2" cx="32.2" cy="35.11" r="32.2"/><circle class="cls-3" cx="35.63" cy="32.2" r="23.76" transform="translate(-3.89 59.47) rotate(-76.72)"/><path class="cls-4" d="M4.8,25.27a2.25,2.25,0,0,0,1.85-4,31,31,0,0,1,58,0,2.25,2.25,0,0,0,1.85,4,2.26,2.26,0,0,0-.71-4.43,32.18,32.18,0,0,0-60.23,0,2.26,2.26,0,0,0-.71,4.43Z"/><path class="cls-5" d="M66.4,39.35a2.25,2.25,0,0,0-1.88,4,31,31,0,0,1-57.79,0,2.24,2.24,0,1,0-1.13.4,32.18,32.18,0,0,0,60.06,0,2.26,2.26,0,0,0,.74-4.43Z"/><path class="cls-6" d="M29.13,40.16a5.29,5.29,0,0,1-4.57-2.07A9.17,9.17,0,0,1,23,32.54,9.17,9.17,0,0,1,24.56,27a5.29,5.29,0,0,1,4.57-2.07A5.31,5.31,0,0,1,33.71,27a9.24,9.24,0,0,1,1.52,5.55,9.24,9.24,0,0,1-1.52,5.55A5.31,5.31,0,0,1,29.13,40.16ZM27,29a7.83,7.83,0,0,0-.69,3.56A7.8,7.8,0,0,0,27,36.11a2.43,2.43,0,0,0,4.35,0A7.8,7.8,0,0,0,32,32.55,7.83,7.83,0,0,0,31.31,29,2.43,2.43,0,0,0,27,29Z"/><path class="cls-6" d="M37.41,28v-2.8h9v2.28l-3,3.43a4.31,4.31,0,0,1,2.74,1.49,4.22,4.22,0,0,1,1,2.75,4.49,4.49,0,0,1-1.57,3.64,6,6,0,0,1-4,1.32,8.72,8.72,0,0,1-4.95-1.73l1.35-2.62a6.66,6.66,0,0,0,3.73,1.48,2.63,2.63,0,0,0,1.63-.48A1.66,1.66,0,0,0,44,35.32a1.71,1.71,0,0,0-.74-1.45,3.4,3.4,0,0,0-2.05-.54,7,7,0,0,0-2,.4V31.31L42,28Z"/></g></g></g></svg>