<svg xmlns="http://www.w3.org/2000/svg" xmlns:xlink="http://www.w3.org/1999/xlink" viewBox="0 0 68.12 67.31"><defs><style>.cls-1{isolation:isolate;}.cls-2{mix-blend-mode:color-burn;fill:url(#radial-gradient);}.cls-3{fill:#fff;}.cls-4{fill:url(#linear-gradient);}.cls-5{fill:url(#linear-gradient-2);}.cls-6{fill:#0077cb;}</style><radialGradient id="radial-gradient" cx="32.2" cy="35.11" r="32.2" gradientUnits="userSpaceOnUse"><stop offset="0.53" stop-color="#007aff"/><stop offset="0.59" stop-color="#3897ff"/><stop offset="0.65" stop-color="#6cb2ff"/><stop offset="0.71" stop-color="#99caff"/><stop offset="0.76" stop-color="#beddff"/><stop offset="0.82" stop-color="#daecff"/><stop offset="0.88" stop-color="#eff7ff"/><stop offset="0.94" stop-color="#fbfdff"/><stop offset="1" stop-color="#fff"/></radialGradient><linearGradient id="linear-gradient" x1="10.04" y1="55.27" x2="49.88" y2="4.54" gradientUnits="userSpaceOnUse"><stop offset="0" stop-color="#003575"/><stop offset="1" stop-color="#007dd4"/></linearGradient><linearGradient id="linear-gradient-2" x1="19.37" y1="62.6" x2="59.21" y2="11.87" xlink:href="#linear-gradient"/></defs><g class="cls-1"><g id="Layer_2" data-name="Layer 2"><g id="Layer_1-2" data-name="Layer 1"><circle class="cls-2" cx="32.2" cy="35.11" r="32.2"/><circle class="cls-3" cx="35.63" cy="32.2" r="23.76" transform="translate(-3.89 59.47) rotate(-76.72)"/><path class="cls-4" d="M4.8,25.27a2.25,2.25,0,0,0,1.85-4,31,31,0,0,1,58,0,2.25,2.25,0,0,0,1.85,4,2.26,2.26,0,0,0-.71-4.43,32.18,32.18,0,0,0-60.23,0,2.26,2.26,0,0,0-.71,4.43Z"/><path class="cls-5" d="M66.4,39.35a2.25,2.25,0,0,0-1.88,4,31,31,0,0,1-57.79,0,2.24,2.24,0,1,0-1.13.4,32.18,32.18,0,0,0,60.06,0,2.26,2.26,0,0,0,.74-4.43Z"/><path class="cls-6" d="M29.13,40.16a5.29,5.29,0,0,1-4.57-2.07A9.17,9.17,0,0,1,23,32.54,9.17,9.17,0,0,1,24.56,27a5.29,5.29,0,0,1,4.57-2.07A5.31,5.31,0,0,1,33.71,27a9.24,9.24,0,0,1,1.52,5.55,9.24,9.24,0,0,1-1.52,5.55A5.31,5.31,0,0,1,29.13,40.16ZM27,29a7.83,7.83,0,0,0-.69,3.56A7.8,7.8,0,0,0,27,36.11a2.43,2.43,0,0,0,4.35,0A7.8,7.8,0,0,0,32,32.55,7.83,7.83,0,0,0,31.31,29,2.43,2.43,0,0,0,27,29Z"/><path class="cls-6" d="M41.93,28a2.57,2.57,0,0,0-2.12.91,4.64,4.64,0,0,0-.92,2.5,5.3,5.3,0,0,1,2.91-.88,4.74,4.74,0,0,1,3.45,1.35,4.78,4.78,0,0,1,1.38,3.59,4.6,4.6,0,0,1-1.49,3.6A5.34,5.34,0,0,1,41.4,40.4a5.79,5.79,0,0,1-2.71-.6,4.31,4.31,0,0,1-1.78-1.68,10,10,0,0,1-1.27-5.23,11.52,11.52,0,0,1,.5-3.55,6,6,0,0,1,1.36-2.42,5.54,5.54,0,0,1,4.18-1.77,6.2,6.2,0,0,1,2,.31,6.76,6.76,0,0,1,1.44.62,12.89,12.89,0,0,1,1.12.8L44.65,29.2l-.37-.34a4.81,4.81,0,0,0-1-.55A3.32,3.32,0,0,0,41.93,28Zm-.43,5.31a2.39,2.39,0,0,0-1.65.58,1.92,1.92,0,0,0-.66,1.51A2.22,2.22,0,0,0,39.82,37a2.1,2.1,0,0,0,1.58.66A2.2,2.2,0,0,0,43,37a2,2,0,0,0,.64-1.52,2.31,2.31,0,0,0-.57-1.59A2,2,0,0,0,41.5,33.29Z"/></g></g></g></svg>