<svg width="112" height="112" viewBox="0 0 112 112" fill="none" xmlns="http://www.w3.org/2000/svg">
<rect width="2" height="2" transform="matrix(1 0 0 -1 0 2)" fill="#808080"/>
<rect width="2" height="2" transform="matrix(1 0 0 -1 0 22)" fill="#808080"/>
<rect width="2" height="2" transform="matrix(1 0 0 -1 0 42)" fill="#808080"/>
<rect width="2" height="2" transform="matrix(1 0 0 -1 0 62)" fill="#808080"/>
<rect width="2" height="2" transform="matrix(1 0 0 -1 0 82)" fill="#808080"/>
<rect width="2" height="2" transform="matrix(1 0 0 -1 0 102)" fill="#808080"/>
<rect width="2" height="2" transform="matrix(1 0 0 -1 0 12)" fill="#808080"/>
<rect width="2" height="2" transform="matrix(1 0 0 -1 0 32)" fill="#808080"/>
<rect width="2" height="2" transform="matrix(1 0 0 -1 0 52)" fill="#808080"/>
<rect width="2" height="2" transform="matrix(1 0 0 -1 0 72)" fill="#808080"/>
<rect width="2" height="2" transform="matrix(1 0 0 -1 0 92)" fill="#808080"/>
<rect width="2" height="2" transform="matrix(1 0 0 -1 0 112)" fill="#808080"/>
<rect width="2" height="2" transform="matrix(1 0 0 -1 10 2)" fill="#808080"/>
<rect width="2" height="2" transform="matrix(1 0 0 -1 10 22)" fill="#808080"/>
<rect width="2" height="2" transform="matrix(1 0 0 -1 10 42)" fill="#808080"/>
<rect width="2" height="2" transform="matrix(1 0 0 -1 10 62)" fill="#808080"/>
<rect width="2" height="2" transform="matrix(1 0 0 -1 10 82)" fill="#808080"/>
<rect width="2" height="2" transform="matrix(1 0 0 -1 10 102)" fill="#808080"/>
<rect width="2" height="2" transform="matrix(1 0 0 -1 10 12)" fill="#808080"/>
<rect width="2" height="2" transform="matrix(1 0 0 -1 10 32)" fill="#808080"/>
<rect width="2" height="2" transform="matrix(1 0 0 -1 10 52)" fill="#808080"/>
<rect width="2" height="2" transform="matrix(1 0 0 -1 10 72)" fill="#808080"/>
<rect width="2" height="2" transform="matrix(1 0 0 -1 10 92)" fill="#808080"/>
<rect width="2" height="2" transform="matrix(1 0 0 -1 10 112)" fill="#808080"/>
<rect width="2" height="2" transform="matrix(1 0 0 -1 20 2)" fill="#808080"/>
<rect width="2" height="2" transform="matrix(1 0 0 -1 20 22)" fill="#808080"/>
<rect width="2" height="2" transform="matrix(1 0 0 -1 20 42)" fill="#808080"/>
<rect width="2" height="2" transform="matrix(1 0 0 -1 20 62)" fill="#808080"/>
<rect width="2" height="2" transform="matrix(1 0 0 -1 20 82)" fill="#808080"/>
<rect width="2" height="2" transform="matrix(1 0 0 -1 20 102)" fill="#808080"/>
<rect width="2" height="2" transform="matrix(1 0 0 -1 20 12)" fill="#808080"/>
<rect width="2" height="2" transform="matrix(1 0 0 -1 20 32)" fill="#808080"/>
<rect width="2" height="2" transform="matrix(1 0 0 -1 20 52)" fill="#808080"/>
<rect width="2" height="2" transform="matrix(1 0 0 -1 20 72)" fill="#808080"/>
<rect width="2" height="2" transform="matrix(1 0 0 -1 20 92)" fill="#808080"/>
<rect width="2" height="2" transform="matrix(1 0 0 -1 20 112)" fill="#808080"/>
<rect width="2" height="2" transform="matrix(1 0 0 -1 30 2)" fill="#808080"/>
<rect width="2" height="2" transform="matrix(1 0 0 -1 30 22)" fill="#808080"/>
<rect width="2" height="2" transform="matrix(1 0 0 -1 30 42)" fill="#808080"/>
<rect width="2" height="2" transform="matrix(1 0 0 -1 30 62)" fill="#808080"/>
<rect width="2" height="2" transform="matrix(1 0 0 -1 30 82)" fill="#808080"/>
<rect width="2" height="2" transform="matrix(1 0 0 -1 30 102)" fill="#808080"/>
<rect width="2" height="2" transform="matrix(1 0 0 -1 30 12)" fill="#808080"/>
<rect width="2" height="2" transform="matrix(1 0 0 -1 30 32)" fill="#808080"/>
<rect width="2" height="2" transform="matrix(1 0 0 -1 30 52)" fill="#808080"/>
<rect width="2" height="2" transform="matrix(1 0 0 -1 30 72)" fill="#808080"/>
<rect width="2" height="2" transform="matrix(1 0 0 -1 30 92)" fill="#808080"/>
<rect width="2" height="2" transform="matrix(1 0 0 -1 30 112)" fill="#808080"/>
<rect width="2" height="2" transform="matrix(1 0 0 -1 40 2)" fill="#808080"/>
<rect width="2" height="2" transform="matrix(1 0 0 -1 40 22)" fill="#808080"/>
<rect width="2" height="2" transform="matrix(1 0 0 -1 40 42)" fill="#808080"/>
<rect width="2" height="2" transform="matrix(1 0 0 -1 40 62)" fill="#808080"/>
<rect width="2" height="2" transform="matrix(1 0 0 -1 40 82)" fill="#808080"/>
<rect width="2" height="2" transform="matrix(1 0 0 -1 40 102)" fill="#808080"/>
<rect width="2" height="2" transform="matrix(1 0 0 -1 40 12)" fill="#808080"/>
<rect width="2" height="2" transform="matrix(1 0 0 -1 40 32)" fill="#808080"/>
<rect width="2" height="2" transform="matrix(1 0 0 -1 40 52)" fill="#808080"/>
<rect width="2" height="2" transform="matrix(1 0 0 -1 40 72)" fill="#808080"/>
<rect width="2" height="2" transform="matrix(1 0 0 -1 40 92)" fill="#808080"/>
<rect width="2" height="2" transform="matrix(1 0 0 -1 40 112)" fill="#808080"/>
<rect width="2" height="2" transform="matrix(1 0 0 -1 50 2)" fill="#808080"/>
<rect width="2" height="2" transform="matrix(1 0 0 -1 50 22)" fill="#808080"/>
<rect width="2" height="2" transform="matrix(1 0 0 -1 50 42)" fill="#808080"/>
<rect width="2" height="2" transform="matrix(1 0 0 -1 50 62)" fill="#808080"/>
<rect width="2" height="2" transform="matrix(1 0 0 -1 50 82)" fill="#808080"/>
<rect width="2" height="2" transform="matrix(1 0 0 -1 50 102)" fill="#808080"/>
<rect width="2" height="2" transform="matrix(1 0 0 -1 50 12)" fill="#808080"/>
<rect width="2" height="2" transform="matrix(1 0 0 -1 50 32)" fill="#808080"/>
<rect width="2" height="2" transform="matrix(1 0 0 -1 50 52)" fill="#808080"/>
<rect width="2" height="2" transform="matrix(1 0 0 -1 50 72)" fill="#808080"/>
<rect width="2" height="2" transform="matrix(1 0 0 -1 50 92)" fill="#808080"/>
<rect width="2" height="2" transform="matrix(1 0 0 -1 50 112)" fill="#808080"/>
<rect width="2" height="2" transform="matrix(1 0 0 -1 60 2)" fill="#808080"/>
<rect width="2" height="2" transform="matrix(1 0 0 -1 60 22)" fill="#808080"/>
<rect width="2" height="2" transform="matrix(1 0 0 -1 60 42)" fill="#808080"/>
<rect width="2" height="2" transform="matrix(1 0 0 -1 60 62)" fill="#808080"/>
<rect width="2" height="2" transform="matrix(1 0 0 -1 60 82)" fill="#808080"/>
<rect width="2" height="2" transform="matrix(1 0 0 -1 60 102)" fill="#808080"/>
<rect width="2" height="2" transform="matrix(1 0 0 -1 60 12)" fill="#808080"/>
<rect width="2" height="2" transform="matrix(1 0 0 -1 60 32)" fill="#808080"/>
<rect width="2" height="2" transform="matrix(1 0 0 -1 60 52)" fill="#808080"/>
<rect width="2" height="2" transform="matrix(1 0 0 -1 60 72)" fill="#808080"/>
<rect width="2" height="2" transform="matrix(1 0 0 -1 60 92)" fill="#808080"/>
<rect width="2" height="2" transform="matrix(1 0 0 -1 60 112)" fill="#808080"/>
<rect width="2" height="2" transform="matrix(1 0 0 -1 70 2)" fill="#808080"/>
<rect width="2" height="2" transform="matrix(1 0 0 -1 70 22)" fill="#808080"/>
<rect width="2" height="2" transform="matrix(1 0 0 -1 70 42)" fill="#808080"/>
<rect width="2" height="2" transform="matrix(1 0 0 -1 70 62)" fill="#808080"/>
<rect width="2" height="2" transform="matrix(1 0 0 -1 70 82)" fill="#808080"/>
<rect width="2" height="2" transform="matrix(1 0 0 -1 70 102)" fill="#808080"/>
<rect width="2" height="2" transform="matrix(1 0 0 -1 70 12)" fill="#808080"/>
<rect width="2" height="2" transform="matrix(1 0 0 -1 70 32)" fill="#808080"/>
<rect width="2" height="2" transform="matrix(1 0 0 -1 70 52)" fill="#808080"/>
<rect width="2" height="2" transform="matrix(1 0 0 -1 70 72)" fill="#808080"/>
<rect width="2" height="2" transform="matrix(1 0 0 -1 70 92)" fill="#808080"/>
<rect width="2" height="2" transform="matrix(1 0 0 -1 70 112)" fill="#808080"/>
<rect width="2" height="2" transform="matrix(1 0 0 -1 80 2)" fill="#808080"/>
<rect width="2" height="2" transform="matrix(1 0 0 -1 80 22)" fill="#808080"/>
<rect width="2" height="2" transform="matrix(1 0 0 -1 80 42)" fill="#808080"/>
<rect width="2" height="2" transform="matrix(1 0 0 -1 80 62)" fill="#808080"/>
<rect width="2" height="2" transform="matrix(1 0 0 -1 80 82)" fill="#808080"/>
<rect width="2" height="2" transform="matrix(1 0 0 -1 80 102)" fill="#808080"/>
<rect width="2" height="2" transform="matrix(1 0 0 -1 80 12)" fill="#808080"/>
<rect width="2" height="2" transform="matrix(1 0 0 -1 80 32)" fill="#808080"/>
<rect width="2" height="2" transform="matrix(1 0 0 -1 80 52)" fill="#808080"/>
<rect width="2" height="2" transform="matrix(1 0 0 -1 80 72)" fill="#808080"/>
<rect width="2" height="2" transform="matrix(1 0 0 -1 80 92)" fill="#808080"/>
<rect width="2" height="2" transform="matrix(1 0 0 -1 80 112)" fill="#808080"/>
<rect width="2" height="2" transform="matrix(1 0 0 -1 90 2)" fill="#808080"/>
<rect width="2" height="2" transform="matrix(1 0 0 -1 90 22)" fill="#808080"/>
<rect width="2" height="2" transform="matrix(1 0 0 -1 90 42)" fill="#808080"/>
<rect width="2" height="2" transform="matrix(1 0 0 -1 90 62)" fill="#808080"/>
<rect width="2" height="2" transform="matrix(1 0 0 -1 90 82)" fill="#808080"/>
<rect width="2" height="2" transform="matrix(1 0 0 -1 90 102)" fill="#808080"/>
<rect width="2" height="2" transform="matrix(1 0 0 -1 90 12)" fill="#808080"/>
<rect width="2" height="2" transform="matrix(1 0 0 -1 90 32)" fill="#808080"/>
<rect width="2" height="2" transform="matrix(1 0 0 -1 90 52)" fill="#808080"/>
<rect width="2" height="2" transform="matrix(1 0 0 -1 90 72)" fill="#808080"/>
<rect width="2" height="2" transform="matrix(1 0 0 -1 90 92)" fill="#808080"/>
<rect width="2" height="2" transform="matrix(1 0 0 -1 90 112)" fill="#808080"/>
<rect width="2" height="2" transform="matrix(1 0 0 -1 100 2)" fill="#808080"/>
<rect width="2" height="2" transform="matrix(1 0 0 -1 100 22)" fill="#808080"/>
<rect width="2" height="2" transform="matrix(1 0 0 -1 100 42)" fill="#808080"/>
<rect width="2" height="2" transform="matrix(1 0 0 -1 100 62)" fill="#808080"/>
<rect width="2" height="2" transform="matrix(1 0 0 -1 100 82)" fill="#808080"/>
<rect width="2" height="2" transform="matrix(1 0 0 -1 100 102)" fill="#808080"/>
<rect width="2" height="2" transform="matrix(1 0 0 -1 100 12)" fill="#808080"/>
<rect width="2" height="2" transform="matrix(1 0 0 -1 100 32)" fill="#808080"/>
<rect width="2" height="2" transform="matrix(1 0 0 -1 100 52)" fill="#808080"/>
<rect width="2" height="2" transform="matrix(1 0 0 -1 100 72)" fill="#808080"/>
<rect width="2" height="2" transform="matrix(1 0 0 -1 100 92)" fill="#808080"/>
<rect width="2" height="2" transform="matrix(1 0 0 -1 100 112)" fill="#808080"/>
<rect width="2" height="2" transform="matrix(1 0 0 -1 110 2)" fill="#808080"/>
<rect width="2" height="2" transform="matrix(1 0 0 -1 110 22)" fill="#808080"/>
<rect width="2" height="2" transform="matrix(1 0 0 -1 110 42)" fill="#808080"/>
<rect width="2" height="2" transform="matrix(1 0 0 -1 110 62)" fill="#808080"/>
<rect width="2" height="2" transform="matrix(1 0 0 -1 110 82)" fill="#808080"/>
<rect width="2" height="2" transform="matrix(1 0 0 -1 110 102)" fill="#808080"/>
<rect width="2" height="2" transform="matrix(1 0 0 -1 110 12)" fill="#808080"/>
<rect width="2" height="2" transform="matrix(1 0 0 -1 110 32)" fill="#808080"/>
<rect width="2" height="2" transform="matrix(1 0 0 -1 110 52)" fill="#808080"/>
<rect width="2" height="2" transform="matrix(1 0 0 -1 110 72)" fill="#808080"/>
<rect width="2" height="2" transform="matrix(1 0 0 -1 110 92)" fill="#808080"/>
<rect width="2" height="2" transform="matrix(1 0 0 -1 110 112)" fill="#808080"/>
</svg>
