<svg width="465" height="518" viewBox="0 0 465 518" fill="none" xmlns="http://www.w3.org/2000/svg">
<path fill-rule="evenodd" clip-rule="evenodd" d="M420.447 260.915C412.812 307.987 427.942 357.855 404.495 399.543C378.334 446.058 334.049 478.993 285.109 501.543C227.393 528.138 162.651 514.115 111.763 478.931C37.9382 424.085 79.498 451.059 31.7638 402.634C-4.63238 352.894 2.0294 291.21 4.00953 235.414C5.97091 180.145 37.1777 173.029 74.7288 131.938C109.556 93.8273 103.505 16.8464 153.893 3.74508C204.203 -9.3361 237.706 60.4967 287.12 76.7142C341.467 94.5511 419.544 55.916 452.786 101.842C485.509 147.051 429.327 206.173 420.447 260.915Z" stroke="#F8BC24" stroke-width="4"/>
</svg>
