<svg width="50" height="50" viewBox="0 0 50 50" fill="none" xmlns="http://www.w3.org/2000/svg">
<path d="M38.7735 43.2714H11.0073C8.47568 43.2714 6.42334 41.2191 6.42334 38.6874V25.0663H43.3575V38.6874C43.3575 41.2191 41.3052 43.2714 38.7735 43.2714Z" fill="#5B3AEE"/>
<path d="M36.3692 48.8845V45.7812C36.3692 39.4418 31.2301 34.3027 24.8907 34.3027C18.5513 34.3027 13.4121 39.4419 13.4121 45.7812V48.8845H36.3692Z" fill="#FEF2A8"/>
<path d="M25.6946 38.3619C27.9108 39.3587 29.4698 41.7244 29.4698 44.4853V45.1495C29.4698 46.1835 28.6315 47.0218 27.5976 47.0218H17.2285V48.914H32.5528V45.982C32.5528 42.0218 29.5484 38.7639 25.6946 38.3619Z" fill="#EEB6A8"/>
<path d="M29.6527 44.5987C28.7594 43.7798 29.355 39.7252 29.355 39.7252C28.6019 39.1844 27.7468 38.7766 26.8239 38.5367V42.5332C25.6103 43.4834 24.4397 43.568 23.3251 42.5332V38.4519C22.3211 38.6607 21.3888 39.0649 20.5707 39.6246C20.5707 39.6246 21.0174 43.631 20.3474 44.5244C19.6773 45.4177 17.3027 44.8965 17.3027 44.8965C17.2551 45.2419 17.2285 45.594 17.2285 45.9525V48.8846H32.5527V45.9525C32.5527 45.5682 32.5229 45.1912 32.4683 44.8221C32.4683 44.822 30.5461 45.4176 29.6527 44.5987Z" fill="#8BB6EF"/>
<path d="M32.4645 44.8231C32.3851 44.8473 30.5269 45.4 29.6527 44.5986C29.5819 44.5337 29.5205 44.4483 29.4674 44.3464C29.4683 44.3927 29.4698 44.4387 29.4698 44.4851V45.1494C29.4698 46.1834 28.6315 47.0217 27.5976 47.0217H17.2285V48.8844H32.5527V45.9815C32.5527 45.5877 32.5218 45.2011 32.4645 44.8231Z" fill="#8388EF"/>
<path d="M29.3508 39.7533C28.5985 39.2138 27.745 38.8072 26.8237 38.5677V39.0298C27.9082 39.8412 28.7386 41.0217 29.1605 42.4038C29.1541 41.2047 29.3226 39.9539 29.3508 39.7533Z" fill="#8388EF"/>
<path d="M44.8237 31.7283C45.928 29.9417 45.3749 27.5982 43.5883 26.4939C41.8017 25.3897 39.4582 25.9428 38.354 27.7294C37.2497 29.5159 37.8028 31.8594 39.5894 32.9637C41.3759 34.068 43.7194 33.5149 44.8237 31.7283Z" fill="#D49C8D"/>
<path d="M11.4614 31.74C12.5657 29.9534 12.0126 27.6099 10.226 26.5057C8.43943 25.4014 6.09593 25.9545 4.99165 27.7411C3.88738 29.5276 4.44049 31.8711 6.22707 32.9754C8.01364 34.0797 10.3571 33.5266 11.4614 31.74Z" fill="#D49C8D"/>
<path d="M28.1297 39.1295H21.6512C13.6009 39.1295 7.07471 32.6034 7.07471 24.5531C7.07471 16.5028 13.6008 9.97668 21.6512 9.97668H28.1296C36.1799 9.97668 42.706 16.5028 42.706 24.5531C42.7061 32.6033 36.18 39.1295 28.1297 39.1295Z" fill="#D49C8D"/>
<path d="M28.1301 10.04H26.2608C32.7873 10.04 38.0781 15.3308 38.0781 21.8573V22.8608C38.0781 29.3874 32.7873 34.6781 26.2608 34.6781H18.8925C12.6468 34.6781 7.5335 29.8327 7.10498 23.696C7.08604 24.0005 7.0752 24.3071 7.0752 24.6164C7.0752 32.6667 13.6013 39.1929 21.6517 39.1929H28.1301C36.1805 39.1929 42.7065 32.6668 42.7065 24.6165C42.7064 16.5662 36.1804 10.04 28.1301 10.04Z" fill="#C7758D"/>
<path d="M41.4338 30.3804C43.1744 29.3029 44.6664 27.6451 44.8563 24.808V23.0978C44.8563 13.6262 37.178 5.94788 27.7063 5.94788H22.0752C12.6036 5.94788 4.92529 13.6261 4.92529 23.0978V24.808C5.04619 27.811 6.84209 29.4134 8.11299 30.4633C12.0055 24.6863 15.9414 19.274 20.2127 16.684C26.8121 21.9069 33.95 26.3833 41.4338 30.3804Z" fill="#5B3AEE"/>
<path d="M28.3856 28.8236C28.1411 28.8236 27.8934 28.7736 27.6646 28.6684C25.6264 27.7307 23.7877 27.7261 21.8779 28.654C21.1702 28.9978 20.2595 28.8021 19.8436 28.2167C19.4279 27.6312 19.6646 26.8778 20.3723 26.5339C23.202 25.1588 26.1416 25.154 29.1095 26.5195C29.8268 26.8495 30.0848 27.5981 29.6858 28.1915C29.414 28.5957 28.9077 28.8236 28.3856 28.8236Z" fill="#FFE266"/>
<path d="M15.4501 24.4086C12.0464 24.4086 9.28711 27.1679 9.28711 30.5716C9.28711 33.9753 12.0464 36.7346 15.4501 36.7346C18.8538 36.7346 21.6131 33.9753 21.6131 30.5716C21.6131 27.1679 18.8538 24.4086 15.4501 24.4086ZM15.4501 34.5068C13.2768 34.5068 11.5149 32.745 11.5149 30.5716C11.5149 28.3983 13.2768 26.6365 15.4501 26.6365C17.6234 26.6365 19.3853 28.3983 19.3853 30.5716C19.3853 32.745 17.6234 34.5068 15.4501 34.5068Z" fill="#FFE266"/>
<path d="M34.0624 24.4086C30.6587 24.4086 27.8994 27.1679 27.8994 30.5716C27.8994 33.9753 30.6587 36.7346 34.0624 36.7346C37.4661 36.7346 40.2254 33.9753 40.2254 30.5716C40.2254 27.1679 37.4661 24.4086 34.0624 24.4086ZM34.0624 34.5068C31.8891 34.5068 30.1272 32.745 30.1272 30.5716C30.1272 28.3983 31.8891 26.6365 34.0624 26.6365C36.2357 26.6365 37.9976 28.3983 37.9976 30.5716C37.9976 32.745 36.2357 34.5068 34.0624 34.5068Z" fill="#FFE266"/>
<path d="M15.4502 24.4086C15.2414 24.4086 15.0352 24.4193 14.8316 24.4396C17.33 24.714 19.274 26.8306 19.274 29.402C19.274 32.1597 17.0384 34.3953 14.2806 34.3953C11.7092 34.3953 9.59248 32.4514 9.31807 29.9531C9.29775 30.1565 9.28711 30.3627 9.28711 30.5715C9.28711 33.9752 12.0464 36.7344 15.4501 36.7344C18.8538 36.7344 21.6131 33.9752 21.6131 30.5715C21.6132 27.1679 18.8539 24.4086 15.4502 24.4086Z" fill="#EFAA66"/>
<path d="M34.3314 24.4086C34.1227 24.4086 33.9164 24.4193 33.713 24.4396C36.2113 24.714 38.1553 26.8306 38.1553 29.402C38.1553 32.1597 35.9196 34.3953 33.1619 34.3953C30.5904 34.3953 28.4738 32.4514 28.1994 29.9531C28.1791 30.1565 28.1685 30.3627 28.1685 30.5715C28.1685 33.9752 30.9277 36.7344 34.3314 36.7344C37.7352 36.7344 40.4944 33.9752 40.4944 30.5715C40.4944 27.1679 37.7353 24.4086 34.3314 24.4086Z" fill="#EFAA66"/>
<path d="M46.3594 29.7352C46.3594 28.771 46.0718 27.8734 45.5797 27.121C45.819 26.426 45.966 25.6806 46.0192 24.8857C46.021 24.8599 46.0219 24.8339 46.0219 24.8079V23.0976C46.0219 12.9983 37.8055 4.78192 27.7062 4.78192H22.075C11.9758 4.78192 3.75937 12.9983 3.75937 23.0976V24.8079C3.75937 24.8236 3.75977 24.8391 3.76035 24.8549C3.79482 25.7114 3.95137 26.4723 4.18359 27.1488C3.70244 27.8954 3.42188 28.7828 3.42188 29.7352C3.42188 31.2628 4.14111 32.6245 5.25771 33.5027V38.6874C5.25771 41.8578 7.83701 44.4372 11.0075 44.4372H12.4935C12.4459 44.8788 12.4212 45.3272 12.4212 45.7812V48.8845C12.4212 49.4316 12.8647 49.8753 13.412 49.8753C13.9593 49.8753 14.4028 49.4316 14.4028 48.8845V45.7812C14.4028 43.3352 15.2454 41.0828 16.6545 39.2971C17.4798 39.5775 18.336 39.7904 19.2166 39.9294C17.6276 41.4348 16.6339 43.5619 16.6339 45.9184V49.2357C16.6339 49.564 16.9 49.8303 17.2284 49.8303C17.5567 49.8303 17.823 49.564 17.823 49.2357V45.9184C17.823 45.8376 17.8248 45.7572 17.8275 45.677H19.1189C20.4113 45.677 21.4629 44.6256 21.4629 43.3331V40.1182C21.5257 40.119 21.5885 40.1202 21.6515 40.1202H22.6562V41.5083C22.6562 42.8007 23.7076 43.8522 25.0001 43.8522C26.2925 43.8522 27.344 42.8008 27.344 41.5083V40.1202H28.13C28.2662 40.1202 28.4019 40.1178 28.5372 40.1142V43.3331C28.5372 44.6255 29.5887 45.677 30.8812 45.677H31.9538C31.9565 45.7572 31.9584 45.8376 31.9584 45.9184V49.2357C31.9584 49.564 32.2246 49.8303 32.5529 49.8303C32.8813 49.8303 33.1475 49.564 33.1475 49.2357V45.9184C33.1475 43.5623 32.1543 41.4348 30.5657 39.9294C31.4458 39.7905 32.3014 39.5774 33.1263 39.2972C34.5355 41.0828 35.3785 43.335 35.3785 45.7812V48.8845C35.3785 49.4316 35.8222 49.8753 36.3693 49.8753C36.9165 49.8753 37.3602 49.4316 37.3602 48.8845V45.7812C37.3602 45.3271 37.3351 44.8788 37.2875 44.4372H38.7738C41.9442 44.4372 44.5236 41.8579 44.5236 38.6874V33.5027C45.6401 32.6246 46.3594 31.2628 46.3594 29.7352ZM44.3777 29.7352C44.3777 31.285 43.117 32.5457 41.5672 32.5457C41.5396 32.5457 41.5122 32.5444 41.4847 32.5436C41.7263 32.1413 41.9504 31.7272 42.1557 31.3024C43.0354 30.7431 43.7681 30.0956 44.3508 29.3627C44.3671 29.4849 44.3777 29.6088 44.3777 29.7352ZM28.1299 38.1386H21.6514C19.9112 38.1386 18.2477 37.8074 16.7176 37.2081C19.8396 36.613 22.2074 33.8643 22.2074 30.5716C22.2074 30.1084 22.1604 29.656 22.0712 29.2188C22.0934 29.209 22.1157 29.1994 22.1377 29.1888C23.8985 28.3329 25.5265 28.3391 27.4161 29.2085C27.4242 29.2122 27.4328 29.2149 27.441 29.2186C27.3519 29.6559 27.3048 30.1084 27.3048 30.5716C27.3048 33.9301 29.768 36.7231 32.9823 37.2417C31.4746 37.8203 29.8389 38.1386 28.1299 38.1386ZM34.0622 36.1401C30.9917 36.1401 28.4937 33.6421 28.4937 30.5716C28.4937 27.5011 30.9917 25.0031 34.0622 25.0031C37.1327 25.0031 39.6308 27.5011 39.6308 30.5716C39.6308 33.6421 37.1327 36.1401 34.0622 36.1401ZM27.7862 28.0716C26.723 27.5995 25.7078 27.3628 24.7077 27.3628C23.7095 27.3628 22.7261 27.5987 21.7251 28.0691C21.5545 27.6428 21.3422 27.2376 21.0923 26.8591C23.4706 25.8404 25.9298 25.843 28.4155 26.8663C28.1671 27.2434 27.956 27.647 27.7862 28.0716ZM15.45 36.1401C12.3795 36.1401 9.88154 33.6421 9.88154 30.5716C9.88154 27.5011 12.3796 25.0031 15.45 25.0031C18.5205 25.0031 21.0185 27.5011 21.0185 30.5716C21.0185 33.6421 18.5205 36.1401 15.45 36.1401ZM29.1847 25.9021C26.18 24.5705 23.2015 24.5695 20.325 25.8993C19.0942 24.6157 17.3645 23.8141 15.45 23.8141C15.0478 23.8141 14.6542 23.8514 14.2711 23.9191C16.1609 21.5711 18.1363 19.4966 20.1467 18.1146C23.2519 20.5368 26.5484 22.8598 30.0826 25.115C29.7603 25.3508 29.4603 25.6144 29.1847 25.9021ZM6.09092 23.0977C6.09092 14.2841 13.2613 7.11356 22.075 7.11356H27.7062C36.5198 7.11356 43.6903 14.2841 43.6903 23.0977V24.7678C43.56 26.5834 42.8164 27.9502 41.3654 29.021C41.0795 28.8669 40.7959 28.7124 40.5131 28.5577C39.6541 25.8122 37.0871 23.8141 34.0621 23.8141C33.572 23.8141 33.0942 23.868 32.6335 23.9675C28.4161 21.3399 24.5434 18.6249 20.9359 15.7699C20.7251 15.603 20.4693 15.5182 20.2124 15.5182C20.0039 15.5182 19.7946 15.5741 19.6081 15.6872C15.3141 18.291 11.4688 23.4564 7.89375 28.7076C6.94189 27.7635 6.16963 26.5897 6.09092 24.7834V23.0977ZM7.37051 31.362C7.48701 31.4582 7.61992 31.5288 7.76084 31.5735C7.92822 31.9033 8.10693 32.2264 8.29648 32.5422C8.26885 32.543 8.2418 32.5458 8.21396 32.5458C6.66426 32.5458 5.40352 31.285 5.40352 29.7353C5.40352 29.6315 5.41113 29.5297 5.42227 29.4288C6.11055 30.3201 6.86387 30.9434 7.37051 31.362ZM12.975 42.1056H11.0075C9.12266 42.1056 7.58926 40.5722 7.58926 38.6874V34.4853C7.79394 34.5121 8.00215 34.5274 8.21396 34.5274C8.67852 34.5274 9.12725 34.4598 9.55215 34.3355C10.9625 36.0768 12.7398 37.5093 14.7659 38.5128C13.9873 39.5943 13.3773 40.8048 12.975 42.1056ZM19.1189 44.4881H17.9696C18.2896 42.9379 19.1187 41.5723 20.2738 40.5732V43.3332C20.2738 43.97 19.7558 44.4881 19.1189 44.4881ZM26.155 41.5084C26.155 42.1453 25.6369 42.6633 25 42.6633C24.3632 42.6633 23.8451 42.1452 23.8451 41.5084V40.1203H26.155V41.5084ZM31.8116 44.4881H30.8811C30.2441 44.4881 29.7262 43.97 29.7262 43.3331V40.7696C30.7673 41.7479 31.5122 43.0374 31.8116 44.4881ZM42.1919 38.6874C42.1919 40.5722 40.6585 42.1056 38.7736 42.1056H36.8067C36.4046 40.8045 35.7947 39.5937 35.016 38.5121C37.042 37.5085 38.8196 36.0766 40.2299 34.3356C40.6546 34.4597 41.1029 34.5274 41.5671 34.5274C41.7789 34.5274 41.9871 34.5121 42.1918 34.4853V38.6874H42.1919Z" fill="#241442"/>
<path d="M16.1941 28.9443C15.2954 28.9443 14.5669 29.6729 14.5669 30.5716C14.5669 31.4703 15.2954 32.1988 16.1941 32.1988C17.0929 32.1988 17.8214 31.4703 17.8214 30.5716C17.8214 29.6729 17.0929 28.9443 16.1941 28.9443Z" fill="#241442"/>
<path d="M33.6819 32.1983C34.5797 32.1534 35.2711 31.3891 35.2262 30.4913C35.1812 29.5935 34.417 28.9021 33.5192 28.9471C32.6214 28.992 31.93 29.7563 31.9749 30.6541C32.0199 31.5519 32.7841 32.2433 33.6819 32.1983Z" fill="#241442"/>
<path d="M26.5181 29.9771C26.1897 29.9771 25.9235 30.2433 25.9235 30.5716C25.9235 31.1411 25.4603 31.6044 24.8907 31.6044C24.3213 31.6044 23.858 31.1411 23.858 30.5716C23.858 30.2433 23.5918 29.9771 23.2635 29.9771C22.9352 29.9771 22.6689 30.2433 22.6689 30.5716C22.6689 31.7967 23.6656 32.7934 24.8906 32.7934C26.1157 32.7934 27.1124 31.7966 27.1124 30.5716C27.1126 30.2433 26.8464 29.9771 26.5181 29.9771Z" fill="#241442"/>
<path d="M35.8812 22.73C36.2095 22.73 36.4757 22.4638 36.4757 22.1355V20.9366C36.4757 20.6083 36.2095 20.3421 35.8812 20.3421C35.5528 20.3421 35.2866 20.6083 35.2866 20.9366V22.1355C35.2866 22.4638 35.5528 22.73 35.8812 22.73Z" fill="#241442"/>
<path d="M39.0789 19.2525C39.4072 19.2525 39.6734 18.9862 39.6734 18.6579V17.4591C39.6734 17.1308 39.4072 16.8646 39.0789 16.8646C38.7506 16.8646 38.4844 17.1308 38.4844 17.4591V18.6579C38.4844 18.9862 38.7506 19.2525 39.0789 19.2525Z" fill="#241442"/>
<path d="M40.3128 24.1923C40.6411 24.1923 40.9073 23.9261 40.9073 23.5977V22.3989C40.9073 22.0706 40.6411 21.8044 40.3128 21.8044C39.9845 21.8044 39.7183 22.0706 39.7183 22.3989V23.5977C39.7183 23.9261 39.9845 24.1923 40.3128 24.1923Z" fill="#241442"/>
<path d="M15.45 26.0356C12.9489 26.0356 10.9141 28.0704 10.9141 30.5716C10.9141 33.0728 12.9488 35.1076 15.45 35.1076C17.9511 35.1076 19.9859 33.0728 19.9859 30.5716C19.9859 28.0704 17.9511 26.0356 15.45 26.0356ZM15.45 33.9186C13.6045 33.9186 12.103 32.4171 12.103 30.5716C12.103 28.7261 13.6045 27.2246 15.45 27.2246C17.2955 27.2246 18.7969 28.7261 18.7969 30.5716C18.7969 32.4172 17.2955 33.9186 15.45 33.9186Z" fill="#241442"/>
<path d="M34.0623 26.0356C31.5611 26.0356 29.5264 28.0704 29.5264 30.5716C29.5264 33.0728 31.5611 35.1076 34.0623 35.1076C36.5635 35.1076 38.5982 33.0728 38.5982 30.5716C38.5982 28.0704 36.5635 26.0356 34.0623 26.0356ZM34.0623 33.9186C32.2168 33.9186 30.7153 32.4171 30.7153 30.5716C30.7153 28.7261 32.2168 27.2246 34.0623 27.2246C35.9078 27.2246 37.4093 28.7261 37.4093 30.5716C37.4093 32.4172 35.9078 33.9186 34.0623 33.9186Z" fill="#241442"/>
<path d="M15.7624 13.0107C15.4422 13.0107 15.1281 12.8559 14.9371 12.5694C14.6335 12.1142 14.7564 11.4989 15.2117 11.1953C15.4085 11.0642 15.8715 10.7791 16.2158 10.6393C16.7227 10.433 17.3007 10.6774 17.5066 11.1843C17.7126 11.6913 17.4686 12.2692 16.9615 12.4751C16.8214 12.5321 16.4968 12.7202 16.311 12.8441C16.1423 12.9567 15.9513 13.0107 15.7624 13.0107Z" fill="white"/>
<path d="M11.3699 17.1282C11.1884 17.1282 11.005 17.0785 10.8405 16.9743C10.3783 16.6814 10.241 16.0692 10.5339 15.607C11.3795 14.2727 12.3603 13.3248 13.0341 12.7649C13.4549 12.415 14.0797 12.4728 14.4294 12.8936C14.7792 13.3144 14.7216 13.9391 14.3008 14.2889C13.7365 14.7578 12.9153 15.5513 12.2079 16.6678C12.0191 16.9653 11.698 17.1282 11.3699 17.1282Z" fill="white"/>
<path d="M5.72954 0.375476L6.57114 2.74188C6.60718 2.84325 6.67856 2.92352 6.76851 2.96405L8.87095 3.91132C9.16802 4.0451 9.16802 4.51844 8.87095 4.65223L6.76851 5.5995C6.67847 5.64003 6.60718 5.7203 6.57114 5.82167L5.72954 8.18807C5.61069 8.52245 5.19019 8.52245 5.07124 8.18807L4.22964 5.82167C4.1936 5.7203 4.12231 5.64003 4.03228 5.5995L1.92983 4.65223C1.63276 4.51844 1.63276 4.0451 1.92983 3.91132L4.03228 2.96405C4.12231 2.92352 4.1936 2.84315 4.22964 2.74188L5.07124 0.375476C5.19019 0.0411011 5.61069 0.0411011 5.72954 0.375476Z" fill="#CAB4EF"/>
<path d="M39.6111 2.25937C39.7735 1.25763 39.0931 0.313918 38.0913 0.15153C37.0896 -0.0108594 36.1459 0.669566 35.9835 1.6713C35.8211 2.67304 36.5015 3.61675 37.5033 3.77914C38.505 3.94153 39.4487 3.2611 39.6111 2.25937Z" fill="#5B3AEE"/>
<path d="M0.778223 14.1177C1.20802 14.1177 1.55645 13.7692 1.55645 13.3394C1.55645 12.9096 1.20802 12.5612 0.778223 12.5612C0.348422 12.5612 0 12.9096 0 13.3394C0 13.7692 0.348422 14.1177 0.778223 14.1177Z" fill="#5B3AEE"/>
<path d="M47.5043 5.95287L48.1286 7.70824C48.1554 7.78343 48.2082 7.84291 48.275 7.87308L49.8346 8.57572C50.0549 8.67504 50.0549 9.02601 49.8346 9.12533L48.275 9.82797C48.2082 9.85804 48.1553 9.91761 48.1286 9.99281L47.5043 11.7482C47.4161 11.9961 47.1042 11.9961 47.016 11.7482L46.3917 9.99281C46.3649 9.91761 46.3121 9.85804 46.2453 9.82797L44.6857 9.12533C44.4654 9.02611 44.4654 8.67504 44.6857 8.57572L46.2453 7.87308C46.3121 7.84301 46.365 7.78343 46.3917 7.70824L47.016 5.95287C47.1042 5.70492 47.4161 5.70492 47.5043 5.95287Z" fill="#CAB4EF"/>
</svg>
