<svg width="160" height="352" viewBox="0 0 160 352" fill="none" xmlns="http://www.w3.org/2000/svg">
<path fill-rule="evenodd" clip-rule="evenodd" d="M-15.6312 2.46804C21.1515 8.9174 37.4434 52.0361 67.7742 73.8214C95.9119 94.0314 142.451 93.3549 155.556 125.424C168.74 157.685 138.933 190.943 129.327 224.444C121.228 252.687 125.497 287.345 103.531 306.858C81.7286 326.225 47.3473 314.595 19.2104 322.262C-8.14061 329.715 -30.6477 352.746 -58.9501 351.133C-89.9715 349.365 -125.515 339.432 -141.97 313.076C-158.479 286.632 -140.862 252.63 -139.903 221.47C-139.136 196.54 -139.599 173.017 -136.897 148.222C-132.892 111.474 -143.862 69.2756 -120.22 40.859C-95.977 11.7201 -52.9668 -4.07828 -15.6312 2.46804Z" stroke="#F8CB1E"/>
<path fill-rule="evenodd" clip-rule="evenodd" d="M-13.9938 20.4978C18.9857 26.2812 33.5931 64.9475 60.7878 84.4832C86.0161 102.606 127.743 102 139.493 130.757C151.314 159.687 124.589 189.511 115.976 219.553C108.715 244.879 112.542 275.959 92.8478 293.456C73.2994 310.824 42.4729 300.394 17.2453 307.27C-7.2777 313.953 -27.4577 334.606 -52.8337 333.16C-80.6475 331.574 -112.516 322.667 -127.269 299.032C-142.072 275.319 -126.276 244.828 -125.416 216.886C-124.728 194.53 -125.144 173.436 -122.721 151.202C-119.13 118.248 -128.966 80.4068 -107.769 54.9245C-86.0322 28.7945 -47.469 14.6274 -13.9938 20.4978Z" stroke="#F8CB1E"/>
<path fill-rule="evenodd" clip-rule="evenodd" d="M-12.2992 34.7038C17.6522 39.9596 30.9183 75.0984 55.6161 92.8519C78.5281 109.322 116.424 108.77 127.095 134.905C137.83 161.195 113.559 188.298 105.737 215.599C99.1428 238.615 102.619 266.86 84.7326 282.761C66.979 298.544 38.9829 289.066 16.0716 295.314C-6.19981 301.388 -24.5269 320.157 -47.573 318.842C-72.8331 317.401 -101.775 309.307 -115.174 287.828C-128.618 266.278 -114.272 238.569 -113.491 213.176C-112.867 192.86 -113.244 173.69 -111.044 153.484C-107.783 123.537 -116.715 89.1474 -97.464 65.9898C-77.7233 42.2436 -42.7009 29.369 -12.2992 34.7038Z" stroke="#F8CB1E"/>
<path fill-rule="evenodd" clip-rule="evenodd" d="M-9.94687 55.4655C15.7916 59.9501 27.1917 89.9335 48.4156 105.082C68.1048 119.136 100.67 118.665 109.84 140.965C119.066 163.398 98.2083 186.525 91.4865 209.82C85.8198 229.459 88.8067 253.56 73.4365 267.128C58.1801 280.595 34.1219 272.508 14.4333 277.84C-4.70539 283.022 -20.4546 299.037 -40.2591 297.916C-61.9661 296.686 -86.8372 289.779 -98.3517 271.452C-109.904 253.064 -97.5762 229.42 -96.9053 207.752C-96.3685 190.417 -96.6926 174.06 -94.8018 156.818C-91.9996 131.265 -99.676 101.921 -83.1324 82.1612C-66.1685 61.8991 -36.0723 50.9134 -9.94687 55.4655Z" stroke="#F8CB1E"/>
<path fill-rule="evenodd" clip-rule="evenodd" d="M-7.36985 77.3176C13.7607 80.9905 23.1199 105.547 40.5441 117.954C56.7084 129.464 83.4436 129.078 90.9721 147.342C98.5457 165.715 81.4225 184.656 75.9041 203.735C71.2519 219.819 73.704 239.558 61.0855 250.67C48.5605 261.7 28.8094 255.076 12.6456 259.443C-3.06674 263.688 -15.9964 276.804 -32.2553 275.885C-50.0762 274.878 -70.4946 269.222 -79.9477 254.211C-89.432 239.151 -79.3111 219.787 -78.7603 202.041C-78.3195 187.843 -78.5857 174.447 -77.0334 160.326C-74.7328 139.398 -81.0349 115.365 -67.4531 99.1815C-53.5262 82.5867 -28.8181 73.5894 -7.36985 77.3176Z" stroke="#F8CB1E"/>
</svg>
