<?xml version="1.0" encoding="utf-8"?>
<!-- Generator: Adobe Illustrator 24.1.2, SVG Export Plug-In . SVG Version: 6.00 Build 0)  -->
<svg version="1.1" id="Layer_1" xmlns="http://www.w3.org/2000/svg" xmlns:xlink="http://www.w3.org/1999/xlink" x="0px" y="0px"
	 viewBox="0 0 1170 88" style="enable-background:new 0 0 1170 88;" xml:space="preserve">
<style type="text/css">
	.st0{fill:none;stroke:#005280;}
	.st1{fill:#005280;}
</style>
<path class="st0" d="M4,82.1h276.1c6.1,0,12.1-1.9,17.1-5.4l94.5-65.8c5-3.5,11-5.4,17.1-5.4H1169"/>
<path class="st1" d="M5,88c-0.1,0-0.3,0-0.4-0.1c-0.1-0.1-0.2-0.2-0.3-0.4c-0.1-0.1-0.1-0.3,0-0.5c0-0.2,0.1-0.3,0.2-0.4l3.8-4.2
	l-3.8-4.2c-0.1-0.2-0.2-0.3-0.2-0.5c0-0.2,0.1-0.4,0.2-0.5c0.1-0.1,0.3-0.2,0.5-0.2c0.2,0,0.4,0.1,0.5,0.2L9.8,82
	c0.1,0.1,0.2,0.3,0.2,0.6c0,0.2-0.1,0.4-0.2,0.6l-4.3,4.7C5.4,87.9,5.2,88,5,88z"/>
<path class="st1" d="M0.7,88c-0.1,0-0.3,0-0.4-0.1c-0.1-0.1-0.2-0.2-0.3-0.4C0,87.4,0,87.2,0,87.1c0-0.2,0.1-0.3,0.2-0.4L4,82.5
	l-3.8-4.2C0.1,78.2,0,78,0,77.8c0-0.2,0.1-0.4,0.2-0.6C0.3,77.1,0.5,77,0.7,77c0.2,0,0.4,0.1,0.5,0.2l4.3,4.7
	c0.1,0.1,0.2,0.3,0.2,0.6c0,0.2-0.1,0.4-0.2,0.6l-4.3,4.7c-0.1,0.1-0.1,0.1-0.2,0.2C0.9,88,0.8,88,0.7,88z"/>
<path class="st1" d="M1165,11c-0.2,0-0.3,0-0.4-0.1c-0.1-0.1-0.2-0.2-0.3-0.4c0-0.1-0.1-0.3,0-0.5c0-0.2,0.1-0.3,0.2-0.4l3.8-4.2
	l-3.8-4.2c-0.1-0.2-0.2-0.3-0.2-0.5c0-0.2,0.1-0.4,0.2-0.5c0.1-0.1,0.3-0.2,0.5-0.2c0.2,0,0.4,0.1,0.5,0.2l4.3,4.7
	c0.1,0.1,0.2,0.3,0.2,0.6s-0.1,0.4-0.2,0.6l-4.3,4.7C1165.4,10.9,1165.2,11,1165,11z"/>
<path class="st1" d="M1160.7,11c-0.1,0-0.3,0-0.4-0.1c-0.1-0.1-0.2-0.2-0.3-0.4c-0.1-0.1-0.1-0.3,0-0.5c0-0.2,0.1-0.3,0.2-0.4
	l3.8-4.2l-3.8-4.2c-0.1-0.1-0.2-0.3-0.2-0.6c0-0.2,0.1-0.4,0.2-0.6c0.1-0.1,0.3-0.2,0.5-0.2c0.2,0,0.4,0.1,0.5,0.2l4.3,4.7
	c0.1,0.1,0.2,0.3,0.2,0.6c0,0.2-0.1,0.4-0.2,0.6l-4.3,4.7c-0.1,0.1-0.2,0.1-0.2,0.2C1160.9,11,1160.8,11,1160.7,11z"/>
</svg>
