<svg width="51" height="104" viewBox="0 0 51 104" fill="none" xmlns="http://www.w3.org/2000/svg">
<path d="M32.024 2C15.4421 2 2 7.00531 2 13.1797C2 19.3541 15.4421 24.3594 32.024 24.3594C41.3169 24.3594 48.8504 22.2406 48.8504 19.6269C48.8504 17.0132 41.3169 14.8944 32.024 14.8944C15.4421 14.8944 2 19.8997 2 26.0741C2 32.2485 15.4421 37.2539 32.024 37.2539C41.3169 37.2539 48.8504 35.135 48.8504 32.5213C48.8504 29.9076 41.3169 27.7887 32.024 27.7887C15.4421 27.7887 2 32.8248 2 39.037C2 45.2492 15.4421 50.2854 32.024 50.2854C41.3169 50.2854 48.8504 48.1665 48.8504 45.5528C48.8504 42.939 41.3169 40.8205 32.024 40.8205C15.4421 40.8205 2 45.8256 2 52C2 58.1744 15.4421 63.1795 32.024 63.1795C41.3169 63.1795 48.8504 61.061 48.8504 58.4472C48.8504 55.8335 41.3169 53.7146 32.024 53.7146C15.4421 53.7146 2 58.7201 2 64.8945C2 71.0689 15.4421 76.074 32.024 76.074C41.3169 76.074 48.8504 73.9551 48.8504 71.3417C48.8504 68.728 41.3169 66.6091 32.024 66.6091C15.4421 66.6091 2 71.6146 2 77.7886C2 83.963 15.4421 88.9685 32.024 88.9685C41.3169 88.9685 48.8504 86.8496 48.8504 84.2358C48.8504 81.6224 41.3169 79.5035 32.024 79.5035C15.4421 79.5035 2 84.5394 2 90.7516C2 96.9638 15.4421 102 32.024 102" stroke="#F8BC24" stroke-width="3" stroke-linecap="round"/>
</svg>
