<svg xmlns="http://www.w3.org/2000/svg" viewBox="0 0 42.47 39.96"><defs><style>.cls-1{fill:#f89732;}.cls-2{fill:#f89732;}</style></defs><g id="Layer_2" data-name="Layer 2"><g id="Layer_2-2" data-name="Layer 2"><path class="cls-1" d="M29.45,39.23,28,38.51l-.11-.1-1.25-1-.47-.49-1-1.18-.3-.46a3.27,3.27,0,0,0-.51-.89l-.26-.78a8.77,8.77,0,0,1-.41-4.83,9.36,9.36,0,0,1,3.38-5.59,9,9,0,0,1,7.53-2,10.55,10.55,0,0,1,3.73,1.51,14.55,14.55,0,0,0,1.27,1.06l.1.09a10.53,10.53,0,0,1,1.95,2.85,9.31,9.31,0,0,1,.81,3.6v.4c0,.36,0,.71-.06,1.07-.06.75-.48,1.39-.57,2.13A12.3,12.3,0,0,1,40,36.83l-.3.3a11.37,11.37,0,0,1-2.92,2,10.39,10.39,0,0,1-2.74.74,11.52,11.52,0,0,1-1.66.06A12.31,12.31,0,0,1,29.45,39.23ZM40.9,30.51A7.89,7.89,0,1,0,33,38.39,7.8,7.8,0,0,0,40.9,30.51Z"/><path class="cls-2" d="M17.71,34.41H6.56a.11.11,0,0,0-.08,0H6.27a.1.1,0,0,0-.09,0H4.52a8,8,0,0,1-1.38-.09A4.32,4.32,0,0,1,.6,32.47a3.65,3.65,0,0,1-.59-2c0-.78,0-1.56,0-2.34V9.38A.11.11,0,0,0,0,9.3V6.86l.11-.7h0L.18,6l0-.2L.86,4.69,1.57,4A5.84,5.84,0,0,1,3,3.25a.13.13,0,0,0,.08,0,.94.94,0,0,0,.49-.1h1c1,0,2,0,3,0a1.51,1.51,0,0,1,.88.23c.45.89.16,1.37-.83,1.37H3.88a2.14,2.14,0,0,0-2.21,1.8c-.13,1,0,2.05-.07,3.07,0,.41.06.56.52.55,2.52,0,5.05,0,7.57,0H37.16c.3,0,.39-.06.38-.37,0-.91,0-1.82,0-2.74a2.23,2.23,0,0,0-2.35-2.31H31.36c-.67,0-.82-.15-.87-.82l.24-.56A.55.55,0,0,0,31,3.14l1.35,0H35.3a4.85,4.85,0,0,1,1.4.31,5.33,5.33,0,0,1,1.5,1.14l.11.14A6.61,6.61,0,0,1,39,6.17a10.14,10.14,0,0,1,.11,1.46V20.32L39,20.8c-.28.24-.57.44-1,.24a.89.89,0,0,1-.48-.92c0-2.66,0-5.31,0-8,0-.34-.08-.43-.43-.43H2c-.35,0-.42.1-.42.43,0,6.1,0,12.21,0,18.31A2.18,2.18,0,0,0,4,32.83H21.67c.61,0,.84.17,1,.78l-.07.35a1.21,1.21,0,0,1-.54.43l-.09,0h-.49a.14.14,0,0,0-.09,0H18a.14.14,0,0,0-.09,0Z"/><path class="cls-2" d="M11.73,21.27a1.71,1.71,0,0,1,1.59,1.56,1.74,1.74,0,0,1-1.57,1.57,1.74,1.74,0,0,1-1.57-1.54A1.7,1.7,0,0,1,11.73,21.27Z"/><path class="cls-2" d="M22.68,21.27a1.71,1.71,0,0,1,1.59,1.56,1.74,1.74,0,0,1-1.58,1.57,1.74,1.74,0,0,1-1.56-1.54A1.7,1.7,0,0,1,22.68,21.27Z"/><path class="cls-2" d="M17.22,21.3c.67-.14,1.59.84,1.58,1.53a1.77,1.77,0,0,1-1.59,1.57,1.75,1.75,0,0,1-1.56-1.54A1.66,1.66,0,0,1,17.22,21.3Z"/><path class="cls-2" d="M6.23,21.3c.74-.15,1.63.86,1.62,1.54A1.78,1.78,0,0,1,6.26,24.4,1.75,1.75,0,0,1,4.7,22.85,1.67,1.67,0,0,1,6.23,21.3Z"/><path class="cls-2" d="M4.7,28.35a1.71,1.71,0,0,1,1.54-1.6,1.71,1.71,0,0,1,1.61,1.52,1.78,1.78,0,0,1-1.55,1.6A1.72,1.72,0,0,1,4.7,28.35Z"/><path class="cls-2" d="M26.6,17.4a1.57,1.57,0,0,1,3.14-.06,1.77,1.77,0,0,1-1.55,1.59A1.71,1.71,0,0,1,26.6,17.4Z"/><path class="cls-2" d="M15.65,17.41a1.7,1.7,0,0,1,1.53-1.6,1.7,1.7,0,0,1,1.61,1.52,1.76,1.76,0,0,1-1.54,1.6A1.71,1.71,0,0,1,15.65,17.41Z"/><path class="cls-2" d="M10.18,28.35a1.7,1.7,0,0,1,1.53-1.6,1.7,1.7,0,0,1,1.61,1.52,1.81,1.81,0,0,1-1.54,1.6A1.72,1.72,0,0,1,10.18,28.35Z"/><path class="cls-2" d="M17.2,26.75a1.72,1.72,0,0,1,1.6,1.54,1.76,1.76,0,0,1-1.56,1.58,1.68,1.68,0,0,1-1.59-1.53A1.71,1.71,0,0,1,17.2,26.75Z"/><path class="cls-2" d="M33.65,15.81a1.7,1.7,0,0,1,1.57,1.57,1.85,1.85,0,0,1-1.55,1.55,1.75,1.75,0,0,1-1.6-1.56A1.7,1.7,0,0,1,33.65,15.81Z"/><path class="cls-2" d="M22.7,15.81a1.7,1.7,0,0,1,1.57,1.57,1.88,1.88,0,0,1-1.6,1.55,1.75,1.75,0,0,1-1.54-1.56A1.69,1.69,0,0,1,22.7,15.81Z"/><path class="cls-2" d="M29.83,24.53a.92.92,0,0,1,.76.54c.86,1.39,1.73,2.77,2.58,4.17.15.24.26.28.53.18a6.76,6.76,0,0,0,1.61-.53c.5-.37,1.11-.19,1.59-.53.26-.19.69.06.82.4a.77.77,0,0,1-.39,1c-.64.25-1.3.47-2,.7s-1.36.44-2,.73a.7.7,0,0,1-1-.29q-1.63-2.59-3.23-5.22A.78.78,0,0,1,29.83,24.53Z"/><path class="cls-2" d="M9.53.31a1,1,0,0,1,.85-.3l.46.31L11,.8v5c0,.11,0,.21-.11.29a1,1,0,0,1-1,.13.73.73,0,0,1-.48-.76c0-.52,0-1,0-1.56,0-1,0-1.9,0-2.85A1.62,1.62,0,0,1,9.53.31Z"/><path class="cls-2" d="M20.38,3.91V5.56c0,.57-.14.71-.7.73s-.89-.25-.91-.72,0-1.1,0-1.65c0-1,0-1.91,0-2.86a1.5,1.5,0,0,1,.14-.75L19.18.1a.86.86,0,0,1,1,.22l.15.48V3.91Z"/><path class="cls-2" d="M18,3.92c-.13.63-.32.8-.94.8H12.7c-.6,0-1-.28-1-.73a.85.85,0,0,1,.95-.86l.64,0H17A.91.91,0,0,1,18,3.92Z"/><path class="cls-2" d="M29.35.1l.25.21a3.76,3.76,0,0,1,.15,1.45V2l0,1.94c0,.55,0,1.11,0,1.66s-.11.7-.7.72-.89-.25-.91-.72,0-1.11,0-1.66V.9L28.3.32A.86.86,0,0,1,29.35.1Z"/><path class="cls-2" d="M27.42,3.91c-.12.64-.32.81-.94.81H22c-.68,0-.84-.14-.94-.82a1.17,1.17,0,0,1,.24-.56,1.28,1.28,0,0,1,.78-.23H26.5a1.08,1.08,0,0,1,.67.24A1.25,1.25,0,0,1,27.42,3.91Z"/></g></g></svg>