<svg xmlns="http://www.w3.org/2000/svg" xmlns:xlink="http://www.w3.org/1999/xlink" viewBox="0 0 800.21 237.1"><defs><style>.cls-1,.cls-4{fill:#fff;}.cls-2{fill:#a6a6a6;}.cls-3,.cls-4{fill-rule:evenodd;}.cls-3{fill:url(#linear-gradient);}.cls-5{fill:url(#linear-gradient-2);}</style><linearGradient id="linear-gradient" x1="-2113.36" y1="163.34" x2="-1959.06" y2="163.34" gradientTransform="matrix(0, -1, -1, 0, 300.75, -1925.23)" gradientUnits="userSpaceOnUse"><stop offset="0" stop-color="#1d6ff2"/><stop offset="1" stop-color="#1ac8fc"/></linearGradient><linearGradient id="linear-gradient-2" x1="-118.06" y1="749.4" x2="-118.06" y2="785.44" gradientTransform="matrix(23.74, 0, 0, -23.72, 3389.25, 18015.76)" gradientUnits="userSpaceOnUse"><stop offset="0" stop-color="#1a1a1a" stop-opacity="0.1"/><stop offset="0.12" stop-color="#212121" stop-opacity="0.15"/><stop offset="0.31" stop-color="#353535" stop-opacity="0.23"/><stop offset="0.53" stop-color="#575757" stop-opacity="0.32"/><stop offset="0.78" stop-color="#858585" stop-opacity="0.42"/><stop offset="1" stop-color="#b3b3b3" stop-opacity="0.51"/></linearGradient></defs><g id="Layer_2" data-name="Layer 2"><g id="Layer_1-2" data-name="Layer 1"><path class="cls-1" d="M794.9,209.11a22.71,22.71,0,0,1-22.71,22.71H28.05A22.75,22.75,0,0,1,5.28,209.11V28A22.76,22.76,0,0,1,28.05,5.28H772.16A22.73,22.73,0,0,1,794.9,28h0V209.11Z"/><path class="cls-2" d="M772.17,237.1H28.05a28.05,28.05,0,0,1-28-28V28A28.06,28.06,0,0,1,28.05,0H772.16a28.08,28.08,0,0,1,28.05,28V209.11a28,28,0,0,1-28,28Z"/><path d="M794.9,209.11a22.71,22.71,0,0,1-22.71,22.71H28.05A22.75,22.75,0,0,1,5.28,209.11V28A22.76,22.76,0,0,1,28.05,5.28H772.16A22.73,22.73,0,0,1,794.9,28h0V209.11Z"/><path class="cls-3" d="M214.56,67.26v87.43a33.35,33.35,0,0,1-33.3,33.43H93.7a33.35,33.35,0,0,1-33.43-33.29V67.26A33.35,33.35,0,0,1,93.56,33.83h87.57a33.35,33.35,0,0,1,33.43,33.29Z"/><path class="cls-4" d="M166.47,122.55h19.16a7.07,7.07,0,0,1,0,14.14H166.47Z"/><path class="cls-4" d="M142.94,122.55a10.09,10.09,0,0,1,10.16,10v.13a10.44,10.44,0,0,1-.77,4H89.2a7.07,7.07,0,1,1,0-14.14ZM141.14,76V88.35h-8.23l-10-17.23a6.69,6.69,0,1,1,11.57-6.71v0Zm7.07,12,35.11,60.82a7.06,7.06,0,0,1-12.22,7.07L149.89,119c-1.93-3.6-3.35-6.43-4.25-8A19.35,19.35,0,0,1,148.21,88Z"/><path class="cls-4" d="M119.41,129H103.08L140,65.07a7.05,7.05,0,1,1,12.21,7.07h0Zm-8.61,14.78-6.82,12a7.05,7.05,0,0,1-12.21-7.07l5-8.74a10.94,10.94,0,0,1,5-1.16A10,10,0,0,1,110.8,143.76Z"/><path class="cls-5" d="M772.17,0H373.59L529.71,237.1H772.17a28.06,28.06,0,0,0,28-28V28A28.07,28.07,0,0,0,772.17,0Z"/><path class="cls-1" d="M318.27,186.79H304.8l-7.38-23.18H271.78l-7,23.18H251.64l25.41-78.9h15.7l25.52,78.9Zm-23.07-32.9-6.67-20.6q-1.06-3.16-4-14.87h-.24q-1.17,5-3.75,14.87L274,153.89Zm88.3,3.75q0,14.52-7.89,22.94a23.12,23.12,0,0,1-17.54,7.5q-11.31,0-16.25-8.07v29.85H329.17V148.6q0-9.12-.47-18.7h11.12l.71,9h.24q6.32-10.18,19.2-10.19a21.1,21.1,0,0,1,16.8,8q6.72,8,6.73,21Zm-12.88.47q0-8.31-3.75-13.71a13,13,0,0,0-11-5.61,13.16,13.16,0,0,0-8.49,3.1,14.38,14.38,0,0,0-5,8.14,16.24,16.24,0,0,0-.59,3.85v9.49a15.2,15.2,0,0,0,3.81,10.48,12.62,12.62,0,0,0,9.89,4.28,13,13,0,0,0,11.12-5.5Q370.62,167.13,370.62,158.11Zm78.33-.47q0,14.52-7.88,22.94a23.16,23.16,0,0,1-17.55,7.5q-11.31,0-16.25-8.07v29.85H394.62V148.6q0-9.12-.47-18.7h11.12l.71,9h.24q6.31-10.18,19.2-10.19a21.15,21.15,0,0,1,16.81,8q6.7,8,6.72,21Zm-12.88.47q0-8.31-3.76-13.71a12.92,12.92,0,0,0-11-5.61,13.18,13.18,0,0,0-8.5,3.1,14.38,14.38,0,0,0-5,8.14,16.64,16.64,0,0,0-.59,3.85v9.49a15.24,15.24,0,0,0,3.8,10.48,12.66,12.66,0,0,0,9.9,4.28,12.93,12.93,0,0,0,11.12-5.5Q436.07,167.13,436.07,158.11Zm86.07,6.55a21,21,0,0,1-7,16.39q-7.69,6.9-21.5,6.91-12.74,0-20.43-4.92l2.92-10.53a35.25,35.25,0,0,0,18.27,4.92q7.15,0,11.12-3.22a10.53,10.53,0,0,0,4-8.6,11,11,0,0,0-3.29-8.08c-2.18-2.18-5.8-4.21-10.89-6.08q-20.71-7.72-20.73-22.6a19.93,19.93,0,0,1,7.32-15.92q7.31-6.21,19.38-6.21c7.18,0,13.17,1.25,17.92,3.75L516,120.77a31.29,31.29,0,0,0-15.16-3.63c-4.46,0-8,1.1-10.46,3.28a9.36,9.36,0,0,0-3.17,7.15,9.67,9.67,0,0,0,3.63,7.73c2.1,1.86,5.93,3.9,11.47,6.08q10.2,4.11,15,9.59a20,20,0,0,1,4.82,13.69Zm41.91-25.28H550.11V167q0,10.53,7.38,10.53a22.09,22.09,0,0,0,5.62-.59l.35,9.6a28.66,28.66,0,0,1-9.83,1.4q-7.5,0-11.72-4.57T537.7,168V139.36h-8.31v-9.49h8.31V119.45l12.41-3.74v14.16h13.94v9.51Zm62.76,18.5q0,13.11-7.5,21.54-7.83,8.67-20.84,8.66-12.54,0-20-8.3t-7.43-21q0-13.22,7.67-21.65t20.67-8.43q12.52,0,20.14,8.31,7.28,8.05,7.26,20.83Zm-13.11.29a25.47,25.47,0,0,0-3.38-13.43Q606.34,138,599,138a12.68,12.68,0,0,0-11.59,6.77A25.85,25.85,0,0,0,584,158.4a25.35,25.35,0,0,0,3.39,13.43q4.1,6.78,11.49,6.78c4.83,0,8.62-2.31,11.36-6.89a25.52,25.52,0,0,0,3.49-13.55ZM667.93,141a23.21,23.21,0,0,0-4-.35,11.9,11.9,0,0,0-10.3,5,19,19,0,0,0-3.16,11.24v29.85H637.84v-39q0-9-.37-17.91h11l.46,10.89h.35a19.49,19.49,0,0,1,6.33-9,15.33,15.33,0,0,1,9.14-3.05,20.19,20.19,0,0,1,3.16.23V141Zm56.55,14.64a29.92,29.92,0,0,1-.47,5.74H686.08q.21,8.43,5.51,12.89,4.78,4,12.4,4a41.89,41.89,0,0,0,15.35-2.69l2,8.77a47.4,47.4,0,0,1-19.08,3.52q-13.23,0-20.79-7.78t-7.55-20.9q0-12.85,7-21.41,7.37-9.13,19.9-9.13,12.3,0,18.63,9.13,5,7.23,5,17.89Zm-12.06-3.28a17,17,0,0,0-2.46-9.71c-2.18-3.53-5.55-5.28-10.07-5.28a12,12,0,0,0-10.06,5.15,18.79,18.79,0,0,0-3.74,9.83Z"/><path class="cls-1" d="M268.13,80a81,81,0,0,1-9.09-.46V41.38a68.51,68.51,0,0,1,10.71-.81c14.5,0,21.17,7.14,21.17,18.76C290.92,72.74,283,80,268.13,80Zm2.13-34.53a24.93,24.93,0,0,0-5,.41v29a32.68,32.68,0,0,0,4.2.17c9.5,0,14.91-5.41,14.91-15.54C284.36,50.47,279.47,45.46,270.26,45.46Zm41.48,34.82c-8.18,0-13.47-6.1-13.47-14.38,0-8.64,5.41-14.79,13.93-14.79,8.05,0,13.47,5.81,13.47,14.33C325.67,74.18,320.09,80.28,311.74,80.28ZM312,55.65c-4.49,0-7.36,4.2-7.36,10.07s2.93,10,7.3,10,7.31-4.48,7.31-10.07-2.88-9.95-7.25-9.95Zm60.3-4-8.75,28h-5.7L354.2,67.5a93,93,0,0,1-2.25-9h-.12a59.57,59.57,0,0,1-2.24,9l-3.85,12.15H340l-8.23-28h6.38L341.3,65q1.13,4.74,1.9,9h.12a89.38,89.38,0,0,1,2.3-8.91l4-13.35h5.07l3.8,13.06c.92,3.17,1.66,6.28,2.25,9.21h.16a79.69,79.69,0,0,1,1.9-9.21l3.4-13.06Zm32.2,28h-6.21V63.59c0-4.94-1.9-7.42-5.64-7.42S386.4,59.33,386.4,63V79.65h-6.21v-20c0-2.48-.06-5.13-.23-8h5.46l.3,4.31h.17a10,10,0,0,1,8.86-4.88c5.88,0,9.73,4.49,9.73,11.79V79.65Zm17.14,0h-6.22V38.85h6.22Zm22.67.63c-8.17,0-13.47-6.1-13.47-14.38,0-8.64,5.41-14.79,13.92-14.79,8.06,0,13.47,5.81,13.47,14.33C458.21,74.18,452.62,80.28,444.28,80.28Zm.23-24.63c-4.49,0-7.37,4.2-7.37,10.07s2.94,10,7.3,10,7.31-4.48,7.31-10.07-2.87-9.95-7.24-9.95Zm38.2,24-.45-3.22h-.17a9.56,9.56,0,0,1-8.18,3.85c-5,0-8.57-3.51-8.57-8.23,0-6.9,6-10.47,16.35-10.47v-.52c0-3.68-2-5.52-5.81-5.52a13.11,13.11,0,0,0-7.31,2.07l-1.26-4.08a17.91,17.91,0,0,1,9.6-2.42c7.31,0,11,3.85,11,11.57V73a42,42,0,0,0,.4,6.67Zm-.86-13.93c-6.9,0-10.36,1.67-10.36,5.64,0,2.93,1.78,4.37,4.26,4.37a6,6,0,0,0,6.1-5.7Zm36.24,13.93-.29-4.49h-.17c-1.79,3.39-4.79,5.12-9,5.12-6.75,0-11.74-5.93-11.74-14.27,0-8.75,5.18-14.91,12.25-14.91,3.74,0,6.39,1.27,7.89,3.8h.12v-16h6.22V72.11c0,2.7.07,5.24.23,7.54Zm-.92-16.46c0-3.91-2.59-7.25-6.55-7.25-4.61,0-7.42,4.09-7.42,9.84s2.92,9.5,7.3,9.5c3.91,0,6.67-3.4,6.67-7.43V63.19Zm45.67,17.09c-8.17,0-13.47-6.1-13.47-14.38,0-8.64,5.41-14.79,13.93-14.79,8.06,0,13.47,5.81,13.47,14.33,0,8.74-5.58,14.84-13.93,14.84Zm.23-24.63c-4.49,0-7.36,4.2-7.36,10.07s2.93,10,7.3,10,7.3-4.48,7.3-10.07-2.86-9.95-7.24-9.95Zm47.12,24H604V63.59c0-4.94-1.9-7.42-5.64-7.42s-6.21,3.16-6.21,6.84V79.65H585.9v-20c0-2.48-.06-5.13-.23-8h5.47l.29,4.31h.17a10.06,10.06,0,0,1,8.86-4.89c5.87,0,9.73,4.49,9.73,11.8ZM652,56.34h-6.84V69.92c0,3.46,1.2,5.18,3.62,5.18a11.79,11.79,0,0,0,2.76-.29l.17,4.72a13.57,13.57,0,0,1-4.82.7c-4.9,0-7.83-2.71-7.83-9.79V56.34H635V51.68h4.08V46.56l6.1-1.84v7H652v4.66Zm32.9,23.31H678.7V63.71c0-5-1.89-7.54-5.64-7.54-3.22,0-6.22,2.19-6.22,6.62V79.65h-6.21V38.85h6.21v16.8H667a9.42,9.42,0,0,1,8.41-4.55c5.92,0,9.53,4.6,9.53,11.91V79.65Zm33.71-12.49H700c.12,5.29,3.63,8.28,8.81,8.28a21,21,0,0,0,7.54-1.32l1,4.32a23.38,23.38,0,0,1-9.38,1.72c-8.75,0-13.93-5.52-13.93-14.09s5.3-15,13.23-15c7.14,0,11.63,5.29,11.63,13.29a11.6,11.6,0,0,1-.22,2.82Zm-5.7-4.43c0-4.32-2.17-7.36-6.15-7.36-3.57,0-6.39,3.1-6.79,7.36Z"/></g></g></svg>