<svg width="190" height="427" viewBox="0 0 190 427" fill="none" xmlns="http://www.w3.org/2000/svg">
<path fill-rule="evenodd" clip-rule="evenodd" d="M-7.84384 1.59431C27.7236 -5.74596 37.8075 56.9054 66.3143 79.3553C87.814 96.2869 124.999 92.8162 138.312 116.696C152.143 141.505 125.502 173.568 133.949 200.675C143.415 231.055 194.78 246.465 188.464 277.648C182.234 308.404 134.102 307.187 108.641 325.615C90.1713 338.982 76.2512 356.488 58.9792 371.364C36.9127 390.37 21.2598 427.661 -7.84384 425.943C-37.7549 424.176 -44.055 376.841 -70.9622 363.691C-97.602 350.671 -132.626 367.621 -158.124 352.497C-184.593 336.797 -216.245 310.119 -212.731 279.602C-208.671 244.339 -152.135 236.34 -140.872 202.67C-131.216 173.804 -175.736 138.314 -157.347 114.033C-139.229 90.1082 -92.5649 125.242 -68.5631 107.191C-35.6686 82.4515 -48.1864 9.92004 -7.84384 1.59431Z" stroke="#5B3AEE" stroke-width="2"/>
<path fill-rule="evenodd" clip-rule="evenodd" d="M-37.8438 1.59431C-2.27639 -5.74596 7.80751 56.9054 36.3143 79.3553C57.814 96.2869 94.9993 92.8162 108.312 116.696C122.143 141.505 95.5021 173.568 103.949 200.675C113.415 231.055 164.78 246.465 158.464 277.648C152.234 308.404 104.102 307.187 78.6414 325.615C60.1713 338.982 46.2512 356.488 28.9792 371.364C6.91268 390.37 -8.74023 427.661 -37.8438 425.943C-67.7549 424.176 -74.055 376.841 -100.962 363.691C-127.602 350.671 -162.626 367.621 -188.124 352.497C-214.593 336.797 -246.245 310.119 -242.731 279.602C-238.671 244.339 -182.135 236.34 -170.872 202.67C-161.216 173.804 -205.736 138.314 -187.347 114.033C-169.229 90.1082 -122.565 125.242 -98.5631 107.191C-65.6686 82.4515 -78.1864 9.92004 -37.8438 1.59431Z" stroke="#5B3AEE" stroke-width="2"/>
</svg>
