<svg width="20" height="19" viewBox="0 0 20 19" fill="none" xmlns="http://www.w3.org/2000/svg">
<path d="M18.7719 13.4963C18.7388 13.4688 14.9913 10.8025 13.9794 10.9656C13.4913 11.0519 13.2125 11.385 12.6531 12.0512C12.4985 12.2367 12.3403 12.4193 12.1788 12.5988C11.8252 12.4836 11.4804 12.3432 11.1469 12.1788C9.42533 11.3406 8.03437 9.94967 7.19625 8.22812C7.03179 7.89464 6.89143 7.5498 6.77625 7.19625C6.96 7.02812 7.2175 6.81125 7.3275 6.71875C7.99062 6.1625 8.32312 5.88312 8.40938 5.39437C8.58625 4.3825 5.90625 0.63625 5.87875 0.6025C5.7567 0.42941 5.59775 0.285578 5.41336 0.181386C5.22897 0.0771933 5.02374 0.0152407 4.8125 0C3.72625 0 0.625 4.0225 0.625 4.70062C0.625 4.74 0.681875 8.7425 5.6175 13.7631C10.6325 18.6931 14.635 18.75 14.6744 18.75C15.3519 18.75 19.375 15.6487 19.375 14.5625C19.3596 14.3512 19.2975 14.146 19.1932 13.9616C19.0889 13.7772 18.945 13.6183 18.7719 13.4963ZM14.605 17.4963C14.0625 17.45 10.7 17.0069 6.5 12.8813C2.35437 8.66063 1.9225 5.2925 1.87937 4.77063C2.69861 3.48478 3.68799 2.31564 4.82062 1.295C4.84562 1.32 4.87875 1.3575 4.92125 1.40625C5.78989 2.59202 6.53817 3.86142 7.155 5.19562C6.95441 5.39742 6.7424 5.58753 6.52 5.765C6.17512 6.02778 5.85843 6.32563 5.575 6.65375C5.52704 6.72104 5.4929 6.79717 5.47456 6.87774C5.45621 6.9583 5.45403 7.04171 5.46812 7.12313C5.60039 7.69608 5.80297 8.25049 6.07125 8.77375C7.03243 10.7475 8.62735 12.3422 10.6012 13.3031C11.1244 13.5718 11.6788 13.7746 12.2519 13.9069C12.3333 13.9213 12.4168 13.9193 12.4974 13.9009C12.578 13.8825 12.6541 13.8482 12.7213 13.8C13.0505 13.5154 13.3494 13.1975 13.6131 12.8512C13.8094 12.6175 14.0712 12.3056 14.1706 12.2175C15.5082 12.8337 16.7805 13.5829 17.9681 14.4537C18.02 14.4975 18.0569 14.5312 18.0812 14.5531C17.0606 15.6861 15.8912 16.6757 14.605 17.495V17.4963ZM14.375 8.75H15.625C15.6235 7.42437 15.0962 6.15347 14.1589 5.21611C13.2215 4.27875 11.9506 3.75149 10.625 3.75V5C11.6193 5.00099 12.5725 5.3964 13.2756 6.09945C13.9786 6.80249 14.374 7.75574 14.375 8.75Z" fill="#F8BC24"/>
<path d="M17.5 8.75H18.75C18.7475 6.59588 17.8907 4.53069 16.3675 3.0075C14.8443 1.4843 12.7791 0.627481 10.625 0.625V1.875C12.4477 1.87715 14.1951 2.60217 15.484 3.89102C16.7728 5.17986 17.4978 6.9273 17.5 8.75Z" fill="#F8BC24"/>
</svg>
