<?xml version="1.0" encoding="UTF-8"?>
<svg version="1.1" viewBox="0 0 2048 2048" width="1280" height="1280" xmlns="http://www.w3.org/2000/svg">
<path transform="translate(783)" d="m0 0h112l2 2 14 5 16 9 13 12 8 9 8 14 5 13 3 15v1428l48-1 70-70 1-1348 2-18 5-15 6-12 9-12 7-8 13-10 16-8 15-5h108l1 130 5 3 222 111 12 7 1 28 20 966 9 433 1 27 61 61 2 1v2h2v2l4 2v2l4 2v2l4 2 25 25 17 1h319l5 5 29 44 29 43 10 15v2h2v132h-180l-1-6v-53l2-2h118l-1-51-29-44-12-18-2-5-497-1v102l-1 17h362l2 3-1 58h-1808v-132l7-9 7-11 29-43 30-45 3-1 335-1 35-35h2l2-4h2l2-4 8-7 50-50 1-3 6-293 12-579 4-192 2-88 1-1h39l21 1 1 6-3 143-16 772-3 138-1 56-1 22 3-1h205v-1487l-178 89-1 30-3 134-1 38h-60l-1-1v-39l4-195 2-6 19-10 218-109zm62 60-1 3v385l4-1 13-8 16-8 15-5 11-3v-340l-4-9-7-8-8-4-10-2zm329 0-9 1-9 5-8 9-3 8-1 16v323l24 8 21 10 12 8h3l-1-388zm90 140v1487l206 1 3-1-4-200-7-335-9-437-7-333-2-93-19-10-158-79zm-362 285-16 9-13 10-7 7-10 14-8 18-3 17-1 16v1111l56 1 3-1v-1202zm242 1v1201l56 1 3-1v-1125l-3-17-6-16-9-14-11-12-12-9-15-8zm-63 1037-7 8-2 1v2h-2v2h-2v2h-2v2l-4 2-2 4h-2v2h-2v2h-2v2h-2v2h-2v2h-2v2l-4 2-6 7-73 1-1 2v117l116 1 3-1 1-163zm-524 225-3 2v2l-4 2-41 41-6 5v2l-4 2-2 3h1053l-2-4-8-7-47-47-2-1zm-451 120-40 60-5 8-1 19v32h542v-119zm558 0-1 5v114h59v-119zm120 0-1 5v115h480l1-1v-119zm542 0-1 119h59v-119z" fill="#fff"/>
<path transform="translate(1365,342)" d="m0 0h20l1 1 1 9v50l-1 1-31 1h-28l-1-1-1-37v-22l1-1z" fill="#fff"/>
<path transform="translate(1366,462)" d="m0 0h22l1 1 1 37v22l-2 1-32 1h-26l-1-1-1-17v-42l1-1z" fill="#fff"/>
</svg>
