<svg width="461" height="440" viewBox="0 0 461 440" fill="none" xmlns="http://www.w3.org/2000/svg">
<path opacity="0.5" fill-rule="evenodd" clip-rule="evenodd" d="M220.27 1.08362C273.646 12.5381 261.253 104.007 305.263 136.29C348.861 168.271 439.894 125.095 458.509 175.841C476.798 225.698 389.181 252.835 365.442 300.344C347.319 336.613 372.834 394.233 338.553 415.906C303.712 437.933 261.481 393.245 220.27 392.124C180.979 391.055 139.493 431.063 106.575 409.596C73.9796 388.339 94.4944 334.642 78.0588 299.382C57.7182 255.745 -5.57722 229.573 0.39579 181.804C6.17241 135.606 67.8761 122.642 103.856 93.0685C143.021 60.8779 170.692 -9.55593 220.27 1.08362Z" fill="#55c1fd"/>
<path fill-rule="evenodd" clip-rule="evenodd" d="M220.27 19.0836C273.646 30.5381 261.253 122.007 305.263 154.29C348.861 186.271 439.894 143.095 458.509 193.841C476.798 243.698 389.181 270.835 365.442 318.344C347.319 354.613 372.834 412.233 338.553 433.906C303.712 455.933 261.481 411.245 220.27 410.124C180.979 409.055 139.493 449.063 106.575 427.596C73.9796 406.339 94.4944 352.642 78.0588 317.382C57.7182 273.745 -5.57722 247.573 0.39579 199.804C6.17241 153.606 67.8761 140.642 103.856 111.069C143.021 78.8779 170.692 8.44407 220.27 19.0836Z" fill="#F8BC24"/>
</svg>
