<svg width="70" height="70" viewBox="0 0 70 70" fill="none" xmlns="http://www.w3.org/2000/svg">
<g clip-path="url(#clip0_123_187)">
<path d="M9.01707 55.5377C19.2279 68.4007 39.2517 65.2181 43.893 49.1725C44.1582 48.3769 44.2908 47.4486 44.4234 46.6529C33.6822 44.266 23.2061 36.4421 22.2779 27.0269C21.4822 18.54 30.1018 16.0205 35.8039 20.7943C42.5669 26.4965 47.3408 34.8508 47.7386 43.7353C54.6343 44.6636 61.3973 42.8071 65.1103 36.0441C71.3429 24.64 62.9886 9.25722 51.8495 4.74854C50.656 4.35072 51.1865 2.4942 52.3799 2.89203C67.7625 7.26832 75.719 28.7508 65.2429 41.481C61.1321 46.3877 54.5017 47.9788 47.606 47.1832C46.6778 56.2005 39.6495 63.3614 31.2955 66.1461C21.6151 69.3287 12.7303 64.6877 7.02816 57.1288C6.09968 55.9353 8.08902 54.4768 9.01707 55.5377ZM38.7213 28.7508C36.5996 25.8335 33.8148 22.5183 30.2344 21.3248C26.7868 20.1313 25.5931 24.9052 25.4607 27.0269C25.3281 29.6791 27.1846 32.066 28.9085 33.9226C32.4887 38.0332 38.4561 41.6138 44.5561 43.2049C44.1582 38.0332 41.6387 32.9943 38.7213 28.7508Z" fill="#F8CB1E"/>
<path d="M1.59118 50.6312C5.30421 50.6312 9.14985 50.8964 12.7303 51.8247C14.1887 52.2225 13.5259 54.2116 12.067 53.9464C9.14964 53.416 6.09965 53.5486 3.18227 53.6812C3.31488 55.4049 3.44748 57.2614 3.7127 58.9853C3.97792 60.3114 4.90617 62.3005 4.11052 63.6266C3.7127 64.2898 3.04966 64.2898 2.38662 64.0244C0.795321 63.3614 0.795323 60.5766 0.530107 59.1179C0.132282 56.7307 -0.000113487 54.4766 -0.000113487 52.0894C-0.000113487 51.2942 0.795534 50.6312 1.59118 50.6312Z" fill="#F8CB1E"/>
</g>
<defs>
<clipPath id="clip0_123_187">
<rect width="70" height="70" fill="white" transform="matrix(-1 0 0 1 70 0)"/>
</clipPath>
</defs>
</svg>
