<svg width="12" height="12" viewBox="0 0 12 12" fill="none" xmlns="http://www.w3.org/2000/svg">
<path d="M6.19333 11.2503C6.04436 11.2511 5.89851 11.2076 5.77437 11.1253C5.65023 11.0429 5.55342 10.9255 5.4963 10.7879C5.43917 10.6503 5.42431 10.4988 5.45362 10.3528C5.48292 10.2067 5.55505 10.0727 5.66083 9.96777L9.63583 6.00027L5.66083 2.03276C5.53796 1.88929 5.47375 1.70473 5.48104 1.51597C5.48833 1.32722 5.56658 1.14816 5.70015 1.01459C5.83373 0.881021 6.01278 0.802772 6.20154 0.795481C6.39029 0.78819 6.57485 0.852395 6.71833 0.975265L11.2183 5.47527C11.358 5.61579 11.4364 5.80588 11.4364 6.00401C11.4364 6.20215 11.358 6.39224 11.2183 6.53276L6.71833 11.0328C6.57863 11.1713 6.39008 11.2494 6.19333 11.2503Z" fill="#D9D9D9"/>
<path d="M1.69333 11.2501C1.54436 11.251 1.39851 11.2075 1.27437 11.1251C1.15023 11.0428 1.05342 10.9253 0.996299 10.7878C0.939173 10.6502 0.924315 10.4987 0.953617 10.3526C0.982919 10.2066 1.05505 10.0725 1.16083 9.96764L5.13583 6.00014L1.16083 2.03264C1.0196 1.89141 0.940258 1.69987 0.940258 1.50014C0.940258 1.30041 1.0196 1.10887 1.16083 0.967639C1.30205 0.826411 1.4936 0.74707 1.69333 0.74707C1.89305 0.74707 2.0846 0.826411 2.22583 0.967639L6.72583 5.46764C6.86552 5.60816 6.94392 5.79825 6.94392 5.99639C6.94392 6.19453 6.86552 6.38462 6.72583 6.52514L2.22583 11.0251C2.15637 11.096 2.07353 11.1524 1.98213 11.191C1.89072 11.2296 1.79256 11.2497 1.69333 11.2501Z" fill="#D9D9D9"/>
</svg>
