<svg width="83" height="176" viewBox="0 0 83 176" fill="none" xmlns="http://www.w3.org/2000/svg">
<path fill-rule="evenodd" clip-rule="evenodd" d="M87.5906 1.72848C69.338 4.92884 61.2535 26.3256 46.2025 37.136C32.2398 47.1648 9.14582 46.8291 2.64268 62.7427C-3.89939 78.7516 10.8916 95.2553 15.6585 111.879C19.677 125.894 17.5589 143.093 28.4587 152.775C39.2779 162.386 56.3389 156.615 70.3012 160.419C83.8736 164.118 95.0422 175.546 109.087 174.746C124.48 173.869 142.118 168.94 150.283 155.861C158.476 142.739 149.734 125.866 149.258 110.404C148.877 98.0326 149.107 86.3598 147.766 74.0559C145.779 55.8205 151.223 34.8803 139.491 20.7791C127.46 6.31962 106.118 -1.51999 87.5906 1.72848Z" stroke="#F8CB1E"/>
<path fill-rule="evenodd" clip-rule="evenodd" d="M86.7777 10.6754C70.4124 13.5453 63.1638 32.7326 49.669 42.4268C37.15 51.42 16.4439 51.1189 10.6131 65.3893C4.74748 79.7452 18.0092 94.5446 22.2831 109.452C25.8862 122.02 23.9871 137.442 33.7599 146.125C43.4604 154.743 58.7574 149.568 71.276 152.98C83.445 156.296 93.4589 166.545 106.051 165.827C119.853 165.04 135.667 160.62 142.988 148.892C150.334 137.125 142.495 121.994 142.069 108.129C141.727 97.0352 141.933 86.5677 140.731 75.5343C138.949 59.1819 143.83 40.404 133.311 27.7589C122.525 14.7925 103.389 7.76238 86.7777 10.6754Z" stroke="#F8CB1E"/>
<path fill-rule="evenodd" clip-rule="evenodd" d="M85.9374 17.7247C71.0747 20.3328 64.4916 37.7697 52.2359 46.5794C40.8663 54.7522 22.0613 54.4786 16.7659 67.4472C11.4389 80.4934 23.4829 93.9427 27.3645 107.49C30.6367 118.911 28.9119 132.927 37.7875 140.817C46.5973 148.65 60.4898 143.946 71.859 147.047C82.9107 150.061 92.0051 159.375 103.441 158.722C115.976 158.007 130.338 153.99 136.987 143.332C143.658 132.638 136.539 118.888 136.152 106.287C135.842 96.2061 136.029 86.6935 134.937 76.6667C133.319 61.806 137.752 44.7412 128.199 33.2497C118.403 21.4662 101.024 15.0774 85.9374 17.7247Z" stroke="#F8CB1E"/>
<path fill-rule="evenodd" clip-rule="evenodd" d="M84.7695 28.0273C71.9974 30.2527 66.3403 45.1313 55.8084 52.6485C46.0381 59.6222 29.8782 59.3888 25.3277 70.4546C20.7499 81.5867 31.0998 93.0627 34.4354 104.623C37.2474 114.368 35.7652 126.327 43.3923 133.06C50.963 139.743 62.9013 135.73 72.6714 138.376C82.1685 140.947 89.9838 148.895 99.8113 148.338C110.583 147.728 122.925 144.3 128.638 135.206C134.371 126.081 128.254 114.348 127.921 103.596C127.654 94.994 127.815 86.8771 126.877 78.3214C125.486 65.6411 129.296 51.08 121.086 41.2745C112.668 31.2198 97.7337 25.7684 84.7695 28.0273Z" stroke="#F8CB1E"/>
<path fill-rule="evenodd" clip-rule="evenodd" d="M83.491 38.8709C73.0054 40.6936 68.3611 52.8792 59.7148 59.0358C51.6936 64.7473 38.4268 64.5561 34.6909 73.6191C30.9327 82.7363 39.4297 92.1352 42.1681 101.603C44.4767 109.584 43.2598 119.379 49.5215 124.893C55.7368 130.367 65.5378 127.08 73.5588 129.247C81.3557 131.353 87.7717 137.862 95.8399 137.406C104.683 136.906 114.815 134.099 119.506 126.651C124.213 119.177 119.19 109.568 118.917 100.762C118.698 93.717 118.83 87.0692 118.06 80.062C116.918 69.6768 120.046 57.7512 113.306 49.7204C106.395 41.4856 94.1342 37.0209 83.491 38.8709Z" stroke="#F8CB1E"/>
</svg>
