<svg width="60" height="54" viewBox="0 0 60 54" fill="#005280" xmlns="http://www.w3.org/2000/svg">
<path d="M59.1211 51.9542H58.1213V27.4091H59.1211C59.4187 27.4091 59.6959 27.2587 59.8581 27.0092C60.0203 26.7597 60.0451 26.4451 59.9243 26.1733L56.1668 17.7188C56.0257 17.4014 55.711 17.1968 55.3636 17.1968H36.9398L30.8789 11.1359V6.74253H36.5758C37.0612 6.74253 37.4547 6.34901 37.4547 5.86362V1.16675C37.4547 0.681357 37.0612 0.287842 36.5758 0.287842H30C29.5146 0.287842 29.1211 0.681357 29.1211 1.16675V11.136L23.0602 17.1968H4.63643C4.28909 17.1968 3.97432 17.4014 3.83323 17.7188L0.0757287 26.1733C-0.0450916 26.4451 -0.0201307 26.7597 0.14194 27.0092C0.30401 27.2587 0.581393 27.4091 0.878932 27.4091H1.87878V51.9543H0.878932C0.393541 51.9543 2.55737e-05 52.3478 2.55737e-05 52.8332C2.55737e-05 53.3186 0.393541 53.7121 0.878932 53.7121H59.1211C59.6065 53.7121 60 53.3186 60 52.8332C60 52.3478 59.6065 51.9542 59.1211 51.9542ZM35.6969 4.98472H30.8789V2.04565H35.6969V4.98472ZM5.2076 18.9546H21.3024L14.6057 25.6513H2.23139L5.2076 18.9546ZM3.63659 27.4091H14.9697C15.2028 27.4091 15.4264 27.3166 15.5911 27.1517L30 12.7429L44.4088 27.1517C44.5736 27.3166 44.7972 27.4091 45.0303 27.4091H51.606C52.0914 27.4091 52.4849 27.0156 52.4849 26.5302C52.4849 26.0448 52.0914 25.6513 51.606 25.6513H45.3944L38.6977 18.9546H54.7924L57.7688 25.6513H55.3636C54.8782 25.6513 54.4847 26.0448 54.4847 26.5302C54.4847 27.0156 54.8782 27.4091 55.3636 27.4091H56.3635V51.9543H38.394V49.0757C38.394 48.5903 38.0005 48.1968 37.5151 48.1968H36.5153V40.6212C36.5153 40.1358 36.1218 39.7423 35.6364 39.7423H24.3638C23.8784 39.7423 23.4849 40.1358 23.4849 40.6212V48.1968H22.485C21.9996 48.1968 21.6061 48.5903 21.6061 49.0757V51.9543H3.63659V27.4091ZM34.7575 41.5V48.1967H30.8789V41.5H34.7575ZM29.1211 48.1967H25.2426V41.5H29.1211V48.1967ZM36.6362 49.9545V51.9542H23.3638V49.9545H36.6362Z" fill="#005280"/>
<path d="M30.0001 34.9243C33.5926 34.9243 36.5154 32.0017 36.5154 28.4091C36.5154 24.8165 33.5928 21.8938 30.0001 21.8938C26.4075 21.8938 23.4849 24.8166 23.4849 28.4091C23.4849 32.0016 26.4076 34.9243 30.0001 34.9243ZM30.0001 23.6516C32.6234 23.6516 34.7576 25.7858 34.7576 28.4091C34.7576 31.0323 32.6234 33.1665 30.0001 33.1665C27.3769 33.1665 25.2427 31.0324 25.2427 28.4091C25.2427 25.7857 27.3769 23.6516 30.0001 23.6516Z" fill="#005280"/>
<path d="M30 31.1668C30.4854 31.1668 30.8789 30.7733 30.8789 30.2879V28.9523L32.2718 28.2558C32.706 28.0388 32.882 27.5109 32.6648 27.0767C32.4478 26.6425 31.9199 26.4664 31.4857 26.6836L29.607 27.623C29.3092 27.7718 29.1211 28.0762 29.1211 28.4091V30.2879C29.1211 30.7733 29.5146 31.1668 30 31.1668Z" fill="#005280"/>
<path d="M19.6666 39.7422H6.51514C6.02975 39.7422 5.63623 40.1357 5.63623 40.6211V46.2575C5.63623 46.7428 6.02975 47.1364 6.51514 47.1364H8.39424C8.87963 47.1364 9.27314 46.7428 9.27314 46.2575C9.27314 45.7721 8.87963 45.3786 8.39424 45.3786H7.39404V41.5H12.212V45.3786H12.1516C11.6662 45.3786 11.2727 45.7721 11.2727 46.2575C11.2727 46.7428 11.6662 47.1364 12.1516 47.1364H19.6666C20.152 47.1364 20.5455 46.7428 20.5455 46.2575V40.6211C20.5455 40.1357 20.152 39.7422 19.6666 39.7422ZM18.7877 45.3786H13.9698V41.5H18.7877V45.3786Z" fill="#005280"/>
<path d="M19.6666 30.3484H6.51514C6.02975 30.3484 5.63623 30.7419 5.63623 31.2273V36.8637C5.63623 37.3491 6.02975 37.7426 6.51514 37.7426H19.6666C20.152 37.7426 20.5455 37.3491 20.5455 36.8637V31.2273C20.5455 30.7419 20.152 30.3484 19.6666 30.3484ZM7.39404 32.1062H12.212V35.9848H7.39404V32.1062ZM18.7877 35.9846H13.9698V32.1061H18.7877V35.9846Z" fill="#005280"/>
<path d="M40.3335 47.1364H53.485C53.9704 47.1364 54.3639 46.7428 54.3639 46.2575V40.6211C54.3639 40.1357 53.9704 39.7422 53.485 39.7422H40.3335C39.8481 39.7422 39.4546 40.1357 39.4546 40.6211V46.2575C39.4546 46.7428 39.8481 47.1364 40.3335 47.1364ZM52.6061 45.3786H47.7881V41.5H52.6061V45.3786ZM41.2124 41.5H46.0303V45.3786H41.2124V41.5Z" fill="#005280"/>
<path d="M40.3335 37.7423H53.485C53.9704 37.7423 54.3639 37.3488 54.3639 36.8634V31.2271C54.3639 30.7417 53.9704 30.3481 53.485 30.3481H40.3335C39.8481 30.3481 39.4546 30.7417 39.4546 31.2271V36.8634C39.4546 37.3489 39.8481 37.7423 40.3335 37.7423ZM52.6061 35.9845H47.7881V32.106H52.6061V35.9845ZM41.2124 32.1061H46.0303V35.9846H41.2124V32.1061Z" fill="#005280"/>
</svg>
