<svg width="58" height="54" viewBox="0 0 58 54" fill="#005280" xmlns="http://www.w3.org/2000/svg">
<path fill-rule="evenodd" clip-rule="evenodd" d="M35.805 14.29C34.6513 14.8638 33.6238 15.6525 32.7763 16.6062C31.6338 16.0575 30.3525 15.75 29 15.75C27.6475 15.75 26.3662 16.0575 25.2237 16.6062C24.3762 15.6525 23.3488 14.8638 22.195 14.29C24.0475 12.9238 25.25 10.7262 25.25 8.25C25.25 4.11125 21.8888 0.75 17.75 0.75C13.6113 0.75 10.25 4.11125 10.25 8.25C10.25 10.7262 11.4525 12.9238 13.305 14.29C10.0125 15.9263 7.75 19.3237 7.75 23.25V23.6775C4.83875 24.7075 2.75 27.4875 2.75 30.75C2.75 33.2275 3.95375 35.425 5.8075 36.7912C4.84375 37.2687 3.95375 37.9038 3.17875 38.6788C1.30375 40.5538 0.25 43.0975 0.25 45.75V49.5C0.25 51.5713 1.92875 53.25 4 53.25H16.5C17.46 53.25 18.3363 52.8887 19 52.295C19.6638 52.8887 20.54 53.25 21.5 53.25H36.5C37.46 53.25 38.3363 52.8887 39 52.295C39.6638 52.8887 40.54 53.25 41.5 53.25H54C56.0713 53.25 57.75 51.5713 57.75 49.5V45.75C57.75 43.0975 56.6963 40.5538 54.8213 38.6788C54.0463 37.9038 53.1563 37.2687 52.1925 36.7912C54.0463 35.425 55.25 33.2275 55.25 30.75C55.25 27.4875 53.1613 24.7075 50.25 23.6775V23.25C50.25 19.3237 47.9875 15.9263 44.695 14.29C46.5475 12.9238 47.75 10.7262 47.75 8.25C47.75 4.11125 44.3888 0.75 40.25 0.75C36.1113 0.75 32.75 4.11125 32.75 8.25C32.75 10.7262 33.9525 12.9238 35.805 14.29ZM10.25 38.25C8.26125 38.25 6.35375 39.04 4.94625 40.4463C3.54 41.8538 2.75 43.7612 2.75 45.75V49.5C2.75 50.19 3.31 50.75 4 50.75H16.5C17.19 50.75 17.75 50.19 17.75 49.5V45.75C17.75 43.7612 16.96 41.8538 15.5538 40.4463C14.1463 39.04 12.2388 38.25 10.25 38.25ZM47.75 38.25C45.7613 38.25 43.8538 39.04 42.4463 40.4463C41.04 41.8538 40.25 43.7612 40.25 45.75V49.5C40.25 50.19 40.81 50.75 41.5 50.75H54C54.69 50.75 55.25 50.19 55.25 49.5V45.75C55.25 43.7612 54.46 41.8538 53.0537 40.4463C51.6463 39.04 49.7388 38.25 47.75 38.25ZM29 33.25C24.1675 33.25 20.25 37.1675 20.25 42V49.5C20.25 50.19 20.81 50.75 21.5 50.75H36.5C37.19 50.75 37.75 50.19 37.75 49.5V42C37.75 37.1675 33.8325 33.25 29 33.25ZM47.75 23.25C47.75 19.1075 44.3925 15.75 40.25 15.75C38.1425 15.75 36.2388 16.6188 34.8762 18.0188C36.6413 19.62 37.75 21.9312 37.75 24.5C37.75 27.56 36.175 30.2563 33.7938 31.82C36.8725 33.2713 39.1863 36.08 39.965 39.4738C40.1875 39.1975 40.4263 38.9325 40.6788 38.6788C41.4538 37.9038 42.3438 37.2687 43.3075 36.7912C41.4538 35.425 40.25 33.2275 40.25 30.75C40.25 26.6112 43.6113 23.25 47.75 23.25ZM23.1238 18.0188C21.7613 16.6188 19.8575 15.75 17.75 15.75C13.6075 15.75 10.25 19.1075 10.25 23.25C14.3888 23.25 17.75 26.6112 17.75 30.75C17.75 33.2275 16.5463 35.425 14.6925 36.7912C15.6563 37.2687 16.5463 37.9038 17.3213 38.6788C17.5738 38.9325 17.8125 39.1975 18.035 39.4738C18.8138 36.08 21.1275 33.2713 24.2063 31.82C21.825 30.2563 20.25 27.56 20.25 24.5C20.25 21.9312 21.3588 19.62 23.1238 18.0188ZM47.75 35.75C44.99 35.75 42.75 33.51 42.75 30.75C42.75 27.99 44.99 25.75 47.75 25.75C50.51 25.75 52.75 27.99 52.75 30.75C52.75 33.51 50.51 35.75 47.75 35.75ZM10.315 35.75H10.25C7.49 35.75 5.25 33.51 5.25 30.75C5.25 27.99 7.49 25.75 10.25 25.75C13.01 25.75 15.25 27.99 15.25 30.75C15.25 33.4875 13.045 35.715 10.315 35.75ZM29 18.25C32.45 18.25 35.25 21.05 35.25 24.5C35.25 27.95 32.45 30.75 29 30.75C25.55 30.75 22.75 27.95 22.75 24.5C22.75 21.05 25.55 18.25 29 18.25ZM17.75 3.25C20.51 3.25 22.75 5.49 22.75 8.25C22.75 11.01 20.51 13.25 17.75 13.25C14.99 13.25 12.75 11.01 12.75 8.25C12.75 5.49 14.99 3.25 17.75 3.25ZM40.25 3.25C43.01 3.25 45.25 5.49 45.25 8.25C45.25 11.01 43.01 13.25 40.25 13.25C37.49 13.25 35.25 11.01 35.25 8.25C35.25 5.49 37.49 3.25 40.25 3.25Z" fill="#005280"/>
</svg>
