<svg width="60" height="60" viewBox="0 0 60 60" fill="#005280" xmlns="http://www.w3.org/2000/svg">
<path d="M34.1077 28.4542C34.2846 28.8002 34.6366 29.0001 35.0006 29.0001C35.1526 29.0001 35.3086 28.9651 35.4537 28.8912C35.5126 28.8612 41.3987 25.8711 44.3016 24.9542C44.8277 24.7872 45.1196 24.2251 44.9526 23.6992C44.7865 23.1732 44.2286 22.8802 43.6976 23.0462C40.6396 24.0133 34.7937 26.9832 34.5457 27.1092C34.0536 27.3592 33.8577 27.9613 34.1077 28.4542Z" fill="#005280"/>
<path d="M35.0006 17.0004C35.1526 17.0004 35.3086 16.9653 35.4537 16.8914C35.5126 16.8614 41.3986 13.8714 44.3016 12.9544C44.8276 12.7874 45.1196 12.2254 44.9526 11.6995C44.7865 11.1734 44.2286 10.8804 43.6976 11.0465C40.6396 12.0135 34.7937 14.9835 34.5457 15.1095C34.0537 15.3594 33.8577 15.9614 34.1076 16.4544C34.2846 16.8003 34.6366 17.0004 35.0006 17.0004Z" fill="#005280"/>
<path d="M58.9996 15.0004C58.4466 15.0004 57.9996 15.4484 57.9996 16.0003V55C57.9996 56.654 56.6536 58 54.9996 58H30.9998V55.699C32.4579 55.189 36.2558 54 39.9998 54C48.7107 54 54.6257 55.9291 54.6846 55.949C54.9856 56.0489 55.3217 55.999 55.5846 55.8109C55.8456 55.623 55.9996 55.321 55.9996 54.9999V11.0004C55.9996 10.5314 55.6746 10.1254 55.2166 10.0244C55.2166 10.0244 54.4326 9.84942 53.0925 9.60333C52.5515 9.50337 52.0286 9.86337 51.9285 10.4054C51.8286 10.9493 52.1875 11.4703 52.7306 11.5703C53.2416 11.6643 53.6696 11.7473 53.9996 11.8134V53.671C51.7335 53.077 46.7017 52 39.9996 52C35.6426 52 31.3628 53.431 30.0387 53.916C28.8616 53.3961 25.3037 52 20.9997 52C14.1117 52 8.43779 53.136 5.99984 53.7131V11.7743C7.99681 11.2833 13.8948 10.0004 20.9997 10.0004C24.6457 10.0004 27.7726 11.1353 28.9997 11.6484V51.0001C28.9997 51.3601 29.1936 51.6931 29.5066 51.8701C29.8196 52.0481 30.2057 52.043 30.5147 51.8571C30.6137 51.7981 40.5216 45.8801 49.3155 42.9491C49.7245 42.8121 49.9995 42.4312 49.9995 42.0001V1.00043C49.9995 0.672424 49.8385 0.365395 49.5685 0.178483C49.3005 -0.00854711 48.9566 -0.0515546 48.6475 0.0635226C40.6466 3.06444 32.5508 8.1024 32.4697 8.15244C32.0017 8.44541 31.8587 9.0624 32.1517 9.53044C32.4437 9.99848 33.0607 10.1415 33.5297 9.84848C33.6036 9.80149 40.6466 5.41954 47.9995 2.46257V41.2843C41.1735 43.6562 34.0466 47.5292 30.9996 49.2631V11.0004C30.9996 10.6214 30.7856 10.2754 30.4466 10.1055C30.2746 10.0205 26.1767 8.00045 20.9997 8.00045C11.9638 8.00045 5.01687 9.95547 4.72485 10.0394C4.29583 10.1614 3.99981 10.5544 3.99981 11.0004V55.0001C3.99981 55.3131 4.14782 55.6091 4.39684 55.7982C4.57285 55.9312 4.78485 56.0002 4.99988 56.0002C5.09187 56.0002 5.18387 55.9872 5.27386 55.9612C5.34289 55.9422 12.2578 54.0002 20.9997 54.0002C24.6557 54.0002 27.7797 55.1382 28.9997 55.6491V58.0001H4.99988C3.34591 58.0001 1.99991 56.6541 1.99991 55.0001V16.0004C1.99991 15.4485 1.5519 15.0005 0.999953 15.0005C0.448004 15.0005 0 15.4485 0 16.0004V55.0001C0 57.7571 2.24295 60.0001 5 60.0001H54.9996C57.7566 60.0001 59.9996 57.7572 59.9996 55.0001V16.0004C59.9995 15.4484 59.5526 15.0004 58.9996 15.0004Z" fill="#005280"/>
<path d="M34.1077 22.4542C34.2846 22.8002 34.6366 23.0001 35.0006 23.0001C35.1526 23.0001 35.3086 22.9651 35.4537 22.8912C35.5126 22.8612 41.3987 19.8711 44.3016 18.9542C44.8277 18.7872 45.1196 18.2251 44.9526 17.6992C44.7865 17.1732 44.2286 16.8802 43.6976 17.0462C40.6396 18.0133 34.7937 20.9832 34.5457 21.1092C34.0536 21.3592 33.8577 21.9613 34.1077 22.4542Z" fill="#005280"/>
<path d="M34.1077 34.4542C34.2846 34.8002 34.6366 35.0001 35.0006 35.0001C35.1526 35.0001 35.3086 34.9651 35.4537 34.8912C35.5126 34.8612 41.3987 31.8711 44.3016 30.9542C44.8277 30.7872 45.1196 30.2251 44.9526 29.6992C44.7865 29.1732 44.2286 28.8802 43.6976 29.0462C40.6396 30.0133 34.7937 32.9832 34.5457 33.1092C34.0536 33.3592 33.8577 33.9613 34.1077 34.4542Z" fill="#005280"/>
<path d="M24.2277 18.5584C18.0528 17.1094 11.0358 18.9555 10.7408 19.0344C10.2078 19.1774 9.89085 19.7254 10.0338 20.2594C10.1538 20.7063 10.5578 21.0004 10.9988 21.0004C11.0849 21.0004 11.1718 20.9893 11.2589 20.9664C11.3259 20.9474 18.0818 19.1704 23.7718 20.5054C24.3068 20.6304 24.8478 20.2974 24.9738 19.7594C25.0997 19.2224 24.7657 18.6844 24.2277 18.5584Z" fill="#005280"/>
<path d="M24.2277 24.5582C18.0528 23.1103 11.0358 24.9552 10.7408 25.0342C10.2078 25.1772 9.89085 25.7253 10.0338 26.2592C10.1538 26.7061 10.5578 27.0001 10.9988 27.0001C11.0849 27.0001 11.1718 26.9891 11.2589 26.9662C11.3259 26.9472 18.0818 25.1702 23.7718 26.5051C24.3068 26.6302 24.8478 26.2971 24.9738 25.7591C25.0997 25.2222 24.7657 24.6842 24.2277 24.5582Z" fill="#005280"/>
<path d="M34.1077 40.4542C34.2846 40.8002 34.6366 41.0001 35.0006 41.0001C35.1526 41.0001 35.3086 40.9651 35.4537 40.8911C35.5126 40.8612 41.3987 37.8711 44.3016 36.9541C44.8277 36.7872 45.1196 36.2251 44.9526 35.6992C44.7865 35.1733 44.2286 34.8802 43.6976 35.0462C40.6396 36.0133 34.7937 38.9832 34.5457 39.1092C34.0536 39.3592 33.8577 39.9613 34.1077 40.4542Z" fill="#005280"/>
<path d="M24.2277 30.5584C18.0528 29.1104 11.0358 30.9544 10.7408 31.0344C10.2078 31.1774 9.89085 31.7255 10.0338 32.2594C10.1538 32.7063 10.5578 33.0014 10.9988 33.0014C11.0849 33.0014 11.1718 32.9894 11.2589 32.9663C11.3259 32.9474 18.0818 31.1703 23.7718 32.5053C24.3068 32.6304 24.8478 32.2973 24.9738 31.7593C25.0997 31.2224 24.7657 30.6844 24.2277 30.5584Z" fill="#005280"/>
<path d="M24.2277 42.5582C18.0528 41.1092 11.0358 42.9552 10.7408 43.0342C10.2078 43.1772 9.89085 43.7252 10.0338 44.2591C10.1538 44.7061 10.5578 45.0012 10.9988 45.0012C11.0849 45.0012 11.1718 44.9892 11.2589 44.9661C11.3259 44.9471 18.0818 43.1701 23.7718 44.5051C24.3068 44.6291 24.8478 44.2971 24.9738 43.7591C25.0997 43.2222 24.7657 42.6842 24.2277 42.5582Z" fill="#005280"/>
<path d="M24.2277 36.5584C18.0528 35.1093 11.0358 36.9543 10.7408 37.0344C10.2078 37.1773 9.89085 37.7254 10.0338 38.2593C10.1538 38.7063 10.5578 39.0013 10.9988 39.0013C11.0849 39.0013 11.1718 38.9894 11.2589 38.9663C11.3259 38.9473 18.0818 37.1703 23.7718 38.5053C24.3068 38.6303 24.8478 38.2973 24.9738 37.7593C25.0997 37.2223 24.7657 36.6843 24.2277 36.5584Z" fill="#005280"/>
</svg>
