<svg width="191" height="248" viewBox="0 0 191 248" fill="none" xmlns="http://www.w3.org/2000/svg">
<path d="M134.308 17.9043C115.208 15.9792 95.2261 26.5032 85.704 44.3834C83.3734 48.7605 81.9307 53.5426 80.3936 58.2582C77.8244 66.1581 75.222 74.4741 76.7868 82.6347C79.9885 99.2944 95.4203 106.257 108.194 114.279C118.643 120.836 131.306 131.382 121.761 144.32C119.47 147.426 115.985 149.451 112.384 150.838C99.1159 155.936 81.3036 151.199 76.2985 137.895C75.6603 136.192 75.2386 134.339 75.5938 132.553C76.3262 128.853 80.1994 126.517 83.945 126.023C92.0687 124.947 99.9982 130.617 103.633 137.962C112.456 155.803 103.777 170.283 84.633 172.419C72.0979 173.817 60.0843 168.79 47.81 167.281C40.9514 166.438 35.3747 167.437 28.788 169.057C22.9949 170.482 17.4792 170.921 13.3674 175.986C10.1712 179.919 9.09466 185.65 11.2199 190.243C14.0499 196.362 21.2247 198.959 26.1744 203.536C34.9918 211.696 35.5855 226.791 28.2442 236.3C21.8074 244.638 10.3709 248.294 -0.000152949 246.414" stroke="#F8BC24" stroke-width="2" stroke-miterlimit="10" stroke-linecap="round" stroke-dasharray="7.97 7.97"/>
<path d="M150.256 29.1265L150.256 29.1265C160.815 30.0403 171.3 31.0101 181.815 32.5502C179.977 30.6594 177.585 29.2905 175.107 28.1338C174.269 27.7428 173.416 27.39 172.547 27.0308C171.978 26.7956 171.403 26.5576 170.821 26.3043C169.373 25.6748 167.934 24.9705 166.646 24.0405L166.646 24.0402C164.053 22.1638 161.47 20.4557 158.568 19.0195L158.567 19.0192C158.28 18.8764 157.916 18.685 157.496 18.4641C156.381 17.8777 154.869 17.083 153.339 16.4345C152.289 15.99 151.263 15.629 150.386 15.4589C149.48 15.2832 148.861 15.3372 148.517 15.5604C147.804 16.0238 147.375 16.851 146.979 17.7864C146.109 19.8416 145.448 21.9892 144.859 24.1629C144.763 24.5206 144.687 24.8126 144.678 25.1039C144.642 26.4184 145.392 27.3557 146.518 28.0183C147.654 28.6867 149.105 29.0271 150.256 29.1265Z" stroke="#F8BC24"/>
<path d="M148.032 25.9266L148.032 25.9267C149.102 26.0801 150.16 26.2147 151.213 26.3486C152.724 26.5408 154.225 26.7317 155.737 26.9756C158.237 27.3801 164.335 28.7454 169.803 29.9986C171.707 30.4349 173.53 30.8566 175.093 31.2183C175.772 31.3752 176.401 31.5208 176.967 31.6514C177.901 31.867 178.663 32.0417 179.184 32.1584C179.445 32.2167 179.648 32.2611 179.783 32.289C179.849 32.3026 179.907 32.3138 179.948 32.3206L179.949 32.3208C179.963 32.323 180.002 32.3293 180.042 32.3308C180.053 32.3312 180.08 32.3319 180.113 32.3286C180.13 32.3266 180.17 32.3196 180.194 32.3139C180.229 32.303 180.318 32.2624 180.368 32.2288C180.439 32.163 180.546 31.9704 180.565 31.8472C180.558 31.7429 180.5 31.5827 180.464 31.5272C180.403 31.4469 180.331 31.4054 180.32 31.3986L180.318 31.398L180.318 31.3977C179.823 31.1056 178.762 30.625 177.458 30.066C176.14 29.5013 174.539 28.8418 172.939 28.1881C172.358 27.9509 171.779 27.7149 171.214 27.4847C168.646 26.439 166.372 25.5125 165.603 25.134C164.319 24.5018 163.036 23.8798 161.755 23.2589C159.594 22.2118 157.44 21.1674 155.297 20.0808L155.071 20.5268L155.297 20.0808C153.556 19.198 151.795 18.3158 149.997 17.5168L149.996 17.5164C149.802 17.4308 149.54 17.3448 149.276 17.2613C149.203 17.2384 149.13 17.2155 149.056 17.1923C148.848 17.1273 148.634 17.0605 148.422 16.9889C148.135 16.8919 147.872 16.7928 147.66 16.6907C147.433 16.5813 147.328 16.4971 147.296 16.4563L147.294 16.4538C147.224 16.3675 147.2 16.3076 147.189 16.2648C147.176 16.2177 147.172 16.1609 147.176 16.0623C147.178 16.0298 147.181 15.9916 147.184 15.9482C147.201 15.7468 147.226 15.4347 147.15 15.0728L147.15 15.0704C146.384 11.4889 146.796 7.1623 147.153 3.41074C147.16 3.33118 147.168 3.25188 147.175 3.17285C147.243 2.48554 147.316 1.88523 147.572 1.3777L147.573 1.37605C147.827 0.866889 148.269 0.52291 148.703 0.501333L148.704 0.501281C148.993 0.486273 149.298 0.601951 149.683 0.791194C151.087 1.48465 152.34 2.46737 153.628 3.48862L153.628 3.48909C155.496 4.96568 157.369 6.43112 159.239 7.89502C169.348 15.8055 179.4 23.6707 188.26 33.0049C188.307 33.054 188.355 33.1038 188.403 33.1545C188.714 33.4791 189.056 33.8357 189.314 34.2213C189.618 34.6735 189.724 35.046 189.635 35.3539C189.544 35.6662 189.308 35.8865 188.935 36.0444C188.555 36.2053 188.087 36.2746 187.658 36.3012C183.051 36.5817 178.43 36.8005 173.806 37.0194C166.855 37.3485 159.896 37.6779 152.966 38.218M148.032 25.9266L153.004 38.7164M148.032 25.9266C147.598 25.8642 147.185 25.78 146.805 25.7026C146.745 25.6903 146.686 25.6782 146.627 25.6663C146.191 25.5783 145.805 25.5062 145.443 25.4785C144.745 25.425 144.165 25.5366 143.588 26.0465L143.586 26.0486C142.933 26.6189 142.334 27.5825 141.753 28.6725C141.551 29.05 141.351 29.4464 141.152 29.839C140.799 30.5357 140.452 31.2203 140.12 31.7646L140.12 31.7651C138.862 33.8218 137.63 35.8593 137.007 38.0887M148.032 25.9266L136.518 37.9807M152.966 38.218L153.004 38.7164M152.966 38.218C152.966 38.2179 152.966 38.2179 152.966 38.2179L153.004 38.7164M152.966 38.218C150.024 38.445 147.188 38.4343 144.234 38.3452L144.234 38.3452C143.443 38.3216 142.634 38.336 141.841 38.3501C141.32 38.3593 140.806 38.3685 140.308 38.3666C139.193 38.3624 138.099 38.3054 137.007 38.0887M153.004 38.7164C150.037 38.9455 147.18 38.9343 144.219 38.8449C143.434 38.8215 142.653 38.8356 141.874 38.8497C140.211 38.8797 138.556 38.9096 136.882 38.5736C136.921 38.4109 136.962 38.2493 137.007 38.0887M137.007 38.0887C136.844 38.0564 136.681 38.0205 136.518 37.9807M136.518 37.9807C136.494 38.069 136.47 38.1577 136.448 38.2467L136.394 38.465L136.601 38.5136L136.518 37.9807ZM188.623 32.6607C188.667 32.7069 188.713 32.7549 188.76 32.8045C189.426 33.4986 190.399 34.5128 190.115 35.493C189.822 36.5042 188.59 36.7444 187.689 36.8003L188.623 32.6607ZM188.623 32.6607C179.735 23.2973 169.65 15.4061 159.541 7.49613C157.672 6.0335 155.802 4.57022 153.938 3.09688C152.656 2.08013 151.363 1.06339 149.905 0.342727C149.518 0.152786 149.109 -0.0203959 148.678 0.00195011L188.623 32.6607ZM179.808 32.2581L179.809 32.2586C179.807 32.2572 179.804 32.2558 179.802 32.2544C179.805 32.2562 179.807 32.2574 179.808 32.2581Z" stroke="#F8BC24"/>
<path d="M144.795 24.0514C148.227 24.2591 151.642 24.6457 155.017 25.2013C155.73 25.3173 155.616 26.2788 154.892 26.1628C151.511 25.6072 148.102 25.2255 144.67 25.0129C143.934 24.9694 144.06 24.0079 144.795 24.0514Z" fill="#F8BC24"/>
<path d="M153.594 10.0162C153.856 9.85008 154.242 9.86045 154.456 10.0888L156.779 12.5955C156.974 12.8083 156.962 13.156 156.693 13.3273C156.43 13.4934 156.045 13.483 155.831 13.2546C155.055 12.4191 154.284 11.5835 153.508 10.7479C153.312 10.5351 153.325 10.1874 153.594 10.0162Z" fill="#F8BC24"/>
</svg>
