<svg xmlns="http://www.w3.org/2000/svg" xmlns:xlink="http://www.w3.org/1999/xlink" viewBox="0 0 800 237.04"><defs><style>.cls-1{fill:#a6a6a6;}.cls-10,.cls-2,.cls-3{fill:#fff;}.cls-2{stroke:#fff;stroke-miterlimit:59.26;stroke-width:1.19px;}.cls-4{fill:url(#linear-gradient);}.cls-5{fill:url(#linear-gradient-2);}.cls-6{fill:url(#linear-gradient-3);}.cls-7{fill:url(#linear-gradient-4);}.cls-8{opacity:0.2;}.cls-10,.cls-8,.cls-9{isolation:isolate;}.cls-9{opacity:0.12;}.cls-10{opacity:0.25;}</style><linearGradient id="linear-gradient" x1="-60.5" y1="903.13" x2="-77.28" y2="919.92" gradientTransform="translate(487.67 -5300.31) scale(5.93)" gradientUnits="userSpaceOnUse"><stop offset="0" stop-color="#00a0ff"/><stop offset="0.01" stop-color="#00a1ff"/><stop offset="0.26" stop-color="#00beff"/><stop offset="0.51" stop-color="#00d2ff"/><stop offset="0.76" stop-color="#00dfff"/><stop offset="1" stop-color="#00e3ff"/></linearGradient><linearGradient id="linear-gradient-2" x1="-48.46" y1="914.48" x2="-72.66" y2="914.48" gradientTransform="translate(487.67 -5300.31) scale(5.93)" gradientUnits="userSpaceOnUse"><stop offset="0" stop-color="#ffe000"/><stop offset="0.41" stop-color="#ffbd00"/><stop offset="0.78" stop-color="orange"/><stop offset="1" stop-color="#ff9c00"/></linearGradient><linearGradient id="linear-gradient-3" x1="-57.48" y1="916.71" x2="-80.24" y2="939.47" gradientTransform="translate(487.67 -5300.31) scale(5.93)" gradientUnits="userSpaceOnUse"><stop offset="0" stop-color="#ff3a44"/><stop offset="1" stop-color="#c31162"/></linearGradient><linearGradient id="linear-gradient-4" x1="-75.03" y1="894.64" x2="-64.87" y2="904.8" gradientTransform="translate(487.67 -5300.31) scale(5.93)" gradientUnits="userSpaceOnUse"><stop offset="0" stop-color="#32a071"/><stop offset="0.07" stop-color="#2da771"/><stop offset="0.48" stop-color="#15cf74"/><stop offset="0.8" stop-color="#06e775"/><stop offset="1" stop-color="#00f076"/></linearGradient></defs><g id="Layer_2" data-name="Layer 2"><g id="Layer_1-2" data-name="Layer 1"><path d="M770.37,237H29.63A29.35,29.35,0,0,1,0,207.41V29.63A29.35,29.35,0,0,1,29.63,0H770.37A29.35,29.35,0,0,1,800,29.63V207.41A29.35,29.35,0,0,1,770.37,237Z"/><path class="cls-1" d="M770.37,4.74a25,25,0,0,1,24.89,24.89V207.41a25,25,0,0,1-24.89,24.89H29.63A25,25,0,0,1,4.74,207.41V29.63A25,25,0,0,1,29.63,4.74H770.37m0-4.74H29.63A29.72,29.72,0,0,0,0,29.63V207.41A29.35,29.35,0,0,0,29.63,237H770.37A29.35,29.35,0,0,0,800,207.41V29.63A29.72,29.72,0,0,0,770.37,0Z"/><path class="cls-2" d="M280.89,60.44c0,4.75-1.19,8.89-4.15,11.86a18.38,18.38,0,0,1-31.41-13A18.22,18.22,0,0,1,263.7,40.89a15.72,15.72,0,0,1,7.11,1.78,12.9,12.9,0,0,1,5.34,4.14l-3,3c-2.38-3-5.34-4.15-9.49-4.15a11.77,11.77,0,0,0-9.48,4.15c-3,2.37-4.15,5.92-4.15,10.07s1.19,7.71,4.15,10.08,5.93,4.14,9.48,4.14a13,13,0,0,0,10.08-4.14,9.82,9.82,0,0,0,3-7.12h-13V58.07h17.19v2.37Zm27.26-14.81h-16V56.89H307V61H292.15V72.3h16V77H287.41V41.48h20.74ZM327.7,77H323V45.63H312.89V41.48h24.89v4.15H327.7ZM355,77V41.48h4.74V77Zm24.89,0h-4.74V45.63H365V41.48h24.29v4.15H379.26V77Zm56.3-4.74a18.37,18.37,0,0,1-31.41-13,18.37,18.37,0,1,1,36.74,0A17.46,17.46,0,0,1,436.15,72.3Zm-22.52-3a14,14,0,0,0,9.48,4.15,11.76,11.76,0,0,0,9.48-4.15,14.29,14.29,0,0,0,4.15-10.07c0-4.15-1.18-7.7-4.15-10.07A13.93,13.93,0,0,0,423.11,45a11.77,11.77,0,0,0-9.48,4.15,14.29,14.29,0,0,0-4.15,10.07C409.48,63.41,410.67,67,413.63,69.33ZM448,77V41.48h5.33l17.19,27.85V41.48h4.74V77h-4.74L452.15,48V77Z"/><path class="cls-3" d="M403.56,129.19c-14.23,0-25.49,10.66-25.49,25.48a25.3,25.3,0,0,0,25.49,25.48c14.22,0,25.48-10.67,25.48-25.48C429,139.26,417.78,129.19,403.56,129.19Zm0,40.29c-7.71,0-14.23-6.52-14.23-15.41s6.52-15.4,14.23-15.4,14.22,5.92,14.22,15.4C417.78,163,411.26,169.48,403.56,169.48Zm-55.12-40.29c-14.22,0-25.48,10.66-25.48,25.48a25.29,25.29,0,0,0,25.48,25.48c14.23,0,25.49-10.67,25.49-25.48C373.93,139.26,362.67,129.19,348.44,129.19Zm0,40.29c-7.7,0-14.22-6.52-14.22-15.41s6.52-15.4,14.22-15.4,14.23,5.92,14.23,15.4C362.67,163,356.15,169.48,348.44,169.48Zm-65.77-32.59v10.67h25.48a22.39,22.39,0,0,1-5.93,13.63c-3.55,3.55-9.48,7.7-19.55,7.7-16,0-27.86-12.45-27.86-28.45S267.26,112,282.67,112a29.42,29.42,0,0,1,19.55,7.7l7.71-7.7c-6.52-5.93-14.82-10.67-26.67-10.67-21.33,0-39.7,17.78-39.7,39.11s18.37,39.12,39.7,39.12c11.85,0,20.15-3.56,27.26-11.26,7.11-7.11,9.48-17.19,9.48-24.89a22.33,22.33,0,0,0-.59-6.52Zm269,8.3c-2.37-5.93-8.29-16-21.33-16s-23.7,10.07-23.7,25.48c0,14.22,10.66,25.48,24.89,25.48a24.32,24.32,0,0,0,20.74-11.26L544,163c-3,4.15-6.52,7.11-12.44,7.11s-9.49-2.37-12.45-7.7l33.78-14.22-1.19-3Zm-34.37,8.29c0-9.48,7.71-14.81,13-14.81,4.15,0,8.3,2.37,9.48,5.33l-22.52,9.48Zm-27.85,24.3h11.26V103.7H489.48ZM471.7,134.52a19.51,19.51,0,0,0-13.63-5.93c-12.44,0-24.29,11.26-24.29,25.48A24.53,24.53,0,0,0,458.07,179a17,17,0,0,0,13-5.92h.59v3.55c0,9.48-5.33,14.82-13.63,14.82a13.16,13.16,0,0,1-12.44-8.89l-9.48,4.15c3,6.52,10.07,14.81,22.52,14.81,13,0,23.7-7.7,23.7-26.07v-45H471.7v4.15Zm-13,35c-7.71,0-14.23-6.52-14.23-15.41s6.52-15.4,14.23-15.4,13.63,6.52,13.63,15.4S466.37,169.48,458.67,169.48ZM603.26,103.7H576.59v74.08h11.26V149.93h15.41c12.44,0,24.3-8.89,24.3-23.12S615.7,103.7,603.26,103.7Zm.59,35.56h-16V113.78h16a13,13,0,0,1,13,12.44c-.59,6.52-5.33,13-13,13ZM672,128.59c-8.3,0-16.59,3.56-19.56,11.26L662.52,144c2.37-4.15,5.92-5.33,10.07-5.33,5.93,0,11.26,3.55,11.85,9.48v.59a23.5,23.5,0,0,0-11.25-3c-10.67,0-21.34,5.92-21.34,16.59,0,10.07,8.89,16.59,18.37,16.59,7.71,0,11.26-3.55,14.22-7.11h.6v5.93H695.7V149.33c-1.18-13-11.26-20.74-23.7-20.74Zm-1.19,40.89c-3.55,0-8.88-1.78-8.88-6.52,0-5.92,6.51-7.7,11.85-7.7,4.74,0,7.11,1.18,10.07,2.37C682.67,164.74,676.74,169.48,670.81,169.48ZM733,130.37l-12.45,32H720l-13-32H695.11l19.56,45L703.41,200.3h11.26l30.22-69.93Zm-99.56,47.41h11.26V103.7H633.48Z"/><path class="cls-4" d="M61.63,44.44c-1.78,1.78-2.37,4.75-2.37,8.3v131a11.72,11.72,0,0,0,3,8.3l.59.59,73.49-73.48v-1.18Z"/><path class="cls-5" d="M160,144l-24.3-24.3v-1.77L160,93.63l.59.59,29,16.59c8.3,4.75,8.3,12.45,0,17.19Z"/><path class="cls-6" d="M160.59,143.41,135.7,118.52,61.63,192.59c3,3,7.11,3,12.44.6l86.52-49.78"/><path class="cls-7" d="M160.59,93.63,74.07,44.44c-5.33-3-9.48-2.37-12.44.6l74.07,73.48,24.89-24.89Z"/><path class="cls-8" d="M160,142.81l-85.93,48.6c-4.74,3-8.88,2.37-11.85,0l-.59.59.59.59c3,2.37,7.11,3,11.85,0Z"/><path class="cls-9" d="M61.63,191.41c-1.78-1.78-2.37-4.74-2.37-8.3v.59a11.72,11.72,0,0,0,3,8.3v-.59Zm128-65.19L160,142.81l.59.6,29-16.6c4.15-2.37,5.93-5.33,5.93-8.29C195.56,121.48,193.19,123.85,189.63,126.22Z"/><path class="cls-10" d="M74.07,45l115.56,65.77c3.56,2.38,5.93,4.75,5.93,7.71,0-3-1.78-5.93-5.93-8.3L74.07,44.44c-8.29-4.74-14.81-1.18-14.81,8.3v.59C59.26,44.44,65.78,40.3,74.07,45Z"/></g></g></svg>