<svg xmlns="http://www.w3.org/2000/svg" viewBox="0 0 32.38 40.34"><defs><style>.cls-1{fill:#f89732;}.cls-2{fill:#f89732;}</style></defs><g id="Layer_2" data-name="Layer 2"><g id="Layer_2-2" data-name="Layer 2"><path class="cls-1" d="M0,20.15V2.62A2.51,2.51,0,0,1,2,0,3.27,3.27,0,0,1,2.5,0H29.85a2.45,2.45,0,0,1,2.52,2.51c0,1.79,0,3.58,0,5.37V37.66a2.49,2.49,0,0,1-1.94,2.63,3,3,0,0,1-.67.05H2.63A2.47,2.47,0,0,1,0,37.72Zm1.58,0V37.54c0,.84.28,1.12,1.1,1.12h27c.82,0,1.1-.28,1.1-1.12V2.82c0-.86-.27-1.13-1.12-1.13H2.7c-.85,0-1.12.27-1.12,1.13Z"/><path class="cls-1" d="M9.61,24.34A6.12,6.12,0,0,1,8,12.28c.5-.13.49-.13.56.37L9.33,18c0,.3.12.42.46.37,1.8-.28,3.6-.51,5.39-.8.4-.07.47.07.48.41a6.16,6.16,0,0,1-4.58,6.16A5.38,5.38,0,0,1,9.61,24.34Z"/><path class="cls-1" d="M29,29.92v5.45a.93.93,0,0,1-.9,1.05,8.13,8.13,0,0,1-2.09,0,.92.92,0,0,1-.86-1c0-3.65,0-7.29,0-10.94a1,1,0,0,1,1-1q1,0,1.92,0a1,1,0,0,1,1,1.07Z"/><path class="cls-2" d="M15.91,5.94H5.18a2.8,2.8,0,0,1-1.34-.27.74.74,0,0,1-.49-.63c0-.34.24-.52.5-.66a2.57,2.57,0,0,1,1.22-.25H26.82a2.37,2.37,0,0,1,1.33.32.63.63,0,0,1,0,1.17,2.63,2.63,0,0,1-1.41.31Z"/><path class="cls-1" d="M24.4,31.21v4.14a.92.92,0,0,1-.89,1.06,8,8,0,0,1-2.08,0,.9.9,0,0,1-.88-1V26.93a.92.92,0,0,1,.88-1,9.13,9.13,0,0,1,2.09,0,.93.93,0,0,1,.88,1Z"/><path class="cls-1" d="M19.79,32.26v3.15a.9.9,0,0,1-.81,1,7.45,7.45,0,0,1-2.26,0,.89.89,0,0,1-.78-1q0-3.16,0-6.33a1,1,0,0,1,1-1.07c.64,0,1.29,0,1.93,0a1,1,0,0,1,.95,1.05Z"/><path class="cls-1" d="M10,11.65a6.14,6.14,0,0,1,5.94,4.8c.06.28,0,.37-.27.41-1.7.23-3.4.48-5.1.73-.53.08-.53.09-.61-.45-.25-1.7-.49-3.4-.75-5.1-.05-.29,0-.41.33-.39A3.53,3.53,0,0,0,10,11.65Z"/><path class="cls-2" d="M9.52,9.5H4.24a.89.89,0,0,1-.78-1.36.83.83,0,0,1,.77-.43H14.78a.86.86,0,0,1,.89.9.84.84,0,0,1-.87.88Z"/><path class="cls-2" d="M23.76,19.61h-4.2c-.68,0-1.06-.32-1.07-.9s.38-.91,1.05-.91h8.52a.9.9,0,0,1,.85,1.36.86.86,0,0,1-.83.45Z"/><path class="cls-2" d="M8.64,28.12h4.19c.67,0,1.05.34,1,.92s-.38.89-1,.89H4.36c-.65,0-1-.33-1-.9s.36-.91,1-.91Z"/><path class="cls-2" d="M8.63,34.65H13A.89.89,0,0,1,13.77,36a.81.81,0,0,1-.81.48H4.24a.9.9,0,1,1,0-1.8Z"/><path class="cls-2" d="M23.28,9.64H19c-.63,0-1-.31-1-.88s.34-.92,1-.92h8.51c.66,0,1,.32,1,.91s-.36.89-1,.89Z"/><path class="cls-2" d="M8.59,33.08H4.23a.79.79,0,0,1-.78-.45.93.93,0,0,1,.07-1,.8.8,0,0,1,.72-.34H13a.83.83,0,0,1,.9.88.84.84,0,0,1-.91.91Z"/><path class="cls-2" d="M23.76,14.65H28c.64,0,1,.32,1,.88s-.36.91-1,.91H19.42a.9.9,0,0,1-.79-1.39.84.84,0,0,1,.81-.4Z"/></g></g></svg>