<?xml version="1.0" encoding="UTF-8"?>
<svg version="1.1" viewBox="0 0 2048 2048" width="1280" height="1280" xmlns="http://www.w3.org/2000/svg">
<path fill="#fff" transform="translate(233,2)" d="m0 0h13l16 4 16 8 10 9 8 9 8 15 11 24 11 20 14 22 14 19 11 13 7 8 11 12 14 14 7 8 12 13 9 11 13 17 11 17 11 21 8 21 6 23 3 19 1 9v36l-3 20-5 19-7 19-12 23-8 12-10 13 16 9 10 9 7 8 7 12 4 13 1 5v87l-4 16-6 12-8 10-5 5-8 6-12 6-18 5-6 1-1 135 1226-1 1-22v-112l-16-3-11-4-11-6-10-9-7-8-8-14-3-9-2-14v-72l2-14 3-10 7-13 8-10 8-7 13-8 4-1-1-4-10-13-8-13-7-12-9-22-6-23-3-18-1-13v-13l2-24 4-23 6-20 6-16 10-20 13-20 8-11 9-11 5-7h2l2-4 12-13 6-7h2l2-4 13-13 7-8 9-10 7-9h2l2-4 11-15 8-13 16-29 9-19 9-17 8-10 10-9 10-6 11-4 10-2h17l17 4 15 8 12 11 7 10 8 16 12 25 11 19 14 21 12 16 9 11 10 11 7 8 17 17 7 8 12 13 11 14 8 10 10 15 10 18 7 15 8 24 5 22h2v69l-2 2-6 23-7 19-8 16-9 15-10 13-3 4 13 7 9 7 5 5 6 7 8 14 4 9v104l-3 3-4 10-7 11-6 7-12 9-16 7-19 4-1 271h37l9 2 10 6 8 9 4 8v1046l-2 1-4 7-5 6-13 8h-2e3l-10-6-7-6-5-8v-2l-2-1v-1046l7-11 5-5 9-6 6-2h41l-1-7v-265l-13-1-15-5-10-6-10-9-8-9-8-16-3-7v-100l4-9 6-12 7-9 11-10 12-7 5-1-3-5-11-15-9-15-8-16-6-16-8-32v-56l7-31 7-21 12-25 9-15 9-13 10-13 12-14 3-4h2l2-4 14-15 16-17 3-4h2l2-4 12-13 12-16 7-10 14-24 14-27 8-17 7-11 10-11 10-7 13-6zm5 68-11 26-10 20-15 25-13 19-9 11-8 10-12 14-12 13-11 12-9 10-11 12-9 11-10 13-13 21-9 21-5 19-2 16v27l3 17 5 15 8 16 7 11 12 14 13 11 16 10 16 7 20 5 8 1h123l17-3 13-4 12-5 14-8 13-10 13-13 11-16 9-19 5-18 2-16v-21l-4-25-5-16-5-12-8-15-11-16-9-11-9-10-9-11-14-14-1-2h-2l-2-4-10-10-9-11-11-13-13-18-12-18-9-15-10-18-13-27-4-8zm1571 1-3 4-9 21-12 24-15 24-12 17-11 14-11 13-9 11-10 10-7 8-14 15-7 8-12 14-13 18-8 14-8 17-5 16-3 14-1 10v26l3 17 5 16 8 16 8 12 11 13h2v2l14 11 15 9 14 6 21 5 7 1h123l18-3 18-6 19-10 13-10 15-15 10-15 8-16 5-16 3-19v-23l-3-21-4-15-7-18-9-16-10-14-11-14-14-15-9-10-10-10-7-8-11-12-9-11-14-18-14-21-8-13-14-25-11-23-4-9zm-1715 475-25 1v66l1 1h338l1-4v-63l-7-1zm1548 0-3 1v67h340v-68zm-1505 137v272h204v-271l-1-1zm1570 0v272h204v-272zm-1260 204-37 1v67h1227l1-36v-31l-3-1zm-378 137v68h340v-68zm410 0-1 1v67h238v-68zm307 0-1 46v21l1 1h475l1-1v-67zm546 0-1 35v33h238v-68zm307 0v68h339l1-1v-67zm-1570 137v306h340v-306zm410 0-1 5v301h238v-306zm307 0-1 101h477v-101zm546 0-1 306h238v-306zm307 0v306h340v-306zm-853 170-1 591v57h67l1-7 1-337 3-25 6-25 6-18 9-20 11-19 12-17 11-14 11-13 16-17 11-11 8-7 16-15 13-10 14-7 12-3h22l11 3 9 4 10 6 14 12 17 16 15 14 1 2h2l2 4 9 9 9 11 10 12 12 17 10 16 12 25 8 24 5 23 3 29 1 338h67v-648zm237 152-11 10-2 1v2l-4 2-16 15-17 17-9 11-13 17-10 16-8 17-5 14-4 18-2 25v331h203l1-38v-282l-1-25-3-19-4-14-6-16-9-17-11-16-8-10-12-14-15-16-15-14-12-11-5-4zm-954 53v68h339l1-1v-67zm410 0-1 2v441h238v-443zm853 0-1 44v399h238v-443zm307 0v68h340v-68zm-1570 137v306h340v-306zm1570 0v306h340v-306z"/>
<path fill="#fff" transform="translate(607,1604)" d="m0 0h14l11 4 10 9 6 12 1 6v244l-2 10-5 9-4 5-10 6-6 2h-16l-10-4-9-8-6-11-1-4-1-41v-144l1-68 4-10 7-9 10-6z"/>
<path fill="#fff" transform="translate(1427,1604)" d="m0 0h13l11 4 10 9 4 6 3 10v249l-3 10-7 10-8 6-9 3h-16l-10-4-6-5-7-10-3-8-1-171 1-81 4-11 7-9 10-6z"/>
<path fill="#fff" transform="translate(1431,1228)" d="m0 0 12 1 12 6 8 9 4 9 1 5v112l-3 10-7 10-8 6-8 3h-17l-10-4-8-7-6-10-2-6v-115l4-11 6-8 8-6 7-3z"/>
<path fill="#fff" transform="translate(612,1228)" d="m0 0 11 1 9 4 8 6 6 9 3 11v108l-2 10-5 9-4 5-10 6-6 2h-17l-12-6-8-9-4-8-1-4v-117l7-14 9-8 9-4z"/>
<path fill="#fff" transform="translate(305,1262)" d="m0 0 14 2 9 5 8 8 5 11 1 7v71l-2 11-6 10-5 5-8 5-6 2h-17l-12-6-7-7-5-10-2-10v-71l3-12 6-9 8-7 9-4z"/>
<path fill="#fff" transform="translate(1877,1262)" d="m0 0 12 2 9 5 5 5 5 6 3 8 1 6v74l-3 12-7 10-8 6-8 3h-18l-12-6-8-9-4-8-2-13v-63l1-11 4-9 4-6 8-7 9-4z"/>
<path fill="#fff" transform="translate(169,1262)" d="m0 0 13 2 10 5 8 9 4 9 1 4v80l-3 9-6 9-6 5-8 4-3 1h-17l-10-4-8-7-6-10-2-7v-80l4-11 6-8 10-7 5-2z"/>
<path fill="#fff" transform="translate(1739,1262)" d="m0 0 10 1 9 4 8 6 6 8 3 9v82l-4 10-6 8-8 6-8 3h-17l-10-4-8-7-6-11-2-7v-78l4-12 7-9 9-6 6-2z"/>
</svg>
