<svg width="269" height="58" viewBox="0 0 269 58" fill="none" xmlns="http://www.w3.org/2000/svg">
<path d="M0 2C13.3547 2 13.3547 56 26.7094 56C40.0641 56 40.0641 2 53.4188 2C66.7735 2 66.7735 56 80.0969 56C93.452 56 93.452 2 106.775 2C120.13 2 120.13 56 133.453 56C146.808 56 146.808 2 160.162 2C173.517 2 173.517 56 186.872 56C200.226 56 200.226 2 213.581 2C226.936 2 226.936 56 240.291 56C253.645 56 253.645 2 267 2" stroke="#F8BC24" stroke-width="3" stroke-miterlimit="10" stroke-linecap="round"/>
</svg>
