<svg xmlns="http://www.w3.org/2000/svg" enable-background="new 0 0 64 64" viewBox="0 0 512 512" id="mizar-e-quaid">
  <path d="M501.876,501.236h-17.06l-56.724-334.854c-1.813-10.662-10.983-18.393-21.805-18.393h-15.834v-13.435
				C390.453,60.398,330.157,0.102,256,0.102S121.547,60.398,121.547,134.555v13.435h-15.834c-10.822,0-19.992,7.73-21.805,18.393
				L27.184,501.236h-17.06c-2.932,0-5.331,2.399-5.331,5.331s2.399,5.331,5.331,5.331h491.751c2.932,0,5.331-2.399,5.331-5.331
				S504.808,501.236,501.876,501.236z M132.209,137.913c82.154-41.317,165.427-41.317,247.581,0v10.076h-20.578
				c-12.208,0-22.124,9.916-22.124,22.071v11.942c0,6.291-5.118,11.409-11.462,11.409H186.321c-6.291,0-11.409-5.118-11.409-11.409
				v-11.942c0-12.155-9.916-22.071-22.124-22.071h-20.578V137.913z M345.244,501.236c-0.053-5.171-0.16-10.289-0.373-15.354
				c0.907,0.746,2.079,1.226,3.359,1.226h5.065c2.932,0,5.331-2.346,5.331-5.331c0-2.932-2.399-5.331-5.331-5.331h-5.065
				c-1.493,0-2.825,0.64-3.785,1.599c-1.44-24.097-4.638-46.701-9.383-67.12c0.426,0.106,0.853,0.267,1.333,0.267h5.065
				c2.932,0,5.331-2.399,5.331-5.331c0-2.932-2.399-5.331-5.331-5.331h-5.065c-1.386,0-2.612,0.586-3.572,1.386
				c-1.439-5.491-2.985-10.876-4.638-16.047h1.44c2.932,0,5.331-2.346,5.331-5.331c0-2.932-2.399-5.331-5.331-5.331h-5.118
				c0,0,0,0.053-0.053,0.053c-1.919-5.171-3.945-10.129-6.078-14.821c2.612-0.267,4.691-2.452,4.691-5.171
				c0-2.985-2.346-5.331-5.331-5.331h-4.532c-2.879-5.331-5.864-10.183-9.01-14.661h1.706c2.985,0,5.331-2.399,5.331-5.331
				c0-2.932-2.346-5.331-5.331-5.331h-5.065c-1.439,0-2.772,0.586-3.732,1.546c-12.262-14.074-26.176-22.018-41.104-22.018
				c-14.874,0-28.842,7.943-41.104,22.018c-0.96-0.96-2.292-1.546-3.732-1.546H206.1c-2.985,0-5.331,2.399-5.331,5.331
				c0,2.932,2.346,5.331,5.331,5.331h1.706c-3.092,4.478-6.131,9.33-8.956,14.661h-4.585c-2.985,0-5.331,2.346-5.331,5.331
				c0,2.719,2.079,4.905,4.745,5.171c-2.186,4.691-4.212,9.649-6.131,14.821l-0.053-0.053h-5.118c-2.932,0-5.331,2.399-5.331,5.331
				c0,2.985,2.399,5.331,5.331,5.331h1.493c-1.706,5.171-3.252,10.556-4.691,16.1c-0.96-0.853-2.186-1.44-3.572-1.44h-5.065
				c-2.932,0-5.331,2.399-5.331,5.331c0,2.932,2.399,5.331,5.331,5.331h5.065c0.48,0,0.907-0.16,1.333-0.267
				c-4.691,20.419-7.943,43.023-9.383,67.12c-0.96-0.96-2.292-1.599-3.785-1.599h-5.065c-2.932,0-5.331,2.399-5.331,5.331
				c0,2.985,2.399,5.331,5.331,5.331h5.065c1.279,0,2.452-0.48,3.359-1.226c-0.213,5.011-0.32,10.182-0.373,15.354H38.007
				l2.399-14.128h4.905c2.985,0,5.331-2.346,5.331-5.331c0-2.932-2.346-5.331-5.331-5.331h-3.092l11.035-65.254h3.945
				c2.932,0,5.331-2.399,5.331-5.331c0-2.932-2.399-5.331-5.331-5.331h-2.133l11.036-65.254h2.932c2.932,0,5.331-2.399,5.331-5.331
				c0-2.932-2.399-5.331-5.331-5.331h-1.12l3.039-17.806c0.8,1.866,2.666,3.146,4.852,3.146h5.065c2.932,0,5.331-2.399,5.331-5.331
				c0-2.932-2.399-5.331-5.331-5.331h-5.065c-1.546,0-2.932,0.693-3.892,1.706l7.091-41.637h1.866c2.932,0,5.331-2.399,5.331-5.331
				c0-2.985-2.399-5.331-5.331-5.331h-0.107l2.825-16.633c1.013,1.173,2.399,1.973,4.052,1.973h5.065
				c2.932,0,5.331-2.399,5.331-5.331c0-2.932-2.399-5.331-5.331-5.331H87.64c-1.013,0-1.919,0.373-2.719,0.853l6.931-40.837h0.853
				c2.932,0,5.331-2.346,5.331-5.331c0-2.612-1.919-4.691-4.425-5.118l0.8-4.798c0.96-5.491,5.704-9.489,11.302-9.489h47.075
				c6.291,0,11.462,5.118,11.462,11.409v2.772c-0.16,0-0.32-0.106-0.48-0.106h-5.065c-2.932,0-5.331,2.399-5.331,5.331
				c0,2.985,2.399,5.331,5.331,5.331h5.065c0.213,0,0.373-0.053,0.586-0.107c0.693,11.569,10.236,20.792,21.965,20.792h139.305
				c11.782,0,21.325-9.223,21.965-20.792c0.213,0,0.427,0.107,0.64,0.107h5.065c2.932,0,5.331-2.346,5.331-5.331
				c0-2.932-2.399-5.331-5.331-5.331h-5.065c-0.16,0-0.32,0.106-0.48,0.106v-2.772c0-6.291,5.118-11.409,11.462-11.409h47.075
				c5.598,0,10.343,3.998,11.302,9.489l0.8,4.798c-2.506,0.427-4.425,2.506-4.425,5.118c0,2.985,2.399,5.331,5.331,5.331h0.853
				l6.931,40.837c-0.8-0.533-1.706-0.853-2.719-0.853h-5.065c-2.932,0-5.331,2.399-5.331,5.331c0,2.932,2.399,5.331,5.331,5.331
				h5.065c1.653,0,3.039-0.8,4.052-1.973l2.825,16.633h-0.107c-2.932,0-5.331,2.346-5.331,5.331c0,2.932,2.399,5.331,5.331,5.331
				h1.866l7.091,41.637c-0.96-1.013-2.346-1.706-3.892-1.706h-5.065c-2.932,0-5.331,2.399-5.331,5.331
				c0,2.932,2.399,5.331,5.331,5.331h5.065c2.186,0,4.052-1.279,4.852-3.146l3.039,17.806h-1.12c-2.932,0-5.331,2.399-5.331,5.331
				c0,2.932,2.399,5.331,5.331,5.331h2.932l11.036,65.254h-2.133c-2.932,0-5.331,2.399-5.331,5.331c0,2.932,2.399,5.331,5.331,5.331
				h3.945l11.035,65.254h-3.092c-2.985,0-5.331,2.399-5.331,5.331c0,2.985,2.346,5.331,5.331,5.331h4.905l2.399,14.128H345.244z" fill="#fff"></path>
  <path d="M229.771 150.655v17.486c0 2.932-2.399 5.331-5.331 5.331h-24.417c-2.932 0-5.331-2.399-5.331-5.331v-17.486c0-9.649 7.89-17.487 17.54-17.487C221.88 133.169 229.771 141.006 229.771 150.655zM273.54 150.655v17.486c0 2.932-2.399 5.331-5.331 5.331h-24.417c-2.932 0-5.331-2.399-5.331-5.331v-17.486c0-9.649 7.89-17.487 17.54-17.487C265.649 133.169 273.54 141.006 273.54 150.655zM317.256 150.655v17.486c0 2.932-2.346 5.331-5.331 5.331h-24.364c-2.932 0-5.331-2.399-5.331-5.331v-17.486c0-9.649 7.89-17.487 17.54-17.487C309.419 133.169 317.256 141.006 317.256 150.655zM111.328 183.404h5.074c2.944 0 5.331-2.387 5.331-5.331 0-2.944-2.387-5.331-5.331-5.331h-5.074c-2.944 0-5.331 2.387-5.331 5.331C105.997 181.017 108.384 183.404 111.328 183.404zM135.017 183.404h5.074c2.944 0 5.331-2.387 5.331-5.331 0-2.944-2.387-5.331-5.331-5.331h-5.074c-2.944 0-5.331 2.387-5.331 5.331C129.686 181.017 132.073 183.404 135.017 183.404zM371.907 183.404h5.076c2.947 0 5.331-2.387 5.331-5.331 0-2.944-2.384-5.331-5.331-5.331h-5.076c-2.947 0-5.331 2.387-5.331 5.331C366.576 181.017 368.96 183.404 371.907 183.404zM395.596 183.404h5.076c2.947 0 5.331-2.387 5.331-5.331 0-2.944-2.384-5.331-5.331-5.331h-5.076c-2.947 0-5.331 2.387-5.331 5.331C390.264 181.017 392.649 183.404 395.596 183.404zM104.558 208.714c2.944 0 5.331-2.387 5.331-5.331s-2.387-5.331-5.331-5.331h-5.074c-2.944 0-5.331 2.387-5.331 5.331s2.387 5.331 5.331 5.331H104.558zM117.841 203.383c0 2.944 2.387 5.331 5.331 5.331h5.074c2.944 0 5.331-2.387 5.331-5.331s-2.387-5.331-5.331-5.331h-5.074C120.228 198.052 117.841 200.439 117.841 203.383zM141.53 203.383c0 2.944 2.387 5.331 5.331 5.331h5.076c2.944 0 5.331-2.387 5.331-5.331s-2.387-5.331-5.331-5.331h-5.076C143.917 198.052 141.53 200.439 141.53 203.383zM360.063 208.714h5.076c2.947 0 5.331-2.387 5.331-5.331s-2.384-5.331-5.331-5.331h-5.076c-2.947 0-5.331 2.387-5.331 5.331S357.116 208.714 360.063 208.714zM378.42 203.383c0 2.944 2.384 5.331 5.331 5.331h5.076c2.947 0 5.331-2.387 5.331-5.331s-2.384-5.331-5.331-5.331h-5.076C380.805 198.052 378.42 200.439 378.42 203.383zM402.109 203.383c0 2.944 2.384 5.331 5.331 5.331h5.076c2.947 0 5.331-2.387 5.331-5.331s-2.384-5.331-5.331-5.331h-5.076C404.493 198.052 402.109 200.439 402.109 203.383zM116.402 223.362h-5.074c-2.944 0-5.331 2.387-5.331 5.331s2.387 5.331 5.331 5.331h5.074c2.944 0 5.331-2.387 5.331-5.331S119.346 223.362 116.402 223.362zM140.09 223.362h-5.074c-2.944 0-5.331 2.387-5.331 5.331s2.387 5.331 5.331 5.331h5.074c2.944 0 5.331-2.387 5.331-5.331S143.034 223.362 140.09 223.362zM153.374 228.693c0 2.944 2.387 5.331 5.331 5.331h5.076c2.944 0 5.331-2.387 5.331-5.331s-2.387-5.331-5.331-5.331h-5.076C155.761 223.362 153.374 225.749 153.374 228.693zM182.396 234.024h5.074c2.944 0 5.331-2.387 5.331-5.331s-2.387-5.331-5.331-5.331h-5.074c-2.944 0-5.331 2.387-5.331 5.331S179.452 234.024 182.396 234.024zM206.085 234.024h5.074c2.944 0 5.331-2.387 5.331-5.331s-2.387-5.331-5.331-5.331h-5.074c-2.944 0-5.331 2.387-5.331 5.331S203.141 234.024 206.085 234.024zM229.773 234.024h5.074c2.944 0 5.331-2.387 5.331-5.331s-2.387-5.331-5.331-5.331h-5.074c-2.944 0-5.331 2.387-5.331 5.331S226.829 234.024 229.773 234.024zM253.462 234.024h5.076c2.944 0 5.329-2.387 5.329-5.331s-2.384-5.331-5.329-5.331h-5.076c-2.944 0-5.331 2.387-5.331 5.331S250.518 234.024 253.462 234.024zM277.153 234.024h5.071c2.947 0 5.331-2.387 5.331-5.331s-2.384-5.331-5.331-5.331h-5.071c-2.947 0-5.331 2.387-5.331 5.331S274.206 234.024 277.153 234.024zM300.842 234.024h5.076c2.947 0 5.331-2.387 5.331-5.331s-2.384-5.331-5.331-5.331h-5.076c-2.947 0-5.331 2.387-5.331 5.331S297.895 234.024 300.842 234.024zM324.53 234.024h5.076c2.947 0 5.331-2.387 5.331-5.331s-2.384-5.331-5.331-5.331h-5.076c-2.947 0-5.331 2.387-5.331 5.331S321.583 234.024 324.53 234.024zM348.219 234.024h5.076c2.947 0 5.331-2.387 5.331-5.331s-2.384-5.331-5.331-5.331h-5.076c-2.947 0-5.331 2.387-5.331 5.331S345.272 234.024 348.219 234.024zM376.983 223.362h-5.076c-2.947 0-5.331 2.387-5.331 5.331s2.384 5.331 5.331 5.331h5.076c2.947 0 5.331-2.387 5.331-5.331S379.93 223.362 376.983 223.362zM406.003 228.693c0-2.944-2.384-5.331-5.331-5.331h-5.076c-2.947 0-5.331 2.387-5.331 5.331s2.384 5.331 5.331 5.331h5.076C403.618 234.024 406.003 231.637 406.003 228.693zM99.484 259.335h5.074c2.944 0 5.331-2.387 5.331-5.331 0-2.944-2.387-5.331-5.331-5.331h-5.074c-2.944 0-5.331 2.387-5.331 5.331C94.153 256.948 96.54 259.335 99.484 259.335zM123.173 248.672c-2.944 0-5.331 2.387-5.331 5.331 0 2.944 2.387 5.331 5.331 5.331h5.074c2.944 0 5.331-2.387 5.331-5.331 0-2.944-2.387-5.331-5.331-5.331H123.173zM151.937 248.672h-5.076c-2.944 0-5.331 2.387-5.331 5.331 0 2.944 2.387 5.331 5.331 5.331h5.076c2.944 0 5.331-2.387 5.331-5.331C157.268 251.059 154.881 248.672 151.937 248.672zM165.221 254.003c0 2.944 2.387 5.331 5.331 5.331h5.074c2.944 0 5.331-2.387 5.331-5.331 0-2.944-2.387-5.331-5.331-5.331h-5.074C167.608 248.672 165.221 251.059 165.221 254.003zM188.909 254.003c0 2.944 2.387 5.331 5.331 5.331h5.074c2.944 0 5.331-2.387 5.331-5.331 0-2.944-2.387-5.331-5.331-5.331h-5.074C191.297 248.672 188.909 251.059 188.909 254.003zM212.598 254.003c0 2.944 2.387 5.331 5.331 5.331h5.074c2.944 0 5.331-2.387 5.331-5.331 0-2.944-2.387-5.331-5.331-5.331h-5.074C214.985 248.672 212.598 251.059 212.598 254.003zM252.022 254.003c0-2.944-2.387-5.331-5.331-5.331h-5.074c-2.944 0-5.331 2.387-5.331 5.331 0 2.944 2.387 5.331 5.331 5.331h5.074C249.635 259.335 252.022 256.948 252.022 254.003zM275.711 254.003c0-2.944-2.384-5.331-5.331-5.331h-5.071c-2.947 0-5.331 2.387-5.331 5.331 0 2.944 2.384 5.331 5.331 5.331h5.071C273.326 259.335 275.711 256.948 275.711 254.003zM283.666 254.003c0 2.944 2.384 5.331 5.331 5.331h5.071c2.947 0 5.331-2.387 5.331-5.331 0-2.944-2.384-5.331-5.331-5.331h-5.071C286.051 248.672 283.666 251.059 283.666 254.003zM307.355 254.003c0 2.944 2.384 5.331 5.331 5.331h5.076c2.947 0 5.331-2.387 5.331-5.331 0-2.944-2.384-5.331-5.331-5.331h-5.076C309.739 248.672 307.355 251.059 307.355 254.003zM331.043 254.003c0 2.944 2.384 5.331 5.331 5.331h5.076c2.947 0 5.331-2.387 5.331-5.331 0-2.944-2.384-5.331-5.331-5.331h-5.076C333.428 248.672 331.043 251.059 331.043 254.003zM360.063 248.672c-2.947 0-5.331 2.387-5.331 5.331 0 2.944 2.384 5.331 5.331 5.331h5.076c2.947 0 5.331-2.387 5.331-5.331 0-2.944-2.384-5.331-5.331-5.331H360.063zM383.751 248.672c-2.947 0-5.331 2.387-5.331 5.331 0 2.944 2.384 5.331 5.331 5.331h5.076c2.947 0 5.331-2.387 5.331-5.331 0-2.944-2.384-5.331-5.331-5.331H383.751zM407.44 248.672c-2.947 0-5.331 2.387-5.331 5.331 0 2.944 2.384 5.331 5.331 5.331h5.076c2.947 0 5.331-2.387 5.331-5.331 0-2.944-2.384-5.331-5.331-5.331H407.44zM92.713 284.645c2.944 0 5.331-2.387 5.331-5.331 0-2.944-2.387-5.331-5.331-5.331H87.64c-2.944 0-5.331 2.387-5.331 5.331 0 2.944 2.387 5.331 5.331 5.331H92.713zM105.997 279.314c0 2.944 2.387 5.331 5.331 5.331h5.074c2.944 0 5.331-2.387 5.331-5.331 0-2.944-2.387-5.331-5.331-5.331h-5.074C108.384 273.982 105.997 276.37 105.997 279.314zM140.09 284.645c2.944 0 5.331-2.387 5.331-5.331 0-2.944-2.387-5.331-5.331-5.331h-5.074c-2.944 0-5.331 2.387-5.331 5.331 0 2.944 2.387 5.331 5.331 5.331H140.09zM163.781 284.645c2.944 0 5.331-2.387 5.331-5.331 0-2.944-2.387-5.331-5.331-5.331h-5.076c-2.944 0-5.331 2.387-5.331 5.331 0 2.944 2.387 5.331 5.331 5.331H163.781zM187.47 284.645c2.944 0 5.331-2.387 5.331-5.331 0-2.944-2.387-5.331-5.331-5.331h-5.074c-2.944 0-5.331 2.387-5.331 5.331 0 2.944 2.387 5.331 5.331 5.331H187.47zM216.49 279.314c0-2.944-2.387-5.331-5.331-5.331h-5.074c-2.944 0-5.331 2.387-5.331 5.331 0 2.944 2.387 5.331 5.331 5.331h5.074C214.103 284.645 216.49 282.258 216.49 279.314zM234.847 273.982h-5.074c-2.944 0-5.331 2.387-5.331 5.331 0 2.944 2.387 5.331 5.331 5.331h5.074c2.944 0 5.331-2.387 5.331-5.331C240.178 276.37 237.791 273.982 234.847 273.982zM258.538 273.982h-5.076c-2.944 0-5.331 2.387-5.331 5.331 0 2.944 2.387 5.331 5.331 5.331h5.076c2.944 0 5.329-2.387 5.329-5.331C263.867 276.37 261.482 273.982 258.538 273.982zM287.555 279.314c0-2.944-2.384-5.331-5.331-5.331h-5.071c-2.947 0-5.331 2.387-5.331 5.331 0 2.944 2.384 5.331 5.331 5.331h5.071C285.171 284.645 287.555 282.258 287.555 279.314zM311.249 279.314c0-2.944-2.384-5.331-5.331-5.331h-5.076c-2.947 0-5.331 2.387-5.331 5.331 0 2.944 2.384 5.331 5.331 5.331h5.076C308.864 284.645 311.249 282.258 311.249 279.314zM334.937 279.314c0-2.944-2.384-5.331-5.331-5.331h-5.076c-2.947 0-5.331 2.387-5.331 5.331 0 2.944 2.384 5.331 5.331 5.331h5.076C332.553 284.645 334.937 282.258 334.937 279.314zM348.219 273.982c-2.947 0-5.331 2.387-5.331 5.331 0 2.944 2.384 5.331 5.331 5.331h5.076c2.947 0 5.331-2.387 5.331-5.331 0-2.944-2.384-5.331-5.331-5.331H348.219zM376.983 273.982h-5.076c-2.947 0-5.331 2.387-5.331 5.331 0 2.944 2.384 5.331 5.331 5.331h5.076c2.947 0 5.331-2.387 5.331-5.331C382.314 276.37 379.93 273.982 376.983 273.982zM400.672 273.982h-5.076c-2.947 0-5.331 2.387-5.331 5.331 0 2.944 2.384 5.331 5.331 5.331h5.076c2.947 0 5.331-2.387 5.331-5.331C406.003 276.37 403.618 273.982 400.672 273.982zM413.958 279.314c0 2.944 2.384 5.331 5.331 5.331h5.071c2.947 0 5.331-2.387 5.331-5.331 0-2.944-2.384-5.331-5.331-5.331h-5.071C416.343 273.982 413.958 276.37 413.958 279.314zM99.484 299.295c-2.944 0-5.331 2.387-5.331 5.331 0 2.944 2.387 5.331 5.331 5.331h5.074c2.944 0 5.331-2.387 5.331-5.331 0-2.944-2.387-5.331-5.331-5.331H99.484zM123.173 299.295c-2.944 0-5.331 2.387-5.331 5.331 0 2.944 2.387 5.331 5.331 5.331h5.074c2.944 0 5.331-2.387 5.331-5.331 0-2.944-2.387-5.331-5.331-5.331H123.173zM151.937 309.958c2.944 0 5.331-2.387 5.331-5.331 0-2.944-2.387-5.331-5.331-5.331h-5.076c-2.944 0-5.331 2.387-5.331 5.331 0 2.944 2.387 5.331 5.331 5.331H151.937zM175.626 309.958c2.944 0 5.331-2.387 5.331-5.331 0-2.944-2.387-5.331-5.331-5.331h-5.074c-2.944 0-5.331 2.387-5.331 5.331 0 2.944 2.387 5.331 5.331 5.331H175.626zM199.314 299.295h-5.074c-2.944 0-5.331 2.387-5.331 5.331 0 2.944 2.387 5.331 5.331 5.331h5.074c2.944 0 5.331-2.387 5.331-5.331C204.645 301.682 202.258 299.295 199.314 299.295zM223.003 299.295h-5.074c-2.944 0-5.331 2.387-5.331 5.331 0 2.944 2.387 5.331 5.331 5.331h5.074c2.944 0 5.331-2.387 5.331-5.331C228.334 301.682 225.947 299.295 223.003 299.295zM294.068 299.295h-5.071c-2.947 0-5.331 2.387-5.331 5.331 0 2.944 2.384 5.331 5.331 5.331h5.071c2.947 0 5.331-2.387 5.331-5.331C299.399 301.682 297.015 299.295 294.068 299.295zM323.093 304.626c0-2.944-2.384-5.331-5.331-5.331h-5.076c-2.947 0-5.331 2.387-5.331 5.331 0 2.944 2.384 5.331 5.331 5.331h5.076C320.709 309.958 323.093 307.571 323.093 304.626zM336.374 309.958h5.076c2.947 0 5.331-2.387 5.331-5.331 0-2.944-2.384-5.331-5.331-5.331h-5.076c-2.947 0-5.331 2.387-5.331 5.331C331.043 307.571 333.428 309.958 336.374 309.958zM360.063 299.295c-2.947 0-5.331 2.387-5.331 5.331 0 2.944 2.384 5.331 5.331 5.331h5.076c2.947 0 5.331-2.387 5.331-5.331 0-2.944-2.384-5.331-5.331-5.331H360.063zM388.827 299.295h-5.076c-2.947 0-5.331 2.387-5.331 5.331 0 2.944 2.384 5.331 5.331 5.331h5.076c2.947 0 5.331-2.387 5.331-5.331C394.159 301.682 391.774 299.295 388.827 299.295zM417.847 304.626c0-2.944-2.384-5.331-5.331-5.331h-5.076c-2.947 0-5.331 2.387-5.331 5.331 0 2.944 2.384 5.331 5.331 5.331h5.076C415.463 309.958 417.847 307.571 417.847 304.626zM87.64 335.268h5.074c2.944 0 5.331-2.387 5.331-5.331 0-2.944-2.387-5.331-5.331-5.331H87.64c-2.944 0-5.331 2.387-5.331 5.331C82.309 332.881 84.696 335.268 87.64 335.268zM111.328 324.606c-2.944 0-5.331 2.387-5.331 5.331 0 2.944 2.387 5.331 5.331 5.331h5.074c2.944 0 5.331-2.387 5.331-5.331 0-2.944-2.387-5.331-5.331-5.331H111.328zM145.422 329.937c0-2.944-2.387-5.331-5.331-5.331h-5.074c-2.944 0-5.331 2.387-5.331 5.331 0 2.944 2.387 5.331 5.331 5.331h5.074C143.034 335.268 145.422 332.881 145.422 329.937zM163.781 335.268c2.944 0 5.331-2.387 5.331-5.331 0-2.944-2.387-5.331-5.331-5.331h-5.076c-2.944 0-5.331 2.387-5.331 5.331 0 2.944 2.387 5.331 5.331 5.331H163.781zM187.47 324.606h-5.074c-2.944 0-5.331 2.387-5.331 5.331 0 2.944 2.387 5.331 5.331 5.331h5.074c2.944 0 5.331-2.387 5.331-5.331C192.801 326.993 190.414 324.606 187.47 324.606zM334.937 329.937c0-2.944-2.384-5.331-5.331-5.331h-5.076c-2.947 0-5.331 2.387-5.331 5.331 0 2.944 2.384 5.331 5.331 5.331h5.076C332.553 335.268 334.937 332.881 334.937 329.937zM348.219 335.268h5.076c2.947 0 5.331-2.387 5.331-5.331 0-2.944-2.384-5.331-5.331-5.331h-5.076c-2.947 0-5.331 2.387-5.331 5.331C342.887 332.881 345.272 335.268 348.219 335.268zM371.907 335.268h5.076c2.947 0 5.331-2.387 5.331-5.331 0-2.944-2.384-5.331-5.331-5.331h-5.076c-2.947 0-5.331 2.387-5.331 5.331C366.576 332.881 368.96 335.268 371.907 335.268zM390.264 329.937c0 2.944 2.384 5.331 5.331 5.331h5.076c2.947 0 5.331-2.387 5.331-5.331 0-2.944-2.384-5.331-5.331-5.331h-5.076C392.649 324.606 390.264 326.993 390.264 329.937zM419.289 324.606c-2.947 0-5.331 2.387-5.331 5.331 0 2.944 2.384 5.331 5.331 5.331h5.071c2.947 0 5.331-2.387 5.331-5.331 0-2.944-2.384-5.331-5.331-5.331H419.289zM75.796 360.578h5.074c2.944 0 5.331-2.387 5.331-5.331 0-2.944-2.387-5.331-5.331-5.331h-5.074c-2.944 0-5.331 2.387-5.331 5.331C70.464 358.191 72.851 360.578 75.796 360.578zM94.153 355.247c0 2.944 2.387 5.331 5.331 5.331h5.074c2.944 0 5.331-2.387 5.331-5.331 0-2.944-2.387-5.331-5.331-5.331h-5.074C96.54 349.916 94.153 352.303 94.153 355.247zM128.246 360.578c2.944 0 5.331-2.387 5.331-5.331 0-2.944-2.387-5.331-5.331-5.331h-5.074c-2.944 0-5.331 2.387-5.331 5.331 0 2.944 2.387 5.331 5.331 5.331H128.246zM157.268 355.247c0-2.944-2.387-5.331-5.331-5.331h-5.076c-2.944 0-5.331 2.387-5.331 5.331 0 2.944 2.387 5.331 5.331 5.331h5.076C154.881 360.578 157.268 358.191 157.268 355.247zM175.626 349.916h-5.074c-2.944 0-5.331 2.387-5.331 5.331 0 2.944 2.387 5.331 5.331 5.331h5.074c2.944 0 5.331-2.387 5.331-5.331C180.957 352.303 178.57 349.916 175.626 349.916zM346.782 355.247c0-2.944-2.384-5.331-5.331-5.331h-5.076c-2.947 0-5.331 2.387-5.331 5.331 0 2.944 2.384 5.331 5.331 5.331h5.076C344.397 360.578 346.782 358.191 346.782 355.247zM360.063 360.578h5.076c2.947 0 5.331-2.387 5.331-5.331 0-2.944-2.384-5.331-5.331-5.331h-5.076c-2.947 0-5.331 2.387-5.331 5.331C354.732 358.191 357.116 360.578 360.063 360.578zM388.827 360.578c2.947 0 5.331-2.387 5.331-5.331 0-2.944-2.384-5.331-5.331-5.331h-5.076c-2.947 0-5.331 2.387-5.331 5.331 0 2.944 2.384 5.331 5.331 5.331H388.827zM412.516 349.916h-5.076c-2.947 0-5.331 2.387-5.331 5.331 0 2.944 2.384 5.331 5.331 5.331h5.076c2.947 0 5.331-2.387 5.331-5.331C417.847 352.303 415.463 349.916 412.516 349.916zM425.802 355.247c0 2.944 2.384 5.331 5.331 5.331h5.071c2.947 0 5.331-2.387 5.331-5.331 0-2.944-2.384-5.331-5.331-5.331h-5.071C428.187 349.916 425.802 352.303 425.802 355.247zM69.025 385.888c2.944 0 5.331-2.387 5.331-5.331 0-2.944-2.387-5.331-5.331-5.331h-5.074c-2.944 0-5.331 2.387-5.331 5.331 0 2.944 2.387 5.331 5.331 5.331H69.025zM87.64 375.226c-2.944 0-5.331 2.387-5.331 5.331 0 2.944 2.387 5.331 5.331 5.331h5.074c2.944 0 5.331-2.387 5.331-5.331 0-2.944-2.387-5.331-5.331-5.331H87.64zM105.997 380.557c0 2.944 2.387 5.331 5.331 5.331h5.074c2.944 0 5.331-2.387 5.331-5.331 0-2.944-2.387-5.331-5.331-5.331h-5.074C108.384 375.226 105.997 377.613 105.997 380.557zM135.017 385.888h5.074c2.944 0 5.331-2.387 5.331-5.331 0-2.944-2.387-5.331-5.331-5.331h-5.074c-2.944 0-5.331 2.387-5.331 5.331C129.686 383.501 132.073 385.888 135.017 385.888zM163.781 375.226h-5.076c-2.944 0-5.331 2.387-5.331 5.331 0 2.944 2.387 5.331 5.331 5.331h5.076c2.944 0 5.331-2.387 5.331-5.331C169.113 377.613 166.726 375.226 163.781 375.226zM353.295 385.888c2.947 0 5.331-2.387 5.331-5.331 0-2.944-2.384-5.331-5.331-5.331h-5.076c-2.947 0-5.331 2.387-5.331 5.331 0 2.944 2.384 5.331 5.331 5.331H353.295zM366.576 380.557c0 2.944 2.384 5.331 5.331 5.331h5.076c2.947 0 5.331-2.387 5.331-5.331 0-2.944-2.384-5.331-5.331-5.331h-5.076C368.96 375.226 366.576 377.613 366.576 380.557zM395.596 385.888h5.076c2.947 0 5.331-2.387 5.331-5.331 0-2.944-2.384-5.331-5.331-5.331h-5.076c-2.947 0-5.331 2.387-5.331 5.331C390.264 383.501 392.649 385.888 395.596 385.888zM413.958 380.557c0 2.944 2.384 5.331 5.331 5.331h5.071c2.947 0 5.331-2.387 5.331-5.331 0-2.944-2.384-5.331-5.331-5.331h-5.071C416.343 375.226 413.958 377.613 413.958 380.557zM437.647 380.557c0 2.944 2.384 5.331 5.331 5.331h5.071c2.947 0 5.331-2.387 5.331-5.331 0-2.944-2.384-5.331-5.331-5.331h-5.071C440.031 375.226 437.647 377.613 437.647 380.557zM75.796 400.536c-2.944 0-5.331 2.387-5.331 5.331s2.387 5.331 5.331 5.331h5.074c2.944 0 5.331-2.387 5.331-5.331s-2.387-5.331-5.331-5.331H75.796zM104.558 411.199c2.944 0 5.331-2.387 5.331-5.331s-2.387-5.331-5.331-5.331h-5.074c-2.944 0-5.331 2.387-5.331 5.331s2.387 5.331 5.331 5.331H104.558zM128.246 411.199c2.944 0 5.331-2.387 5.331-5.331s-2.387-5.331-5.331-5.331h-5.074c-2.944 0-5.331 2.387-5.331 5.331s2.387 5.331 5.331 5.331H128.246zM151.937 411.199c2.944 0 5.331-2.387 5.331-5.331s-2.387-5.331-5.331-5.331h-5.076c-2.944 0-5.331 2.387-5.331 5.331s2.387 5.331 5.331 5.331H151.937zM354.732 405.868c0 2.944 2.384 5.331 5.331 5.331h5.076c2.947 0 5.331-2.387 5.331-5.331s-2.384-5.331-5.331-5.331h-5.076C357.116 400.536 354.732 402.923 354.732 405.868zM388.827 411.199c2.947 0 5.331-2.387 5.331-5.331s-2.384-5.331-5.331-5.331h-5.076c-2.947 0-5.331 2.387-5.331 5.331s2.384 5.331 5.331 5.331H388.827zM412.516 411.199c2.947 0 5.331-2.387 5.331-5.331s-2.384-5.331-5.331-5.331h-5.076c-2.947 0-5.331 2.387-5.331 5.331s2.384 5.331 5.331 5.331H412.516zM436.204 411.199c2.947 0 5.331-2.387 5.331-5.331s-2.384-5.331-5.331-5.331h-5.071c-2.947 0-5.331 2.387-5.331 5.331s2.384 5.331 5.331 5.331H436.204zM63.951 436.509h5.074c2.944 0 5.331-2.387 5.331-5.331 0-2.944-2.387-5.331-5.331-5.331h-5.074c-2.944 0-5.331 2.387-5.331 5.331C58.62 434.122 61.007 436.509 63.951 436.509zM87.64 436.509h5.074c2.944 0 5.331-2.387 5.331-5.331 0-2.944-2.387-5.331-5.331-5.331H87.64c-2.944 0-5.331 2.387-5.331 5.331C82.309 434.122 84.696 436.509 87.64 436.509zM111.328 436.509h5.074c2.944 0 5.331-2.387 5.331-5.331 0-2.944-2.387-5.331-5.331-5.331h-5.074c-2.944 0-5.331 2.387-5.331 5.331C105.997 434.122 108.384 436.509 111.328 436.509zM135.017 436.509h5.074c2.944 0 5.331-2.387 5.331-5.331 0-2.944-2.387-5.331-5.331-5.331h-5.074c-2.944 0-5.331 2.387-5.331 5.331C129.686 434.122 132.073 436.509 135.017 436.509zM158.705 425.847c-2.944 0-5.331 2.387-5.331 5.331 0 2.944 2.387 5.331 5.331 5.331h5.076c2.944 0 5.331-2.387 5.331-5.331 0-2.944-2.387-5.331-5.331-5.331H158.705zM358.626 431.178c0-2.944-2.384-5.331-5.331-5.331h-5.076c-2.947 0-5.331 2.387-5.331 5.331 0 2.944 2.384 5.331 5.331 5.331h5.076C356.241 436.509 358.626 434.122 358.626 431.178zM371.907 436.509h5.076c2.947 0 5.331-2.387 5.331-5.331 0-2.944-2.384-5.331-5.331-5.331h-5.076c-2.947 0-5.331 2.387-5.331 5.331C366.576 434.122 368.96 436.509 371.907 436.509zM395.596 436.509h5.076c2.947 0 5.331-2.387 5.331-5.331 0-2.944-2.384-5.331-5.331-5.331h-5.076c-2.947 0-5.331 2.387-5.331 5.331C390.264 434.122 392.649 436.509 395.596 436.509zM419.289 436.509h5.071c2.947 0 5.331-2.387 5.331-5.331 0-2.944-2.384-5.331-5.331-5.331h-5.071c-2.947 0-5.331 2.387-5.331 5.331C413.958 434.122 416.343 436.509 419.289 436.509zM442.978 425.847c-2.947 0-5.331 2.387-5.331 5.331 0 2.944 2.384 5.331 5.331 5.331h5.071c2.947 0 5.331-2.387 5.331-5.331 0-2.944-2.384-5.331-5.331-5.331H442.978zM62.512 456.488c0-2.944-2.387-5.331-5.331-5.331h-5.076c-2.944 0-5.331 2.387-5.331 5.331 0 2.944 2.387 5.331 5.331 5.331h5.076C60.125 461.819 62.512 459.432 62.512 456.488zM86.2 456.488c0-2.944-2.387-5.331-5.331-5.331h-5.074c-2.944 0-5.331 2.387-5.331 5.331 0 2.944 2.387 5.331 5.331 5.331h5.074C83.813 461.819 86.2 459.432 86.2 456.488zM109.889 456.488c0-2.944-2.387-5.331-5.331-5.331h-5.074c-2.944 0-5.331 2.387-5.331 5.331 0 2.944 2.387 5.331 5.331 5.331h5.074C107.502 461.819 109.889 459.432 109.889 456.488zM133.577 456.488c0-2.944-2.387-5.331-5.331-5.331h-5.074c-2.944 0-5.331 2.387-5.331 5.331 0 2.944 2.387 5.331 5.331 5.331h5.074C131.19 461.819 133.577 459.432 133.577 456.488zM151.937 451.157h-5.076c-2.944 0-5.331 2.387-5.331 5.331 0 2.944 2.387 5.331 5.331 5.331h5.076c2.944 0 5.331-2.387 5.331-5.331C157.268 453.544 154.881 451.157 151.937 451.157zM370.47 456.488c0-2.944-2.384-5.331-5.331-5.331h-5.076c-2.947 0-5.331 2.387-5.331 5.331 0 2.944 2.384 5.331 5.331 5.331h5.076C368.086 461.819 370.47 459.432 370.47 456.488zM394.159 456.488c0-2.944-2.384-5.331-5.331-5.331h-5.076c-2.947 0-5.331 2.387-5.331 5.331 0 2.944 2.384 5.331 5.331 5.331h5.076C391.774 461.819 394.159 459.432 394.159 456.488zM417.847 456.488c0-2.944-2.384-5.331-5.331-5.331h-5.076c-2.947 0-5.331 2.387-5.331 5.331 0 2.944 2.384 5.331 5.331 5.331h5.076C415.463 461.819 417.847 459.432 417.847 456.488zM441.536 456.488c0-2.944-2.384-5.331-5.331-5.331h-5.071c-2.947 0-5.331 2.387-5.331 5.331 0 2.944 2.384 5.331 5.331 5.331h5.071C439.151 461.819 441.536 459.432 441.536 456.488zM465.224 456.488c0-2.944-2.384-5.331-5.331-5.331h-5.071c-2.947 0-5.331 2.387-5.331 5.331 0 2.944 2.384 5.331 5.331 5.331h5.071C462.84 461.819 465.224 459.432 465.224 456.488zM69.025 476.47h-5.074c-2.944 0-5.331 2.387-5.331 5.331 0 2.944 2.387 5.331 5.331 5.331h5.074c2.944 0 5.331-2.387 5.331-5.331C74.356 478.857 71.969 476.47 69.025 476.47zM92.713 476.47H87.64c-2.944 0-5.331 2.387-5.331 5.331 0 2.944 2.387 5.331 5.331 5.331h5.074c2.944 0 5.331-2.387 5.331-5.331C98.045 478.857 95.657 476.47 92.713 476.47zM116.402 476.47h-5.074c-2.944 0-5.331 2.387-5.331 5.331 0 2.944 2.387 5.331 5.331 5.331h5.074c2.944 0 5.331-2.387 5.331-5.331C121.733 478.857 119.346 476.47 116.402 476.47zM140.09 476.47h-5.074c-2.944 0-5.331 2.387-5.331 5.331 0 2.944 2.387 5.331 5.331 5.331h5.074c2.944 0 5.331-2.387 5.331-5.331C145.422 478.857 143.034 476.47 140.09 476.47zM376.983 476.47h-5.076c-2.947 0-5.331 2.387-5.331 5.331 0 2.944 2.384 5.331 5.331 5.331h5.076c2.947 0 5.331-2.387 5.331-5.331C382.314 478.857 379.93 476.47 376.983 476.47zM400.672 476.47h-5.076c-2.947 0-5.331 2.387-5.331 5.331 0 2.944 2.384 5.331 5.331 5.331h5.076c2.947 0 5.331-2.387 5.331-5.331C406.003 478.857 403.618 476.47 400.672 476.47zM424.36 476.47h-5.071c-2.947 0-5.331 2.387-5.331 5.331 0 2.944 2.384 5.331 5.331 5.331h5.071c2.947 0 5.331-2.387 5.331-5.331C429.691 478.857 427.307 476.47 424.36 476.47zM448.049 476.47h-5.071c-2.947 0-5.331 2.387-5.331 5.331 0 2.944 2.384 5.331 5.331 5.331h5.071c2.947 0 5.331-2.387 5.331-5.331C453.38 478.857 450.995 476.47 448.049 476.47z" fill="#fff"></path>
</svg>
