<svg xmlns="http://www.w3.org/2000/svg" enable-background="new 0 0 512 512" viewBox="0 0 512 512" id="pakistan-tower">
  <path d="M417.536,501.236h-33.426c-33.96-11.196-38.172-49.207-16.1-68.506c3.518-2.612,2.772-7.25-0.32-9.063
			c-13.595-7.837-26.016-9.543-37.745-5.118c-29.268-89.724-31.187-181.368-39.718-272.052h2.452c7.73,0,14.021-6.291,14.021-14.021
			c0-7.73-6.291-13.968-14.021-13.968h-3.305V83.535h3.305c7.73,0,14.021-6.291,14.021-14.021c0-7.73-6.291-14.021-14.021-14.021
			h-13.008v-9.916c0-11.195-7.837-20.578-18.339-22.978V5.433c0-2.932-2.399-5.331-5.331-5.331s-5.331,2.399-5.331,5.331v17.166
			c-10.502,2.399-18.339,11.782-18.339,22.978v9.916h-13.008c-7.73,0-14.021,6.291-14.021,14.021c0,7.73,6.291,14.021,14.021,14.021
			h3.305v34.973h-3.305c-7.73,0-14.021,6.238-14.021,13.968c0,7.73,6.291,14.021,14.021,14.021h2.452
			c-8.423,89.938-10.449,182.221-39.771,272.052c-11.675-4.425-24.097-2.719-37.692,5.118c-3.092,1.812-3.785,6.397-0.373,9.01
			c10.876,9.543,15.781,24.257,12.795,38.438c-2.932,14.128-13.488,25.057-28.842,30.121H94.464c-2.932,0-5.331,2.399-5.331,5.331
			s2.399,5.331,5.331,5.331h323.071c2.932,0,5.331-2.399,5.331-5.331S420.468,501.236,417.536,501.236z M308.086,380.324h-15.62
			c-3.039-20.152-5.598-39.398-7.73-57.737h12.102C299.822,341.832,303.448,361.131,308.086,380.324z M295.238,311.924h-11.729
			c-2.292-20.419-4.105-39.718-5.598-57.79h10.716C290.386,273.326,292.519,292.625,295.238,311.924z M262.398,185.681
			c1.066,17.7,2.292,36.892,3.945,57.79h-20.685c1.653-20.898,2.879-40.091,3.945-57.79H262.398z M250.242,175.019
			c0.587-9.969,1.173-19.512,1.813-28.522h7.89c0.64,9.01,1.226,18.553,1.813,28.522H250.242z M267.195,254.134
			c1.493,18.073,3.305,37.372,5.545,57.79h-33.48c2.292-20.419,4.105-39.718,5.545-57.79H267.195z M273.966,322.587
			c2.133,18.286,4.691,37.585,7.677,57.737h-51.286c3.039-20.152,5.544-39.451,7.677-57.737H273.966z M287.614,243.471h-10.609
			c-1.599-20.898-2.826-40.091-3.892-57.79h9.809C285.002,212.071,286.121,226.465,287.614,243.471z M282.07,175.019h-9.65
			c-0.587-10.023-1.173-19.512-1.759-28.522h8.903C280.47,155.933,281.27,165.476,282.07,175.019z M233.289,83.535h45.422v34.973
			h-45.422V83.535z M232.436,146.497h8.903c-0.586,9.01-1.173,18.499-1.759,28.522h-9.649
			C230.73,165.476,231.53,155.933,232.436,146.497z M229.077,185.681h9.809c-1.066,17.7-2.292,36.945-3.892,57.79h-10.609
			C225.879,226.732,226.838,213.67,229.077,185.681z M223.373,254.134h10.769c-1.493,18.073-3.305,37.372-5.598,57.79h-11.782
			C219.481,292.625,221.614,273.326,223.373,254.134z M179.177,501.236h-29.055c8.743-7.144,14.714-16.74,17.06-27.936
			c3.305-15.674-1.066-31.881-11.196-43.61c11.782-5.064,21.591-3.625,31.614,4.212
			C193.678,461.198,190.853,483.803,179.177,501.236z M213.084,420.361c-7.304-2.292-14.768-0.746-20.845,3.679
			c-0.213-0.16-0.426-0.267-0.64-0.426c3.625-10.823,6.824-21.751,9.703-32.627h16.687
			C216.442,400.583,214.843,410.392,213.084,420.361z M203.967,380.324c4.585-19.193,8.263-38.492,11.196-57.737h12.155
			c-2.133,18.339-4.691,37.585-7.73,57.737H203.967z M225.079,501.236c9.596-18.286,10.289-40.144,2.292-66.374
			c5.864-6.557,16.527-10.609,28.682-10.609c12.102,0,22.711,4.052,28.575,10.609c-7.997,26.229-7.304,48.088,2.292,66.374H225.079z
			 M256.053,413.591c-13.062,0-24.684,3.838-32.787,10.449c1.973-11.249,3.785-22.284,5.491-33.053h54.538
			c1.653,10.769,3.519,21.804,5.491,33.107C280.684,417.429,269.115,413.591,256.053,413.591z M319.761,424.04
			c-5.971-4.318-13.435-5.971-20.792-3.679c-1.759-10.022-3.359-19.832-4.905-29.375h16.687c2.879,10.876,6.077,21.804,9.649,32.627
			C320.188,423.773,319.975,423.88,319.761,424.04z M332.823,501.236c-11.675-17.433-14.501-40.037-8.423-67.333
			c10.023-7.837,19.832-9.276,31.667-4.212c-17.913,20.792-16.58,53.259,5.811,71.545H332.823z" fill="#fff"></path>
</svg>
