<svg xmlns="http://www.w3.org/2000/svg" viewBox="0 0 44.1 41.41"><defs><style>.cls-1{fill:#f89732;}.cls-2{fill:#f89732;}</style></defs><g id="Layer_2" data-name="Layer 2"><g id="Layer_2-2" data-name="Layer 2"><path class="cls-1" d="M28,13.2a1.82,1.82,0,0,1-1.68.58c-1.22,0-1.22,0-1.22,1.17v.15c.06.6-.18.9-.81.86-.29,0-.53,0-.67.35a.51.51,0,0,0,.19.67c.51.42.48.83,0,1.25-.21.18-.41.4-.6.6-.38.41-.76.47-1.16,0-.19-.21-.34-.41-.72-.26s-.39.43-.37.74c0,.55-.24.78-.77.76h-.79c-.93,0-1-.05-1-1,0-.14.07-.37-.22-.41s-.47-.28-.72,0-.61.69-1,.41a3.5,3.5,0,0,1-1.26-1.33c-.13-.29.07-.55.29-.75s.41-.37.24-.72a.54.54,0,0,0-.63-.33c-.68.08-.86-.28-.86-.9,0-1.27,0-1.27-1.32-1.28s-1.6-.35-1.61-1.6l0-2.65c0-1,0-2,0-3,0-.38-.17-.5-.47-.58-1.17-.34-2.33-.69-3.5-1-.38-.11-.77-.23-.76-.72s.36-.54.73-.64Q13.05,1.86,18.84.12a2.83,2.83,0,0,1,1.68,0Q26.3,1.86,32.09,3.55c.38.11.71.25.71.67s-.36.57-.72.68c-1.16.34-2.33.69-3.5,1a.59.59,0,0,0-.51.69c0,2.1,0,4.21,0,6.31l0,0,0,.05Zm-7.43-2.45c0-.12,0-.24,0-.35,0-.81,0-.78-1.29-.77-.74,0-.45.48-.45.83-.58.85-1.13,1-1.63.49-.67-.73-.85.08-1.21.31s-.47.6,0,.93.29.63.12,1-.3.67-.75.6c-.64-.11-.78.21-.7.77a2.71,2.71,0,0,1,0,.57c0,.31.07.42.39.37a.92.92,0,0,1,1.1.47,1,1,0,0,1-.34,1.33c-.27.19-.2.39,0,.58a3.64,3.64,0,0,1,.55.56c.25.33.46.32.72,0s.79-.32,1.23-.2.54.49.49.89.14.55.53.51a4.33,4.33,0,0,1,.72,0c.38,0,.53-.15.47-.5-.07-.51.14-.77.62-1a.83.83,0,0,1,1.12.28c.24.32.45.26.68,0a3.26,3.26,0,0,1,.45-.46c.36-.28.42-.54,0-.83a.72.72,0,0,1-.24-1c.2-.44.39-.77.93-.68s.62-.12.56-.56a2.18,2.18,0,0,1,0-.57c.05-.43-.08-.65-.54-.58a.76.76,0,0,1-.91-.6c-.17-.42-.22-.76.18-1.07s.34-.54,0-.82a4.1,4.1,0,0,1-.51-.51c-.19-.22-.34-.23-.58,0C21.57,11.41,21.37,11.4,20.52,10.75Zm-1-2.66C19.83,8,20,8,20.2,8L31.85,4.54c.19-.06.5,0,.49-.33S32,4,31.83,3.9L20.24.47a2,2,0,0,0-1.19,0L7.53,3.89C7.32,4,7,3.93,7,4.23s.36.27.57.33c3,.89,6,1.76,8.93,2.63ZM11.67,6.2c0,2.2,0,4.32,0,6.45a.67.67,0,0,0,.74.7c.94,0,1.87,0,2.8,0,.37,0,.43-.29.55-.48s0-.37-.21-.52c-.59-.52-.6-.72-.08-1.27.18-.19.38-.36.56-.56.41-.46.82-.55,1.26,0a.53.53,0,0,0,.68.21.51.51,0,0,0,.34-.61c0-.65.26-.93.9-.9.29,0,.58,0,.86,0,.56,0,.88.19.84.79,0,.29,0,.55.33.7s.53,0,.73-.24a.69.69,0,0,1,1.16,0,4.23,4.23,0,0,0,.56.56c.52.43.63.88.05,1.35a.47.47,0,0,0-.17.61c.12.33.32.36.6.36h2.51c.76,0,1-.21,1-1,0-1.85,0-3.69,0-5.53,0-.62-.24-.59-.67-.46-1.62.48-3.28.86-4.86,1.46a6.64,6.64,0,0,1-4.92,0C15.44,7.2,13.58,6.76,11.67,6.2Z"/><path class="cls-1" d="M29.91,33.82l-.06,0A5.8,5.8,0,0,0,26.21,33a29.79,29.79,0,0,1-4,0c-.78,0-1.12-.33-1.05-1.1.11-1.15.06-2.41,1.19-3.15.52-.34.64-.52.32-1.13a1.94,1.94,0,0,1,1-2.64.8.8,0,0,0,.53-.73A8.44,8.44,0,0,1,27.26,19a.49.49,0,0,1,.57-.14c0,.27-.18.35-.35.49a8.21,8.21,0,0,0-2.9,4.95c-.07.4,0,.52.4.6a2.07,2.07,0,0,1,1.67,2c0,.56-.62,1.11-.4,1.46s.89.61,1.18,1.09a4.89,4.89,0,0,1,.51,2.35,1,1,0,0,0,.6.94,8.09,8.09,0,0,0,8.19,0,.86.86,0,0,0,.5-.83c.09-1.47.23-2.94,1.88-3.58-1.1-1.68-.51-3.15,1.39-3.53.38-.07.3-.26.26-.5a8.1,8.1,0,0,0-1.17-3.05A7.91,7.91,0,0,0,36,18.21a2.24,2.24,0,0,0,.06,1c.13.81-.22,1.24-1.05,1.25-1.57,0-3.15,0-4.73,0-.87,0-1.2-.42-1.07-1.29,0-.29.18-.57.05-.87-.56,0-.86.58-1.4.54.08-.59.62-.66,1-.86a1.2,1.2,0,0,0,.71-.72,2.28,2.28,0,0,1,1.16-1.3c.17-.09.41-.12.2-.45a2,2,0,0,1,.18-2.62,2.11,2.11,0,0,1,2.62-.38,2.42,2.42,0,0,1,.93,1.36,2.28,2.28,0,0,1-.44,1.73c-.22.24-.07.3.14.36a2.06,2.06,0,0,1,1.3,1.29c.11.24.13.59.52.58a8.56,8.56,0,0,1,4.82,6,2,2,0,0,0,.88,1.46c1,.65,1,1.71.29,3.06a3.78,3.78,0,0,1,1.83,3.94.8.8,0,0,1-.81.76A49.49,49.49,0,0,1,38.07,33a2.66,2.66,0,0,0-1.55.34A8.72,8.72,0,0,1,29.91,33.82ZM24.5,32.65h2.43c.48,0,.71-.25.62-.74s-.12-.9-.2-1.34A1.75,1.75,0,0,0,24.83,29a1.18,1.18,0,0,1-.69-.05,1.75,1.75,0,0,0-2.37,1.49c-.08.44-.11.9-.2,1.34-.12.6.12.86.71.85Zm8.14-12.6h2.29c.55,0,.79-.26.72-.8s-.1-1-.19-1.42a1.77,1.77,0,0,0-2.32-1.5,1.85,1.85,0,0,1-1,0A1.65,1.65,0,0,0,30,17.38a7.65,7.65,0,0,0-.33,1.9c-.08.56.2.78.74.78Zm11,12a18.39,18.39,0,0,0-.31-1.83A1.75,1.75,0,0,0,40.94,29a1.2,1.2,0,0,1-.77,0,1.69,1.69,0,0,0-2.31,1.47c-.08.47-.15.95-.22,1.42a.56.56,0,0,0,.61.74H43A.57.57,0,0,0,43.67,32Zm-11-16.08a1.63,1.63,0,0,0,1.7-1.67,1.68,1.68,0,0,0-1.69-1.67A1.71,1.71,0,0,0,31,14.28,1.69,1.69,0,0,0,32.65,15.94ZM24.54,28.57a1.67,1.67,0,0,0,1.69-1.67,1.73,1.73,0,0,0-1.69-1.69,1.7,1.7,0,0,0-1.65,1.64A1.6,1.6,0,0,0,24.54,28.57Zm17.77-1.65a1.73,1.73,0,0,0-1.66-1.72A1.71,1.71,0,0,0,39,26.9a1.59,1.59,0,0,0,1.63,1.67A1.66,1.66,0,0,0,42.31,26.92Z"/><path class="cls-1" d="M18.85,30.7a1.13,1.13,0,0,1-1.24.48c-.45-.05-.62.1-.61.58,0,.9-.26,1.14-1.14,1.14l-4.56,0H7.79c-.52,0-1,0-1.17-.66-.08-.3-.34-.21-.54-.21-1,0-2,0-3,0s-1.22-.35-1.23-1.23q0-3.41,0-6.81c0-.82.37-1.17,1.2-1.18l2.8,0c.63.16.85-.08.79-.73s0-1.29,0-1.94a.74.74,0,0,1,.8-.81c2,0,4,0,6,0a.74.74,0,0,1,.54.31c.87.95,1.72,1.92,2.62,2.85A1.61,1.61,0,0,1,17,23.85c-.05.5.13.69.64.64s1,0,1.2.52C18.84,26.91,18.85,28.81,18.85,30.7Zm-12.28.71a11.33,11.33,0,0,0,0-2.4,2.9,2.9,0,0,1-2.33-.68c-.38-.32-.83-.12-1.25.14C2,29,2.24,30,2.22,30.81c0,.58.27.82.83.81H6.13C6.29,31.61,6.54,31.71,6.57,31.41Zm6.22-.63c1.75.08,3.5.07,5.25,0,.43,0,.39-.33.39-.62,0-1.55,0-3.1,0-4.66,0-.52-.21-.64-.68-.64-1.53,0-3.06,0-4.59,0-.52,0-.67.19-.66.67,0,1.55,0,3.1,0,4.66C12.52,30.42,12.49,30.68,12.79,30.78ZM7,26.07C7,28,7,29.9,7,31.81c0,.45.14.69.6.69H16.1c.56,0,.5-.46.53-.84s-.24-.47-.58-.47c-1,0-2,0-3,0-.67,0-.94-.3-.94-1,0-1.58,0-3.16,0-4.73,0-.84.18-1,1-1,1,0,2,0,3,0,.17,0,.37.08.45-.21.2-.76,0-1.1-.8-1.1H14.56A1.1,1.1,0,0,1,13.4,22a17.8,17.8,0,0,1,0-1.79c0-.42-.14-.52-.54-.52-1.72,0-3.44,0-5.16,0-.64,0-.76.24-.75.8C7,22.34,7,24.21,7,26.07Zm-4.74,2.5a2.11,2.11,0,0,1,1.54-.75A2,2,0,0,1,5,28.34a1.13,1.13,0,0,0,1.27.17A.52.52,0,0,0,6.59,28c0-1.4,0-2.81,0-4.22,0-.31,0-.49-.42-.48-1.08,0-2.15,0-3.23,0a.62.62,0,0,0-.7.64C2.22,25.39,2.23,26.88,2.23,28.57ZM16.15,22.8l.05-.18-2.39-2.56c0,.77,0,1.34,0,1.91a.75.75,0,0,0,.73.82C15.07,22.84,15.61,22.8,16.15,22.8Z"/><path class="cls-1" d="M27,41.39l2.59-1c.06,0,.17.06.23.12a.21.21,0,0,1,0,.18A5.47,5.47,0,0,1,27,41.39Z"/><path class="cls-1" d="M3.73,9.85c-.43.76-.83,1.48-1.25,2.2a.15.15,0,0,1-.25,0,.35.35,0,0,1,0-.26A14.17,14.17,0,0,1,3.35,9.75c.06-.08.14-.15.24-.09A.67.67,0,0,1,3.73,9.85Z"/><path class="cls-1" d="M32,39.64c-.15,0-.22,0-.26-.13s0-.18.09-.23L33.73,38A.2.2,0,0,1,34,38c.07.07.12.16,0,.24A14,14,0,0,1,32,39.64Z"/><path class="cls-1" d="M42.48,22.44c0,.36-.07.78-.12,1.21,0,.13,0,.32-.22.29s-.16-.21-.15-.35c0-.71.09-1.42.13-2.13,0-.14.06-.24.21-.22a.18.18,0,0,1,.15.2Z"/><path class="cls-1" d="M42.35,18.49c-.07.26.22.61-.18.63s-.16-.34-.2-.52c-.12-.56-.2-1.13-.3-1.69,0-.17-.2-.42.07-.48s.26.25.3.44C42.15,17.43,42.25,18,42.35,18.49Z"/><path class="cls-1" d="M41.3,14.15c0,.16,0,.25-.14.28a.18.18,0,0,1-.22-.13c-.31-.72-.62-1.44-.92-2.16a.19.19,0,0,1,.07-.25c.09-.07.2-.06.24,0A15.37,15.37,0,0,1,41.3,14.15Z"/><path class="cls-1" d="M1.54,14.26.91,16.52a.17.17,0,0,1-.22.14.2.2,0,0,1-.15-.27,14.56,14.56,0,0,1,.67-2.25c0-.07.15-.17.21-.15S1.6,14.12,1.54,14.26Z"/><path class="cls-1" d="M.16,24.13c0-.24-.12-.52.13-.56s.21.3.25.47c.13.6.24,1.21.35,1.81,0,.16.12.36-.1.42S.52,26.12.49,26C.37,25.33.26,24.7.16,24.13Z"/><path class="cls-1" d="M37.61,7.74a2.21,2.21,0,0,1,.27.25L39.05,9.6c.1.14.21.31.05.44s-.3-.06-.39-.18c-.41-.56-.8-1.12-1.2-1.68-.07-.1-.15-.2-.08-.32S37.54,7.79,37.61,7.74Z"/><path class="cls-1" d="M34.27,4.42a10.82,10.82,0,0,1,1.08.92c.22.24.86.45.54.8s-.53-.32-.81-.5a9.36,9.36,0,0,1-1-.81c-.09-.08-.19-.15-.14-.3S34.08,4.41,34.27,4.42Z"/><path class="cls-1" d="M0,20.34c0-.55.05-1,.1-1.36,0-.13,0-.31.25-.27s.15.17.15.29c0,.74-.09,1.47-.14,2.21,0,.14,0,.26-.19.25S0,21.32,0,21.2Z"/><path class="cls-1" d="M37.46,35a.84.84,0,0,1-.16.24c-.45.49-.92,1-1.38,1.44-.08.09-.17.18-.3,0a.19.19,0,0,1,0-.3l1.47-1.56a.18.18,0,0,1,.25,0A.74.74,0,0,1,37.46,35Z"/><path class="cls-1" d="M6.73,6.39a3.54,3.54,0,0,0-.46.33c-.19.17-.33.4-.53.57s-.54.94-.88.65.36-.64.62-1,.52-.55.79-.82c.08-.08.18-.17.29,0A1.68,1.68,0,0,1,6.73,6.39Z"/><path class="cls-2" d="M19.56,8.09l-3.08-.9c-3-.87-6-1.74-8.93-2.63C7.34,4.5,7,4.52,7,4.23s.34-.28.55-.34L19.05.48a2,2,0,0,1,1.19,0L31.83,3.9c.2.05.49,0,.51.31s-.3.27-.49.33L20.2,8C20,8,19.83,8,19.56,8.09Z"/><path class="cls-2" d="M11.67,6.2c1.91.56,3.77,1,5.55,1.65a6.64,6.64,0,0,0,4.92,0c1.58-.6,3.24-1,4.86-1.46.43-.13.68-.16.67.46,0,1.84,0,3.68,0,5.53,0,.78-.2,1-1,1H24.18c-.28,0-.48,0-.6-.36a.47.47,0,0,1,.17-.61c.58-.47.47-.92-.05-1.35a4.23,4.23,0,0,1-.56-.56.69.69,0,0,0-1.16,0c-.2.21-.36.41-.73.24s-.35-.41-.33-.7c0-.6-.28-.81-.84-.79-.28,0-.57,0-.86,0-.64,0-.94.25-.9.9a.51.51,0,0,1-.34.61.53.53,0,0,1-.68-.21c-.44-.51-.85-.42-1.26,0-.18.2-.38.37-.56.56-.52.55-.51.75.08,1.27.17.15.33.35.21.52s-.18.49-.55.48c-.93,0-1.86,0-2.8,0a.67.67,0,0,1-.74-.7C11.67,10.52,11.67,8.4,11.67,6.2Z"/><path class="cls-2" d="M20.52,10.75c-.15-.44.07-1.1-.83-1-.55,0-.86.17-.9.73,0-.35-.29-.82.45-.83,1.27,0,1.27,0,1.29.77C20.53,10.51,20.52,10.63,20.52,10.75Z"/><path class="cls-2" d="M2.23,28.57c0-1.69,0-3.18,0-4.68a.62.62,0,0,1,.7-.64c1.08,0,2.15,0,3.23,0,.37,0,.42.17.42.48,0,1.41,0,2.82,0,4.22a.52.52,0,0,1-.34.56A1.13,1.13,0,0,1,5,28.34a2,2,0,0,0-1.21-.52A2.11,2.11,0,0,0,2.23,28.57Zm3.43-3.12a1.11,1.11,0,0,0-1.33-1,1.21,1.21,0,0,0-1.15,1.29A1.23,1.23,0,0,0,4.4,27a1.07,1.07,0,0,0,1.25-1Z"/><path class="cls-2" d="M16.15,22.8c-.54,0-1.08,0-1.61,0a.75.75,0,0,1-.73-.82c0-.57,0-1.14,0-1.91l2.39,2.56Z"/><path class="cls-2" d="M12.79,30.78h5.26C16.29,30.85,14.54,30.86,12.79,30.78Z"/><path class="cls-2" d="M6.57,31.41a14.92,14.92,0,0,1,0-2.41A11.42,11.42,0,0,1,6.57,31.41Z"/><path class="cls-1" d="M32.68,29.18c-.86,0-1.72,0-2.58,0-.63,0-.92-.22-.9-.88,0-.81,0-1.62,0-2.43a.56.56,0,0,0-.52-.68c-.35-.08-.69-.21-1-.3-.18-.05-.31-.14-.33-.33a.4.4,0,0,1,.33-.41l4.86-1.41a.87.87,0,0,1,.55.08l4.38,1.29c.22.06.52.07.49.39s-.26.4-.52.48c-1.31.43-1.31.44-1.31,1.79,0,.48,0,.95,0,1.43,0,.86-.12,1-1,1Zm0-.43c.86,0,1.72,0,2.58,0,.38,0,.5-.13.49-.5,0-.74,0-1.49,0-2.23,0-.43-.14-.59-.53-.41a5.73,5.73,0,0,1-5,0l-.07,0c-.33-.11-.47,0-.46.36,0,.74,0,1.49,0,2.23,0,.43.12.59.57.57C31,28.73,31.81,28.75,32.63,28.75Zm4.55-4.15v-.16c-1.34-.4-2.69-.78-4-1.19a1.53,1.53,0,0,0-1,0c-1.43.43-2.87.83-4.38,1.27,1.18.35,2.32.65,3.44,1a4,4,0,0,0,2.84,0C35.1,25.19,36.15,24.92,37.18,24.6Z"/><path class="cls-1" d="M19.57,16.85a2.19,2.19,0,0,1,.08-4.38,2.1,2.1,0,0,1,2.13,2.13A2.11,2.11,0,0,1,19.57,16.85Zm0-3.93a1.72,1.72,0,0,0-1.72,1.79,1.74,1.74,0,0,0,1.74,1.71,1.75,1.75,0,1,0,0-3.5Z"/><path class="cls-1" d="M10.39,23c-.52,0-1.05,0-1.57,0a1.1,1.1,0,1,1,0-2.2c1.07,0,2.15,0,3.22,0,.17,0,.46-.1.47.17s-.28.2-.45.21H9.23c-.53,0-1.1,0-1.11.7s.6.72,1.14.72H12c.2,0,.51,0,.48.26S12.15,23,12,23Z"/><path class="cls-1" d="M9.58,29.61H8.14c-.16,0-.37,0-.37-.21s.17-.21.32-.21h3c.15,0,.3,0,.3.23s-.18.18-.32.18Z"/><path class="cls-1" d="M9.56,31.18H8.06c-.12,0-.25,0-.27-.16s.09-.25.25-.26h3.07c.15,0,.3.06.28.24s-.19.18-.33.18Z"/><path class="cls-1" d="M9.6,26.46H8.09c-.14,0-.31,0-.31-.19s.14-.19.26-.19h3.08c.14,0,.31,0,.27.24s-.18.13-.29.13Z"/><path class="cls-1" d="M9.55,28H8.05c-.13,0-.26,0-.26-.17s.1-.21.24-.21h3.15c.12,0,.24.06.22.22s-.16.15-.27.15Z"/><path class="cls-1" d="M9.6,24.88c-.5,0-1,0-1.49,0-.14,0-.31,0-.31-.18s.14-.17.25-.17h3.07c.12,0,.26,0,.28.15s-.16.2-.3.2C10.6,24.89,10.1,24.88,9.6,24.88Z"/><path class="cls-1" d="M14,27.76c0-.33,0-.66,0-1,0-.55.46-.85.93-.6a12.5,12.5,0,0,1,1.88,1.16.6.6,0,0,1,0,1A17.65,17.65,0,0,1,15,29.46a.64.64,0,0,1-1-.55c0-.38,0-.76,0-1.15Zm.43.06c.09.43-.19,1,.15,1.22s.72-.33,1.09-.51l.06,0c1.06-.67,1.07-.67,0-1.36-.36-.22-.77-.72-1.09-.57S14.54,27.4,14.42,27.82Z"/><path class="cls-1" d="M5.65,26A1.07,1.07,0,0,1,4.4,27a1.23,1.23,0,0,1-1.22-1.31,1.21,1.21,0,0,1,1.15-1.29,1.11,1.11,0,0,1,1.33,1c-.31.08-.4-.18-.56-.34a.85.85,0,0,0-1.28,0,.8.8,0,0,0,0,1.17.81.81,0,0,0,1.26.07C5.25,26.19,5.39,26,5.65,26Z"/><path class="cls-2" d="M32.63,28.75c-.82,0-1.63,0-2.44,0-.45,0-.59-.14-.57-.57,0-.74,0-1.49,0-2.23,0-.37.13-.47.46-.36l.07,0a5.73,5.73,0,0,0,5,0c.39-.18.54,0,.53.41,0,.74,0,1.49,0,2.23,0,.37-.11.51-.49.5C34.35,28.74,33.49,28.75,32.63,28.75Z"/><path class="cls-2" d="M37.18,24.6c-1,.32-2.08.59-3.09,1a4,4,0,0,1-2.84,0c-1.12-.39-2.26-.69-3.44-1,1.51-.44,3-.84,4.38-1.27a1.53,1.53,0,0,1,1,0c1.33.41,2.68.79,4,1.19Z"/></g></g></svg>