<svg width="20" height="16" viewBox="0 0 20 16" fill="none" xmlns="http://www.w3.org/2000/svg">
<path fill-rule="evenodd" clip-rule="evenodd" d="M18.0812 11.5691C18.0812 13.258 16.7074 14.6297 15.0206 14.6297H4.97935C3.2926 14.6297 1.91873 13.258 1.91873 11.5691V5.18C1.91835 4.63568 2.06418 4.10124 2.34096 3.63254L7.24049 8.53207C7.9735 9.26723 8.9551 9.6723 10.001 9.6723C11.0448 9.6723 12.0264 9.26723 12.7594 8.53207L17.659 3.63254C17.9358 4.10123 18.0816 4.63567 18.0812 5.18V11.5691H18.0812ZM15.0206 2.11941H4.97935C4.28279 2.11941 3.63978 2.35516 3.12541 2.74738L8.07424 7.69836C8.5865 8.20844 9.27017 8.49137 10.001 8.49137C10.7297 8.49137 11.4135 8.20844 11.9257 7.69836L16.8745 2.74738C16.3602 2.35516 15.7172 2.11941 15.0206 2.11941ZM15.0206 0.938477H4.97935C2.64103 0.938477 0.737793 2.84172 0.737793 5.18004V11.5692C0.737793 13.9096 2.64103 15.8107 4.97935 15.8107H15.0206C17.3589 15.8107 19.2622 13.9096 19.2622 11.5692V5.18C19.2622 2.84168 17.3589 0.938477 15.0206 0.938477Z" fill="#F8BC24"/>
</svg>
