<svg xmlns="http://www.w3.org/2000/svg" viewBox="0 0 39.25 41.14"><defs><style>.cls-1{fill:#f89732;}.cls-2{fill:#f89732;}</style></defs><g id="Layer_2" data-name="Layer 2"><g id="Layer_2-2" data-name="Layer 2"><path class="cls-1" d="M19.79,22.93c.06,0,.08,0,.09,0,.32-.34.32-.34.74-.08s.9.58,1.36.86c-.32.47-.36.48-.76.22l-.9-.55c-.36.4-.7.8-1.06,1.18a9.91,9.91,0,0,1-2.61,1.94.32.32,0,0,0-.2.4,5.31,5.31,0,0,0,.21.71c.22.5.46,1,.72,1.55.61-.56,1.21-1.07,1.77-1.62s1.07-1.12,1.6-1.69a.61.61,0,0,1,0,.91,25.68,25.68,0,0,1-3.36,3.15,1.33,1.33,0,0,1-.2.14L16.64,29c-.13.47-.49.48-.84.48s-.76,0-1.14,0-.58,0-.66-.43l-.5,1a25.5,25.5,0,0,1-5.32-5.51l.72,2.15,1.68,5a1.87,1.87,0,0,0,.2.32s.06.07.07.12c.29,1,.57,2,.87,2.94.26.82.55,1.62.82,2.44l.1.22c.13-.75.22-1.45.38-2.13.41-1.74.85-3.46,1.27-5.2a.37.37,0,0,1,.39-.33H16a.38.38,0,0,1,.38.32c.45,1.91.92,3.83,1.37,5.75.11.5.17,1,.31,1.51l1.35-4,.55.26a4.8,4.8,0,0,0,1.82.54c.07,0,.18,0,.2.09a.26.26,0,0,1-.06.2,5.13,5.13,0,0,0-1.17,2.92c0,.27-.26.51-.36.78a.81.81,0,0,1-.92.54c-2.86,0-5.71,0-8.57,0a.47.47,0,0,1-.47-.28l-1.73-3C8,34.38,7.23,33.09,6.49,31.81c-.1-.18-.11-.28,0-.43a14.56,14.56,0,0,0,1-1c.1-.11.23-.31.18-.41a.64.64,0,0,0-.4-.31c-.51-.14-1-.26-1.54-.37-.22-.05-.29-.14-.22-.37.41-1.32.8-2.65,1.21-4A.48.48,0,0,1,7,24.64l3.3-2,.18-.09.33.38a.68.68,0,0,0,0-.15c0-.77,0-1.54,0-2.31,0-.24-.15-.3-.31-.38a2.54,2.54,0,0,1-1.33-1.58A8.6,8.6,0,0,1,9,16.82c-.07-.91-.12-1.83-.2-2.74a.75.75,0,0,0-.15-.38,6.85,6.85,0,0,1-1.12-2.1c-.11-.29-.46-.5-.7-.74-.06-.07-.17-.12-.18-.2s.09-.16.16-.18.16,0,.22.09a1.65,1.65,0,0,1,.26.3,22.85,22.85,0,0,0-1-5.21,5,5,0,0,1-.2-.93,2.07,2.07,0,0,1,1-2A23.08,23.08,0,0,1,10.77.49,5.14,5.14,0,0,1,14.89.37a8.86,8.86,0,0,0,4.42.42L20.37.65a.73.73,0,0,1,.38,0,12,12,0,0,1-2.19,1.07c.44-.08.87-.2,1.31-.24a6.49,6.49,0,0,1,1.46,0A2.14,2.14,0,0,1,23,2.94a7.3,7.3,0,0,1,.43,5c-.23.89-.34,1.8-.52,2.7a8.58,8.58,0,0,1-.89,2.5,2,2,0,0,0-.17.78c-.1,1.17-.19,2.34-.25,3.52A2.9,2.9,0,0,1,20.29,20a1,1,0,0,0-.51,1C19.81,21.65,19.79,22.28,19.79,22.93ZM11.06,8.14a9,9,0,0,0-1.73.38c.13.24-.31,1-.29,1.25.08.9.16,1.79.23,2.69.14,1.74.28,3.48.4,5.22a2.18,2.18,0,0,0,1.09,1.82l2.42,1.43a3.94,3.94,0,0,0,3.94.19c.93-.47,1.8-1,2.7-1.56A2.24,2.24,0,0,0,21,17.49c0-.32,0-.64.07-.95.11-1.43.26-2.85.33-4.27.07-1.23.05-2.46.08-3.68,0-.57-.09-.69-.75-.57l-.18,0L18.25,9a4.61,4.61,0,0,1-2.8.42,15.87,15.87,0,0,1-2.1-.74A5.33,5.33,0,0,0,11.06,8.14Zm.41,12.49c0,1,0,2,0,2.95a.49.49,0,0,0,.14.3c.58.51,1.14,1,1.75,1.5a2.9,2.9,0,0,0,2.31.75,2,2,0,0,0,.6-.14A9.65,9.65,0,0,0,19,23.87a.61.61,0,0,0,.15-.36c0-.63,0-1.26,0-1.89v-1c-.55.32-1,.63-1.54.9a4.65,4.65,0,0,1-4.71-.05ZM8.82,24.29a22.84,22.84,0,0,0,4.45,4.8c.09-.18.17-.32.23-.46.24-.57.47-1.14.7-1.71.07-.21,0-.34-.21-.48A20.86,20.86,0,0,1,11.94,25c-.59-.49-1.08-1.09-1.64-1.65Z"/><path class="cls-2" d="M23.4,27.77c-1-.38-1.22-1.25-1.5-2.1a.39.39,0,0,1,.12-.45c.46-.44.9-.91,1.36-1.35a.47.47,0,0,1,.36-.09q.65.21,1.26.48a1.74,1.74,0,0,1,.8.81c.08.14.15.19.31.13l1.41-.59c.16-.06.25-.14.19-.33a3.09,3.09,0,0,1,.55-2.43.36.36,0,0,1,.28-.11c.66,0,1.32,0,2,0a.34.34,0,0,1,.37.23c.13.31.29.61.42.93a2,2,0,0,1,0,1.61c.59.25,1.14.49,1.7.7a.25.25,0,0,0,.25-.1c.45-.89,1.33-1.08,2.17-1.34a.27.27,0,0,1,.23.08c.5.48,1,1,1.49,1.47a.29.29,0,0,1,.07.23c-.24.57-.45,1.15-.74,1.69-.1.2-.37.32-.58.45a.23.23,0,0,0-.11.34c.19.44.37.88.55,1.33a.31.31,0,0,0,.44.21,3,3,0,0,1,2.33.58.33.33,0,0,1,.13.25c0,.69,0,1.38,0,2.07a.42.42,0,0,1-.18.3,3,3,0,0,1-2.35.53c-.2-.05-.3,0-.37.21-.17.44-.34.88-.53,1.3-.08.18-.05.29.11.37a3,3,0,0,1,1.3,2.09.33.33,0,0,1-.07.29c-.48.51-1,1-1.47,1.49a.39.39,0,0,1-.33.06,13.46,13.46,0,0,1-1.55-.68,1.78,1.78,0,0,1-.49-.59c-.1-.16-.19-.22-.38-.14-.45.2-.91.38-1.36.55a.27.27,0,0,0-.16.39,3.13,3.13,0,0,1-.59,2.4c0,.07-.18.11-.28.11-.66,0-1.32,0-2,0a.45.45,0,0,1-.36-.21c-.21-.52-.42-1.05-.58-1.59a1.55,1.55,0,0,1,.05-.67.34.34,0,0,0-.23-.46c-.44-.16-.87-.34-1.3-.53-.16-.07-.27-.06-.35.09-.43.88-1.29,1.07-2.1,1.33a.37.37,0,0,1-.29-.08c-.48-.47-.95-.94-1.41-1.42a.38.38,0,0,1-.1-.34,11.23,11.23,0,0,1,.61-1.48,2.19,2.19,0,0,1,.66-.58c.16-.12.2-.21.12-.4-.2-.45-.37-.92-.58-1.38,0-.07-.18-.18-.24-.16a2.8,2.8,0,0,1-2.15-.36.64.64,0,0,1-.48-.73c0-.56,0-1.12,0-1.68a.35.35,0,0,1,.23-.4,9,9,0,0,1,1.3-.52,3.19,3.19,0,0,1,1,0c.17,0,.26,0,.32-.17C22.93,28.89,23.16,28.36,23.4,27.77Zm8.45,2.12a2.48,2.48,0,0,0-.24-.44A2.74,2.74,0,0,0,29,28.61,2.85,2.85,0,0,0,27.18,33a2.86,2.86,0,0,0,5-.53,1.78,1.78,0,0,0,0-1.69c-.08-.15-.24-.31-.07-.54S32,29.88,31.85,29.89Z"/><path class="cls-1" d="M6,25.18c-.07.27-.11.45-.16.63-.33,1.09-.67,2.19-1,3.29-.15.5-.08.61.45.73l1.49.36L6,31l-.22.2a.43.43,0,0,0-.11.63c.13.19.22.4.35.59s.15.12.28.21a6.65,6.65,0,0,0,.94,1.91C8,36,8.89,37.36,9.7,38.79a.73.73,0,0,1,.07.17H0c0-.1,0-.2,0-.29,0-3.31,0-6.62,0-9.92a.41.41,0,0,1,.26-.44c1-.55,2-1.12,3-1.67C4.17,26.16,5.05,25.7,6,25.18Z"/><path class="cls-1" d="M21.46,27.54c.2.24.37.42.51.62,0,0,0,.19-.1.2-.21,0-.42.05-.71.08Z"/><path class="cls-1" d="M21.82,39h-1l.37-.64Z"/></g></g></svg>