<?xml version="1.0" encoding="UTF-8"?>
<svg version="1.1" viewBox="0 0 2048 2048" width="64" height="64" xmlns="http://www.w3.org/2000/svg">
<path transform="translate(989)" d="m0 0h69l1 1v105l10 2 21 7 23 12 14 10 11 9 18 18 12 17 8 13 10 23 6 23 3 27v411l49-15 84-25 4 1v291l9-2 29-9 26-8 4 1v180h238l1 1 1 282 232 87 39 15 1 2v500h136v69h-2048v-69h136v-501l10-5 179-67 83-31 1-180 1-1h238v-57l5-3 60-18 2-1 1-285 4-3 54-16 10-2v-184l5-3 60-21 2-1 1-7 1-330 3-24 6-22 5-12 8-16 7-11 8-11 6-8 4-4h2l2-4 7-7 19-14 10-6 16-8 16-6 16-5zm26 171-18 3-15 5-13 7-8 6-10 9-10 11-8 14-5 12-4 14-2 20 80 1h122l1-1v-12l-3-15-5-15-8-15-8-10-6-7-13-10-19-10-17-5-13-2zm-93 171v234l13-4 138-46 43-14 9-4 1-4v-162zm202 239-81 27-76 26-90 30-23 8v112l12-3 34-11 131-41 74-23 21-7v-118zm137 150-48 14-55 17-65 20-33 10-90 28-68 21-65 20-46 14-5 2-1 218 11-3 63-19 160-48 167-50 47-14 27-8 2-1 1-221zm67 270-454 136-157 47v181h408l1-163v-109l49-1h154l1-1 1-60v-30zm-133 160v204h374v-204zm-717 102v102h170v-102zm0 171v545h374l1-7 1-139 3-25 7-24 6-15 13-23 9-11 5-6v-2h2l7-8 13-11 14-10 23-12 25-8 16-3 20-2h14l27 3 28 8 21 10 15 9 17 14 9 8 9 11 11 15 13 25 6 18 4 16 3 28 1 141h374v-545zm1161 14v531h203l1-453-12-5-154-59-36-14zm-1231 0-30 11-52 20-47 18-55 21-18 7-1 3v451h204v-531zm611 293-21 3-18 6-14 8-11 9-10 10-7 10-8 15-6 19-2 20v138h203l1-29v-101l-1-20-4-18-5-13-9-16-12-13-10-9-14-8-14-6-11-3-18-2z" fill="#fff"/>
<path transform="translate(854,1535)" d="m0 0h339l2 1v68l-9 1h-332l-1-1v-68z" fill="#fff"/>
<path transform="translate(547,1535)" d="m0 0h237l2 4v64l-7 2h-231l-3-2v-66z" fill="#fff"/>
<path transform="translate(1263,1535)" d="m0 0h236l3 1v68l-24 1h-214l-2-1v-68z" fill="#fff"/>
<path transform="translate(546,1809)" d="m0 0h239l1 2v65l-3 2h-236l-2-2v-65z" fill="#fff"/>
<path transform="translate(1262,1809)" d="m0 0h239l1 1 1 65-1 2-5 1h-233l-2-2z" fill="#fff"/>
<path transform="translate(1297,1228)" d="m0 0h169l2 1v68l-165 1-7-2v-65z" fill="#fff"/>
<path transform="translate(273,1774)" d="m0 0h66l3 2v134l-1 1-34 1h-33l-2-4v-133z" fill="#fff"/>
<path transform="translate(1707,1774)" d="m0 0h62l6 1v136l-66 1-3-1v-136z" fill="#fff"/>
<path transform="translate(273,1604)" d="m0 0h68l1 1v100l-2 2h-67l-1-4v-98z" fill="#fff"/>
<path transform="translate(1706,1604)" d="m0 0h69v102l-6 1h-62l-1-1z" fill="#fff"/>
<path transform="translate(990,409)" d="m0 0h67l2 2v65l-2 2h-67l-1-1v-67z" fill="#fff"/>
<path transform="translate(1094,852)" d="m0 0 66 1 1 1v67l-1 1h-67l-1-1-1-23v-42l1-3z" fill="#fff"/>
<path transform="translate(888,1228)" d="m0 0h67l1 1v68l-66 1-3-1v-68z" fill="#fff"/>
<path transform="translate(887,921)" d="m0 0h68l1 1v67l-1 1h-68z" fill="#fff"/>
</svg>
