<svg width="49" height="48" viewBox="0 0 49 48" fill="none" xmlns="http://www.w3.org/2000/svg">
<path d="M39.8172 43.0861L38.2383 42.7488C37.7462 42.642 37.2565 42.7827 36.8926 43.1364L36.6937 43.3314C35.7963 42.7757 35.0402 42.0194 34.4847 41.122L34.6773 40.9266C35.0337 40.5651 35.1765 40.0731 35.0692 39.5775L34.7286 37.9962C34.5798 37.3088 33.9853 36.8288 33.2826 36.8288H31.3809C30.9571 36.8288 30.5802 36.9952 30.2903 37.3104C30.0084 37.6175 29.8727 38.0174 29.9081 38.4387C30.0264 39.797 30.4102 41.1189 31.0379 42.3293C30.9356 42.2976 30.8272 42.2904 30.7216 42.3082C30.616 42.326 30.5161 42.3684 30.4298 42.432C30.3436 42.4956 30.2735 42.5785 30.2253 42.6741C30.177 42.7697 30.1518 42.8753 30.1519 42.9824V47.0212C30.1519 47.111 30.1695 47.1999 30.2039 47.2828C30.2382 47.3658 30.2886 47.4411 30.3521 47.5046C30.4156 47.5681 30.4909 47.6184 30.5739 47.6528C30.6568 47.6871 30.7457 47.7048 30.8354 47.7048C30.9252 47.7048 31.0141 47.6871 31.097 47.6528C31.18 47.6184 31.2553 47.5681 31.3188 47.5046C31.3823 47.4411 31.4327 47.3658 31.467 47.2828C31.5014 47.1999 31.519 47.111 31.519 47.0212V43.1628C33.214 45.8007 36.0654 47.6153 39.3738 47.9068C39.4229 47.9114 39.4714 47.9136 39.5195 47.9136C39.8851 47.9136 40.2231 47.7816 40.5075 47.5247C40.8163 47.2413 40.9862 46.854 40.9862 46.4343V44.5325C40.9863 43.8297 40.5062 43.2351 39.8172 43.0861ZM39.6191 46.4342C39.6191 46.4739 39.6117 46.4911 39.5871 46.5137C39.5508 46.5465 39.5339 46.5487 39.501 46.5453L39.4961 46.5449C35.1146 46.16 31.6551 42.7005 31.2703 38.3214C31.2665 38.2766 31.2753 38.2591 31.2972 38.2353C31.3297 38.1998 31.3485 38.196 31.3808 38.196H33.2825C33.3399 38.196 33.38 38.2286 33.3921 38.2848L33.7327 39.866C33.7422 39.9097 33.7348 39.9352 33.7035 39.9669L33.1471 40.5317C33.0452 40.635 32.9789 40.7681 32.9577 40.9116C32.9365 41.0551 32.9616 41.2017 33.0292 41.33C33.8113 42.8152 35.0067 44.0104 36.4861 44.7864C36.6142 44.8535 36.7602 44.8783 36.9033 44.8573C37.0463 44.8362 37.179 44.7703 37.2822 44.6691L37.8475 44.1149C37.8805 44.0827 37.9051 44.0754 37.9508 44.0855L39.5298 44.4229C39.5865 44.4351 39.619 44.4751 39.619 44.5325V46.4342H39.6191ZM38.8689 36.3386C38.8689 36.1508 38.7148 35.998 38.5255 35.998H37.4985C37.3172 35.998 37.1434 35.926 37.0152 35.7978C36.887 35.6696 36.8149 35.4957 36.8149 35.3144C36.8149 35.1331 36.887 34.9592 37.0152 34.831C37.1434 34.7028 37.3172 34.6308 37.4985 34.6308H38.5255C39.4688 34.6308 40.2361 35.3969 40.2361 36.3386C40.2361 37.3532 39.5008 38.1184 38.5255 38.1184C38.4344 38.1185 38.3471 38.1547 38.2828 38.2191C38.2184 38.2835 38.1822 38.3708 38.1821 38.4618V38.8717H39.5525C39.7338 38.8717 39.9077 38.9437 40.0359 39.0719C40.1641 39.2001 40.2361 39.374 40.2361 39.5553C40.2361 39.7366 40.1641 39.9105 40.0359 40.0387C39.9077 40.1669 39.7338 40.2389 39.5525 40.2389H37.4985C37.3172 40.2389 37.1434 40.1669 37.0152 40.0387C36.887 39.9105 36.8149 39.7366 36.8149 39.5553V38.4618C36.8149 37.5186 37.5823 36.7512 38.5255 36.7512C38.8441 36.7512 38.8689 36.4354 38.8689 36.3386ZM42.761 38.1184H41.3519C41.253 38.1184 41.1553 38.097 41.0655 38.0556C40.9757 38.0142 40.896 37.9538 40.8318 37.8786C40.7676 37.8034 40.7205 37.7151 40.6938 37.6199C40.667 37.5248 40.6612 37.4249 40.6768 37.3273L41.0145 35.2069C41.043 35.0278 41.1414 34.8674 41.2882 34.761C41.435 34.6545 41.618 34.6108 41.7971 34.6393C41.9761 34.6678 42.1365 34.7663 42.2429 34.913C42.3494 35.0598 42.3932 35.2429 42.3647 35.4219L42.1529 36.7512H42.761V35.3144C42.761 35.2246 42.7787 35.1357 42.8131 35.0528C42.8474 34.9698 42.8978 34.8945 42.9613 34.831C43.0247 34.7675 43.1001 34.7172 43.183 34.6828C43.266 34.6485 43.3549 34.6308 43.4446 34.6308C43.5344 34.6308 43.6233 34.6485 43.7062 34.6828C43.7892 34.7172 43.8645 34.7675 43.928 34.831C43.9915 34.8945 44.0418 34.9698 44.0762 35.0528C44.1105 35.1357 44.1282 35.2246 44.1282 35.3144V39.5553C44.1282 39.6451 44.1105 39.734 44.0762 39.8169C44.0418 39.8998 43.9915 39.9752 43.928 40.0387C43.8645 40.1021 43.7892 40.1525 43.7062 40.1869C43.6233 40.2212 43.5344 40.2389 43.4446 40.2389C43.3549 40.2389 43.266 40.2212 43.183 40.1869C43.1001 40.1525 43.0247 40.1021 42.9613 40.0387C42.8978 39.9752 42.8474 39.8998 42.8131 39.8169C42.7787 39.734 42.761 39.6451 42.761 39.5553V38.1184ZM19.2422 42.9823V47.021C19.2422 47.2023 19.1702 47.3762 19.042 47.5044C18.9138 47.6326 18.7399 47.7046 18.5586 47.7046C18.3773 47.7046 18.2034 47.6326 18.0752 47.5044C17.947 47.3762 17.875 47.2023 17.875 47.021V42.9823C17.875 42.8009 17.947 42.6271 18.0752 42.4989C18.2034 42.3707 18.3773 42.2987 18.5586 42.2987C18.7399 42.2987 18.9138 42.3707 19.042 42.4989C19.1702 42.6271 19.2422 42.8009 19.2422 42.9823ZM25.3766 42.9823C25.3766 43.3587 25.0693 43.6659 24.6929 43.6659C24.3164 43.6659 24.0119 43.3587 24.0119 42.9823C24.0119 42.6058 24.3164 42.2986 24.6929 42.2986C25.0693 42.2986 25.3766 42.6058 25.3766 42.9823ZM25.3766 39.9455C25.3766 40.322 25.0693 40.6292 24.6929 40.6292C24.3164 40.6292 24.0119 40.322 24.0119 39.9455C24.0119 39.5691 24.3164 39.2618 24.6929 39.2618C25.0693 39.2618 25.3766 39.5691 25.3766 39.9455ZM25.3766 46.0218C25.3766 46.3983 25.0693 46.7055 24.6929 46.7055C24.3164 46.7055 24.0119 46.3983 24.0119 46.0218C24.0119 45.6453 24.3164 45.3381 24.6929 45.3381C25.0693 45.3381 25.3766 45.6452 25.3766 46.0218ZM48.9116 28.2528V20.3578C48.9116 20.2012 48.8579 20.0494 48.7593 19.9277C48.6608 19.806 48.5235 19.7218 48.3703 19.6892L43.8307 18.7232L42.1735 14.7205L44.7016 10.8283C44.7869 10.697 44.8245 10.5403 44.8081 10.3845C44.7918 10.2288 44.7224 10.0833 44.6116 9.97258L39.0282 4.38918C38.9175 4.27844 38.7721 4.20907 38.6164 4.19268C38.4606 4.17629 38.304 4.21387 38.1727 4.29915L34.2778 6.82727L30.2752 5.1678L29.3118 0.628247C29.2793 0.475002 29.1951 0.337579 29.0734 0.238972C28.9516 0.140365 28.7997 0.0865557 28.6431 0.0865479H20.7454C20.5888 0.0865409 20.437 0.140298 20.3153 0.238829C20.1935 0.33736 20.1094 0.474691 20.0768 0.627856L19.1107 5.1677L15.108 6.82717L11.216 4.29924C11.0847 4.21391 10.928 4.17628 10.7722 4.19265C10.6164 4.20902 10.471 4.2784 10.3603 4.38918L4.77676 9.97268C4.66601 10.0834 4.59665 10.2289 4.58028 10.3846C4.56391 10.5404 4.60152 10.6971 4.68682 10.8284L7.21494 14.7206L5.55791 18.7232L1.01553 19.6892C0.862344 19.7218 0.724991 19.8059 0.62644 19.9277C0.52789 20.0494 0.474119 20.2012 0.474121 20.3578V28.2528C0.474137 28.4094 0.527915 28.5612 0.626462 28.6829C0.725009 28.8046 0.862353 28.8888 1.01553 28.9214L5.55791 29.8874L7.21494 33.89L4.68682 37.7822C4.6015 37.9135 4.56388 38.0702 4.58025 38.226C4.59662 38.3817 4.66599 38.5272 4.77676 38.6379L10.3603 44.2214C10.4237 44.2849 10.4991 44.3353 10.5821 44.3697C10.6651 44.404 10.754 44.4217 10.8438 44.4216C10.9723 44.4216 11.1016 44.3855 11.2156 44.3115L13.6424 42.7374V47.0211C13.6424 47.2024 13.7144 47.3763 13.8426 47.5045C13.9708 47.6327 14.1447 47.7047 14.326 47.7047C14.5073 47.7047 14.6812 47.6327 14.8094 47.5045C14.9375 47.3763 15.0096 47.2024 15.0096 47.0211V38.1407C15.0096 36.0486 17.4452 34.7527 20.1279 34.1154L21.4417 38.4817C21.4747 38.5915 21.5349 38.6913 21.6167 38.7718C21.6984 38.8523 21.7991 38.9109 21.9094 38.9423C22.0198 38.9737 22.1363 38.9767 22.2481 38.9513C22.36 38.9258 22.4636 38.8726 22.5495 38.7965L24.8478 36.7618L27.1435 38.7962C27.2293 38.8723 27.333 38.9255 27.4449 38.951C27.5567 38.9765 27.6732 38.9734 27.7836 38.9421C27.8939 38.9107 27.9946 38.8521 28.0764 38.7716C28.1582 38.6912 28.2184 38.5914 28.2515 38.4816L29.5576 34.1405C30.5044 34.36 31.3531 34.6476 32.0776 34.9962C32.0403 35.1683 32.0709 35.3481 32.1629 35.4982C32.2549 35.6483 32.4013 35.7571 32.5716 35.8019C32.7418 35.8467 32.9228 35.8241 33.0768 35.7387C33.2308 35.6534 33.3459 35.5119 33.3981 35.3438C34.3461 32.3093 37.122 30.2705 40.3056 30.2705C44.2972 30.2705 47.5445 33.5179 47.5445 37.5095C47.5445 40.6939 45.5059 43.4697 42.4715 44.4168C42.2984 44.4708 42.1539 44.5914 42.0697 44.7519C41.9855 44.9125 41.9685 45.0999 42.0225 45.273C42.0765 45.4461 42.1971 45.5906 42.3576 45.6748C42.5182 45.759 42.7056 45.776 42.8787 45.722C46.4872 44.5957 48.9116 41.2953 48.9116 37.5095C48.9116 34.1495 46.9759 31.2335 44.1612 29.817L48.3703 28.9213C48.5235 28.8888 48.6608 28.8046 48.7594 28.6829C48.8579 28.5612 48.9116 28.4093 48.9116 28.2528ZM22.4431 37.0647L21.4763 33.8515C21.6405 33.8258 21.8044 33.8026 21.9674 33.7816L23.8676 35.8036L22.4431 37.0647ZM18.9228 28.0647H18.3593C17.541 28.0647 16.8754 27.3978 16.8754 26.578C16.8754 25.7795 17.5093 25.1264 18.3002 25.0952L18.3004 25.0954C18.3675 26.0784 18.5759 27.0743 18.8999 27.9938C18.907 28.0175 18.9144 28.0412 18.9228 28.0647ZM26.016 31.2066C25.9147 31.2064 25.8176 31.1661 25.7459 31.0945C25.6743 31.0228 25.634 30.9257 25.6339 30.8243C25.6339 30.6171 25.8089 30.4421 26.016 30.4421H27.1842C27.3913 30.4421 27.5663 30.6171 27.5663 30.8243C27.5663 31.0316 27.3913 31.2066 27.1842 31.2066H26.016ZM29.7505 23.7269H29.4154C27.1836 23.7269 25.5324 23.0049 23.74 21.921C23.6439 21.8628 23.5349 21.8293 23.4227 21.8233C23.3104 21.8173 23.1985 21.8391 23.0967 21.8867L19.6436 23.5018V22.8464C19.6436 20.0607 21.91 17.7944 24.6956 17.7944C27.4829 17.7944 29.7505 20.0608 29.7505 22.8464V23.7269ZM29.8586 29.4319H30.4813V29.4929C30.4811 29.6647 30.4128 29.8294 30.2913 29.9508C30.1699 30.0723 30.0052 30.1406 29.8334 30.1408H29.4148C29.5751 29.9125 29.7232 29.6758 29.8586 29.4319ZM31.0237 28.0647H30.4771C30.4815 28.0526 30.4848 28.0404 30.4889 28.0281C30.8422 27.0337 31.0303 26.0133 31.093 25.1001L31.095 25.0957C31.8803 25.133 32.5075 25.7836 32.5075 26.5779C32.5076 27.3977 31.842 28.0647 31.0237 28.0647ZM31.6522 23.7976C31.4794 23.7585 31.3007 23.7353 31.1177 23.7293V22.8465C31.1177 19.3069 28.2368 16.4273 24.6956 16.4273C21.156 16.4273 18.2764 19.307 18.2764 22.8465V23.729C18.0965 23.7341 17.9175 23.7562 17.7418 23.795V22.8465C17.7418 19.0121 20.8612 15.8926 24.6957 15.8926C28.5316 15.8926 31.6523 19.012 31.6523 22.8465V23.7976H31.6522ZM23.3481 23.2784C25.5528 24.5648 27.333 25.0941 29.4154 25.0941H29.7239C29.6017 26.7096 29.0565 28.2941 28.238 29.4314C27.9445 29.2088 27.5801 29.075 27.1842 29.075H26.016C25.0515 29.075 24.2667 29.8598 24.2667 30.8244C24.2667 31.0027 24.2938 31.1746 24.3436 31.3367C21.1771 31.092 19.8428 27.5801 19.6646 25.0013L23.3481 23.2784ZM24.6984 32.7177C25.1318 32.7177 25.559 32.667 25.9714 32.5715C25.9864 32.5719 26.001 32.5738 26.016 32.5738H26.7497V32.8237L24.8476 34.8501L22.9432 32.8235V32.4446C23.4942 32.6252 24.0808 32.7177 24.6984 32.7177ZM27.2501 37.0641L25.8277 35.8036L27.6957 33.8136C27.8684 33.8352 28.0387 33.8588 28.2068 33.8843L27.2501 37.0641ZM32.5796 33.7225C31.3475 33.145 29.828 32.7253 28.117 32.4906V32.3017C28.4179 32.1117 28.654 31.8349 28.7943 31.5079H29.8335C30.9446 31.5079 31.8485 30.6039 31.8485 29.4928V29.3095C33.0196 28.9545 33.8749 27.8645 33.8749 26.5779C33.8749 25.7823 33.547 25.062 33.0195 24.5444V22.8463C33.0195 18.2581 29.2854 14.5252 24.6957 14.5252C20.1075 14.5252 16.3746 18.258 16.3746 22.8463V24.5337C15.8408 25.0522 15.5081 25.7767 15.5081 26.5778C15.5081 28.1514 16.7871 29.4317 18.3592 29.4317H19.5317V29.4181C19.5965 29.5368 19.6642 29.654 19.7348 29.7694C20.2532 30.6106 20.8722 31.2787 21.576 31.7649V32.4544C19.4962 32.7396 17.6989 33.2987 16.3516 34.0851C16.1532 34.201 15.9601 34.3255 15.7727 34.4583C12.8449 31.8882 11.1756 28.2184 11.1756 24.3052C11.1756 16.8518 17.2394 10.7879 24.6929 10.7879C32.1479 10.7879 38.2129 16.8517 38.2129 24.3052C38.2129 26.104 37.8657 27.8459 37.1818 29.4877C36.4613 29.769 35.7821 30.1463 35.1626 30.6094C34.0692 31.4258 33.1796 32.5045 32.5796 33.7225ZM47.5444 27.6993L43.1943 28.625C43.0858 28.6481 42.9846 28.6973 42.8993 28.7682C42.8141 28.8392 42.7474 28.9298 42.705 29.0323L42.6267 29.2218C41.8711 29.0101 41.0901 28.9031 40.3055 28.9035C39.7995 28.9035 39.3006 28.9483 38.8117 29.0334C39.3213 27.5167 39.58 25.9321 39.58 24.3055C39.58 16.0982 32.9017 9.42102 24.6928 9.42102C16.4854 9.42102 9.8083 16.0982 9.8083 24.3055C9.8083 28.5564 11.5967 32.5466 14.7397 35.3704C14.0173 36.1823 13.6423 37.1183 13.6423 38.1409V41.108L10.9356 42.8637L6.13486 38.0628L8.55723 34.3333C8.61762 34.2403 8.65448 34.134 8.66464 34.0236C8.67479 33.9131 8.65794 33.8019 8.61553 33.6994L6.6833 29.0322C6.64087 28.9298 6.57414 28.8392 6.48886 28.7682C6.40359 28.6973 6.30234 28.6482 6.19385 28.6251L1.84131 27.6992V20.9114L6.19404 19.9857C6.30254 19.9626 6.40379 19.9135 6.48906 19.8426C6.57433 19.7716 6.64106 19.681 6.6835 19.5785L8.61572 14.9114C8.65814 14.8089 8.67499 14.6976 8.66483 14.5872C8.65468 14.4768 8.61781 14.3705 8.55742 14.2775L6.13506 10.548L10.9356 5.74739L14.6651 8.16975C14.7582 8.23017 14.8646 8.26704 14.975 8.27718C15.0855 8.28732 15.1968 8.27042 15.2993 8.22795L19.9665 6.29299C20.0689 6.25055 20.1594 6.18384 20.2303 6.09863C20.3012 6.01341 20.3503 5.91224 20.3733 5.80383L21.299 1.45374H28.0896L29.0127 5.80344C29.0357 5.91193 29.0848 6.01318 29.1557 6.09847C29.2266 6.18376 29.3172 6.25052 29.4196 6.29299L34.0868 8.22795C34.1893 8.27044 34.3005 8.28735 34.411 8.27722C34.5214 8.2671 34.6278 8.23025 34.7208 8.16985L38.4532 5.74729L43.2539 10.548L40.8315 14.2775C40.7712 14.3705 40.7343 14.4768 40.7241 14.5872C40.714 14.6976 40.7308 14.8089 40.7732 14.9114L42.7055 19.5785C42.7479 19.681 42.8146 19.7716 42.8999 19.8425C42.9851 19.9135 43.0863 19.9626 43.1948 19.9857L47.5444 20.9113V27.6993Z" fill="#5866EB"/>
</svg>
