<svg width="37" height="50" viewBox="0 0 37 50" fill="none" xmlns="http://www.w3.org/2000/svg">
<path d="M33.9968 33.0251V27.82L31.8002 28.6746L31.7938 28.6601L31.7414 28.5651C30.8997 27.2546 29.5384 26.3428 28.0055 26.0649L22.7199 25.1031V24.6859C24.6966 23.538 26.1441 21.5799 26.5951 19.2649C28.0595 18.962 29.1638 17.6628 29.1638 16.1098V8.15398C29.1651 7.0651 28.8144 6.00497 28.1641 5.13159C27.5139 4.25821 26.5988 3.61834 25.5552 3.30734L25.1525 2.9046C23.2789 1.03103 20.7883 0 18.1391 0C12.6706 0 8.22109 4.44872 8.22109 9.918V16.1098C8.22109 17.6628 9.32542 18.962 10.7898 19.2649C11.2417 21.5799 12.6883 23.5388 14.665 24.6859V25.1031L9.38019 26.0641C7.84895 26.3419 6.48848 27.2521 5.64594 28.5619L5.59761 28.6795L3.38815 27.82V33.0251C2.05587 33.0251 0.97168 34.1093 0.97168 35.4416V38.6635C0.97168 39.9958 2.05587 41.08 3.38815 41.08V44.0474L18.6925 50L33.9968 44.0474V41.08C35.3291 41.08 36.4132 39.9958 36.4132 38.6635V35.4416C36.4132 34.1093 35.3291 33.0251 33.9968 33.0251ZM24.2294 27.0153L27.7172 27.6493C28.7442 27.8361 29.6536 28.429 30.2601 29.2731L22.467 32.3034L24.2294 27.0153ZM16.3445 25.4245C17.0879 25.6516 17.8757 25.7757 18.6925 25.7757C19.5092 25.7757 20.297 25.6516 21.0405 25.4245L18.6925 27.1853L16.3445 25.4245ZM17.4665 28.2792L15.8225 29.9223L14.756 26.7237L15.2691 26.6311L17.4665 28.2792ZM22.1158 26.6319L22.6289 26.7246L21.5624 29.9232L19.9184 28.28L22.1158 26.6319ZM26.7474 17.4969V14.7227C27.2266 15.0023 27.5529 15.5162 27.5529 16.1098C27.5529 16.7034 27.2266 17.2174 26.7474 17.4969ZM10.6376 17.4969C10.1583 17.2174 9.83207 16.7034 9.83207 16.1098C9.83207 15.5162 10.1583 15.0023 10.6376 14.7227V17.4969ZM10.6376 12.0824V13.0022C10.3551 13.0761 10.0841 13.1883 9.83207 13.3357V9.918C9.83207 5.33798 13.5583 1.61098 18.1391 1.61098C20.3574 1.61098 22.4444 2.47527 24.0135 4.04437L24.724 4.75561L24.9406 4.80878C25.6872 4.99431 26.3502 5.42458 26.8236 6.03091C27.2971 6.63724 27.5538 7.38469 27.5529 8.15398V13.3357C27.301 13.1879 27.03 13.0757 26.7474 13.0022V12.0824H24.1932C22.0103 12.0824 19.9241 11.04 18.6151 9.29455L17.9748 8.43912L16.3743 10.0404C15.0565 11.3574 13.3053 12.0824 11.4431 12.0824H10.6376ZM12.2485 17.7208V13.6563C14.2373 13.4718 16.0827 12.6091 17.5132 11.1794L17.8266 10.8661C19.4416 12.6486 21.7678 13.6933 24.1932 13.6933H25.1364V17.7208C25.1364 21.2738 22.2455 24.1647 18.6925 24.1647C15.1394 24.1647 12.2485 21.2738 12.2485 17.7208ZM9.66775 27.6493L13.1555 27.0153L14.9179 32.3034L7.12321 29.2723C7.72974 28.4274 8.64075 27.8361 9.66775 27.6493ZM2.58266 38.6635V35.4416C2.58266 34.9969 2.94433 34.6361 3.38815 34.6361C4.72043 34.6361 5.80462 35.7203 5.80462 37.0525C5.80462 38.3848 4.72043 39.469 3.38815 39.469C2.94433 39.469 2.58266 39.1082 2.58266 38.6635ZM17.887 47.9573L4.99913 42.9463V40.7385C6.41921 40.115 7.4156 38.6998 7.4156 37.0525C7.4156 35.4053 6.41921 33.9901 4.99913 33.3666V30.1753L17.887 35.187V47.9573ZM15.4955 32.5289L18.6925 29.3311L21.8895 32.5281L18.6925 33.7718L15.4955 32.5289ZM32.3858 42.9455L19.498 47.9565V35.187L32.3858 30.1753V33.3666C30.9657 33.9901 29.9693 35.4053 29.9693 37.0525C29.9693 38.6998 30.9657 40.115 32.3858 40.7385V42.9455ZM34.8023 38.6635C34.8023 39.1082 34.4406 39.469 33.9968 39.469C32.6645 39.469 31.5803 38.3848 31.5803 37.0525C31.5803 35.7203 32.6645 34.6361 33.9968 34.6361C34.4406 34.6361 34.8023 34.9969 34.8023 35.4416V38.6635Z" fill="#F39F5F"/>
</svg>
