<svg width="49" height="50" viewBox="0 0 49 50" fill="none" xmlns="http://www.w3.org/2000/svg">
<path d="M18.4434 32.1695V24.6094C18.4434 23.1016 17.2168 21.875 15.709 21.875C15.2879 21.875 14.8934 21.9789 14.5371 22.1492V17.5781C14.5371 16.0703 13.3105 14.8438 11.8027 14.8438C11.3816 14.8438 10.9871 14.9477 10.6309 15.118V12.8906C10.6309 11.3828 9.4043 10.1563 7.89648 10.1563C6.62695 10.1563 5.56523 11.0313 5.25977 12.2063C4.76388 11.8895 4.18805 11.7204 3.59961 11.7188C1.87617 11.7188 0.474609 13.1203 0.474609 14.8438V28.125C0.474609 28.2555 0.507422 28.3844 0.569922 28.4992L5.25742 37.093C5.29336 37.1578 5.33867 37.2188 5.39102 37.2711L11.5074 43.3875C11.9453 43.828 12.1917 44.4235 12.1934 45.0445V48.4375C12.1934 48.6447 12.2757 48.8434 12.4222 48.9899C12.5687 49.1365 12.7674 49.2188 12.9746 49.2188H22.3496C22.5568 49.2188 22.7555 49.1365 22.902 48.9899C23.0485 48.8434 23.1309 48.6447 23.1309 48.4375V38.732C23.1321 37.7423 22.7563 36.7892 22.0801 36.0664L18.4434 32.1695ZM15.709 23.4375C16.3551 23.4375 16.8809 23.9633 16.8809 24.6094V30.4953L14.5371 27.9844V24.6094C14.5371 23.9633 15.0629 23.4375 15.709 23.4375ZM11.8027 16.4063C12.4488 16.4063 12.9746 16.932 12.9746 17.5781V26.3102L12.4465 25.7445C12.2269 25.51 11.9616 25.323 11.6669 25.1949C11.3723 25.0669 11.0545 25.0005 10.7332 25H10.6309V17.5781C10.6309 16.932 11.1566 16.4063 11.8027 16.4063ZM6.72461 12.8906C6.72461 12.2445 7.25039 11.7188 7.89648 11.7188C8.54258 11.7188 9.06836 12.2445 9.06836 12.8906V25.6078C8.72148 25.9203 8.46289 26.3305 8.35117 26.8L6.72461 24.7297V14.8438V12.8906ZM21.5684 47.6563H13.7559V45.0445C13.7559 44.0016 13.3496 43.0203 12.6121 42.2828L6.57539 36.2461L2.03711 27.9258V14.8438C2.03711 13.982 2.73789 13.2813 3.59961 13.2813C4.46133 13.2813 5.16211 13.982 5.16211 14.8438V25C5.16215 25.1751 5.22103 25.3452 5.3293 25.4828L13.923 36.4203L15.1512 35.4555L9.84961 28.707V27.3438C9.84961 26.9133 10.2004 26.5625 10.6309 26.5625H10.7332C10.9488 26.5625 11.1566 26.6531 11.3043 26.8102L20.9387 37.132C21.3441 37.568 21.5684 38.136 21.5684 38.732V47.6563ZM45.7871 11.7188C45.1762 11.7188 44.6098 11.9016 44.127 12.2063C43.8215 11.0313 42.7598 10.1563 41.4902 10.1563C39.9824 10.1563 38.7559 11.3828 38.7559 12.8906V15.118C38.3908 14.9398 37.9902 14.8461 37.584 14.8438C36.0762 14.8438 34.8496 16.0703 34.8496 17.5781V22.1492C34.4845 21.971 34.084 21.8773 33.6777 21.875C32.1699 21.875 30.9434 23.1016 30.9434 24.6094V32.1695L27.3066 36.0664C26.6304 36.7892 26.2547 37.7423 26.2559 38.732V48.4375C26.2559 48.6447 26.3382 48.8434 26.4847 48.9899C26.6312 49.1365 26.8299 49.2188 27.0371 49.2188H36.4121C36.6193 49.2188 36.818 49.1365 36.9645 48.9899C37.111 48.8434 37.1934 48.6447 37.1934 48.4375V45.0445C37.1934 44.4274 37.4434 43.8242 37.8793 43.3875L43.9957 37.2711C44.0483 37.2182 44.0932 37.1583 44.1293 37.093L48.8168 28.4992C48.8793 28.3844 48.9121 28.2555 48.9121 28.125V14.8438C48.9121 13.1203 47.5105 11.7188 45.7871 11.7188ZM40.3184 12.8906C40.3184 12.2445 40.8441 11.7188 41.4902 11.7188C42.1363 11.7188 42.6621 12.2445 42.6621 12.8906V24.7297L41.0355 26.7992C40.9228 26.3383 40.6727 25.9226 40.3184 25.607V17.5781V12.8906ZM36.4121 17.5781C36.4121 16.932 36.9379 16.4063 37.584 16.4063C38.2301 16.4063 38.7559 16.932 38.7559 17.5781V25H38.6535C38.0059 25 37.3816 25.2719 36.9402 25.7445L36.4121 26.311V24.6094V17.5781ZM32.5059 24.6094C32.5059 23.9633 33.0316 23.4375 33.6777 23.4375C34.3238 23.4375 34.8496 23.9633 34.8496 24.6094V27.9844L32.5059 30.4953V24.6094ZM47.3496 27.9258L42.8113 36.2453L36.7746 42.282C36.4109 42.6441 36.1225 43.0746 35.9262 43.5488C35.7299 44.023 35.6295 44.5313 35.6309 45.0445V47.6563H27.8184V38.732C27.8184 38.136 28.0426 37.568 28.4488 37.1328L38.0832 26.811C38.1562 26.7327 38.2445 26.6703 38.3426 26.6275C38.4407 26.5848 38.5465 26.5627 38.6535 26.5625H38.7559C39.1863 26.5625 39.5371 26.9133 39.5371 27.3438V28.707L34.2355 35.4547L35.4637 36.4195L44.0574 25.482C44.1658 25.3448 44.2248 25.1749 44.2246 25V14.8438C44.2246 13.982 44.9254 13.2813 45.7871 13.2813C46.6488 13.2813 47.3496 13.982 47.3496 14.8438V27.9258ZM36.398 7.2172C36.3385 6.18643 36.0469 5.18241 35.545 4.28011C35.0432 3.3778 34.344 2.60051 33.4996 2.00627C32.2842 1.1525 30.82 0.725861 29.3362 0.793152C27.8524 0.860443 26.4328 1.41786 25.2996 2.37814L24.6934 2.8922L24.0863 2.37814C22.9532 1.41786 21.5336 0.860443 20.0498 0.793152C18.566 0.725861 17.1018 1.1525 15.8863 2.00627C15.042 2.60051 14.3428 3.3778 13.8409 4.28011C13.339 5.18241 13.0474 6.18643 12.9879 7.2172C12.9188 8.25115 13.0842 9.28735 13.4718 10.2484C13.8594 11.2094 14.4591 12.0705 15.2262 12.7672L24.1676 20.8992C24.3114 21.0301 24.4989 21.1026 24.6934 21.1026C24.8878 21.1026 25.0753 21.0301 25.2191 20.8992L34.1605 12.7672C34.9273 12.0703 35.5268 11.2092 35.9143 10.2482C36.3017 9.28718 36.4671 8.25107 36.398 7.2172ZM24.6934 19.2664L16.2777 11.6125C15.6845 11.0727 15.2209 10.406 14.9214 9.66193C14.6219 8.91792 14.4943 8.11587 14.548 7.31564C14.5935 6.51863 14.8184 5.74219 15.206 5.04429C15.5936 4.34638 16.1338 3.74504 16.7863 3.28517C17.7184 2.6296 18.8417 2.30199 19.9801 2.35374C21.1185 2.40549 22.2074 2.83367 23.0762 3.57111L24.1879 4.5133C24.4793 4.75939 24.9066 4.75939 25.198 4.5133L26.3105 3.57033C27.1796 2.83351 28.2685 2.40573 29.4067 2.35399C30.5449 2.30224 31.6681 2.62946 32.6004 3.28439C33.2529 3.74426 33.7932 4.3456 34.1807 5.0435C34.5683 5.74141 34.7932 6.51785 34.8387 7.31486C34.8926 8.11511 34.7651 8.91721 34.4656 9.66125C34.1661 10.4053 33.7023 11.0721 33.109 11.6117L24.6934 19.2664Z" fill="#70A6B1"/>
</svg>
