<svg width="304" height="407" viewBox="0 0 304 407" fill="none" xmlns="http://www.w3.org/2000/svg">
<path d="M243.981 140.477L244.128 141.057L244.672 140.81L374.716 81.8457L288.293 195.508L287.931 195.984L288.464 196.256L415.645 261.165L272.896 264.465L272.298 264.478L272.418 265.064L300.966 404.969L209.384 295.42L209 294.961L208.616 295.42L117.034 404.969L145.582 265.064L145.702 264.478L145.104 264.465L2.35518 261.165L129.536 196.256L130.069 195.984L129.707 195.508L43.2837 81.8457L173.328 140.81L173.872 141.057L174.019 140.477L209 2.04088L243.981 140.477Z" stroke="#F8BC24"/>
</svg>
