<svg width="271" height="117" viewBox="0 0 271 117" fill="none" xmlns="http://www.w3.org/2000/svg">
<path d="M231.473 114.5C230.83 85.0385 218.846 56.919 197.963 36.0368L199.731 34.269L197.963 36.0367C176.491 14.5636 147.367 2.5 117 2.5C86.6331 2.5 57.5093 14.5636 36.0363 36.0358C36.0363 36.0358 36.0363 36.0358 36.0362 36.0358M231.473 114.5L36.0362 36.0358M231.473 114.5H117H2.52726C3.16997 85.0385 15.1534 56.919 36.0362 36.0358M231.473 114.5L36.0362 36.0358" stroke="#005280" stroke-width="5"/>
<path d="M271 117C271 85.97 258.673 56.21 236.731 34.269C214.79 12.327 185.03 0 154 0C122.97 0 93.2103 12.327 71.2685 34.268C49.3268 56.21 37 85.97 37 117H154H271Z" fill="#F8BC24"/>
</svg>
