<svg width="138" height="420" viewBox="0 0 138 420" fill="none" xmlns="http://www.w3.org/2000/svg">
<path d="M5.0128 3.62173C6.26198 1.08191 9.33685 0.0307198 11.8487 1.33521C49.3939 20.8337 80.9817 50.1644 103.211 86.2355C126.337 123.762 138.393 167.058 137.99 211.136C137.588 255.214 124.744 298.282 100.936 335.38C78.0528 371.04 45.9349 399.789 8.04001 418.599C5.50476 419.857 2.4496 418.75 1.24698 416.188C0.0443726 413.626 1.1499 410.579 3.68388 409.318C39.8314 391.33 70.4693 363.879 92.3102 329.845C115.074 294.372 127.356 253.19 127.741 211.042C128.126 168.895 116.598 127.496 94.4847 91.6128C73.2688 57.1856 43.1371 29.1796 7.32388 10.535C4.81334 9.22801 3.76361 6.16155 5.0128 3.62173Z" fill="#005280"/>
</svg>
