<svg width="1171" height="55" viewBox="0 0 1171 55" fill="none" xmlns="http://www.w3.org/2000/svg">
<g opacity="0.2">
<path d="M5 50H283.057C287.238 50 291.373 49.1261 295.196 47.4344L394.34 3.56563C398.164 1.8739 402.298 1 406.479 1H556.6H692.138C696.404 1 700.62 1.90964 704.507 3.66823L800.996 47.3318C804.882 49.0904 809.098 50 813.364 50H1166" stroke="#4F536C"/>
<path d="M1166.01 54.9998C1165.86 55.0007 1165.72 54.9551 1165.61 54.8689C1165.49 54.7826 1165.4 54.6596 1165.34 54.5155C1165.29 54.3714 1165.27 54.2128 1165.3 54.0598C1165.33 53.9069 1165.4 53.7665 1165.5 53.6566L1169.29 49.5014L1165.5 45.3462C1165.38 45.1959 1165.32 45.0027 1165.33 44.805C1165.33 44.6073 1165.41 44.4198 1165.54 44.2799C1165.66 44.14 1165.83 44.058 1166.01 44.0504C1166.19 44.0428 1166.37 44.11 1166.51 44.2387L1170.79 48.9516C1170.93 49.0988 1171 49.2978 1171 49.5053C1171 49.7129 1170.93 49.9119 1170.79 50.0591L1166.51 54.772C1166.37 54.9171 1166.19 54.9989 1166.01 54.9998Z" fill="#4F536C"/>
<path d="M1161.72 55C1161.58 55.0009 1161.44 54.9553 1161.32 54.8691C1161.2 54.7828 1161.11 54.6598 1161.05 54.5157C1161 54.3716 1160.99 54.213 1161.01 54.06C1161.04 53.907 1161.11 53.7667 1161.21 53.6568L1165 49.5016L1161.21 45.3464C1161.08 45.1985 1161 44.9979 1161 44.7887C1161 44.5795 1161.08 44.3789 1161.21 44.231C1161.35 44.0831 1161.53 44 1161.72 44C1161.91 44 1162.09 44.0831 1162.23 44.231L1166.51 48.9439C1166.65 49.0911 1166.72 49.2902 1166.72 49.4977C1166.72 49.7052 1166.65 49.9043 1166.51 50.0514L1162.23 54.7643C1162.16 54.8386 1162.08 54.8976 1161.99 54.9381C1161.91 54.9785 1161.81 54.9996 1161.72 55Z" fill="#4F536C"/>
<path d="M4.99525 54.9998C5.13716 55.0007 5.2761 54.9551 5.39436 54.8689C5.51262 54.7826 5.60483 54.6596 5.65925 54.5155C5.71367 54.3714 5.72782 54.2128 5.69991 54.0598C5.672 53.9069 5.60328 53.7665 5.50252 53.6566L1.71589 49.5014L5.50252 45.3462C5.61957 45.1959 5.68073 45.0027 5.67378 44.805C5.66684 44.6073 5.5923 44.4198 5.46506 44.2799C5.33781 44.14 5.16724 44.058 4.98743 44.0504C4.80762 44.0428 4.63181 44.11 4.49513 44.2387L0.208379 48.9516C0.0753102 49.0988 0.000619888 49.2978 0.000619888 49.5053C0.000619888 49.7129 0.0753102 49.9119 0.208379 50.0591L4.49513 54.772C4.62821 54.9171 4.80782 54.9989 4.99525 54.9998Z" fill="#4F536C"/>
<path d="M9.28236 55C9.42427 55.0009 9.56321 54.9553 9.68147 54.8691C9.79973 54.7828 9.89194 54.6598 9.94636 54.5157C10.0008 54.3716 10.0149 54.213 9.98702 54.06C9.95911 53.907 9.89039 53.7667 9.78963 53.6568L6.003 49.5016L9.78963 45.3464C9.92416 45.1985 9.99974 44.9979 9.99974 44.7887C9.99974 44.5795 9.92416 44.3789 9.78963 44.231C9.65509 44.0831 9.47262 44 9.28236 44C9.0921 44 8.90963 44.0831 8.7751 44.231L4.48834 48.9439C4.35528 49.0911 4.28059 49.2902 4.28059 49.4977C4.28059 49.7052 4.35528 49.9043 4.48834 50.0514L8.7751 54.7643C8.84127 54.8386 8.92017 54.8976 9.00725 54.9381C9.09432 54.9785 9.18783 54.9996 9.28236 55Z" fill="#4F536C"/>
</g>
</svg>
