<?xml version="1.0" encoding="UTF-8"?>
<svg version="1.1" viewBox="0 0 2048 2048" width="1280" height="1280" xmlns="http://www.w3.org/2000/svg">
<path transform="translate(755,17)" d="m0 0 4 2 8 8 9 14 6 17 1 6v18l-3 14-6 14-7 9-8 9-1 13 12-5 1 1 1 8 4 1 11-3 5-1 1 2-2 9 6-1 6-5 3 1-3 10 5 1-1 5-6 8 1 7 4 14v6l-6 10-6 5-10 4-14 2 1 14-8 10-1 3v11l5 13 11 21 7 16 1 5 1 24v32l-1 24 4 33 7 32 15 56 4 19 2 14 1 13v17l-1 13h82l8-2 8-6-1-5-3 1-7 9h-2l2-5 7-8-1-4-11-12-8-8-7-8-15-15-7-8-12-12v-2l-3-1v-2l5 2 14 10 11 7 43 29 11 7 3 2 6-1 11-4 18-4v-89h2l6 21 7 29 8 34 1 3 17 4 5 2 5-1 17-13 21-16 13-10 19-14 5-3 3 1-4 6-12 16-13 16-9 12-14 18-1 4 9 10 3 1 38-6 61-11 10-1 1 2-26 11-62 27-9 3 3 10 18 3 61 8 27 4 5 2v1l-92 6-17 2-4 13v14l6 15-1 4-4 3-5 1 9 36 6 22-1 7-9 12 1 7 20 52 10 9 3 10 12 5 12 8 16 16 9 14 10 19 7 19 6 25 4 16 7 14 9 16 9 7 13 10 11 11 1 2 4-2 10-15 16-25 3-4 4 1 3 2 2-9 1-6 5 1 33 17 22 12 33 17 16 8 8 5-6 7-7 7v3l5 4-1 5-16 26-2 3 1 5 7 11 3 6v7l-8 16-12 21-13 24-9 14-7 8-10 6-12 4-11 2-6 47-7 39-7 26-5 11-5 8-8 7-6 3-14 2-16 14-1 3 11 72 8 54v10l-3 5v12l10 85 1 14-8 5-7 4 3 40v11l-9 7-1 1-1 18-3 3h-2v10l7 91v8l-4 7-7 7-7 6h-2v2h-2l5 96 5 67 2 13 5 14-5 1h-486l1-7 6-9 7-6 13-6 9-4 4-9 6-26 4-21v-7l-4-10v-13l1-11-2-15v-8l8-12-4-17-3-19-2-34v-36l2-44 4-34 5-24-1-8-4-11-1-13 2-17 3-14 9-27-2-20-11-78-8-51-6-37-1-10v-38l3-21 6-24 8-23 5-12-12-1-10-5-10-9-6-12v-28l5-33 8-34 9-29 8-20 10-21 6-11-1-7-7-16-9-16-20-28-1-9 3-8 13-17-1-5-4-5-7-6-2-4v-11l4-12 5-11-3-5-14-15-12-4-5-6v-8l4-12 9-14v-2l-17-5-13-1-3-3-6-19-4-21-1-10v-21l3-22 5-17 6-16 8-16 9-15 9-13 4-6-1-13-3-26-5-17-10-32-5-22-1-6v-28l1-13v-46l-4-28-3-11-1-12-4-6-5-4-2-3 1-5 6-7 5-1h36l6 2-3-5-10-5-13-2 1-3 10-3v-4l-8-10-5-7-2-4-7 6-6 6 1 5 4 10-1 7-7 7h-2l1-6 4-5-2-4-7-10-9-19-5-13v-6l5-6h2l-4-7-5-6v-4h2l-1-10-1-7 4-6 4-3h2l-9-11-4-7-4-16-3-3-9-5-8-9-5-9 2-4 9-6 11-4 16-2h62l20 3 20 6-7-14-7-8-4 1-5 6-3-1-9-15-4-2-2 11h-2l-5-8v-2l-4 1-4 5-4-1-4-6-3-6h-14l-4 17-3-1-5-13-9 1-3 1 1 14h-4l-5-10v-2l-10 4-1 1v10l-4 1-8-10-7-10 1-3 5 1 4 2v-10l4 2 4 3h7l1-4v-4l5 1 10 4 7 1 1-17 5 4 4 8 1 3 16 1-5-6-10-7-14-15-5-7-1-3v-8l6-14 1-4 1-14 3-6 7-6 15-6 16-5 8-6 5-9v-6zm6 10-6 12-9 10-9 8-10 8-16 13-5 5-1 3 18-4 19-5 9-5 7-6 4-6 2-5 1-6v-16l-3-6zm7 8-1 10-1 12-3 10-6 10-8 7-8 5-21 9-3 2 1 5 5 4h13l16-8 13-12 7-10 4-8 2-8v-7l-4-13-5-8zm-30 14-16 5-10 5-5 5-1 3v11l4-2 17-14 11-9 3-4zm-36 170-3 3-2 4v6l2 2 12-1 6-1h29l10 1-4-4-15-5-14-3zm7 20-1 2 2 11 1 1h13l-2-5-7-7zm30 17 2 13 4 8 11 9 3 4 5 17 2 14 1 25 2-1 2-7v-30l-4-17-4-10-6-5-8-5-4-5-4-9zm-20 4-2 1v4l-16-4-4 1-2 3 3 4 4 1h21l6-2-2-6-1-2zm-6 17-16 4-2 1 1 4 11 7h12l3-1h7l14 2 5-3v-4l-11-5-17-5zm-9 24-9 3v5l2 2 38 2 5-1-1-5-3-3-9-2zm11 71-6 3-2 5 1 1h9l16-2h8l13 2-1-3-7-4-8-2zm12 24-6 2-1 5 1 2h22l-1-4-7-4zm0 17-2 1 1 4h17l-4-4-5-1zm1 24-1 1v89l3 17 7 23 11 26 6 10 6 5 8 3h6l-3-9-13-29-9-24-7-24-5-31-5-56zm347 79m-1 1m-2 1-32 24-13 10-5 5v2l4 1 14-11 12-11 8-7 14-12zm-76 36 1 6 16 6 15 6 12 7 1-2-6-7-13-8-11-5-10-3zm-33 1-16 4-12 5-9 6v3l6-1 12-5 11-3 22-2-2-6-1-1zm6 10-4 1 1 8 3 19 2 4 4-1v-23l-1-7zm21 2v28h2v-28zm-40 2-4 2 4 16 2 12 4 1 2-1v-12l-2-15-1-3zm54 0-1 1-1 15v11l7 2 2-22v-6l-1-1zm128 2-61 11-13 2 4 7 7-1 51-13 17-5v-1zm-202 6-2 1 2 6 10 20 3-1 1-4-5-15-5-7zm97 0-3 8-2 9v5l3-1 5-20zm-110 7v5l7 12 3 6h1l-1-8-8-14zm124 1-4 9-3 9v4h2l6-16 1-5zm-134 12 6 8 4 4h2l-2-5-8-7zm73 0-1 3 7 12 5 4 18 7 15 6 19 10 11 7h2l-2-9-8-13-8-8-13-8-13-6-17-4zm72 1-4 5-4 8 1 2 5-6 4-7v-2zm-93 4-11 3-19 9-12 9-5 8-2 8v6l3 5 6-1 12-7 11-8 20-13 18-10-1-4-5-4-3-1zm-137 2-1 2 7 11 11 11 6 2 45-4 1-1v-14l-15-2-50-5zm78 4 2 4 9 6h2l-2-4-8-6zm158 2-7 10 2 2 6-7 1-4zm-160 9 5 6 3 2 4-1-7-6zm176 1 1 6 4 1 48 3h23v-1l-33-4-38-5zm-10 5-6 4 1 2 4-2 2-4zm-81 3-4 7-11 9-11 8-1 2h17l5-1-9 25-4 6-9 6-11 6-3 3 2 23 3 14 3 3 7-8h1l2 10 8 4 6 2h11v-9l-3-7-11-1 7-7v-3l-7 2-7 3h-2l4-5 11-6-1-3-6-4-3-11 3-5 3-1-2 9 2 1h18v-47l5-1h16l1-2-9-7-16-13-2-2zm-164-16 4 22v8l-15 28-10 15-3 3-9-21-9-15-13-15-8-6-3-1-1 1v12l5 28 6 34 3 26 1 12 4-1 18-24 13-20 10-18 8-16 8-20 4-12-1-6-8-11-2-3zm17 23-6 15-9 21-10 20-11 18-16 23-8 11-1 4 5-3 8-9 10-13 16-24 13-24 9-19 5-12-2-7zm14 10 2 5 7 11 2 5 1 9-1 12v18l5 10 8 8 6 4h2l7-11 11-16v-4l-5-4-1-9 2-10 2-6v-7l-5-10-3-5zm-6 3-8 16-9 19-10 18-14 21-11 14-11 13-4 2h-7l-6-3-1-2-2-26-1-7h-2l-3 7-1 13 3 12 6 10v5l-7-4-9-9-3 1-6 15-2 10 6 2 16 1 10-8 19-19 9-11 10-12 10-15 8-13-1 6-3 12 5-5 11-20 4-8 2-13 7-13v-5l-3-4zm-95 10-9 10-10 15-10 19-7 20-4 16-2 18v12l2 19 5 19 3 8h2l10-34 11-32 6-17-1-3-15 10-9 7-10 9 4-8 10-14 10-11 13-13 2-5-11 6-22 15 4-6 33-33v-11h-3l-8 7-11 14-9 12 4-9 11-16 13-18v-6zm247 23-1 5 8 7-1 4-2 3 1 11 3 6 3 3-1 6-2 2-1 4v8h3l8-14 6-18v-12l-5-7-12-7zm-142 3-3 6-6 7-1 4 2 6 4-1 4-6 2-9v-7zm-15 10-7 10-8 12-12 19-13 22-9 12 1 2 10-9 15-20 11-16 12-20 1-2v-10zm44 36-1 27-3 28-3 15 1 3 4-5 8-13 3-9 3-23v-14l-10-9zm-10 4v22l-1 23 2-3 2-9 2-29-1-4zm-32 17-5 14-1 4v14l4 5h8v-2l-6-2v-16l2-15zm-13 1-14 18-13 16-11 14-14 15-5 6 6-2 10-9 7-6 7-8 12-15 14-21 2-5zm101 5-5 14v4l9 6h2l-2-16-2-8zm-64 4-13 31-9 15-5 6-8 7 1 2 10-6 8-8 8-12 5-13 4-16v-6zm78 10-3 8-2 10 4 13 7 13 9 11 10 9 14 8 13 5 13 3h15l4-3 18-1 10-2 3-3-6-2-47-2-12-4-10-8-10-12-14-22-9-15-5-5zm-209 8-6 16-1 9 6 1h9v-3l-7-4h-2l2-6 13-7 3-4-9-2zm60 6-16 13-19 13-13 9 4 1 14-7 16-11 12-11 4-5v-2zm106-40-5 36-6 35-9 36-12 34-9 25-4 16-3 20v36l1 7 4-2 30-30 3-17 6-16-1 10-1 6v8l4-2 26-24 14-13-8-24-4-20-1-10h2l4 20 5 16 6 13 4-2 10-9-1-5-11-23-4-11-2-9h2l3 11 9 20 7 11h4l9-7-3-5-8-9-9-15-7-17-4-16-5-30-3-3-4 1-5 37v5h-2l-2-21-1-27-2-5h-3l-6 38-6 25-7 21-2 5 2-17 8-54 2-19 1-24-3-6zm138 47 2 35h20l-2-6-12-20-6-9zm-151 5-11 15-6 9-3 30 4-4 8-13 5-14 4-19zm-23 3-6 4-21 35-11 16-12 17-12 15-13 17-12 16-1 4 4 4 14-15 11-13 13-17 11-15 12-18 15-26 8-17 1-7zm78 10 2 11 5 16 8 17 9 13 8 9 6-1 17-13 10-7-3-3-18-5-16-8-10-8-9-10-8-11zm-197 0-6 1h-14l-2 4v4l10-1 10-3 6-4zm323 33 2 5 7 8 10 8 2 1 17 2 15 4 22 10v-3l-7-6-16-9-13-5-15-4-14-9-6-2zm-194 7-8 13-6 15-16 51-8 25-7 26-4 21-2 20 4-2 20-20 2-3-1-12v-40l3-19 6-22 10-27 8-22zm153 0-2 2-9 3-10 6-17 13-11 9-10 9-11 9-10 9-11 9-7 7-8 7-17 16-10 9-15 15-8 7-25 25-7 8-9 9-7 8-10 11-11 15-14 27-10 26-8 25-7 28-4 21-3 22v20l3 9 9 10 6 4h2l-2-5-6-9-5-13-1-8 7 6 8 4h3l-1-18v-15l2-20 5-26 7-24 4-12 8-20 10-21 6-9-9 27-7 32-3 19v5l3-3 5-12 10-22 10-19 14-25 11-17 14-22 13-18 9-12 13-16 12-14 11-12 7-8 14-14 8-7 13-12 46-46 4-3-2 6-28 42-13 18-12 16-11 13-6 7 2-5 8-16 1-6-4 4-7 10-14 19-11 15-14 20-13 19-14 20-11 18-12 19-9 15-5 11v2l4-2 19-19 9-11 29-29 7-10 20-30 13-18 20-26 13-16 11-13 9-11 10-11 7-8 9-10 14-15 19-19v-2l-12 2-15 8-12 9 1-4 8-8 17-11-1-2zm35 7-12 11-5 4-7 8-11 11-7 8-11 12-7 8-12 14-11 13-10 13-12 15-14 19-11 15-16 24 1 2 11-9 14-12 20-20 8-7 14-15 11-13 15-20 13-18 12-17 10-14 12-17 9-13v-2zm6 3-12 20-8 13-16 29-15 25-15 22-15 20-12 23-11 25-16 36-23 53-16 38-19 46-15 38-19 49-16 44-17 50-14 46-14 56-2 16 3 25 5 36 5-2 14-8 9-4-7 8-7 7-7 8-13 17-3 7v4h5l9-10 5-6v-2l5-2-16 32-5 11-2 7 3 1 16-8 5-5 8-16 15-32 15-35 14-34 18-45 6-16 20-55 12-34 12-36 15-46 17-55 7-25 10-34 7-25 10-37 9-36 9-34 12-51 7-34v-6l-2 2-7 16-11 24-8 14 12-26 11-26 9-20 15-34 10-23 1-6zm4 1 4 13 7 15-4-4-8-12-4 2-2 5v6l14 22 5 9-13-16-8-11-3 3-11 24-1 3 1 17 1 19v51l-4 79-4 58-5 60v9l4-2 7-8 10-9 14-11 2-2 5-230 1-28 4 5 15 16 2 1-1-22-4-20-8-24 3 3 6 18 4 16 2 28-1 21-4 26-6 25-10 37 1 4 13-10 4 1 9 9 8 7 15 16v-3l-7-12-13-16-9-11-3-4 5 2 10 7 10 10 7 10 2-1-5-23-3-5-18-6 1-4 9-7 5-3-1-15-3-17h-3l-6 22-4 10-5 7-3 1 4-14 5-25 2-17v-14l-3-30-6-24-3-9v-3l16 34 19 38 13 28 9 20 10 23 3 2 6-1-2-18-6-25-8-23-12-25-9-15-12-17-11-14-5-6h-2l-2-4-8-8-13-10-8-4zm34 17 3 5 4 4h2l2 4 7 7 12 16 13 21 12 26 9 27 5 25 2 15 1 2h11l-7 22 1 4 5-8 7-16 3-11 1-7 1-2-10-5-5-13-7-12-5-10-4-15-11-23-12-18-11-13-7-8-11-11-9-6zm10 0v2l8 7 10 9 9 10 13 18 10 16 1-3-5-12-8-14-10-13-9-10-10-8zm-305 27-12 13-15 16-5 5 2 5 4 6 3-1 24-42zm23 26-5 9-6 13-5 13-9 36-3 22v17l4-2 4-6 2-14 5-38 7-28 6-16 2-6zm109 4 1 2 1-2zm-2 2-13 13v2l-3 1-9 11-9 10-9 11-15 20-10 14-10 15-16 25-15 27-15 29-13 29-5 16v5h2l14-24 9-15 12-24 6-11 14-25 12-19 14-22 21-31 14-20 11-15 15-20v-2zm145 4-1 5-1 23-1 46-1 21 2 1 7-24 6-28 3-21 1-14-5-4-8-5zm31 3 1 2zm1 2 2 11 8 29 14 54 17 69 12 50 5 20 8 16 4 4-2-29-4-36-6-28-8-28-12-36-10-28-16-41-11-27zm-72 15-5 29-7 33-9 35-12 38-14 37-14 47-20 68-11 35-9 27-14 43-14 39-10 29-18 47-19 49-26 60-18 40v2l5-2 12-14 8-10 12-14 9-11 13-14 9-11 7-7 7-8 9-10 7-8 9-10 22-26 22-28 13-18 10-15 11-17 13-24 7-16 3-13 5-66 2-26v-12l-5-13-1-4v-11l8-110 4-69 1-20v-46l-1-5zm235 19-1 3v16l-5-3-6-5-5 5-16 23-11 16-10 13-8 10-18 22-14 17 1 5 3 3 5-2 7-7 7-11 7-14-1 16-4 17-8 16-7 10-1 3 3 10-1 5-4 9v12l7 47 8 52 2 5 14 4 5-1 15-27 13-23 12-21 14-25 13-23 1-2v-8l-5-10-4-7 1-10 3-15 9-3 1-9 1-2 21 4 9 4 1-5-3-14-3-9v-6l3-6 4 2 8 8h2v2l4 1 7-10 9-14 3-4-1-3-7-3 1-3 8-7-1-3-60-31-23-12zm-81 33 3 8 1 4v12l-5 12-8 11-7 8-2 4v8l3 3 11-9 7-8 12-12v-2h2l7-8 8-9-6-7-8-7-15-8zm-234 7-14 12-22 18-17 14-5 6-15 31-11 23-18 41-16 38-13 34-10 28-13 42-5 21-10 57-2 19v14l2 2 3-8 10-29 12-33 10-26 18-45 15-35 18-43 7-16 7-14 9-20 17-37 14-29 15-30 11-23 5-11zm-51 14m416 29v10l4 8 8 6 4 1 1-3v-9l-12-12zm-249 6 1 5 14 14 9 13 5 10h2l-2-11-4-9-8-11-10-8-5-3zm-189 10-17 13-12 9-8 7-11 15-14 22-11 20-9 21-10 30-2 9v6l5-5 11-19 14-24 14-22 9-14 11-17 10-15 11-17 9-14 2-5zm189 8-1 1-2 71v16l5-3 9-10 10-15 7-16 2-8-5-13-8-10-12-10zm223 7 3 7 4 3 13 5 19 13 6 1 2-2-1-5-7-7-13-9-10-4-11-2zm-462 12m452 0-1 1 1 7 8 5 9 2 2 5 7 8 10 7 4-1 4-6-1-4-17-17-6-3-11-3-2-1zm-412 2m-1 1-13 21-9 14-9 15-11 18-15 25-12 21-16 31-9 21-8 24-6 24-2 17v33l2 17 1 3h2l14-38 8-21 10-30 12-40 17-47 13-32 11-26 12-27 9-20zm409 15-1 2 4 10 12 17 8 7h5l3-3-2-6-8-12-11-12zm-168 6-10 26-7 12-8 11-7 7-2 3 2 105 1 104 2 80 1 92 1 63 6-2 25-15 23-13 26-14 17-9v-8l-15-97-26-168-17-110-9-59-1-8zm32 41 4 36 4 37 4-2 13-12-1-6-16-42-5-10zm-70 21-17 14-14 14-6 10-2 9-15 201-8 109-6 105-1 16v15l11-6 27-18 16-10 23-15 1-1-2-159-2-86-1-107-2-91zm107 49-6 23 1 5 6 15 4 15 1 6v19l-7 11-5 4 2 13 6 36 6 47 3 24 3 5 10 9 8 8 1 2h2l-7-50-14-99-11-82-1-9zm-185 180-7 9-10 15-14 19-5 11-41 155-23 86-11 42-20 76-9 31v2l-3-1 4-18 21-80 22-83 15-57 17-64-1-3-28 28-6 10-18 71-41 165-16 65-3 7-6 4-13 4h-12l-10-3-4-1-2 7v8l3 6 2 3h2l-7 35-5 22-5 12-5 5-13 5-10 6-7 7-2 4 9 1h33l10-1 2-7 6 2 5 4h9l16-14-1-2-8 1 5-17 10-33 1-7-2 2-7 17-11 25-1 3-12-2-5-4-4-10v-3l11 9 6 2 5-8 11-27 16-44v-3l-4 2-6 6-10 26-2 4-3 1h-14l-9-3 1-5 7-7 11-9 14-11 16-13 16-15 8-7 15-15 2-5 1-22 4-9 9-6 43-22 19-10 16-10 23-15 6-4 1-2 5-86 5-88 5-108v-49l-4-6-7-6zm199 70 9 84 3 24h17l-6-52-4-34-3-9-12-12zm-386 143-14 15-7 8-7 9-3 7 1 3 7-7 11-14 8-8 7-8 2-4zm248 33-1 1v16l2 36 4-1 3-2v-16l-2-33-1-1zm-187 15-10 12-5 11-20 61-16 50-20 62-4 12v4l5-2 6-7 12-36 20-61 12-38 12-36 10-32zm-74 4-11 5-9 3-1 2-3 32-1 18v62l3 35 4 19 3 6-2 6-7 8-1 7 4-1 7-10 12-21 14-25v-2h-2l-9 11-10 9-4 1-4-23-2-25v-7l7-10 9-14 6-9-1-2-9 7-8 4-8 2 1-20 4-19 8-22 10-24zm208 6-4 62v5l10-5 11-8v-21l-1-22-10-8-4-3zm26 19 1 28 9-5 10-7-1-3-10-7-8-6zm90 20-1 1v41l1 31h1l2-14 2-45v-13zm-9 0-8 4-6 9-6 15-5 19-3 16-4 40-1 21v122l-1 13-5-5-4-11-4-24-2-26v-50l-2 3-3 11-3 23v26l3 23 5 24-5-3-10-9-11-9-7-6-3-1-3 3 2 4 14 11 14 12 1 3-21-12-16-7-15-5-1 1v6l9 4 21 7 15 8-10-2-15-5-19-4h-5l1 3 15 4 5 1-23 2-7 2-4 6-2 7 1 5h13l12-3 6-4 4 1 2 2v6l-40 1-1 10h-23l-8-3-6 1-9 6-1 2 121-1 3-2-12-5-6-5-3-7 8 2 14 1 5-2 1-2v-14l3 2 2 21 12 4 9 1v5h53l-1-3-13-10-9-10h-10l-3 2 5 5 6 7v2l-9-1-10-7-3-3-4 1-6 5-4-1-1-8 7-24 6-29 5-32 7-63 5-62 3-52v-13zm51 36-2 6-2 13-2 31-3 79-2 91v13l2 11 6 8 8 7 11 1v-3l-14-17-2-9 2-38 7-86 8-86v-13l-12-7zm-15 14-5 7-3 8-2 20-11 178 1 8 3 6 9 10 10 8 4 1h7l-2-4-9-9-5-8v-17l5-105 2-50v-52zm-187 32-9 10-5 8-10 41-12 50-9 41-8 24-9 17-11 13-15 9-7 1 12-9 9-12 8-16 6-16 6-21 6-31 4-30 1-15-3-5-2-1-4 23-9 37-6 31-5 16-5 12-7 11-5 7-6 1 2-5 13-18 7-15-1-2-11 12-7 8-7 7-18 12-12 6-8 9-4 7h22l-3-3-8-4-1-4 5-1 17 11 9 1h25l27-1 8-7 9-12 8-14 7-16-1-3-10 15-9 11-10 9-14 8h-6l1-5 10-5 5-4 8-18 11-34 5-19 6-31 3-15 2-4-6 44-7 36-3 15 4-4 8-17 10-27 7-27 2-12 1-14 1-32-1-34zm-152 16m131 8-9 11-3 7-2 37v12l2-3 14-58v-6zm-54 3-2 3-3 23-3 8-6 9-8 8-1 4-1 23-3 24 4-4 13-32 15-37 9-22v-4l-12-3zm16 7-13 41-10 29-9 25-9 20-8 16-16 26-2 4 5-2 12-11 10-8 1-2-7 2 13-19 10-16 10-21 7-20 6-23 4-25v-11l-2-5zm280 19-6 77-2 39v20l3 12 7 9 4 3 6 1 2-1-1-14-3-31-6-96-2-18zm-327 28-7 7-3 10-6 30-6 42 1 4 5-10 10-30 5-24 3-22v-7zm3 7-2 21-4 20-6 21-6 16-8 16-10 16-10 11-1 4 3 2 5-1 11-16 8-14 10-23 7-25 5-26v-19zm36 42-10 18-9 13 1 2 14-14 4-9 1-10zm-71 14m40 27m206 36v7h12l-4-4-5-3z" fill="#fff"/>
<path transform="translate(792,1958)" d="m0 0 6 2 8 3 12 1-1 5-6 8-3 2-6-1-5-5-4-10z" fill="#fff"/>
<path transform="translate(1088,879)" d="m0 0 3 1 6 17 5 19 2 28-1 4-1-2-2-1-1-22-4-20-7-22z" fill="#fff"/>
<path transform="translate(1113,572)" d="m0 0 2 1v2l-27 5h-2l1-3z" fill="#fff"/>
<path transform="translate(1017,982)" d="m0 0 3 1-8 14-1-2z" fill="#fff"/>
<path transform="translate(1067,1990)" d="m0 0" fill="#fff"/>
<path transform="translate(829,1555)" d="m0 0" fill="#fff"/>
<path transform="translate(1085,918)" d="m0 0" fill="#fff"/>
<path transform="translate(715,725)" d="m0 0" fill="#fff"/>
</svg>
